<?xml version="1.0" encoding="UTF-8" standalone="no"?>
<svg
   xmlns:dc="http://purl.org/dc/elements/1.1/"
   xmlns:cc="http://creativecommons.org/ns#"
   xmlns:rdf="http://www.w3.org/1999/02/22-rdf-syntax-ns#"
   xmlns:svg="http://www.w3.org/2000/svg"
   xmlns="http://www.w3.org/2000/svg"
   id="svg7133"
   version="1.1"
   viewBox="0 0 210 297"
   height="297mm"
   width="210mm">
  <defs
     id="defs7127" />
  <metadata
     id="metadata7130">
    <rdf:RDF>
      <cc:Work
         rdf:about="">
        <dc:format>image/svg+xml</dc:format>
        <dc:type
           rdf:resource="http://purl.org/dc/dcmitype/StillImage" />
        <dc:title></dc:title>
      </cc:Work>
    </rdf:RDF>
  </metadata>
  <g
     id="layer1">
    <ellipse
       ry="60.420078"
       rx="60.173473"
       transform="matrix(-0.71186612,-0.70231519,0.75102808,-0.66027027,0,0)"
       cy="-26.651279"
       cx="-176.95683"
       id="path4487-6"
       style="opacity:0.92299996;fill:none;fill-opacity:1;stroke:#000000;stroke-width:1.06248438;stroke-miterlimit:4;stroke-dasharray:none;stroke-opacity:0.88059698" />
    <path
       transform="matrix(1.230011,0,0,0.9917276,-6.2993263,33.302299)"
       id="path4560-4"
       d="m 72.9166,176.88322 c -2.293194,-1.21293 -3.585594,-3.1564 -3.527491,-4.92106 0.02304,-0.69988 0.59753,-1.82439 1.17902,-2.37258 1.829422,-1.72475 4.754109,-2.37163 9.252004,-3.28785 0.994778,-0.20308 2.068112,-0.42594 3.182833,-0.68254 0.662276,-0.15245 1.211519,-0.30943 1.242607,-0.32799 0.03,-0.018 0.161892,-0.31311 0.291811,-0.65752 0.413128,-1.09476 1.036562,-2.5913 1.387038,-3.33253 0.122071,-0.25818 0.191906,-0.45494 0.158387,-0.43756 -0.03383,0.0175 -0.634397,0.58549 -1.384996,1.23041 -1.579845,1.35741 -2.235771,1.69073 -2.800171,1.87351 -0.447418,0.1449 -0.570435,0.15289 -0.916867,0.075 -0.131094,-0.0295 -0.252204,-0.0661 -0.361379,-0.10852 0,0 0,0 0,0 -0.304305,-0.11796 -0.514813,-0.27992 -0.593101,-0.45667 -0.244068,-0.55105 0.724624,-1.95872 1.684061,-2.77524 0,0 0,0 0,0 0.168499,-0.1437 0.337969,-0.26966 0.502526,-0.36905 0.176997,-0.10691 0.293962,-0.20397 0.262773,-0.21392 -0.0365,-0.0116 -0.270377,0.0196 -0.590714,0.0658 -0.215549,0.0314 -1.674255,0.24505 -1.815426,0.26819 -0.390589,0.064 -2.047786,0.4593 -3.768762,0.73666 -2.586923,0.41692 -3.432954,0.33724 -3.729307,0.2754 -0.664186,-0.13861 -1.347263,-0.52051 -1.616363,-0.89298 -0.380497,-0.52665 -0.372682,-1.10672 0.0045,-1.80377 0.376349,-0.69549 1.488759,-1.81237 2.209567,-2.26045 0.115345,-0.0717 0.204189,-0.14388 0.197968,-0.15989 -0.0061,-0.0157 -0.723657,0.21363 -1.618447,0.47828 -2.324148,0.68741 -2.894809,0.63154 -3.495526,0.18459 -0.405104,-0.3014 -0.54968,-0.58189 -0.465713,-0.88215 0.06855,-0.24515 0.439226,-0.73018 0.742236,-0.97818 0.258029,-0.21119 0.283116,-0.18612 -0.740591,-0.0831 -0.88372,0.0889 -1.715349,0.0226 -2.410538,-0.17196 -0.541091,-0.15162 -0.995306,-0.37944 -1.321002,-0.66676 -0.55443,-0.4891 -0.906066,-1.37203 -0.895292,-2.25374 0.0033,-0.27238 0.06927,-0.82209 0.152139,-1.25106 0.151535,-0.78445 0.17854,-1.23128 0.06152,-1.34691 -0.03552,-0.0351 -0.423059,-0.11856 -0.861017,-0.19109 -1.381922,-0.22887 -3.228082,-0.1623 -5.302197,0.15951 -0.617671,0.0958 -1.225829,0.14159 -1.355945,0.10888 -0.19745,-0.0496 -0.282572,-0.1139 -0.557187,-0.43038 -0.486297,-0.55992 -0.479983,-0.6936 0.01126,-1.10109 1.345865,-1.11643 4.079699,-2.17586 8.584717,-3.93255 3.460793,-1.34951 4.525992,-2.05107 4.866838,-2.5994 0.118552,-0.19073 0.164281,-0.35009 0.151133,-0.52556 -0.01678,-0.22387 -0.04288,-0.27213 -0.234792,-0.43764 -0.530017,-0.45712 -1.44036,-0.80161 -2.686909,-1.05445 -1.845682,-0.37439 -4.348372,-0.46804 -7.192703,-0.31715 -2.797882,0.14843 -4.198596,0.35495 -7.808795,1.09597 -1.914283,0.39291 -2.15689,0.33949 -2.67788,-0.4331 -0.551705,-0.81818 -0.343328,-1.36042 0.789316,-2.12623 1.837006,-1.24203 5.915309,-2.40607 8.837129,-2.67289 0.921054,-0.0841 1.42899,-0.0457 1.682081,0.14286 0.351781,0.26211 0.651686,0.76835 0.562237,0.95259 -0.02224,0.0458 -0.64693,0.20522 -1.392581,0.34526 -2.260966,0.42461 -3.718021,0.77762 -5.536969,1.41307 -1.002496,0.35022 -2.758197,1.0633 -2.757145,1.126 3.84e-4,0.0225 0.463975,-0.0304 1.028698,-0.12187 2.421279,-0.39197 4.203922,-0.56187 6.426906,-0.63272 5.628635,-0.17938 9.453309,0.42283 11.087315,2.16897 0.527123,0.56373 0.682388,0.99408 0.540183,1.54256 -0.197157,0.76043 -1.081769,1.50876 -4.01652,2.90086 -0.827653,0.39259 -1.871446,0.87413 -3.078171,1.40163 -1.55979,0.68183 -3.712698,1.66932 -4.345806,2.03273 -0.07199,0.0413 -0.144003,0.0826 -0.216051,0.12383 0.194524,6.1e-4 0.388803,5.1e-4 0.582831,-3.2e-4 2.059964,-0.009 3.812051,0.14545 4.520982,0.48093 0.372402,0.17623 0.808963,0.60756 0.941291,0.93171 0.11729,0.2866 0.08616,0.61795 -0.108193,1.54809 -0.295613,1.41475 -0.145707,2.29011 0.439803,2.80585 0.276689,0.24372 0.732941,0.42634 1.315123,0.53361 1.183034,0.21724 2.838393,0.11648 4.570839,-0.37499 1.162612,-0.32983 2.478505,0.14819 3.303848,1.16121 0.05747,0.0706 0.242431,0.0571 0.753045,-0.0783 0.365004,-0.0967 0.766035,-0.19062 0.873824,-0.19935 0.380116,-0.0308 0.979159,0.35459 0.931115,0.59979 -0.01202,0.0615 -0.297063,0.31411 -0.638805,0.55718 -1.321866,0.94018 -2.041974,1.495 -2.773454,2.27815 -0.411034,0.44007 -0.927253,1.30139 -0.971724,1.64127 -0.03887,0.29653 0.0349,0.57059 0.17542,0.65505 0.184184,0.11071 1.245238,0.19751 3.547858,-0.0919 3.736594,-0.4696 5.020498,-0.84553 6.622023,-0.946 0.171412,-0.0103 0.343716,-0.0191 0.523473,-0.0275 1.372295,-0.0638 1.702363,-0.0724 2.578168,0.13298 0.236608,0.0555 0.473832,0.10822 0.711593,0.15822 0.195542,-0.15718 0.388437,-0.31615 0.578644,-0.47683 0.635075,-0.53648 0.737882,-0.58567 1.242436,-0.46608 0.624876,0.14812 0.668784,0.27108 0.07971,1.85833 -0.454376,1.22429 -1.268528,3.58953 -1.2277,3.63551 0.06202,0.0699 2.469314,-0.80478 4.093693,-1.61756 2.619953,-1.31094 3.507604,-2.18471 3.62945,-2.34113 0.138519,-0.17782 0.326199,-0.38157 0.411682,-0.44404 0.03335,-0.0244 0.07644,-0.0466 0.125855,-0.0663 0.25571,-0.0998 0.690802,-0.13765 0.827218,-0.0507 0.103234,0.0658 0.101079,0.11447 -0.07905,0.53245 -0.208973,0.48496 -0.400522,0.99617 -0.572397,1.53297 -0.268333,0.84388 -0.49194,1.75639 -0.656556,2.73408 -0.220078,1.30718 -0.342324,1.6333 0.798839,-0.2755 0.02126,-0.0356 0.04226,-0.0708 0.063,-0.10564 1.525893,-2.55725 1.777905,-3.17522 2.581395,-3.31857 0.603118,-0.1076 0.855278,0.0225 1.484041,0.71732 0.645887,0.71373 1.250451,1.04967 1.985351,1.11588 0.71568,0.0645 1.29269,-0.2859 2.07259,-1.3732 0.68773,-0.95874 1.1082,-1.8896 1.14591,-2.36403 0.0667,-0.83849 0.55915,-1.49652 1.36272,-1.85129 0.33886,-0.14988 0.4079,-0.2035 0.44918,-0.33294 0.0272,-0.0852 0.0754,-0.14401 0.17513,-0.20425 0.036,-0.0216 0.0786,-0.0433 0.12917,-0.0665 0.42901,-0.19718 0.52984,-0.1789 0.6907,0.15458 0.12333,0.25567 0.17279,0.29887 0.43644,0.36769 0.35157,0.0918 0.81275,0.0419 1.13863,-0.12392 0.28253,-0.14344 0.74138,-0.52334 1.13758,-0.95365 0.0964,-0.10473 0.19229,-0.20981 0.28757,-0.31525 -0.0382,-0.12691 -0.0767,-0.25373 -0.11531,-0.38045 -0.62668,-2.05556 -0.92495,-4.98516 -0.77298,-6.7957 0.0714,-0.8508 0.28383,-1.95603 0.41078,-2.04663 0.0352,-0.0251 0.0702,-0.13931 0.0774,-0.25387 0.007,-0.11444 0.0298,-0.21748 0.0505,-0.22893 0.11466,-0.0631 0.14903,-0.1308 0.10116,-0.19692 -0.0419,-0.0579 -0.0322,-0.0724 0.0438,-0.0657 0.14386,0.0126 0.18566,-0.039 0.11341,-0.13773 -0.0421,-0.0575 -0.0308,-0.11174 0.0324,-0.15904 0.053,-0.0396 0.0935,-0.1233 0.0901,-0.18592 -0.003,-0.0625 0.007,-0.0966 0.0244,-0.0756 0.0167,0.0211 0.0466,-0.0226 0.0657,-0.0969 0.0526,-0.20422 0.57692,-0.7192 0.9199,-0.90559 0.67243,-0.36545 1.23389,-0.31398 1.65305,0.19086 0.28597,0.34442 0.42185,0.6979 0.55209,1.53873 0.34977,2.25813 -0.38008,6.06019 -1.77981,8.38622 -0.13092,0.21757 -0.23631,0.44606 -0.23111,0.50702 0.0138,0.16189 0.4572,1.26702 0.72504,1.802 0.32401,0.64705 1.00262,1.54057 1.45567,1.89638 0.66718,0.52404 1.42951,0.75235 1.95982,0.58793 0.20455,-0.0634 0.27601,-0.11911 0.53438,-0.43208 1.01032,-1.22366 1.73694,-3.32821 1.93681,-6.35536 0.0422,-0.63854 0.024,-1.19853 -0.0306,-1.3716 -0.1317,-0.41726 -0.15929,-1.02137 -0.0625,-1.34563 0.0697,-0.23361 0.13221,-0.32352 0.35973,-0.52124 0.1785,-0.15512 0.30144,-0.23003 0.35053,-0.21084 0.0416,0.0162 0.10671,0.24001 0.14271,0.49823 0.1019,0.73051 0.31035,1.16657 0.92786,1.88559 0.46733,0.5435 0.56885,0.63132 0.86433,0.73608 0.45455,0.1611 0.83147,0.12593 1.08508,-0.0995 0.67136,-0.59657 1.32668,-2.58691 1.40693,-4.46335 0.0189,-0.44107 0.003,-1.24395 -0.0436,-1.90146 -0.0882,-1.25029 -0.0597,-1.55828 0.28033,-2.1439 0.35166,-0.60568 0.90358,-1.10158 1.45285,-1.2993 0.15454,-0.0556 0.27988,-0.11368 0.27854,-0.12815 -0.001,-0.0159 -0.0625,-0.42122 -0.14225,-0.90355 -0.0794,-0.48046 -0.13984,-0.91116 -0.12867,-0.95807 0.0166,-0.07 0.0877,-0.17639 0.17712,-0.28217 0,0 0,0 0,0 0.13825,-0.16618 0.32214,-0.33201 0.41752,-0.3516 0.23382,-0.048 0.31047,0.0524 0.5444,0.81344 0.0463,0.15056 0.092,0.29693 0.13746,0.43978 0,0 0,0 0,0 0.56765,1.80157 1.09008,2.96179 1.98394,4.25333 0.45539,0.65798 1.26575,1.3899 1.75588,1.56808 0.44753,0.16268 0.8759,0.1518 1.14012,-0.0287 0.18658,-0.12742 0.24883,-0.21315 0.49239,-0.71126 0.0753,-0.15394 0.14622,-0.31522 0.2167,-0.49779 0.22328,-0.57674 0.50456,-1.55013 0.84852,-3.23824 0.86102,-4.22575 1.32548,-7.30564 1.87406,-9.96213 0.26746,-1.30845 0.53829,-2.45426 0.83342,-3.60772 0.50946,-1.99108 1.16065,-3.95963 1.65849,-4.58682 0.30173,-0.38012 0.78671,-0.57034 0.79674,-0.28371 0.009,0.24484 -0.0824,0.43233 -0.1889,0.40133 -0.1178,-0.0343 -0.49835,0.30496 -0.71006,0.62234 -0.15563,0.23332 -0.73027,1.81875 -0.91062,2.50637 -0.41133,1.5685 -0.78885,3.1942 -1.1579,5.12608 -0.49587,2.57173 -0.95,5.5319 -1.63045,9.20741 -0.36927,1.99464 -0.74011,3.28495 -1.09294,4.07782 -0.29196,0.65846 -0.60632,1.06928 -1.01508,1.43275 -0.79128,0.70362 -1.6811,0.7248 -2.67043,0.0895 -0.70885,-0.45522 -1.50842,-1.50067 -2.08623,-2.66127 -0.12645,-0.25399 -0.24766,-0.4571 -0.26807,-0.45235 -0.0204,0.005 -0.0228,0.21761 -0.007,0.47379 0.043,0.69892 -0.0823,1.73814 -0.25024,2.10957 -0.16899,0.37385 -0.55858,0.80448 -0.85944,0.95184 -0.29174,0.14285 -0.60677,0.0664 -0.89037,-0.21142 l -0.23767,-0.23285 c -0.0138,0.26751 -0.0292,0.53549 -0.0463,0.80391 -0.0863,1.35552 -0.44573,2.63215 -0.9657,3.5048 -0.33134,0.55607 -1.18918,1.3202 -1.68163,1.50219 -0.69309,0.25613 -1.32343,0.15191 -1.95832,-0.30928 -0.0874,-0.0634 -0.1746,-0.12696 -0.26175,-0.1906 -0.0128,0.19184 -0.0265,0.38388 -0.0412,0.57612 -0.093,1.2171 -0.31728,2.28425 -0.7338,3.44935 -0.45787,1.2808 -0.83304,1.90888 -1.40513,2.47555 -0.41143,0.40753 -1.17136,0.85653 -1.68395,0.99669 -0.86296,0.23595 -1.86321,-0.0418 -2.73399,-0.75197 -0.42939,-0.35019 -0.47572,-0.41756 -1.1622,-1.62597 -0.7025,-1.23734 -0.71678,-1.25659 -0.82474,-1.15622 -0.91082,0.84652 -1.48605,1.15262 -2.57981,1.39054 -0.13543,0.0294 -0.15701,0.06 -0.13535,0.19325 0.0146,0.0897 0.038,0.45323 0.0492,0.82026 0.004,0.13569 0.004,0.26935 5e-5,0.40042 -0.0285,0.99875 -0.29376,1.83707 -0.70348,2.23716 -0.1831,0.1788 -0.31582,0.25465 -0.67369,0.37729 -0.38368,0.1315 -0.48315,0.1393 -0.70863,0.0693 -0.35705,-0.11093 -0.56766,-0.36393 -0.78119,-0.92282 -0.0601,-0.15706 -0.12019,-0.31412 -0.18025,-0.4712 -0.061,0.11534 -0.1226,0.23056 -0.18492,0.34566 -0.10861,0.20059 -0.3481,0.57692 -0.56585,0.88128 -0.86658,1.21131 -2.17483,1.74925 -3.52858,1.46149 -0.692915,-0.14728 -1.118736,-0.40137 -1.784175,-1.09472 -0.337419,-0.35156 -0.635104,-0.63064 -0.672247,-0.61412 -0.115604,0.0514 -0.732111,1.07519 -1.140193,1.85026 -0.067,0.12726 -0.799024,1.56064 -0.91956,1.79985 -0.155552,0.3087 -0.296698,0.57642 -0.42076,0.8007 -0.666332,1.205 -0.908367,1.32849 -1.503388,1.38612 -0.581357,0.0563 -0.916861,-0.0519 -1.066677,-0.3225 -0.181309,-0.32749 -0.138127,-1.78546 0.05014,-2.63064 0.177021,-0.79448 0.485758,-1.83791 0.70098,-2.37315 0.08918,-0.22178 0.137444,-0.39445 0.110665,-0.38376 -0.02698,0.0108 -0.793348,0.53417 -1.776108,1.10413 -1.133516,0.65738 -2.416778,1.25999 -3.54406,1.68946 -0.955251,0.36391 -1.818002,0.63766 -1.874537,0.66164 -0.106716,0.0452 -0.465901,1.365 -1.101664,3.8254 -0.909367,3.51919 -1.963243,5.65018 -3.780989,7.24687 -1.377161,1.20968 -3.066886,1.78008 -4.987094,1.62934 -0.190587,-0.015 -0.387807,-0.0382 -0.589411,-0.0694 -1.020687,-0.16563 -2.113724,-0.5264 -2.996826,-0.99351 1.92e-4,-3e-5 3.83e-4,-7e-5 5.74e-4,-1.1e-4 z m 2.010809,0.34844 c 0.393234,0.0716 0.787752,0.0956 1.178698,0.0727 0,0 0,0 0,0 1.47481,-0.0928 2.853561,-0.84328 3.987004,-2.16667 1.265094,-1.4771 2.06491,-3.17977 3.194537,-6.77587 0.184756,-0.58836 0.473772,-1.49701 0.569079,-1.78538 0.112567,-0.34071 0.194804,-0.63207 0.184045,-0.64681 -0.05949,-0.0814 -2.708475,0.63122 -4.42944,0.99068 -0.254505,0.053 -0.490468,0.10236 -0.685978,0.14577 -3.428108,0.76123 -5.850302,1.5125 -7.415241,2.96904 -0.504192,0.46925 -1.154799,1.75702 -1.161863,2.34975 -0.0072,0.62039 0.357152,1.72773 0.780932,2.32571 0.925897,1.30653 2.373133,2.26156 3.798115,2.52106 3.7e-5,2e-5 7.5e-5,3e-5 1.12e-4,4e-5 z m 7.038449,-14.11316 c 0.281581,-0.15599 0.768942,-0.47628 1.162694,-0.77174 1.463031,-1.0978 2.26926,-1.90205 2.276979,-1.9368 0.02079,-0.0936 -0.531632,-0.18686 -0.862519,-0.14802 -0.659279,0.0773 -1.503266,0.63916 -2.158063,1.4343 -0.359704,0.43681 -1.039755,1.41811 -1.099005,1.60082 -0.0573,0.1767 0.07235,0.15805 0.679904,-0.17853 z m -12.094563,-6.62245 c 0.782172,-0.15325 3.169539,-0.81717 3.190859,-0.84989 0.0056,-0.009 -0.0548,-0.11862 -0.133209,-0.24484 -0.196056,-0.3157 -0.42833,-0.45615 -0.869641,-0.53006 -0.609571,-0.10213 -1.31068,0.1279 -2.114325,0.69303 -0.469861,0.33041 -1.129118,1.03249 -0.989106,1.06507 0.05093,0.0118 0.46314,-0.0447 0.915412,-0.1333 z m 36.543895,4.36954 c 0.27205,-0.85245 0.33095,-1.80615 0.18926,-2.69464 -0.0768,-0.48132 -0.13557,-0.54867 -0.43115,-0.53629 -0.19339,0.008 -0.22359,0.0257 -0.37698,0.21358 -0.45075,0.55225 -0.46429,1.64746 0.005,2.80812 0.32193,0.79496 0.41368,0.83595 0.61368,0.20924 z m 18.88395,-14.88363 c 0.0854,-0.97146 -0.0369,-2.98122 -0.17798,-3.10379 -0.10847,-0.0942 -0.55894,0.0157 -0.80465,0.19386 -0.31892,0.23125 -0.45609,0.54583 -0.43801,1.00103 0.0292,0.73418 0.52044,2.08942 0.96113,2.6073 0.0876,0.10294 0.17514,0.20593 0.26262,0.30899 0.0255,-0.084 0.0508,-0.16799 0.0759,-0.25198 0.0421,-0.1408 0.0965,-0.47664 0.121,-0.75542 -1e-5,0 -1e-5,0 -1e-5,10e-6 z m -13.55399,7.52058 c 0.4586,-0.996 0.92893,-2.5648 1.11253,-3.70224 0.52694,-3.26445 -0.21791,-5.09066 -1.31795,-4.93426 -0.3287,0.0467 -0.42233,0.14108 -0.61884,0.60199 -0.63259,1.48379 -0.68759,3.83471 -0.23454,6.51768 0.11404,0.67531 0.47698,2.32389 0.53716,2.42183 0.0366,0.0596 0.17558,-0.15341 0.52164,-0.905 z m 6.07632,-4.82141 c -0.19873,0.0411 -0.17081,-0.12424 0.0543,-0.36458 0.13119,-0.14 0.2437,-0.21545 0.35577,-0.23727 0.16201,-0.0315 0.16392,-0.0306 0.1136,0.1221 -0.0618,0.18817 -0.33868,0.44161 -0.52392,0.47994 7e-5,-6e-5 1.3e-4,-1.3e-4 2e-4,-1.9e-4 z"
       style="display:inline;fill:#000000;stroke-width:0.06840494" />
    <path
       id="path4596-5"
       d="m 102.11077,165.01408 c -2.803405,-1.13289 -3.794115,-1.70683 -4.794815,-2.77775 -0.88782,-0.95011 -1.52661,-2.61492 -1.36654,-3.56143 0.10938,-0.64665 0.0337,-0.63489 -1.96979,0.30662 -2.715467,1.27607 -3.477453,1.2934 -8.169155,0.1857 -3.895925,-0.9198 -7.479422,-2.26561 -10.439251,-3.92053 -2.034206,-1.1374 -4.217073,-3.65505 -5.458369,-6.2956 -0.640611,-1.36273 -1.654089,-3.00587 -2.252182,-3.65143 -1.971638,-2.1281 -1.940423,-2.0692 -1.247036,-2.35343 0.335271,-0.13745 1.997969,-1.28902 3.69489,-2.55903 3.069899,-2.2976 3.099855,-2.3114 5.998564,-2.76239 1.602307,-0.24929 2.705212,-0.54446 2.4509,-0.65594 -0.254313,-0.11146 -0.664603,-0.81233 -0.911764,-1.55749 -0.423025,-1.2754 -1.114675,-7.76983 -1.318895,-12.38411 -0.104721,-2.36717 -0.383276,-3.53052 -1.075757,-4.49334 -0.655677,-0.91166 -0.547104,-1.19667 0.386675,-1.01488 0.867925,0.16897 2.785956,-0.62622 3.778515,-1.56653 0.887953,-0.84123 4.38216,-2.16283 6.268371,-2.37089 1.883683,-0.20777 4.288215,0.25004 5.515113,1.0501 0.871272,0.56814 0.837114,0.57256 -1.332199,0.17272 -1.427778,-0.26318 -2.79273,-0.31469 -3.80516,-0.14364 -1.727055,0.29177 -6.130158,1.81189 -7.715209,2.66359 -0.549823,0.29543 -1.389745,0.5444 -1.866463,0.55326 -1.018338,0.0189 -1.024266,0.0317 -0.540838,1.17062 0.494681,1.16542 0.543492,1.51634 0.809461,5.8181 0.254502,4.11687 0.710077,8.64852 0.95933,9.54274 0.144911,0.51988 0.225542,0.54884 0.695023,0.24955 0.897994,-0.57249 2.74057,-0.69109 5.429862,-0.34953 l 2.57236,0.3267 -0.387016,-1.13739 c -0.907282,-2.66643 -1.567655,-5.79928 -1.413984,-6.70801 0.091,-0.53808 0.51652,-1.45418 0.945573,-2.03574 1.070256,-1.4507 4.071747,-3.96325 6.084329,-5.09323 2.100712,-1.17945 2.795422,-2.02278 2.209602,-2.68231 -0.64084,-0.72146 -0.4169,-0.92498 0.26049,-0.23672 0.65817,0.6687 0.86467,0.39223 0.53154,-0.71167 -0.27269,-0.90351 0.94787,-3.61821 2.57864,-5.73527 1.57036,-2.03865 2.881935,-2.80221 7.934875,-4.61946 1.68593,-0.60632 7.78291,-1.83347 8.45723,-1.70219 0.37342,0.0727 -0.13439,0.51766 -0.93315,0.81768 -1.10185,0.41385 -1.01078,0.63978 0.69484,1.72396 1.48707,0.94523 2.39733,2.01705 4.79613,5.64743 l 1.82702,2.76498 1.65317,0.13893 c 1.89022,0.15886 5.80695,1.66089 6.70179,2.57008 1.44558,1.46875 3.39594,4.93262 3.63249,6.45131 0.13403,0.86056 0.33262,2.12816 0.44131,2.81688 l 0.19765,1.25226 3.41499,0.56485 c 5.19291,0.85885 8.66833,2.8834 11.82606,6.88909 0.86719,1.10008 1.816,2.13574 2.10845,2.30148 0.29244,0.16577 0.47845,0.38181 0.41332,0.48014 -0.0651,0.0983 -0.54982,0.77753 -1.07711,1.50933 -0.52733,0.7318 -1.7477,2.77931 -2.71194,4.55004 -2.0179,3.70563 -3.15652,5.08291 -5.50849,6.66319 -1.5123,1.01609 -2.0411,1.17142 -5.27719,1.55012 -4.77254,0.55851 -6.87381,0.51839 -9.15149,-0.1747 -1.5395,-0.46847 -1.83035,-0.48992 -1.63852,-0.12087 0.12827,0.24678 0.17202,1.3382 0.0972,2.42537 -0.12196,1.77312 -0.25346,2.16935 -1.27648,3.84793 -1.27786,2.09669 -2.84622,3.81579 -4.16011,4.5599 -2.79125,1.58079 -8.77855,3.404 -10.51053,3.20059 l -1.30846,-0.15371 1.29615,-0.006 c 0.71287,-0.004 2.08573,-0.25659 3.0508,-0.56272 l 1.7547,-0.5566 -1.26116,-0.40588 c -0.69362,-0.22322 -1.66743,-0.82245 -2.16403,-1.33164 l -0.90289,-0.92577 -0.87662,0.65975 c -1.55759,1.1722 -3.80152,1.67451 -5.82067,1.30295 -2.60714,-0.47971 -1.3331,0.2751 2.15566,1.27723 2.49597,0.71697 2.56441,0.75306 0.80357,0.42382 -1.0586,-0.19806 -2.76116,-0.69789 -3.7834,-1.11098 z m 4.87575,-1.31869 c 0.86933,-0.38304 1.81094,-0.94036 2.09244,-1.2385 0.43202,-0.45752 0.57653,-0.46969 0.92669,-0.078 1.11478,1.24679 2.64368,2.15637 3.66404,2.1798 2.58734,0.0594 5.14649,-1.12435 7.50012,-3.46929 2.14903,-2.1411 2.6977,-3.02003 3.24279,-5.19456 0.41526,-1.65669 0.42356,-2.10586 0.0583,-3.15986 -0.23421,-0.67576 -0.62505,-1.39788 -0.86856,-1.60471 -0.37309,-0.3169 -0.5482,-0.19457 -1.11314,0.7773 -0.92407,1.58972 -2.44359,2.6845 -4.02183,2.89759 -1.78049,0.24042 -8.3759,-0.41275 -10.44275,-1.03417 -0.91232,-0.2743 -2.4586,-1.0123 -3.43619,-1.64001 -0.97755,-0.62771 -2.01082,-1.12234 -2.29615,-1.09917 -0.92285,0.0749 -0.46219,-0.48489 0.99248,-1.20616 l 1.41912,-0.70364 0.0856,-1.65226 c 0.14593,-2.81701 -0.10334,-2.79309 -1.81272,0.17389 -0.67118,1.16507 -1.4424,2.96264 -1.71375,3.99461 -0.77152,2.93393 -1.618825,4.38251 -3.036815,5.19186 -1.43398,0.81848 -1.8503,1.60275 -1.65186,3.1118 0.12953,0.98487 0.33357,1.20588 2.24046,2.42664 1.832095,1.17288 2.382715,1.38621 4.344575,1.68321 1.99152,0.3015 2.42604,0.26103 3.82719,-0.35631 z M 87.976913,158.7569 c 3.970902,0.4772 4.037559,0.47366 6.010732,-0.31828 1.82608,-0.73288 5.7803,-3.13107 5.32648,-3.23044 -0.10611,-0.023 -1.42844,0.27371 -2.93855,0.65983 -4.132915,1.05679 -7.432371,0.85339 -14.129156,-0.87097 -4.743474,-1.2214 -5.342258,-1.44268 -7.341901,-2.71314 -1.197457,-0.76079 -2.666346,-1.81351 -3.264199,-2.33938 -0.597867,-0.52588 -1.14078,-0.91628 -1.206495,-0.8676 -0.285226,0.21136 2.037504,3.06778 3.367083,4.14071 1.9571,1.5793 3.570584,2.51821 6.413335,3.73197 2.889039,1.23353 2.783451,1.20894 7.762671,1.8073 z m 2.889886,-2.58218 c 2.269996,0.0752 4.636116,-0.32226 8.168176,-1.37219 0.50875,-0.15123 0.76113,-0.64795 1.428195,-2.8109 0.89678,-2.90772 1.85372,-4.78998 3.19883,-6.29186 0.79958,-0.89276 0.95378,-1.32358 1.50977,-4.21804 0.38883,-2.02405 0.51647,-3.24725 0.34307,-3.28694 -0.317,-0.0721 2.05013,-1.10468 2.38802,-1.04127 0.12234,0.0229 0.12486,0.15774 0.006,0.29949 -0.12678,0.15063 -0.0173,0.21745 0.26351,0.16083 0.38448,-0.0775 0.41566,-0.16078 0.15612,-0.41664 -0.17836,-0.17583 -0.20007,-0.29948 -0.0482,-0.27473 0.15179,0.025 0.56762,0.0193 0.92392,-0.0124 1.13955,-0.0999 0.60219,0.63107 -0.65907,0.89661 -0.82062,0.17279 -1.09108,0.34573 -0.87464,0.55928 0.39473,0.38944 2.2765,0.77165 3.54154,0.71931 0.92105,-0.0382 0.89797,-0.0607 -0.51716,-0.50639 l -1.48125,-0.46646 1.56428,0.25511 c 1.02905,0.16778 1.59069,0.38998 1.64146,0.64941 0.05,0.25547 0.17458,0.30644 0.35375,0.14468 0.42294,-0.3817 3.30604,-1.01993 5.45382,-1.20728 1.05785,-0.0923 2.35103,-0.38261 2.87372,-0.64517 1.00645,-0.50553 2.69717,-2.40697 2.82797,-3.18036 0.15882,-0.93917 -1.4808,-3.42256 -3.44997,-5.22533 -1.68651,-1.54404 -2.22212,-1.87397 -3.42098,-2.10736 l -1.42139,-0.27674 0.45285,-1.82769 c 0.44607,-1.80039 0.29632,-3.43033 -0.37458,-4.07676 -0.57092,-0.55011 -1.79756,2.72885 -3.28103,8.77049 -0.16526,0.67289 -0.16624,0.35477 -0.003,-0.75906 0.15519,-1.05459 0.68054,-3.20481 1.16756,-4.77828 0.76264,-2.46403 1.00079,-2.93322 1.71705,-3.38284 0.45736,-0.28713 1.16402,-0.45433 1.57037,-0.37155 0.81524,0.16562 2.48977,1.34658 3.21732,2.26807 0.25699,0.32549 -0.19274,0.0481 -0.99938,-0.61661 -2.17752,-1.79413 -3.39142,-1.81983 -2.55072,-0.054 0.22325,0.46889 0.20373,1.23625 -0.0653,2.56653 -0.36859,1.82261 -0.3577,1.90404 0.27497,2.0588 0.36229,0.0887 0.97232,0.24148 1.35558,0.33973 1.49233,0.38251 5.69359,4.9685 5.86673,6.40392 0.13384,1.10954 0.58487,0.62772 0.82859,-0.88517 0.46141,-2.86393 0.30176,-4.17178 -0.66797,-5.47084 -0.48844,-0.65433 -1.43528,-1.68463 -2.1041,-2.28959 l -1.21605,-1.09994 0.31657,-2.00315 c 0.24164,-1.52914 0.2131,-2.31055 -0.12045,-3.30202 -0.44595,-1.32568 -2.26665,-3.78676 -3.61177,-4.88213 -0.4114,-0.33498 -1.92506,-2.18157 -3.3637,-4.10353 -1.8834,-2.5161 -2.55592,-3.63212 -2.40215,-3.98624 0.27865,-0.64171 -0.50475,-0.61274 -3.61639,0.13375 -4.89067,1.17325 -7.56504,2.82517 -10.854805,6.70486 -1.3648,1.60951 -1.75043,2.27274 -1.94352,3.34254 l -0.24092,1.33462 1.32121,0.1728 1.32121,0.17282 0.41633,1.69723 c 0.37231,1.51782 0.35135,2.08552 -0.19826,5.3706 -0.78616,4.69914 -0.76257,5.01003 0.39778,5.23592 1.01246,0.19712 1.66316,1.1717 2.523805,3.77998 0.27437,0.83151 0.64861,1.8141 0.83164,2.18351 0.23211,0.46847 0.14136,0.41185 -0.3,-0.18715 -0.67791,-0.92005 -0.83156,-0.83896 -0.4989,0.26332 0.51364,1.70196 -2.504645,-2.9727 -3.191275,-4.94258 l -0.75333,-2.16119 0.58261,-3.44504 c 0.69731,-4.12321 0.89818,-4.0758 -3.58508,-0.84617 -2.829254,2.03813 -3.261341,2.47734 -5.041737,5.12469 -1.408184,2.09388 -2.002741,3.23824 -2.147626,4.13349 -0.202041,1.24511 0.09553,2.35764 0.65876,2.4673 0.166825,0.0324 0.387332,0.3374 0.490013,0.67761 0.295447,0.979 1.478568,1.30962 3.98004,1.11226 2.27511,-0.1795 2.30152,-0.17462 5.22912,0.96483 1.61835,0.62989 3.149345,1.35002 3.402215,1.6003 0.44072,0.43623 0.43837,0.44265 -0.0569,0.15527 -0.28416,-0.16484 -1.834255,-0.81128 -3.444695,-1.43644 -2.34049,-0.90855 -3.18687,-1.121 -4.21773,-1.05874 -0.709297,0.0429 -1.412853,0.15924 -1.563426,0.25867 -0.755779,0.49906 3.399956,2.60984 5.274316,2.67894 0.67189,0.0248 1.76813,-0.0488 2.43611,-0.1636 0.66796,-0.11468 1.06864,-0.10056 0.89038,0.0316 -0.17827,0.13209 -1.16353,0.30417 -2.18944,0.38238 -1.57679,0.12013 -2.12767,0.0359 -3.56138,-0.54445 -0.93285,-0.37768 -2.124756,-1.03635 -2.648713,-1.46374 -0.523957,-0.42739 -1.35912,-0.85672 -1.855916,-0.95406 -0.496808,-0.0973 -1.268448,-0.52458 -1.714771,-0.94942 -0.792682,-0.75452 -0.849622,-0.7675 -2.458249,-0.56003 -0.90571,0.11679 -2.73887,0.56722 -4.073686,1.00091 -1.467845,0.47693 -3.028349,0.75597 -3.948852,0.70612 -2.60248,-0.14093 -4.26762,0.50261 -6.951184,2.68652 -1.337144,1.08818 -2.744282,2.08637 -3.126967,2.21819 -0.382685,0.13182 -0.712028,0.33574 -0.73189,0.45317 -0.01989,0.11741 0.481881,0.73597 1.114952,1.37454 0.633071,0.63858 1.586738,1.78808 2.119254,2.55445 2.24935,3.23714 5.990911,5.69097 10.534433,6.90877 5.031731,1.34866 7.881264,1.87682 10.614293,1.96738 z m -5.469119,-8.411 c 0.14326,-0.11196 1.375934,-0.2303 2.739284,-0.26307 4.023262,-0.0967 7.389931,-1.42342 7.659681,-3.01852 0.0495,-0.29182 0.24185,-0.59439 0.42777,-0.67239 0.23125,-0.097 0.23907,0.0666 0.0247,0.51792 -1.09998,2.31609 -3.717724,3.42131 -8.286946,3.49879 -0.919205,0.0156 -1.930846,0.0536 -2.248106,0.0846 -0.317247,0.0308 -0.459641,-0.0353 -0.316405,-0.14727 z m -7.767607,-4.29663 c -0.153319,-0.15247 0.792153,-0.0822 2.10109,0.15601 1.859265,0.33846 2.130971,0.43724 1.242026,0.45191 -1.45975,0.0239 -2.986939,-0.25374 -3.34313,-0.60786 z m 24.611117,0.77552 c -0.0446,-0.259 0.10774,-0.84381 0.33851,-1.29958 l 0.4196,-0.82863 -0.25125,0.9468 c -0.13823,0.52073 -0.13931,0.8619 -0.003,0.75806 0.27559,-0.20929 0.57794,-1.2389 0.69807,-2.37701 0.0783,-0.74294 0.0779,-0.74289 -0.78644,0.0744 -0.47567,0.44981 -0.97949,0.79549 -1.11958,0.76822 -0.56776,-0.11047 -0.0477,-0.90882 1.08128,-1.65953 0.65919,-0.43836 1.43825,-1.15599 1.73126,-1.59477 l 0.53274,-0.79774 0.0812,0.77441 c 0.16431,1.56749 -0.25618,3.25972 -0.93496,3.7627 -0.35674,0.26433 -0.66668,0.58753 -0.68879,0.71822 -0.0221,0.1307 -0.26013,0.45986 -0.52894,0.73148 -0.40685,0.41112 -0.50235,0.41497 -0.56984,0.0229 z m 2.37529,-3.38851 c 0.0978,-0.51352 0.0821,-1.02594 -0.035,-1.13869 -0.27615,-0.26608 -0.86995,1.53131 -0.80485,2.43621 0.0474,0.66018 0.0668,0.66931 0.35609,0.16727 0.16823,-0.2921 0.3859,-0.95123 0.4837,-1.46475 z m -2.22883,0.51859 c 0.13805,-0.24317 0.1119,-0.37006 -0.0613,-0.29745 -0.16599,0.0696 -0.32284,0.25101 -0.34857,0.40306 -0.0714,0.42256 0.14112,0.36776 0.40976,-0.10564 z m -1.25216,-1.82108 c 0.003,-0.12467 0.0298,-0.3106 0.0602,-0.41322 0.0307,-0.10267 -0.46326,-0.21247 -1.09755,-0.2442 -1.569395,-0.0784 -1.235195,-0.72338 0.51747,-0.99859 1.07851,-0.16935 1.1984,-0.24986 0.72246,-0.48518 -0.52046,-0.25735 -0.52648,-0.32674 -0.0684,-0.78931 0.38395,-0.3877 0.82303,-0.44514 1.86428,-0.24392 0.74915,0.1447 1.37548,0.18624 1.39188,0.092 0.15578,-0.89599 -0.0977,-3.5805 -0.32919,-3.48335 -0.44226,0.18555 0.33805,-1.71369 0.87599,-2.13226 0.68084,-0.5297 0.7384,-0.10936 0.1051,0.76745 -0.45855,0.63483 -0.52434,0.92909 -0.35453,1.58604 0.20566,0.7958 0.21676,0.78893 0.82895,-0.51395 0.34126,-0.72629 0.73687,-1.29788 0.87914,-1.27017 0.41914,0.0816 0.12586,1.07618 -0.68899,2.33611 -0.41787,0.64616 -0.83973,1.63107 -0.93746,2.18867 l -0.17789,1.0138 1.65549,-1.333 c 1.48988,-1.19966 1.91571,-1.71453 1.34608,-1.62756 -0.10951,0.0167 -0.0515,-0.41579 0.12877,-0.96112 0.50325,-1.52233 -0.15567,-1.3077 -0.74177,0.24161 -0.32548,0.8604 -0.47311,1.06586 -0.4111,0.57213 0.13409,-1.06748 0.96562,-2.56357 1.31198,-2.3604 0.15736,0.0924 0.30136,0.4759 0.31999,0.85241 0.0326,0.65763 0.0594,0.65301 0.68196,-0.11728 0.36919,-0.45681 0.87772,-0.75715 1.18177,-0.69796 0.66757,0.12998 0.62285,0.37467 -0.21419,1.17208 -0.77798,0.74107 -0.95833,1.25952 -0.30019,0.8629 0.25297,-0.15243 0.59148,-0.15044 0.75224,0.005 0.18017,0.1736 0.24142,0.14323 0.1597,-0.0793 -0.14677,-0.39955 0.78913,-0.81881 1.51316,-0.67785 0.39054,0.076 0.39477,0.1521 0.0269,0.48259 -0.70795,0.63602 -2.60986,1.14518 -2.85636,0.76466 -0.13979,-0.2158 -0.40166,-0.0712 -0.73398,0.40454 -0.28415,0.40701 -0.97083,1.12378 -1.52593,1.59283 l -1.00929,0.85283 1.31114,-0.79407 c 1.52362,-0.92273 3.91509,-1.95601 4.33697,-1.87388 0.16027,0.0312 0.34782,0.21025 0.41673,0.39786 0.14394,0.39187 -0.5384,1.09566 -0.97907,1.00987 -0.1928,-0.0375 -0.16031,-0.1581 0.0933,-0.34598 0.21403,-0.1586 0.40783,-0.39877 0.43066,-0.53371 0.0443,-0.26168 -0.63006,-0.0723 -1.62128,0.45521 -0.56109,0.29865 -0.52479,0.33266 0.48973,0.45884 0.60264,0.0751 1.57561,0.12922 2.16214,0.12063 1.19115,-0.0176 1.37053,0.42945 0.29935,0.74593 -0.61364,0.18129 -0.6254,0.2093 -0.13575,0.32339 0.97947,0.22819 -0.28326,0.78564 -1.59844,0.70563 -1.26366,-0.0769 -1.52017,-0.4095 -0.51783,-0.67143 0.44112,-0.1153 0.16727,-0.24139 -1.03064,-0.4746 -0.89724,-0.17469 -1.63139,-0.19189 -1.63144,-0.0383 -1.5e-4,0.34373 -2.65667,0.91854 -3.70514,0.80169 -0.4211,-0.0469 -1.23522,-0.13911 -1.80915,-0.20492 l -1.04351,-0.11952 1.05161,0.49096 c 0.5784,0.27003 1.27797,0.47356 1.55458,0.45231 0.77008,-0.0592 0.55064,0.28969 -0.79231,1.25969 -1.11883,0.80809 -2.17045,1.03989 -2.15867,0.4758 z m 1.73589,-0.51483 c 0.5914,-0.39667 0.69359,-0.53968 0.29944,-0.4191 -0.95389,0.29183 -1.87998,0.8681 -1.52354,0.94805 0.17946,0.0406 0.73037,-0.19777 1.2241,-0.52895 z m -1.50986,-0.45408 c 1.93733,-0.27053 1.90472,-0.25578 1.35135,-0.61167 -0.28142,-0.18099 -0.58877,-0.2507 -0.68297,-0.15487 -0.0943,0.0957 -0.70201,0.29315 -1.35066,0.43859 -1.330695,0.29837 -0.829845,0.53914 0.68227,0.32799 z m 10.90568,-1.37126 c -0.0746,-0.1153 -0.30985,-0.17191 -0.52244,-0.12568 -0.23493,0.0512 -0.18163,0.13341 0.1359,0.20977 0.28734,0.0691 0.46128,0.0313 0.38654,-0.0841 z m -1.7336,-1.0361 c 0.0247,-0.14644 -0.21382,-0.24525 -0.53019,-0.21955 -0.31638,0.0256 -0.5838,0.0973 -0.59429,0.15933 -0.0101,0.0619 0.22812,0.16075 0.53021,0.21956 0.30208,0.0588 0.56951,-0.0129 0.59427,-0.15934 z m -0.52651,-4.30506 c -0.15093,-0.23297 -1.55157,1.50679 -1.63801,2.0346 -0.0399,0.24255 0.33633,-0.0793 0.8357,-0.71524 0.49935,-0.63597 0.8604,-1.2297 0.80231,-1.31936 z m 1.76188,1.23792 c -0.0694,-0.10688 -0.30612,-0.0598 -0.52636,0.10465 -0.31827,0.23773 -0.29243,0.27762 0.12593,0.19438 0.28949,-0.0576 0.46967,-0.19218 0.40043,-0.29908 z m -16.172005,1.46668 c -1.81619,-1.87789 -3.814539,-5.4283 -3.278763,-5.8253 0.104596,-0.0774 0.25284,0.19755 0.329568,0.61114 0.199751,1.07686 2.599225,4.5927 3.777295,5.53474 0.54973,0.43957 0.79958,0.76575 0.55525,0.72481 -0.24437,-0.0406 -0.86684,-0.51134 -1.38335,-1.04539 z m 7.548005,-0.45182 c -0.13322,-1.0392 -0.1007,-1.77545 0.0845,-1.91265 0.49341,-0.3656 0.74572,1.04701 0.42532,2.38132 l -0.2932,1.22093 z m 11.46259,1.44511 c 0.0297,-0.17604 1.22613,-1.2934 3.22051,-3.00787 1.24011,-1.06606 0.55217,-0.18978 -1.17916,1.50197 -1.42853,1.39588 -2.10744,1.89672 -2.04135,1.5059 z m -9.63571,-7.55224 c 0.15139,-0.51667 0.45533,-1.55549 0.67546,-2.3085 0.2552,-0.87311 0.69435,-1.61211 1.21208,-2.03984 l 0.81188,-0.67072 -0.77671,0.99644 c -0.47495,0.60934 -0.95766,1.72685 -1.24253,2.87654 -0.25624,1.03405 -0.57599,1.92632 -0.71062,1.98279 -0.13461,0.0565 -0.12096,-0.32003 0.0305,-0.83671 z m 6.24607,-7.6286 c 0.0133,-0.0789 0.44278,-0.3537 0.95427,-0.61063 0.5115,-0.25694 0.91093,-0.35446 0.88764,-0.21672 -0.0233,0.13774 -0.4527,0.41252 -0.95426,0.61064 -0.50154,0.19811 -0.90097,0.29564 -0.88765,0.21671 z m 3.3651,34.00819 c 1.94767,0.14215 4.0038,0.14995 4.56918,0.0173 1.51845,-0.35613 2.58768,-1.6023 4.14805,-4.83439 1.21039,-2.50716 1.41355,-3.14763 1.52617,-4.81164 0.11995,-1.77223 0.0824,-1.9167 -0.48932,-1.88284 -1.99561,0.11815 -5.50082,-0.21622 -6.70061,-0.63924 -0.7595,-0.26779 -1.57047,-0.54564 -1.80221,-0.61742 -0.23584,-0.0731 -1.47812,0.84863 -2.82232,2.09401 -2.4121,2.23484 -5.36288,4.33703 -8.3901,5.97731 -0.89575,0.48535 -1.55139,0.98941 -1.45697,1.12012 0.16996,0.23534 3.0481,1.92193 4.06404,2.38157 1.06574,0.48217 3.9032,0.94329 7.35409,1.19517 z m -4.80597,-8.61342 c 2.73454,-2.16188 4.61558,-3.91097 4.692,-4.3629 0.0232,-0.13732 -0.58449,-0.3717 -1.35049,-0.52083 -0.87181,-0.16973 -1.51892,-0.46595 -1.73012,-0.79201 -0.18559,-0.28646 -0.60744,-0.56856 -0.93746,-0.62691 -0.58703,-0.10391 -0.58719,-0.0949 -0.008,0.41327 0.4437,0.38834 0.48846,0.54671 0.17748,0.62789 -0.22875,0.0597 -0.14356,0.0914 0.18927,0.0705 0.36591,-0.023 0.82483,0.24729 1.16082,0.6839 l 0.55567,0.72205 -0.99616,-0.29233 c -0.9591,-0.28146 -1.91347,-1.10614 -1.57251,-1.35879 0.25443,-0.18852 -0.59651,-1.06859 -1.14741,-1.18668 -0.4333,-0.0924 -0.42943,0.0753 0.0325,1.43802 0.28766,0.84873 0.7694,1.84565 1.07055,2.21536 0.83165,1.021 0.38213,1.00426 -0.59596,-0.0222 -0.47359,-0.49702 -0.78362,-0.96108 -0.68893,-1.03124 0.25229,-0.18696 -0.277,-1.85059 -0.83609,-2.62796 -0.26556,-0.36924 -0.49895,-0.57607 -0.51865,-0.45961 -0.0529,0.3131 0.30833,1.42264 0.69187,2.12485 0.38761,0.70968 0.29547,2.69549 -0.13344,2.87544 -0.15947,0.0669 -0.34453,0.44433 -0.41123,0.83874 -0.15654,0.92561 -0.91911,0.80704 -0.97921,-0.15224 -0.0244,-0.39101 0.0248,-0.88539 0.1095,-1.09856 0.20597,-0.51834 -0.75731,-0.92214 -1.13979,-0.4778 -0.16591,0.19273 -0.33596,0.61685 -0.37786,0.94247 -0.0622,0.48278 -0.0147,0.46401 0.25662,-0.1018 0.24558,-0.51196 0.26283,-0.26999 0.0658,0.92312 -0.14716,0.88926 -0.21872,2.21133 -0.15971,2.93781 l 0.10724,1.32087 0.89057,-0.44738 c 0.48985,-0.24604 2.10167,-1.40479 3.58185,-2.57499 z m 0.60764,-3.27477 c -0.28856,-0.36945 -0.508,-0.77016 -0.48766,-0.89048 0.0204,-0.12038 0.21967,0.0221 0.44292,0.3163 0.7599,1.00165 1.16471,1.21112 0.71731,0.37117 l -0.43062,-0.80841 0.59442,0.58654 c 0.32692,0.3226 0.61635,0.7498 0.64316,0.94935 0.0761,0.56607 -0.89722,0.22106 -1.47953,-0.52447 z m 23.19958,10.00407 c 1.19084,-0.12249 2.90303,-0.28676 3.8049,-0.36498 1.77109,-0.15361 3.5946,-1.11507 5.5664,-2.93497 1.11314,-1.02739 1.79809,-2.08643 4.57609,-7.07523 0.71269,-1.27983 1.53522,-2.60219 1.82784,-2.93857 0.29261,-0.33637 0.44601,-0.7392 0.34085,-0.89517 -0.54026,-0.80121 -6.68769,-5.77107 -8.69496,-7.02937 -1.26951,-0.79585 -2.17428,-1.42772 -2.01058,-1.40419 0.63478,0.0913 3.96606,2.24938 5.98262,3.87566 1.16367,0.93847 1.98907,1.46598 1.83425,1.17224 -0.4991,-0.94687 -2.34703,-2.45156 -4.68721,-3.81658 -2.13155,-1.24334 -2.52958,-1.37453 -6.00298,-1.97857 -4.07924,-0.70942 -4.95159,-0.60552 -9.04668,1.07737 -1.72481,0.70882 -1.75658,0.74202 -1.98448,2.07348 -0.29926,1.75051 -1.65794,3.77338 -3.32824,4.95668 -0.98553,0.69818 -1.71767,0.94052 -3.04307,1.00724 -1.75758,0.0885 -6.02968,1.16559 -6.40851,1.61578 -0.11215,0.13323 0.26296,0.3569 0.83351,0.49703 0.57058,0.1401 1.40008,0.37464 1.84336,0.52109 3.86074,1.27568 8.18262,1.96362 9.8487,1.56769 0.75657,-0.1798 0.29489,4.45109 -0.58927,5.91065 -0.75558,1.24731 -0.94043,2.11205 -0.47643,2.22896 0.1871,0.0468 1.05003,0.41643 1.91775,0.82067 2.0492,0.95461 5.16594,1.39396 7.89614,1.11309 z m -14.41866,-12.32402 c 0.54003,-0.4003 4.88204,0.23353 5.49214,0.80172 0.33824,0.31501 -0.0989,0.26498 -1.75468,-0.20078 -1.41312,-0.39752 -2.55468,-0.5617 -3.17834,-0.45715 -0.78958,0.13238 -0.89507,0.10527 -0.55912,-0.14384 z m -12.1702,3.67982 c -0.1837,-0.28357 -0.2705,-0.26652 -0.32641,0.0642 -0.0988,0.58398 0.20371,1.05089 0.41426,0.63949 0.0894,-0.17453 0.0498,-0.49117 -0.0879,-0.70364 z m 0.84716,-1.50781 c -0.003,-0.45106 -0.21648,-1.33689 -0.47603,-1.96857 -0.25952,-0.63167 -0.43236,-1.38219 -0.38405,-1.66783 0.0545,-0.3228 -0.1192,-0.55966 -0.4592,-0.62585 -0.53122,-0.10341 -0.5401,-0.0679 -0.30714,1.22983 0.13192,0.73498 0.32361,1.48235 0.42598,1.66083 0.10233,0.17848 0.1347,0.62856 0.0719,1.00018 -0.1339,0.79177 0.30294,0.99756 0.60385,0.28444 0.11391,-0.26988 0.12574,-0.14518 0.0263,0.27711 -0.11315,0.48023 -0.0529,0.74199 0.16091,0.69888 0.19795,-0.0399 0.33992,-0.41388 0.33754,-0.88901 z m -24.648274,-6.05096 c 1.812553,-0.38594 3.251121,-0.82274 3.196772,-0.97069 -0.05425,-0.14795 -0.888693,-0.42278 -1.854103,-0.61073 -3.032113,-0.59031 -6.340531,-0.2313 -6.49891,0.70521 -0.07489,0.44342 1.081332,1.61078 1.574918,1.58996 0.157147,-0.006 1.768731,-0.32782 3.581323,-0.71375 z m 23.231064,5.63853 c 0.0278,-0.20319 -0.10799,-0.87825 -0.30174,-1.5001 l -0.35234,-1.13063 -0.1514,0.82493 c -0.17006,0.92628 0.0881,2.04544 0.48994,2.12367 0.14573,0.0284 0.28773,-0.11469 0.31554,-0.31788 z m -19.898559,-9.74438 c 0.04355,-0.25786 0.655025,-1.33364 1.358708,-2.39057 0.703682,-1.05696 1.598858,-2.40436 1.989284,-2.99423 0.626464,-0.94648 3.301782,-3.01576 7.104992,-5.49552 l 1.23176,-0.80312 -0.40305,-1.58108 c -0.52806,-2.07148 -1.09377,-2.26441 -2.9331,-1.00026 -0.78152,0.53714 -2.355817,1.53173 -3.498447,2.21021 -2.140778,1.27117 -4.63967,3.45252 -5.783055,5.04818 -0.841357,1.17418 -0.890594,2.47192 -0.198141,5.22227 0.521669,2.07205 0.964289,2.77023 1.131049,1.78412 z m 13.773629,0.28315 c -0.709115,-1.70068 -1.507345,-2.8727 -2.025215,-2.97351 -0.66493,-0.12946 -0.66783,0.10131 -0.0215,1.70646 0.74707,1.85558 1.57646,2.86263 2.075955,2.52065 0.29538,-0.20225 0.28867,-0.49126 -0.0292,-1.2536 z m 29.51787,-3.53616 2.44099,-0.71889 -0.3094,-2.25601 c -0.47493,-3.46292 -0.74387,-3.99275 -2.53574,-4.99568 -0.85515,-0.47862 -2.13358,-0.98493 -2.84098,-1.1251 -1.1975,-0.23771 -1.31362,-0.33855 -1.68524,-1.47047 -0.6642,-2.02304 -1.3696,-2.58542 -3.70703,-2.95524 l -0.92111,-0.14573 0.61781,1.25819 c 0.76455,1.55706 0.94927,2.80564 0.77437,5.23469 -0.13049,1.81252 -0.0996,1.91443 0.77942,2.56238 1.28909,0.95032 2.83276,3.24509 2.87178,4.26904 0.08,2.10353 0.0192,2.01967 1.0986,1.51651 0.53654,-0.25013 2.07398,-0.7783 3.41652,-1.17368 z M 84.217227,114.68646 c 0.427114,-0.22723 3.525851,-0.5364 4.640953,-0.46305 0.667119,0.0438 0.615275,0.002 -0.250021,-0.19902 -2.251579,-0.52472 -6.54359,0.38089 -8.314848,1.7544 -0.829679,0.64336 -0.742956,0.63614 1.349579,-0.11246 1.22993,-0.43999 2.38838,-0.88094 2.574337,-0.97987 z m 44.935243,4.61104 c -1.18564,-1.6548 -1.56942,-1.98028 -2.99731,-2.54196 -0.90067,-0.35429 -1.71549,-0.65934 -1.81074,-0.67788 -0.0953,-0.0186 0.17384,0.71645 0.59801,1.6333 0.7,1.51316 0.8725,1.6872 1.86886,1.88566 0.60378,0.11989 1.62209,0.51435 2.26303,0.87577 0.64094,0.36143 1.22667,0.67193 1.30164,0.69002 0.0749,0.0181 -0.47563,-0.82111 -1.22349,-1.86491 z M 97.793555,110.738 c 0.76106,-0.84284 1.72676,-1.87529 2.14596,-2.29436 0.719755,-0.71947 0.694905,-0.71587 -0.44606,0.0649 -0.66456,0.45476 -1.71662,1.54714 -2.33791,2.42753 -1.33731,1.89501 -1.2188,1.85822 0.63801,-0.19806 z m 19.614415,0.75941 c -1.79992,-2.63975 -4.20036,-5.16442 -4.61685,-4.85582 -0.0803,0.0595 0.17917,0.49468 0.57656,0.96712 0.39739,0.4724 1.46778,1.78779 2.37861,2.92304 0.91086,1.13527 1.97855,2.36256 2.37266,2.7273 0.39413,0.36476 0.69905,0.76687 0.6776,0.89362 -0.0214,0.12673 0.11656,0.25453 0.30657,0.284 0.1901,0.029 -0.57279,-1.29322 -1.69515,-2.93926 z m -24.958803,4.13603 c -0.20009,-0.20074 -0.240203,-0.34091 -0.08924,-0.31151 0.151043,0.0294 0.438321,0.2177 0.638397,0.41844 0.200071,0.20073 0.240191,0.34092 0.08924,0.3115 -0.151055,-0.0293 -0.438333,-0.2177 -0.638397,-0.41843 z"
       style="display:inline;fill:#000000;stroke-width:0.28867152" />
    <path
       transform="matrix(1.2586598,0.00394552,-0.00400981,1.2384775,-117.69665,159.07873)"
       id="path4609-8"
       d="m 160.14508,-48.458702 c -1.16531,0.387074 -2.42082,0.204225 -3.52609,-0.549362 -0.56945,-0.388254 -0.6661,-0.500167 -1.22688,-1.499943 -0.55182,-0.983818 -0.61253,-1.151513 -0.6156,-1.81608 -0.0119,-2.586893 3.01612,-4.797221 5.70503,-4.175997 0,0 0,0 0,0 0.2176,0.05047 0.43024,0.119723 0.63588,0.208551 1.09812,0.474355 1.64544,1.121111 2.03136,2.257818 0.45822,1.349702 0.26404,2.63533 -0.3519,3.624544 -0.5488,0.875467 -1.44338,1.549074 -2.6518,1.950469 z m 1.65366,-1.551876 c 0.3308,-0.383774 0.53972,-0.854427 0.62892,-1.369887 0,0 0,0 0,0 0.18752,-1.091404 -0.1571,-2.421543 -1.12833,-3.460121 -0.0933,-0.09973 -0.19094,-0.192309 -0.29255,-0.277761 -1.70359,-1.433034 -4.49508,-0.781858 -5.20478,1.351843 -0.38366,1.153467 0.15457,2.591541 1.21184,3.615663 1.55286,1.50417 3.59432,1.52149 4.7849,0.140263 z m 43.94616,8.278071 c -0.0205,-0.233044 -0.0454,-2.166196 -0.21328,-4.340229 -0.10173,-1.317597 -0.24794,-2.646313 -0.44128,-3.982775 -0.52723,0.801271 -1.05402,1.602828 -1.58038,2.40467 -1.11195,1.693871 -1.56944,2.468029 -1.55158,2.608308 0.0141,0.110689 0.19695,0.312349 0.40456,0.448722 0.30891,0.202916 0.35047,0.276846 0.23502,0.393711 -0.1276,0.129076 -0.27489,0.04923 -1.18271,-0.494983 -0.98514,-0.590555 -1.04999,-0.620144 -0.93677,-0.807059 0.0875,-0.144526 0.19759,-0.152531 0.45175,-0.02781 0.11183,0.05488 0.22353,0.110148 0.3351,0.16581 0.61327,-0.963573 1.22707,-1.926817 1.84138,-2.889733 0.61435,-0.962898 1.22921,-1.925466 1.8446,-2.887703 -0.14846,-0.106628 -0.29746,-0.212636 -0.44699,-0.318016 -0.32754,-0.230841 -0.43256,-0.365504 -0.38456,-0.506495 0.0565,-0.166196 0.17033,-0.137361 0.98281,0.374539 0.30407,0.191561 0.60637,0.385709 0.90687,0.582385 0.0407,0.260843 0.0797,0.521405 0.11691,0.781661 0.0822,0.575091 0.28479,2.106049 0.41678,4.021589 0.074,1.073478 0.11888,2.139254 0.13614,3.195535 0.55928,-0.706854 1.11892,-1.413399 1.67892,-2.119634 0.9248,-1.166272 1.69798,-2.18494 1.71995,-2.269664 0.0225,-0.08806 -0.13249,-0.285087 -0.37068,-0.466623 -0.34271,-0.261194 -0.39021,-0.340734 -0.27654,-0.49307 0.12163,-0.162985 0.2128,-0.1413 1.26838,0.687671 1.01557,0.797554 1.0891,0.910712 0.95319,1.019152 -0.10319,0.08228 -0.29075,0.04252 -0.53977,-0.111214 -0.12748,-0.0787 -0.25521,-0.156934 -0.38321,-0.234698 -0.78727,0.96055 -1.57365,1.921908 -2.35913,2.884074 -1.54781,1.896007 -2.39494,2.87412 -2.47169,2.846882 -0.0647,-0.02295 -0.13315,-0.232007 -0.15364,-0.464956 -5e-5,-1.4e-5 -1e-4,-2.9e-5 -1.5e-4,-4.4e-5 z m -59.12023,2.307848 c -0.11268,-0.119312 -0.0892,-0.229534 0.0979,-0.439726 0.0831,-0.09329 0.16639,-0.186356 0.25002,-0.279202 -0.28944,-0.348628 -0.5785,-0.69761 -0.86719,-1.046946 -0.4671,-0.565327 -1.49752,-1.749249 -2.24878,-2.581791 -0.46116,-0.511029 -0.92219,-1.02218 -1.3831,-1.533452 -0.12523,0.115193 -0.24996,0.230829 -0.3742,0.346901 -0.31043,0.290018 -0.39655,0.322707 -0.52653,0.185078 -0.13911,-0.147295 -0.0979,-0.227565 0.57765,-0.849742 0.24623,-0.226761 0.49435,-0.451822 0.74436,-0.675112 1.04242,0.433352 2.07273,0.885562 3.08944,1.356566 1.67756,0.77716 3.03256,1.451225 3.06284,1.429125 0.061,-0.04451 -0.23647,-0.906248 -0.99256,-4.291894 -0.16969,-0.759875 -0.3285,-1.524518 -0.47598,-2.293766 0.28935,-0.212252 0.58074,-0.422029 0.87415,-0.629245 0.81019,-0.572173 0.89969,-0.594256 1.01368,-0.426891 0.10605,0.155716 0.0554,0.23417 -0.28599,0.470413 -0.27816,0.192482 -0.39794,0.349325 -0.37109,0.477934 0.0224,0.107358 0.85618,1.339966 1.85645,2.748309 1.32481,1.86528 1.86933,2.565881 2.00656,2.588884 0.1042,0.01746 0.32812,-0.06538 0.49715,-0.18263 0.24591,-0.170579 0.33471,-0.174294 0.43605,-0.02549 0.12689,0.186299 0.0563,0.215574 -1.01493,0.990262 -0.89005,0.64369 -1.14941,0.819244 -1.2686,0.745932 -0.19546,-0.120178 -0.16555,-0.245135 0.12039,-0.460751 0.44526,-0.335762 0.41535,-0.403306 -1.34571,-2.795027 -0.90372,-1.227364 -1.65317,-2.168216 -1.66409,-2.085204 -0.0159,0.120482 0.93714,4.380576 1.46666,6.122933 0.25354,0.834274 0.39489,0.699153 -3.04324,-0.888639 -1.01904,-0.470615 -2.02582,-0.893162 -2.47713,-1.065012 -0.23821,-0.09071 -0.47708,-0.18036 -0.71659,-0.268952 5e-5,5.1e-5 1.86131,2.07697 1.86136,2.07702 2.06017,2.298151 1.92153,2.200915 2.51801,1.676795 0.23704,-0.20829 0.3244,-0.223984 0.44366,-0.08676 0.14447,0.166223 0.084,0.212353 -0.78874,1.00054 -0.86317,0.779527 -0.92743,0.842664 -1.07199,0.689602 3e-5,-2.1e-5 5e-5,-4.3e-5 8e-5,-6.4e-5 z m 21.88099,-12.215675 c -0.0399,-0.182151 0.0277,-0.25271 0.35143,-0.349008 0.13403,-0.03987 0.26832,-0.07905 0.40288,-0.117528 -0.21061,-1.118445 -0.42039,-2.237048 -0.62934,-3.35581 -0.20896,-1.118762 -0.41708,-2.237681 -0.62437,-3.356758 -0.20561,0.0285 -0.4111,0.05838 -0.61645,0.08965 -0.47582,0.07246 -0.6354,0.05538 -0.70545,-0.094 -0.0563,-0.119988 0.0272,-0.315319 3.00844,-0.74452 2.71723,-0.391199 3.31242,-0.290185 3.7435,-0.154768 2.01956,0.634411 2.79896,2.516112 2.23969,4.413143 -0.40069,1.359065 -1.11523,2.176743 -2.34138,2.795094 -0.63179,0.318605 -0.78168,0.289033 -2.70692,0.652397 -2.04808,0.386549 -2.0648,0.483474 -2.1221,0.222117 3e-5,-6e-6 5e-5,-1.1e-5 7e-5,-1.7e-5 z m 4.66736,-1.407131 c 1.11705,-0.659859 1.60661,-1.535327 1.54832,-3.030574 -0.03,-0.770601 -0.0875,-0.998044 -0.41904,-1.530886 -0.73279,-1.177731 -2.07921,-1.743409 -3.95466,-1.531252 -0.56705,0.06415 -1.05873,0.164245 -1.09658,0.209614 -0.0385,0.04624 0.17694,1.525698 0.47675,3.292985 0.42245,2.489948 0.58191,3.22852 0.70309,3.286374 0.0856,0.0409 0.58455,-0.01688 1.10614,-0.115368 0.78096,-0.147457 1.06846,-0.245658 1.63596,-0.580891 1e-5,-10e-7 1e-5,-10e-7 2e-5,-2e-6 z m 6.98761,0.61805 c 0.0145,-0.17018 0.10911,-0.219725 0.43792,-0.217002 0.13985,0.0012 0.27975,0.0031 0.41971,0.0057 l 0.35601,-3.365507 0.35601,-3.365507 c -0.20352,-0.03356 -0.40743,-0.06587 -0.61171,-0.09691 -0.50767,-0.07713 -0.61111,-0.125258 -0.59658,-0.308272 0.0106,-0.133806 0.14946,-0.320512 3.47332,0.190421 1.14388,0.175833 2.27921,0.39041 3.40461,0.641855 -0.0222,0.100836 -0.0445,0.201671 -0.0667,0.302506 -0.0364,0.165493 -0.0891,0.571139 -0.11745,0.897211 -0.0471,0.541273 -0.0753,0.588762 -0.29571,0.539872 -0.20141,-0.04467 -0.238,-0.166789 -0.21989,-0.710805 0.007,-0.219223 0.0141,-0.438507 0.0204,-0.65785 -0.59665,-0.136918 -1.19638,-0.263299 -1.79898,-0.378842 -1.61548,-0.309752 -1.8445,-0.279843 -1.9649,-0.131784 -0.16993,0.20897 -0.39545,2.134675 -0.28505,2.356827 0.0513,0.103233 0.46188,0.195306 1.27499,0.327182 1.30563,0.211756 1.45611,0.200049 1.5832,-0.453794 0.0347,-0.178417 0.12333,-0.270524 0.23934,-0.247502 0.15393,0.03055 0.13933,0.257839 -0.0841,1.361657 -0.22353,1.104113 -0.29761,1.318575 -0.44197,1.289936 -0.12731,-0.02526 -0.1493,-0.160591 -0.0815,-0.509587 0.0509,-0.261811 0.0404,-0.547216 -0.0244,-0.63561 -0.074,-0.101043 -0.53562,-0.2428 -1.28524,-0.363899 -1.46268,-0.236293 -1.43913,-0.218957 -1.64753,1.595451 -0.2324,2.023259 -0.39326,1.727698 1.60078,2.031168 1.06951,0.162767 1.74411,0.259363 1.84297,0.195804 0.0826,-0.05307 0.22407,-0.29515 0.31338,-0.536335 0.12882,-0.347859 0.20996,-0.428983 0.38746,-0.388097 0.18697,0.04307 0.20041,0.102312 0.0864,0.350796 -0.0773,0.168471 -0.22811,0.540549 -0.34221,0.845655 -0.0682,0.182342 -0.13607,0.364777 -0.20363,0.547308 -0.94892,-0.217579 -1.90325,-0.402092 -2.86164,-0.551693 -2.77336,-0.432912 -2.89112,-0.281369 -2.86741,-0.560416 0,0 1.7e-4,1.8e-5 1.7e-4,1.8e-5 z m 10.02084,2.249957 c -0.12426,-0.253063 0.0684,-0.375449 0.42318,-0.253212 0.12485,0.04302 0.24957,0.08658 0.37413,0.130665 0.36822,-1.077313 0.73576,-2.154839 1.10262,-3.232579 0.36688,-1.077728 0.73309,-2.155669 1.09863,-3.233822 -0.1557,-0.07413 -0.31184,-0.147565 -0.46842,-0.220288 -0.32427,-0.150612 -0.46459,-0.277798 -0.45038,-0.417014 0.0161,-0.158063 0.19613,-0.184908 2.15754,0.542665 2.45096,0.909171 2.96153,1.354233 3.29601,2.212655 0.54956,1.410434 -0.29005,2.465403 -1.72066,2.492088 -0.22083,0.0041 -0.44112,0.0096 -0.66086,0.01659 0.18633,0.668901 0.35848,1.337921 0.51682,2.006585 0.45145,1.906378 0.42719,1.99833 0.79543,2.22205 0.28135,0.170935 0.33753,0.264082 0.26031,0.41658 -0.0911,0.179835 -0.17217,0.153012 -0.85353,-0.180009 -0.25224,-0.123287 -0.50532,-0.244467 -0.7592,-0.363497 -0.12321,-0.724812 -0.26181,-1.450719 -0.41627,-2.17717 -0.15446,-0.72645 -0.32477,-1.453445 -0.51139,-2.180434 -0.22064,-0.08978 -0.44184,-0.178046 -0.66358,-0.264777 -0.22173,-0.08673 -0.444,-0.171925 -0.6668,-0.255563 -0.17145,0.488714 -0.34322,0.977324 -0.51531,1.465828 -0.17209,0.488505 -0.3445,0.976905 -0.51722,1.4652 0.19875,0.08743 0.39695,0.176207 0.59459,0.266311 0.50873,0.231941 0.57862,0.305181 0.50805,0.478491 -0.0836,0.205291 -0.15741,0.151759 -1.47384,-0.341436 -0.76737,-0.287486 -1.4246,-0.54451 -1.44984,-0.595905 0,-10e-7 -1e-5,-2e-6 -1e-5,-2e-6 z m 4.75836,-2.481494 c 0.89665,0.127639 1.58717,-0.389109 1.70184,-1.352832 0.0983,-0.826126 -0.75853,-1.884823 -1.82209,-2.194166 -0.14238,-0.04141 -0.28489,-0.08225 -0.42752,-0.122505 -0.18983,0.469759 -0.37936,0.939629 -0.56857,1.409609 -0.31187,0.774644 -0.5641,1.482793 -0.56159,1.569134 0.006,0.190514 0.99961,0.594185 1.67787,0.690735 2e-5,9e-6 4e-5,1.7e-5 6e-5,2.5e-5 z"
       style="display:inline;fill:#000000;stroke-width:0.12044788" />
    <ellipse
       ry="39.947571"
       rx="45.166058"
       cy="138.79785"
       cx="106.71381"
       id="path4652"
       style="opacity:0.92299996;fill:none;fill-opacity:1;stroke:#000000;stroke-width:0.65922606;stroke-miterlimit:4;stroke-dasharray:none;stroke-opacity:0.88059698" />
    <path
       id="path5307"
       d="m 63.35287,107.6173 c 0,0 -8.887442,12.95407 -9.931002,21.74443 -0.186811,1.57357 -1.385011,8.50923 -1.234097,10.1636 1.039797,11.39847 2.839299,24.6458 5.838248,27.43272"
       style="fill:none;stroke:#000000;stroke-width:0.33086154;stroke-linecap:butt;stroke-linejoin:miter;stroke-miterlimit:4;stroke-dasharray:0, 0.33086156, 0.66172314, 0.9925847, 1.32344627, 1.65430783, 1.9851694, 2.31603097, 2.64689253, 2.97775411, 3.30861567, 3.63947723, 3.9703388, 4.30120037, 4.63206194;stroke-dashoffset:0;stroke-opacity:1" />
    <path
       id="path5309-7-0"
       d="m 147.13994,106.14087 c 0,0 13.88792,15.72436 14.26839,31.07432 0.38052,15.34998 -0.5707,22.65058 -10.65372,34.63106"
       style="fill:none;stroke:#000000;stroke-width:0.33086154;stroke-linecap:butt;stroke-linejoin:miter;stroke-miterlimit:4;stroke-dasharray:0, 0.33086156, 0.66172315, 0.99258473, 1.32344629, 1.65430787, 1.98516945, 2.31603102, 2.64689258, 2.97775418, 3.30861575, 3.63947731, 3.97033887, 4.30120047, 4.63206204;stroke-dashoffset:0;stroke-opacity:1" />
  </g>
</svg>
