<?xml version="1.0" standalone="no"?>
<!DOCTYPE svg PUBLIC "-//W3C//DTD SVG 20010904//EN"
 "http://www.w3.org/TR/2001/REC-SVG-20010904/DTD/svg10.dtd">
<svg version="1.0" xmlns="http://www.w3.org/2000/svg"
 width="1280.000000pt" height="960.000000pt" viewBox="0 0 1280.000000 960.000000"
 preserveAspectRatio="xMidYMid meet">
<metadata>
Created by potrace 1.15, written by Peter Selinger 2001-2017
</metadata>
<g transform="translate(0.000000,960.000000) scale(0.100000,-0.100000)"
fill="#000000" stroke="none">
<path d="M6895 9163 c-13 -34 -4 -40 79 -52 46 -7 132 -23 192 -36 112 -23
123 -22 124 16 0 12 -30 21 -137 42 -218 42 -251 46 -258 30z"/>
<path d="M5225 9075 c-5 -2 -76 -24 -157 -49 -123 -39 -148 -50 -148 -66 0
-10 4 -21 9 -25 6 -3 76 15 156 40 80 25 152 45 160 45 19 0 27 16 20 40 -6
19 -17 23 -40 15z"/>
<path d="M7611 8988 c-5 -13 -8 -24 -7 -25 0 0 66 -25 145 -53 116 -42 145
-50 152 -39 22 35 14 40 -173 105 -53 19 -100 34 -103 34 -3 0 -9 -10 -14 -22z"/>
<path d="M6045 8983 c-1247 -82 -2373 -743 -3015 -1768 -296 -472 -480 -1019
-530 -1573 -18 -193 -8 -627 19 -802 57 -381 160 -721 317 -1047 31 -65 64
-139 74 -166 10 -26 30 -62 45 -80 15 -17 71 -99 125 -182 424 -647 1059
-1154 1800 -1438 136 -52 400 -137 427 -137 6 0 14 -4 17 -8 3 -5 -45 -21
-107 -36 -62 -16 -166 -46 -231 -68 l-120 -39 -60 22 c-57 20 -60 21 -73 3
-19 -26 -17 -29 26 -44 l40 -13 -57 -37 c-121 -78 -177 -164 -177 -270 0 -87
36 -160 114 -232 204 -189 551 -230 766 -90 108 70 222 208 271 326 11 26 26
46 34 46 8 0 74 -7 145 -15 72 -8 154 -15 183 -15 48 0 52 2 52 24 0 22 -4 23
-82 30 -96 7 -282 28 -286 31 -2 2 10 47 27 101 16 55 35 119 41 143 11 43 12
43 48 37 20 -3 122 -10 225 -16 379 -23 844 26 1217 126 736 198 1397 602
1877 1146 46 53 94 99 106 102 39 9 97 80 127 154 16 39 55 110 88 159 351
522 560 1156 591 1790 59 1223 -500 2370 -1515 3109 -657 477 -1489 740 -2318
732 -100 -1 -203 -3 -231 -5z m470 -73 c947 -60 1787 -426 2444 -1065 602
-586 967 -1330 1062 -2165 20 -170 17 -572 -5 -745 -53 -422 -163 -789 -343
-1149 -69 -139 -172 -320 -178 -314 -2 2 0 33 5 69 5 36 23 198 40 360 60 585
82 693 145 735 43 28 27 64 -19 43 -64 -30 -101 -191 -161 -719 -19 -168 -45
-372 -57 -454 l-22 -149 -88 -118 c-49 -66 -95 -119 -103 -119 -20 0 -105 70
-148 123 -55 67 -112 165 -158 270 -47 107 -59 122 -88 112 -37 -11 -43 -38
-26 -106 17 -64 12 -78 -22 -79 -23 0 -92 -71 -103 -106 -9 -27 -9 -63 1 -155
10 -94 10 -138 1 -201 -11 -79 -48 -176 -79 -210 -19 -22 -64 -23 -102 -4 -51
27 -121 126 -136 194 -7 36 -20 40 -53 16 -25 -17 -29 -70 -12 -154 10 -54 -3
-220 -25 -305 -37 -143 -111 -255 -169 -255 -49 0 -112 38 -170 102 -53 58
-126 189 -126 226 0 10 14 44 30 74 91 168 129 438 85 597 -52 183 -229 154
-292 -47 -37 -122 -17 -417 42 -607 l22 -74 -26 -24 c-77 -73 -145 -86 -190
-37 -25 28 -30 29 -59 19 -18 -6 -32 -15 -32 -19 0 -5 -20 -18 -45 -30 -50
-24 -79 -65 -90 -125 -16 -91 -124 -243 -188 -264 -55 -18 -117 7 -193 78 -60
56 -68 61 -110 61 -60 0 -78 -20 -191 -206 -47 -79 -88 -142 -89 -141 -8 8 41
215 72 302 46 132 46 129 2 133 -31 3 -42 -3 -75 -37 -50 -49 -150 -114 -273
-176 -95 -48 -302 -136 -308 -130 -2 1 24 78 58 170 62 173 72 228 44 239 -38
15 -73 5 -119 -33 -45 -37 -48 -38 -88 -29 -68 16 -267 1 -427 -33 -296 -61
-408 -81 -506 -86 -89 -5 -102 -4 -107 12 -18 46 89 173 246 292 105 80 117
102 67 123 -25 10 -41 9 -95 -5 -64 -18 -66 -18 -88 2 -73 67 -151 75 -312 33
-94 -25 -141 -32 -220 -32 -186 -1 -237 50 -201 206 25 108 22 139 -19 175
-20 17 -37 32 -38 32 -1 1 -87 4 -191 8 l-190 6 275 124 c439 198 567 267 628
337 79 89 -3 191 -190 238 -205 51 -719 35 -1127 -35 -63 -10 -119 -19 -125
-19 -20 1 160 67 282 104 64 19 177 49 251 66 197 45 210 49 210 66 0 8 -11
26 -25 39 -21 22 -33 25 -94 25 -184 0 -603 -114 -787 -215 l-62 -33 -60 126
c-172 359 -275 724 -324 1147 -19 164 -15 560 6 730 72 577 259 1080 577 1555
140 209 250 342 444 536 297 298 596 515 965 700 608 304 1287 445 1945 404z
m-2113 -5245 c97 -14 146 -30 182 -57 17 -13 17 -16 3 -45 -31 -60 -133 -111
-577 -291 -314 -127 -436 -184 -511 -237 l-46 -33 -60 71 c-141 168 -332 443
-317 456 28 24 537 114 739 131 77 6 149 13 160 14 65 10 343 4 427 -9z m4442
-274 c12 -18 29 -208 22 -235 -6 -26 -8 -27 -25 -12 -29 26 -74 127 -79 177
-4 40 -1 49 19 63 26 18 55 21 63 7z m-1016 -77 c81 -57 101 -265 43 -466 -25
-86 -72 -191 -81 -181 -13 14 -59 225 -70 328 -16 136 -3 254 35 311 18 28 41
30 73 8z m1136 -88 c46 -67 132 -150 180 -172 l35 -17 -87 -95 c-105 -115
-281 -277 -417 -385 -134 -106 -505 -351 -505 -333 0 2 16 14 35 26 45 28 89
92 121 177 29 76 54 195 54 254 l0 39 38 -19 c68 -35 133 -31 197 11 80 53
124 147 140 300 6 53 8 57 25 48 35 -19 71 -11 105 23 27 27 34 44 40 90 4 31
5 68 3 82 -3 14 -4 25 -3 25 1 0 18 -24 39 -54z m-4842 -284 c7 -7 5 -33 -6
-80 -22 -97 -20 -149 7 -202 43 -86 117 -114 280 -108 l107 5 -19 -21 c-47
-53 -47 -87 1 -120 45 -32 181 -12 348 52 8 3 -17 -25 -55 -63 -76 -76 -105
-124 -105 -177 0 -72 69 -117 181 -118 85 0 199 20 429 75 102 24 205 48 230
51 l45 7 -45 -44 c-65 -62 -111 -134 -117 -180 -5 -37 -4 -40 30 -54 85 -35
170 -1 314 125 51 44 95 80 98 80 3 0 -2 -17 -11 -37 -9 -21 -35 -83 -57 -138
-22 -55 -44 -105 -49 -111 -5 -6 -56 -24 -113 -39 l-105 -28 -132 33 c-662
164 -1236 480 -1737 956 l-103 98 113 18 c63 11 146 23 184 28 86 11 273 6
287 -8z m719 -362 c39 -22 19 -37 -98 -73 -65 -20 -131 -39 -148 -43 l-30 -7
35 37 c67 71 188 114 241 86z m2939 -194 c56 -94 102 -139 169 -169 52 -23
144 -27 179 -8 13 7 26 11 28 8 7 -7 -185 -103 -336 -167 -345 -148 -747 -253
-1110 -290 -58 -6 -122 -12 -143 -14 -36 -4 -37 -3 -23 12 8 10 51 87 96 172
45 84 90 167 101 182 l21 28 51 -46 c29 -26 70 -55 92 -65 49 -22 161 -25 209
-5 44 19 104 72 137 124 l27 42 12 -30 c16 -38 55 -70 87 -70 13 0 39 7 59 15
52 22 78 85 78 196 l0 87 53 12 c29 6 74 26 100 44 27 18 51 31 55 29 4 -2 30
-41 58 -87z m-349 -1 c16 -73 0 -220 -23 -213 -20 7 -47 92 -47 148 -1 61 20
103 47 98 9 -2 20 -17 23 -33z m-1628 -142 c11 -10 -174 -163 -257 -213 -34
-21 -37 -21 -28 -4 23 44 103 138 145 170 56 44 122 66 140 47z m602 -198
c-29 -93 -48 -225 -39 -272 l6 -33 -133 0 c-116 0 -368 16 -376 24 -2 1 5 26
15 55 l18 53 120 47 c130 52 268 119 354 175 30 19 56 34 57 32 1 -1 -9 -38
-22 -81z m-833 -313 c48 -10 89 -20 92 -23 9 -9 -80 -263 -128 -365 -128 -270
-300 -404 -506 -392 -186 11 -361 156 -377 312 -10 92 61 200 178 271 l56 34
118 -40 c66 -22 125 -37 132 -35 7 3 13 14 13 25 0 15 -17 25 -82 46 -46 15
-87 31 -91 35 -16 14 421 148 483 149 14 0 64 -8 112 -17z"/>
<path d="M6548 8842 c-28 -5 -21 -31 10 -38 63 -13 61 5 31 -269 -15 -137 -28
-251 -28 -252 -1 -2 -14 -3 -31 -3 -23 0 -30 -5 -30 -19 0 -15 13 -20 93 -30
50 -7 148 -24 217 -37 68 -13 128 -20 131 -16 9 9 49 109 49 122 0 6 -9 10
-20 10 -13 0 -26 -12 -37 -36 -16 -33 -20 -35 -53 -31 -19 3 -72 11 -117 17
-117 17 -116 16 -103 130 7 52 17 106 24 120 10 22 17 25 58 22 26 -2 66 -8
90 -15 42 -13 43 -14 46 -61 6 -95 44 -20 59 117 7 63 -8 78 -30 30 -20 -48
-22 -48 -156 -22 l-54 11 6 81 c4 48 12 87 20 95 15 14 59 9 209 -24 l67 -15
3 -52 c2 -38 7 -53 19 -55 13 -2 19 11 27 70 6 40 9 74 8 76 -2 2 -73 16 -157
32 -154 29 -319 48 -351 42z"/>
<path d="M5697 8819 c-159 -23 -222 -40 -222 -59 0 -11 13 -15 49 -15 l49 0
44 -235 c23 -129 43 -243 43 -252 0 -11 -10 -20 -25 -24 -33 -8 -35 -44 -2
-44 51 0 321 60 360 80 63 33 122 96 153 164 23 50 28 75 29 141 0 70 -4 86
-30 133 -30 56 -83 100 -144 120 -47 17 -153 13 -304 -9z m249 -67 c89 -45
134 -118 134 -215 0 -107 -30 -166 -111 -218 -39 -25 -150 -58 -196 -59 -14 0
-34 90 -68 302 -33 206 -33 206 8 211 71 11 192 0 233 -21z"/>
<path d="M7420 8640 c0 -6 15 -19 33 -30 l33 -20 -82 -242 -81 -243 -32 3
c-27 3 -32 1 -29 -14 2 -13 33 -30 98 -56 108 -43 130 -46 130 -20 0 12 -14
25 -40 37 -22 10 -39 23 -36 29 2 6 19 54 37 107 l33 97 44 -17 c53 -19 54
-20 92 -209 16 -79 30 -146 32 -147 10 -9 109 -55 118 -55 18 0 11 33 -14 59
-17 19 -32 62 -55 161 -17 74 -31 138 -31 141 0 3 24 9 52 12 116 14 167 113
113 218 -31 60 -95 98 -267 163 -97 36 -148 45 -148 26z m248 -122 c47 -29 82
-85 82 -131 0 -51 -52 -107 -99 -107 -43 0 -141 39 -141 55 0 8 14 49 31 92
17 43 35 88 40 101 10 26 30 24 87 -10z"/>
<path d="M4811 8574 c-145 -51 -245 -179 -246 -314 0 -57 5 -74 38 -135 49
-89 78 -119 147 -153 46 -23 68 -27 135 -27 97 0 168 29 244 100 70 66 96 128
96 235 0 74 -4 93 -32 151 -51 109 -132 158 -263 158 -42 0 -94 -7 -119 -15z
m176 -72 c93 -48 156 -155 157 -267 1 -86 -27 -144 -91 -189 -121 -85 -298
-15 -382 151 -45 90 -36 175 26 244 79 87 192 111 290 61z"/>
<path d="M8320 8216 c0 -8 14 -25 30 -38 l31 -24 -136 -215 -136 -214 -35 3
c-53 5 -43 -21 23 -64 83 -53 101 -60 116 -45 9 10 6 17 -15 35 -35 27 -35 36
-2 89 76 122 197 307 200 304 8 -8 35 -319 41 -468 3 -92 10 -174 14 -181 12
-18 32 3 207 217 85 105 159 194 164 200 5 6 16 5 28 -3 26 -16 60 -15 60 2 0
15 -148 136 -167 136 -25 0 -24 -23 2 -50 21 -22 25 -32 17 -46 -5 -9 -61 -83
-123 -164 l-114 -147 -7 156 c-4 86 -14 217 -22 290 -9 73 -16 139 -16 146 0
15 -122 95 -145 95 -8 0 -15 -6 -15 -14z"/>
<path d="M4072 8136 l-60 -45 33 -158 c19 -87 43 -198 54 -246 12 -48 21 -90
21 -92 0 -2 -62 25 -137 61 -161 77 -311 144 -321 144 -15 0 -112 -98 -112
-113 0 -23 29 -21 55 3 l22 21 100 -113 c54 -62 130 -150 167 -196 67 -81 68
-83 50 -103 -16 -18 -16 -21 -2 -35 14 -15 21 -11 76 37 64 57 81 84 63 102
-8 8 -17 5 -34 -11 -13 -12 -28 -22 -35 -22 -11 0 -265 281 -258 287 4 4 165
-68 316 -141 129 -63 145 -67 136 -33 -48 172 -119 485 -107 471 23 -27 112
-148 163 -222 59 -88 70 -118 43 -128 -19 -8 -20 -44 -1 -44 13 0 47 21 134
83 44 32 56 67 23 67 -11 0 -23 -4 -26 -10 -3 -5 -12 -10 -20 -10 -15 0 -118
138 -230 308 l-68 102 26 28 c62 65 14 70 -71 8z"/>
<path d="M6595 7700 c-285 -52 -464 -106 -660 -200 -126 -61 -182 -104 -253
-199 -112 -149 -177 -305 -165 -395 l6 -50 -32 27 c-52 44 -69 31 -31 -24 16
-22 19 -33 11 -47 -15 -29 -70 -74 -142 -117 -178 -108 -385 -294 -435 -392
-48 -95 -38 -206 43 -472 18 -62 32 -116 29 -118 -2 -2 -66 3 -143 12 -165 21
-280 16 -346 -13 -41 -18 -46 -19 -52 -4 -11 30 -44 354 -65 644 -18 252 -23
296 -46 358 -14 40 -23 74 -20 78 3 3 30 9 60 13 30 4 95 26 146 49 122 54
232 94 359 130 122 35 239 40 368 15 43 -8 86 -15 97 -15 50 0 -55 64 -149 91
-32 9 -96 14 -175 13 -109 0 -136 -4 -210 -28 -119 -39 -223 -89 -273 -130
-65 -53 -152 -89 -224 -94 -74 -5 -79 -18 -37 -81 42 -64 54 -126 69 -346 18
-254 41 -494 61 -635 14 -99 51 -206 75 -221 13 -8 -10 -14 -172 -44 -70 -13
-147 -32 -171 -43 -24 -11 -124 -79 -223 -152 -99 -73 -195 -140 -212 -148
-18 -9 -33 -22 -33 -29 0 -7 29 -46 65 -87 74 -86 137 -179 190 -286 64 -128
124 -212 219 -306 86 -85 101 -95 236 -162 80 -39 201 -91 270 -115 154 -55
422 -124 548 -139 111 -14 165 -4 309 61 50 23 95 41 100 41 6 0 13 -26 16
-58 7 -82 49 -162 118 -226 83 -77 274 -166 453 -211 223 -56 219 -39 -9 34
-178 56 -219 75 -140 63 28 -4 88 -7 135 -7 106 1 182 24 269 82 l65 44 40
-40 c50 -47 104 -81 170 -106 l49 -19 -53 -18 c-80 -27 -192 -48 -262 -49 -83
-1 -48 -17 40 -18 85 -1 189 21 363 79 228 75 329 127 420 219 72 72 161 195
208 288 27 54 44 166 39 268 l-3 82 30 -8 c17 -4 71 -17 120 -29 82 -20 107
-22 275 -17 193 6 386 27 480 53 107 30 275 163 365 289 24 33 84 134 135 225
51 91 125 215 166 277 41 61 74 115 74 120 0 5 -18 27 -41 48 -23 22 -79 86
-125 142 -139 168 -255 263 -409 338 -122 59 -207 82 -429 120 -77 14 -142 28
-146 32 -4 4 -17 71 -28 148 -14 93 -31 164 -50 210 -50 121 -147 272 -216
337 -59 55 -291 140 -437 160 l-96 13 -131 195 c-147 221 -205 289 -312 364
-41 28 -75 56 -75 62 0 5 19 18 41 29 129 62 90 80 -101 45z m25 -57 c0 -16
16 -55 36 -88 63 -105 265 -365 366 -471 154 -162 228 -291 228 -396 0 -22 -7
-85 -16 -141 l-15 -102 104 -105 c140 -142 160 -178 165 -296 4 -90 -8 -197
-29 -252 -10 -27 -11 -27 -28 24 -24 70 -99 173 -209 282 -94 95 -155 133
-234 147 -59 11 -62 22 -44 122 20 109 20 149 1 203 -32 89 20 81 163 -28 40
-30 75 -52 79 -48 11 11 -75 91 -140 130 -98 57 -188 42 -233 -40 -58 -105
-174 -564 -143 -564 4 0 15 33 24 73 56 232 141 482 174 512 19 16 20 15 37
-17 24 -45 22 -167 -4 -273 -11 -44 -19 -82 -17 -84 2 -2 33 -9 70 -17 96 -20
137 -45 247 -152 104 -101 189 -216 209 -282 17 -55 0 -90 -87 -177 -84 -84
-110 -94 -298 -118 -136 -18 -230 -37 -293 -61 -38 -14 -44 -14 -58 0 -8 8
-24 17 -34 21 -40 12 -171 32 -171 25 0 -4 34 -17 75 -29 41 -12 75 -24 75
-28 0 -19 -231 25 -245 47 -3 5 18 16 48 25 67 19 92 37 84 58 -5 13 -18 16
-57 14 -47 -2 -50 -4 -45 -24 3 -13 1 -23 -5 -23 -5 0 -10 7 -10 15 0 22 -22
19 -97 -15 l-68 -31 -2 -62 c-2 -34 -16 -126 -32 -204 -30 -150 -44 -181 -122
-278 -54 -68 -120 -204 -170 -355 -64 -193 -60 -186 -153 -215 -173 -53 -272
-68 -436 -69 -187 -1 -292 15 -585 89 -310 78 -473 152 -636 289 -72 61 -113
106 -241 267 -37 46 -87 107 -112 135 l-46 51 44 23 c25 12 91 58 148 102 146
112 240 173 295 193 29 10 102 20 183 25 87 6 167 18 225 33 50 14 135 37 190
51 55 15 133 30 173 33 68 6 75 4 100 -19 44 -41 84 -64 139 -82 28 -9 75 -34
105 -55 68 -49 178 -104 247 -125 63 -18 148 -20 241 -5 117 19 95 30 -45 23
-118 -6 -136 -4 -194 15 -78 27 -174 74 -219 108 -50 37 -30 48 86 48 94 0
101 -2 247 -59 83 -32 172 -69 198 -83 27 -13 54 -22 60 -20 34 11 -173 114
-350 173 -67 22 -86 24 -235 22 -183 -3 -213 5 -244 65 -9 17 -29 43 -45 58
-51 48 -48 141 8 254 42 82 168 268 224 329 71 78 382 310 424 318 30 5 30
-29 -5 -238 l-30 -188 26 -80 c31 -96 106 -243 172 -340 57 -84 78 -96 68 -40
l-6 39 30 -34 c16 -19 31 -33 33 -30 2 2 -13 51 -35 109 -90 244 -117 289
-186 310 -73 24 -75 40 -32 315 16 105 30 222 30 260 0 62 -29 217 -43 231 -3
3 -41 10 -84 16 -43 6 -80 12 -81 13 -8 7 22 123 40 160 42 82 200 261 309
349 140 112 308 185 549 241 58 13 120 24 138 24 28 1 32 -2 32 -26z m136
-140 c63 -48 246 -280 309 -393 22 -39 -59 50 -174 190 -196 239 -210 261
-135 203z m549 -558 c97 -26 146 -78 184 -196 15 -47 35 -64 91 -79 146 -37
271 -109 309 -178 22 -41 48 -165 66 -312 l7 -55 -144 -43 c-79 -24 -174 -56
-213 -71 -81 -33 -83 -32 -84 60 -1 83 -46 163 -153 274 l-87 90 2 155 c2 167
-8 221 -59 322 l-24 48 23 0 c12 0 49 -7 82 -15z m214 -55 c84 -32 144 -66
172 -97 23 -24 110 -143 133 -181 4 -7 -16 0 -46 17 -29 16 -89 41 -132 56
-44 14 -86 31 -94 38 -14 11 -92 165 -92 181 0 8 -2 9 59 -14z m-1829 -82 c19
-31 58 -174 49 -181 -2 -2 -60 -42 -129 -87 -153 -102 -268 -188 -339 -255
-58 -54 -190 -243 -257 -369 l-42 -78 -21 56 c-34 92 -63 254 -56 312 15 122
178 290 445 459 69 43 158 100 199 127 90 59 123 62 151 16z m2538 -754 c79
-13 144 -24 146 -24 2 0 14 -9 27 -21 13 -12 67 -50 119 -85 148 -99 478 -363
554 -442 l29 -31 -19 -30 c-58 -92 -141 -234 -220 -374 -113 -200 -166 -271
-261 -347 -135 -109 -202 -134 -405 -155 -317 -32 -477 -15 -677 70 -131 56
-131 58 -76 170 43 87 67 205 63 316 l-3 84 -135 7 c-153 7 -267 29 -490 94
-180 52 -206 62 -194 73 28 26 264 85 403 100 64 7 111 18 145 35 124 62 228
195 267 341 12 49 31 96 42 105 25 24 257 115 327 129 114 23 141 22 358 -15z
m-2432 -56 c30 -36 104 -186 104 -212 0 -25 -28 -31 -50 -11 -37 33 -120 204
-120 245 0 22 40 8 66 -22z m-1006 -298 c41 -6 100 -17 130 -26 53 -16 54 -16
30 -29 -33 -16 -370 -95 -410 -95 -18 0 -90 72 -90 91 0 54 161 82 340 59z
m1620 -379 c12 -31 19 -65 15 -78 -4 -19 5 -35 46 -78 47 -50 79 -69 79 -46 0
4 -8 19 -19 32 -26 34 -60 103 -82 168 -31 88 -24 101 30 55 19 -16 31 -35 31
-50 0 -13 10 -34 23 -46 12 -13 30 -41 40 -63 l17 -40 -34 40 c-40 47 -59 40
-31 -11 23 -43 64 -74 99 -74 37 0 33 23 -14 74 l-40 43 57 -18 c31 -11 58
-17 61 -14 9 9 -61 85 -84 91 -13 3 -24 11 -24 17 0 6 -10 22 -22 35 l-23 25
25 -13 c14 -7 37 -24 52 -37 15 -15 58 -34 104 -47 43 -12 79 -26 81 -32 11
-32 -416 -392 -538 -454 l-37 -19 -6 31 c-9 46 -7 121 5 221 9 67 9 91 0 96
-8 5 -7 12 2 26 11 13 21 16 41 11 27 -7 28 -9 21 -54 -8 -63 7 -104 38 -100
14 2 26 13 32 33 6 17 19 43 30 60 31 45 27 152 -8 232 -15 34 -27 68 -27 75
1 23 39 -36 60 -91z m710 -147 c47 -7 147 -17 224 -21 l139 -6 -6 -101 c-6
-109 -19 -156 -86 -300 -89 -191 -156 -282 -237 -322 l-55 -27 -167 6 c-293
11 -510 46 -617 99 -85 43 -225 128 -225 137 0 14 32 36 150 106 184 109 302
196 465 341 44 39 104 89 134 112 l54 40 71 -25 c39 -13 109 -31 156 -39z
m-945 -318 l-7 -102 -72 -37 c-71 -37 -116 -70 -116 -86 0 -5 17 -11 38 -15
20 -3 84 -33 142 -67 186 -108 269 -133 567 -164 205 -22 349 -20 417 6 68 25
141 90 192 169 23 35 45 59 54 58 8 -2 28 -30 45 -62 26 -53 30 -69 29 -140
-1 -96 -36 -215 -86 -291 -18 -28 -75 -93 -128 -146 -148 -149 -288 -223 -441
-236 -60 -5 -74 -3 -131 24 -34 16 -88 53 -119 81 -31 29 -63 52 -71 52 -8 0
-25 -11 -38 -25 -12 -13 -62 -44 -109 -67 -84 -42 -88 -43 -176 -41 -159 3
-258 39 -427 156 -65 45 -88 85 -88 154 0 61 25 103 87 146 118 81 143 120
210 326 47 148 107 279 173 380 36 56 43 62 52 47 6 -11 8 -57 3 -120z m-2081
-222 c202 -153 287 -191 612 -274 315 -81 402 -94 609 -94 174 0 186 1 334 37
85 20 156 35 158 33 13 -13 -295 -183 -393 -216 -71 -25 -107 -25 -319 0 -314
38 -326 40 -525 127 -227 100 -389 209 -503 341 -75 85 -130 163 -101 142 12
-8 69 -52 128 -96z"/>
<path d="M5360 6067 c0 -80 173 -345 268 -411 74 -51 71 -25 -6 52 -69 69
-185 239 -218 320 -25 61 -44 78 -44 39z"/>
<path d="M6181 5935 c-40 -46 -59 -109 -42 -137 7 -12 16 -66 19 -121 l5 -100
-39 6 c-117 20 -138 20 -166 -3 -31 -24 -37 -55 -12 -64 24 -9 14 -15 -46 -26
-115 -22 -126 -63 -20 -75 55 -6 60 -9 60 -31 0 -33 23 -40 73 -20 52 20 160
103 154 119 -2 7 -24 15 -49 18 -25 4 -58 14 -74 22 -27 15 -22 15 81 10 119
-6 233 13 266 43 16 14 27 14 88 4 74 -12 95 -24 60 -33 -33 -9 -17 -31 29
-41 49 -10 122 -1 148 19 18 14 18 16 1 29 -16 13 -16 14 8 20 30 8 44 34 24
47 -8 5 -40 9 -71 9 l-58 0 20 20 c41 41 15 87 -44 76 -18 -4 -80 -29 -136
-56 -108 -53 -107 -54 -37 30 26 30 34 33 74 31 57 -3 134 23 164 55 20 21 21
27 9 34 -28 18 -91 4 -114 -24 -6 -8 -25 -16 -43 -18 l-31 -4 44 51 c48 57 52
70 28 79 -33 13 -55 5 -93 -33 l-39 -39 -7 34 c-13 71 -61 49 -95 -44 -34 -89
-20 -110 19 -29 33 66 59 99 48 61 -24 -80 -28 -107 -18 -113 12 -8 -51 -71
-133 -137 l-49 -39 6 40 c3 22 32 90 63 151 55 109 66 159 35 159 -8 0 -33
-34 -55 -75 l-40 -75 -9 37 c-8 32 -5 45 22 91 17 30 31 60 31 66 0 22 -28 10
-59 -24z"/>
<path d="M6162 5438 c-22 -35 -59 -71 -160 -156 -49 -41 -65 -73 -42 -87 13
-8 44 10 92 53 l40 36 -8 -50 c-4 -27 -13 -65 -21 -84 -12 -32 -13 -33 -8 -5
3 17 8 38 11 48 3 9 1 17 -5 17 -12 0 -51 -102 -51 -135 0 -33 24 -32 53 2 12
15 39 46 59 68 21 23 45 59 53 79 19 45 29 180 18 220 l-9 30 -22 -36z"/>
<path d="M5594 5063 c-30 -72 -85 -114 -204 -155 -71 -24 -216 -48 -305 -49
-96 -1 -168 -12 -172 -25 -3 -9 32 -10 129 -7 332 12 483 65 570 202 32 51 35
71 12 71 -8 0 -22 -17 -30 -37z"/>
<path d="M4385 8747 c-167 -87 -215 -115 -215 -126 0 -4 6 -15 13 -25 11 -16
19 -13 102 35 50 28 135 74 190 101 55 27 100 53 99 58 -1 6 -2 17 -2 25 -1 8
-8 15 -14 15 -7 0 -85 -38 -173 -83z"/>
<path d="M8660 8481 c-5 -11 -10 -22 -10 -24 0 -3 39 -33 88 -68 108 -77 243
-186 341 -273 41 -37 79 -65 84 -63 6 2 15 10 21 19 11 18 -29 58 -197 197
-96 79 -300 231 -310 231 -4 0 -11 -9 -17 -19z"/>
<path d="M3664 8272 c-60 -49 -149 -128 -199 -175 -89 -84 -90 -85 -71 -105
l18 -21 102 94 c92 85 195 174 270 233 l30 23 -21 20 -20 20 -109 -89z"/>
<path d="M9547 7662 c-16 -17 -13 -24 55 -113 39 -52 105 -146 146 -209 42
-63 77 -117 78 -118 6 -9 44 11 44 23 0 26 -283 435 -301 435 -3 0 -13 -8 -22
-18z"/>
<path d="M2962 7522 c-89 -120 -302 -468 -302 -493 0 -3 11 -11 25 -17 24 -11
26 -9 51 41 45 87 173 296 245 399 38 53 69 100 69 105 0 4 -9 14 -19 20 -18
11 -25 5 -69 -55z"/>
<path d="M10062 6811 c-11 -6 0 -43 51 -172 36 -90 71 -182 77 -205 11 -35 15
-40 36 -36 13 2 24 10 24 17 0 19 -63 196 -108 305 -39 93 -53 109 -80 91z"/>
<path d="M2327 6098 c-44 -207 -43 -188 -10 -188 28 0 29 2 41 73 7 39 21 106
31 147 20 77 17 89 -20 90 -12 0 -22 -28 -42 -122z"/>
<path d="M10317 6033 c-14 -4 -17 -11 -13 -26 3 -12 15 -80 26 -152 30 -186
27 -175 56 -175 25 0 25 1 18 61 -12 111 -49 292 -59 294 -5 2 -18 0 -28 -2z"/>
<path d="M2246 5534 c-3 -26 -6 -116 -6 -200 l0 -154 23 0 24 0 6 192 c6 194
4 207 -29 208 -6 0 -14 -21 -18 -46z"/>
<path d="M10380 5255 l0 -135 24 0 c19 0 24 6 30 38 8 48 8 127 0 186 -6 40
-10 46 -30 46 l-24 0 0 -135z"/>
<path d="M2298 4753 c-10 -2 -18 -14 -18 -26 0 -37 30 -195 62 -330 28 -121
31 -127 51 -121 12 4 23 8 25 9 2 2 -13 74 -32 161 -19 88 -40 194 -47 237 -6
42 -15 76 -18 76 -3 -1 -14 -3 -23 -6z"/>
<path d="M10096 3813 c-21 -54 -74 -169 -118 -257 -43 -87 -77 -160 -76 -161
2 -1 13 -7 25 -14 21 -11 26 -4 107 161 77 156 160 348 153 354 -1 1 -13 5
-27 8 -24 6 -27 1 -64 -91z"/>
<path d="M2565 3798 c-11 -6 -22 -12 -23 -14 -6 -4 124 -269 191 -391 61 -111
81 -130 105 -100 7 8 -12 49 -64 142 -41 72 -97 182 -125 245 -29 63 -55 118
-58 122 -3 4 -15 2 -26 -4z"/>
<path d="M9548 2882 c-37 -48 -106 -130 -153 -182 -84 -95 -84 -95 -65 -115
20 -20 20 -19 83 49 82 91 191 222 223 268 22 31 24 40 14 53 -7 8 -18 15 -24
14 -6 0 -41 -39 -78 -87z"/>
<path d="M3626 2341 c-16 -18 -14 -21 41 -67 146 -124 154 -129 169 -109 8 10
14 22 14 26 0 3 -40 39 -90 78 -49 40 -92 76 -95 81 -9 15 -20 12 -39 -9z"/>
<path d="M8913 2247 c-50 -40 -121 -93 -157 -117 -65 -45 -76 -64 -45 -83 13
-8 37 5 115 63 115 84 204 158 204 169 0 4 -6 15 -13 24 -11 16 -21 11 -104
-56z"/>
<path d="M4082 2008 c-27 -27 -26 -28 186 -150 98 -57 104 -59 117 -41 21 27
19 31 -27 54 -24 12 -87 48 -141 81 -118 71 -119 72 -135 56z"/>
<path d="M8265 1830 c-71 -38 -131 -73 -132 -77 -2 -5 3 -17 10 -27 12 -17 21
-13 143 49 71 37 133 71 137 75 8 7 -12 51 -23 49 -3 0 -63 -32 -135 -69z"/>
<path d="M7264 1464 c-83 -22 -324 -62 -459 -76 l-125 -12 0 -29 c0 -27 1 -28
43 -23 23 3 87 11 142 17 93 10 284 42 418 70 43 9 57 16 53 26 -4 8 -6 21 -6
29 0 16 0 16 -66 -2z"/>
</g>
</svg>
