<?xml version="1.0" encoding="UTF-8" standalone="no"?>
<svg
   xmlns:dc="http://purl.org/dc/elements/1.1/"
   xmlns:cc="http://creativecommons.org/ns#"
   xmlns:rdf="http://www.w3.org/1999/02/22-rdf-syntax-ns#"
   xmlns:svg="http://www.w3.org/2000/svg"
   xmlns="http://www.w3.org/2000/svg"
   id="svg7133"
   version="1.1"
   viewBox="0 0 210 297"
   height="297mm"
   width="210mm">
  <defs
     id="defs7127" />
  <metadata
     id="metadata7130">
    <rdf:RDF>
      <cc:Work
         rdf:about="">
        <dc:format>image/svg+xml</dc:format>
        <dc:type
           rdf:resource="http://purl.org/dc/dcmitype/StillImage" />
        <dc:title></dc:title>
      </cc:Work>
    </rdf:RDF>
  </metadata>
  <g
     id="layer1">
    <path
       id="path4487-6-3"
       d="m 64.313105,104.08265 a 59.689618,55.798103 2.5252099e-5 0 1 84.378845,2.27274 59.689618,55.798103 2.5252099e-5 0 1 -2.43125,78.8777 59.689618,55.798103 2.5252099e-5 0 1 -84.378853,-2.27275 59.689618,55.798103 2.5252099e-5 0 1 2.431258,-78.87769 z"
       style="opacity:0.92299996;fill:none;fill-opacity:1;stroke:#000000;stroke-width:1.01692402;stroke-miterlimit:4;stroke-dasharray:none;stroke-opacity:0.88059698" />
    <path
       id="path4596-5-2"
       d="m 100.54267,168.82232 c -2.681557,-1.0767 -3.629215,-1.62216 -4.586425,-2.63996 -0.84923,-0.90298 -1.46026,-2.48521 -1.30714,-3.38477 0.10462,-0.61457 0.0323,-0.60338 -1.884181,0.29142 -2.597455,1.21277 -3.326324,1.22923 -7.814121,0.17648 -3.726606,-0.87417 -7.154361,-2.15322 -9.985554,-3.72605 -1.945798,-1.08098 -4.033796,-3.47374 -5.221145,-5.9833 -0.612769,-1.29515 -1.582201,-2.85678 -2.1543,-3.47031 -1.885949,-2.02254 -1.85609,-1.96655 -1.192839,-2.23669 0.3207,-0.13063 1.911136,-1.22507 3.534308,-2.43209 2.936479,-2.18363 2.965133,-2.19674 5.737861,-2.62536 1.532669,-0.23693 2.587642,-0.51746 2.344382,-0.62341 -0.243259,-0.10594 -0.635718,-0.77203 -0.872138,-1.48022 -0.404641,-1.21213 -1.066231,-7.3844 -1.261574,-11.7698 -0.10017,-2.24975 -0.366619,-3.35539 -1.029004,-4.27045 -0.62718,-0.86645 -0.523327,-1.13732 0.36987,-0.96455 0.830205,0.1606 2.664876,-0.59515 3.614298,-1.48882 0.849362,-0.79949 4.191709,-2.05554 5.995943,-2.25327 1.801817,-0.19746 4.101846,0.23763 5.275422,0.998 0.833407,0.53997 0.800732,0.54416 -1.2743,0.16415 -1.365726,-0.25012 -2.671356,-0.29908 -3.639786,-0.13652 -1.651996,0.27731 -5.863736,1.72202 -7.379901,2.53148 -0.525926,0.28078 -1.329344,0.51739 -1.785345,0.52581 -0.974079,0.0181 -0.97975,0.0302 -0.517332,1.11256 0.473182,1.1076 0.519872,1.44112 0.774281,5.52949 0.243442,3.91265 0.679217,8.21951 0.917637,9.06938 0.138613,0.49409 0.21574,0.5216 0.664817,0.23716 0.858967,-0.54409 2.621462,-0.6568 5.193876,-0.33218 l 2.460564,0.31049 -0.370196,-1.08096 c -0.867851,-2.53418 -1.499524,-5.51163 -1.352532,-6.37528 0.08705,-0.51139 0.494072,-1.38204 0.904478,-1.93475 1.023742,-1.37874 3.894786,-3.76666 5.8199,-4.84058 2.009415,-1.12094 2.673931,-1.92244 2.113571,-2.54926 -0.612986,-0.68567 -0.398778,-0.87909 0.249173,-0.22497 0.629567,0.63553 0.827087,0.37276 0.508427,-0.67637 -0.26083,-0.8587 0.90669,-3.43872 2.46658,-5.45078 1.50211,-1.93751 2.756678,-2.6632 7.590015,-4.3903 1.61266,-0.57626 7.44466,-1.74254 8.08966,-1.61777 0.35719,0.0691 -0.12855,0.49197 -0.89258,0.77712 -1.05396,0.39332 -0.96686,0.60804 0.66463,1.63844 1.42244,0.89836 2.29313,1.917 4.5877,5.3673 l 1.7476,2.62782 1.58133,0.13205 c 1.80808,0.15098 5.55458,1.5785 6.41053,2.44258 1.38274,1.3959 3.24834,4.68794 3.47461,6.1313 0.12821,0.81787 0.31816,2.02258 0.42214,2.67715 l 0.18904,1.19014 3.26657,0.53682 c 4.96723,0.81625 8.29162,2.74038 11.3121,6.54736 0.8295,1.04552 1.73708,2.02981 2.01682,2.18733 0.27973,0.15754 0.45765,0.36286 0.39535,0.45633 -0.0622,0.0935 -0.52592,0.73895 -1.0303,1.43444 -0.50441,0.69551 -1.67174,2.64146 -2.59407,4.32433 -1.93021,3.52183 -3.01933,4.83078 -5.26908,6.33267 -1.44657,0.9657 -1.9524,1.11332 -5.04784,1.47324 -4.56513,0.5308 -6.57506,0.49268 -8.75377,-0.16604 -1.47258,-0.44523 -1.75079,-0.46562 -1.56731,-0.11486 0.1227,0.23454 0.16455,1.27182 0.093,2.30506 -0.11666,1.68516 -0.24243,2.06174 -1.221,3.65706 -1.22231,1.99269 -2.72251,3.62651 -3.9793,4.33371 -2.66994,1.50237 -8.39702,3.23514 -10.05374,3.04181 l -1.2516,-0.14606 1.23981,-0.006 c 0.68189,-0.004 1.9951,-0.24387 2.91822,-0.53482 l 1.67844,-0.52899 -1.20635,-0.38574 c -0.66346,-0.21215 -1.59496,-0.78165 -2.06998,-1.26558 l -0.86364,-0.87985 -0.83852,0.627 c -1.48991,1.11407 -3.63631,1.59147 -5.5677,1.23833 -2.493827,-0.45591 -1.27517,0.26146 2.06196,1.21388 2.3875,0.6814 2.45296,0.71569 0.76866,0.4028 -1.0126,-0.18824 -2.64117,-0.66327 -3.61898,-1.05588 z m 4.66384,-1.25328 c 0.83155,-0.36404 1.73225,-0.8937 2.0015,-1.17705 0.41326,-0.43483 0.55148,-0.4464 0.88643,-0.0742 1.06633,1.18494 2.52877,2.04939 3.50479,2.07168 2.47489,0.0565 4.92281,-1.06859 7.17415,-3.2972 2.05564,-2.0349 2.58047,-2.87022 3.10187,-4.93688 0.39721,-1.57452 0.40515,-2.00141 0.0557,-3.00313 -0.22403,-0.64224 -0.5979,-1.32853 -0.83082,-1.52511 -0.35686,-0.30119 -0.52437,-0.18492 -1.06476,0.73875 -0.8839,1.51086 -2.33738,2.55132 -3.84703,2.75385 -1.70312,0.2285 -8.01188,-0.39228 -9.98892,-0.98286 -0.87265,-0.2607 -2.35174,-0.9621 -3.28683,-1.55867 -0.93508,-0.59658 -1.92344,-1.06666 -2.19637,-1.04464 -0.882737,0.0712 -0.4421,-0.46084 0.94935,-1.14633 l 1.35745,-0.66873 0.0819,-1.57031 c 0.13958,-2.67727 -0.0988,-2.65453 -1.73395,0.16526 -0.64201,1.10728 -1.379697,2.81569 -1.639257,3.79646 -0.738,2.7884 -1.54847,4.16511 -2.904828,4.93432 -1.37166,0.77788 -1.76989,1.52324 -1.58007,2.95744 0.1239,0.93601 0.31907,1.14606 2.14309,2.30627 1.752468,1.11471 2.279148,1.31745 4.155735,1.59971 1.90497,0.28654 2.32062,0.24809 3.66086,-0.33864 z m -18.183419,-4.69351 c 3.798323,0.45352 3.862084,0.45017 5.749504,-0.30249 1.74671,-0.69653 5.529078,-2.97575 5.094978,-3.07019 -0.10149,-0.0219 -1.366348,0.26011 -2.810828,0.62709 -3.9533,1.00436 -7.10936,0.81107 -13.515097,-0.82776 -4.537319,-1.16082 -5.11008,-1.37111 -7.022817,-2.57856 -1.145414,-0.72305 -2.550464,-1.72355 -3.122335,-2.22334 -0.571882,-0.49978 -1.0912,-0.87082 -1.154059,-0.82456 -0.27283,0.20089 1.948952,2.9156 3.220747,3.9353 1.872043,1.50098 3.415404,2.3933 6.134607,3.54686 2.763479,1.17234 2.66248,1.14897 7.4253,1.71765 z m 2.764289,-2.45409 c 2.171345,0.0715 4.434635,-0.30628 7.813183,-1.30413 0.48664,-0.14372 0.72805,-0.6158 1.36612,-2.67146 0.8578,-2.76349 1.773147,-4.55237 3.059797,-5.97975 0.76483,-0.84847 0.91234,-1.25792 1.44416,-4.00881 0.37193,-1.92365 0.49401,-3.08617 0.32816,-3.1239 -0.30323,-0.0685 1.96104,-1.04987 2.28424,-0.98962 0.11703,0.0218 0.11943,0.14992 0.006,0.28464 -0.12128,0.14317 -0.0165,0.20667 0.25206,0.15285 0.36776,-0.0737 0.39759,-0.1528 0.14933,-0.39597 -0.17061,-0.16711 -0.19137,-0.28462 -0.0461,-0.26111 0.1452,0.0238 0.54295,0.0184 0.88377,-0.0107 1.09002,-0.095 0.57601,0.59976 -0.63043,0.85214 -0.78495,0.16421 -1.04366,0.32858 -0.83663,0.53153 0.37758,0.37013 2.17756,0.73338 3.38762,0.68363 0.88102,-0.0361 0.85894,-0.0577 -0.49469,-0.48127 l -1.41687,-0.44333 1.4963,0.24247 c 0.98433,0.15944 1.52156,0.37063 1.57013,0.6172 0.0478,0.24277 0.16699,0.29123 0.33837,0.1375 0.40456,-0.36277 3.16235,-0.96933 5.21679,-1.14741 1.01188,-0.0877 2.24886,-0.36361 2.74883,-0.61315 0.96271,-0.48047 2.57995,-2.28757 2.70506,-3.02261 0.15192,-0.89257 -1.41644,-3.25278 -3.30003,-4.96613 -1.61321,-1.46744 -2.12555,-1.781 -3.2723,-2.00283 l -1.35962,-0.263 0.43317,-1.73704 c 0.42669,-1.71107 0.28344,-3.26016 -0.3583,-3.87453 -0.5461,-0.52281 -1.71944,2.59349 -3.13843,8.33543 -0.15808,0.63952 -0.15902,0.33719 -0.002,-0.72139 0.14845,-1.00228 0.65097,-3.04585 1.11682,-4.54126 0.7295,-2.3418 0.9573,-2.78772 1.64243,-3.21504 0.43748,-0.27289 1.11343,-0.43178 1.50212,-0.35313 0.77981,0.15743 2.38156,1.2798 3.07749,2.15557 0.24582,0.30936 -0.18436,0.0457 -0.95595,-0.58603 -2.08288,-1.70513 -3.24402,-1.72954 -2.43985,-0.0514 0.21354,0.44564 0.19487,1.17494 -0.0625,2.43923 -0.35257,1.7322 -0.34215,1.80959 0.26302,1.95668 0.34655,0.0843 0.93006,0.22949 1.29667,0.32287 1.42746,0.36354 5.44614,4.72204 5.61176,6.08627 0.12801,1.05448 0.55944,0.59656 0.79258,-0.84127 0.44135,-2.72187 0.28863,-3.96485 -0.63895,-5.19947 -0.46721,-0.62186 -1.3729,-1.60106 -2.01265,-2.17602 l -1.1632,-1.04537 0.30281,-1.90378 c 0.23114,-1.45328 0.20384,-2.19594 -0.11522,-3.13822 -0.42656,-1.25993 -2.16813,-3.59892 -3.4548,-4.63995 -0.39351,-0.31838 -1.84139,-2.07337 -3.21751,-3.89997 -1.80155,-2.3913 -2.44484,-3.45198 -2.29775,-3.78851 0.26655,-0.60988 -0.48281,-0.58235 -3.45921,0.1271 -4.67812,1.11506 -7.236247,2.68504 -10.383035,6.37227 -1.30548,1.52966 -1.67435,2.16001 -1.85905,3.17674 l -0.23046,1.26841 1.26379,0.16424 1.26379,0.16425 0.39824,1.61303 c 0.35613,1.44253 0.33608,1.98207 -0.18964,5.1042 -0.752,4.46604 -0.72943,4.7615 0.38049,4.97619 0.968448,0.18734 1.590878,1.11357 2.414108,3.59247 0.26244,0.79026 0.62042,1.72411 0.795497,2.0752 0.22202,0.44523 0.13522,0.39141 -0.286957,-0.17787 -0.64845,-0.87441 -0.79543,-0.79734 -0.47722,0.25026 0.49131,1.61753 -2.395788,-2.82523 -3.052578,-4.69741 l -0.72058,-2.05398 0.55729,-3.27416 c 0.66699,-3.91867 0.85914,-3.87362 -3.429275,-0.80419 -2.706294,1.93704 -3.119601,2.35444 -4.82262,4.87048 -1.346984,1.99003 -1.915701,3.07761 -2.054289,3.92847 -0.193261,1.18333 0.09138,2.24068 0.63013,2.34489 0.159575,0.0309 0.370498,0.32067 0.468716,0.64401 0.282607,0.93043 1.414308,1.24466 3.807065,1.05709 2.176236,-0.17061 2.201496,-0.16596 5.001853,0.91695 1.54802,0.59865 3.012478,1.28306 3.254348,1.52093 0.42157,0.41459 0.41932,0.4207 -0.0544,0.14757 -0.2718,-0.15667 -1.754528,-0.77105 -3.294978,-1.3652 -2.23877,-0.86347 -3.048362,-1.06538 -4.03442,-1.00622 -0.678471,0.0407 -1.351449,0.15135 -1.495478,0.24585 -0.722933,0.4743 3.252198,2.48038 5.045088,2.54604 0.64269,0.0235 1.69129,-0.0464 2.33024,-0.15547 0.638928,-0.10904 1.022198,-0.0956 0.851678,0.03 -0.17052,0.12554 -1.112958,0.28908 -2.094278,0.36341 -1.50827,0.11427 -2.03521,0.0343 -3.406606,-0.51744 -0.892307,-0.35894 -2.032411,-0.98494 -2.533597,-1.39113 -0.501185,-0.40618 -1.300051,-0.81422 -1.775257,-0.90673 -0.475216,-0.0925 -1.213319,-0.49856 -1.640245,-0.90233 -0.758232,-0.71709 -0.812697,-0.72943 -2.351412,-0.53224 -0.866347,0.11106 -2.619837,0.53908 -3.89664,0.95126 -1.404052,0.45326 -2.896736,0.71847 -3.777231,0.67108 -2.489376,-0.13393 -4.082147,0.47769 -6.649082,2.55326 -1.279031,1.03421 -2.625014,1.98288 -2.991067,2.10816 -0.366053,0.12528 -0.681083,0.31909 -0.700081,0.43069 -0.01902,0.11165 0.460937,0.69947 1.066495,1.30636 0.605558,0.6069 1.517777,1.69938 2.02715,2.42773 2.151591,3.07656 5.730542,5.40868 10.076599,6.56607 4.813048,1.28175 7.538738,1.78372 10.152988,1.8698 z m -5.231428,-7.99377 c 0.137034,-0.10631 1.316136,-0.21888 2.620233,-0.25002 3.848409,-0.0919 7.06876,-1.35283 7.32678,-2.86878 0.0473,-0.27736 0.23134,-0.56493 0.40918,-0.63905 0.2212,-0.0922 0.22868,0.0633 0.0236,0.49222 -1.05217,2.2012 -3.556146,3.25161 -7.926787,3.32524 -0.879256,0.0149 -1.84693,0.051 -2.150402,0.0804 -0.303459,0.0294 -0.439664,-0.0336 -0.302653,-0.13997 z m -7.43002,-4.08351 c -0.146656,-0.1449 0.757725,-0.0781 2.009775,0.14828 1.77846,0.32167 2.038357,0.41555 1.188046,0.42949 -1.396308,0.0227 -2.857124,-0.24115 -3.197835,-0.57771 z m 23.541488,0.73706 c -0.0426,-0.24616 0.10306,-0.80197 0.3238,-1.23512 l 0.40136,-0.78753 -0.24033,0.89984 c -0.13222,0.49491 -0.13326,0.81914 -0.003,0.72045 0.26361,-0.19891 0.55282,-1.17744 0.66773,-2.2591 0.0749,-0.70608 0.0745,-0.70604 -0.75226,0.0707 -0.455,0.42749 -0.93692,0.75604 -1.070917,0.73012 -0.54309,-0.105 -0.0456,-0.86375 1.034277,-1.57721 0.63054,-0.41662 1.37575,-1.09866 1.65602,-1.51566 l 0.50958,-0.75817 0.0777,0.73599 c 0.15716,1.48973 -0.24504,3.09803 -0.89432,3.57604 -0.34124,0.25123 -0.63771,0.5584 -0.65886,0.68261 -0.0212,0.12421 -0.24882,0.43705 -0.50595,0.6952 -0.38917,0.39072 -0.48052,0.39438 -0.54508,0.0218 z m 2.27206,-3.22044 c 0.0935,-0.48803 0.0785,-0.97504 -0.0335,-1.0822 -0.26415,-0.25287 -0.83214,1.45535 -0.76987,2.31537 0.0454,0.62744 0.0639,0.63611 0.34061,0.15897 0.16092,-0.2776 0.36913,-0.90405 0.46268,-1.39208 z m -2.13196,0.49287 c 0.13205,-0.2311 0.10703,-0.3517 -0.0586,-0.28268 -0.15877,0.0662 -0.30881,0.23855 -0.33342,0.38306 -0.0683,0.40161 0.13499,0.34952 0.39195,-0.10036 z m -1.197737,-1.73074 c 0.003,-0.11844 0.0285,-0.29519 0.0575,-0.39272 0.0294,-0.0975 -0.44312,-0.20192 -1.04984,-0.23208 -1.501188,-0.0746 -1.181508,-0.6875 0.49497,-0.94906 1.031637,-0.16095 1.146317,-0.23747 0.69106,-0.46111 -0.49784,-0.24459 -0.50359,-0.31054 -0.0654,-0.75016 0.367247,-0.36846 0.787247,-0.42307 1.783247,-0.23183 0.7166,0.13753 1.31571,0.17701 1.33139,0.0875 0.14902,-0.85153 -0.0934,-3.40289 -0.31489,-3.31055 -0.42303,0.17634 0.32337,-1.62868 0.83793,-2.02649 0.65125,-0.50343 0.70631,-0.10393 0.10053,0.72938 -0.43861,0.60335 -0.50156,0.883 -0.33912,1.50736 0.19672,0.75633 0.20734,0.74979 0.79292,-0.48845 0.32643,-0.69027 0.70485,-1.2335 0.84093,-1.20718 0.40093,0.0775 0.1204,1.02281 -0.65903,2.22023 -0.39972,0.61411 -0.80324,1.55017 -0.89673,2.08012 l -0.17016,0.96351 1.58354,-1.26689 c 1.42513,-1.14015 1.83246,-1.62948 1.28758,-1.54681 -0.10474,0.0158 -0.0492,-0.39517 0.12318,-0.91345 0.48138,-1.44682 -0.14891,-1.24283 -0.70953,0.22963 -0.31134,0.81772 -0.45255,1.01297 -0.39324,0.54374 0.12827,-1.01453 0.92365,-2.4364 1.25496,-2.24331 0.15052,0.0878 0.28827,0.45229 0.30609,0.81013 0.0312,0.62499 0.0568,0.62061 0.65231,-0.11154 0.35314,-0.43415 0.83958,-0.71959 1.13042,-0.66333 0.63856,0.12352 0.59578,0.35608 -0.20488,1.11394 -0.74417,0.7043 -0.91669,1.19704 -0.28715,0.82009 0.24198,-0.14488 0.56577,-0.14298 0.71955,0.005 0.17234,0.16499 0.23092,0.13613 0.15276,-0.0753 -0.14039,-0.37972 0.75483,-0.77818 1.4474,-0.64423 0.37356,0.0723 0.37761,0.14457 0.0258,0.45865 -0.67718,0.60449 -2.49643,1.08837 -2.73221,0.72674 -0.13372,-0.2051 -0.38421,-0.0678 -0.70208,0.38448 -0.27181,0.38681 -0.92865,1.06802 -1.45962,1.51381 l -0.96542,0.81052 1.25416,-0.75468 c 1.45739,-0.87695 3.74493,-1.85898 4.14847,-1.78093 0.15331,0.0296 0.3327,0.19981 0.39862,0.37814 0.13769,0.37242 -0.51499,1.04131 -0.93651,0.95977 -0.18443,-0.0357 -0.15335,-0.15026 0.0892,-0.32881 0.20472,-0.15074 0.39011,-0.379 0.41195,-0.50726 0.0424,-0.24868 -0.60269,-0.0687 -1.55083,0.43265 -0.53671,0.28384 -0.50199,0.31616 0.46845,0.43606 0.57645,0.0713 1.50714,0.12281 2.06817,0.11463 1.13937,-0.0168 1.31097,0.40816 0.28633,0.70895 -0.58696,0.1723 -0.5982,0.1989 -0.12985,0.30733 0.9369,0.21687 -0.27094,0.74668 -1.52896,0.67065 -1.20873,-0.073 -1.4541,-0.38919 -0.49534,-0.63815 0.42197,-0.10952 0.16001,-0.22941 -0.98584,-0.45105 -0.85823,-0.166 -1.56048,-0.18235 -1.56054,-0.0364 -1.3e-4,0.32669 -2.54119,0.87298 -3.5441,0.76192 -0.4028,-0.0446 -1.18154,-0.13222 -1.73053,-0.19477 l -0.998167,-0.11368 1.005927,0.46662 c 0.55324,0.25663 1.2224,0.45007 1.487,0.42987 0.73661,-0.0563 0.52672,0.27532 -0.75787,1.1972 -1.07022,0.76802 -2.076117,0.98829 -2.064847,0.45218 z m 1.660437,-0.48929 c 0.5657,-0.37699 0.66345,-0.51291 0.28643,-0.39832 -0.91244,0.27737 -1.798277,0.82505 -1.45733,0.90103 0.17166,0.0386 0.69863,-0.18796 1.1709,-0.50271 z m -1.444227,-0.43155 c 1.853117,-0.25712 1.821927,-0.2431 1.292607,-0.58134 -0.26919,-0.17201 -0.56318,-0.23825 -0.65328,-0.14718 -0.0902,0.091 -0.671507,0.2786 -1.291967,0.41683 -1.27285,0.28356 -0.79377,0.51239 0.65263,0.31172 z m 10.431707,-1.30324 c -0.0714,-0.10964 -0.29639,-0.1634 -0.49973,-0.11945 -0.22472,0.0486 -0.17376,0.12678 0.12998,0.19938 0.27485,0.0656 0.44124,0.0297 0.36975,-0.0799 z m -1.65827,-0.98471 c 0.0236,-0.13917 -0.20453,-0.23308 -0.50713,-0.20865 -0.30263,0.0244 -0.55845,0.0925 -0.56846,0.15143 -0.01,0.0589 0.2182,0.15276 0.50715,0.20866 0.28895,0.0559 0.54477,-0.0122 0.56844,-0.15144 z m -0.50362,-4.09151 c -0.14438,-0.22141 -1.48415,1.43204 -1.56682,1.93368 -0.0382,0.23052 0.32171,-0.0753 0.79937,-0.67977 0.47765,-0.60442 0.82301,-1.16869 0.76745,-1.25391 z m 1.68531,1.17652 c -0.0663,-0.10167 -0.29281,-0.0568 -0.50348,0.0995 -0.30444,0.22593 -0.27973,0.26384 0.12045,0.18474 0.2769,-0.0548 0.44925,-0.18264 0.38303,-0.28425 z m -15.469155,1.39392 c -1.737255,-1.78473 -3.648752,-5.15903 -3.136261,-5.53634 0.10005,-0.0736 0.241851,0.18775 0.315245,0.58082 0.191069,1.02345 2.486256,4.3649 3.613136,5.2602 0.52583,0.41776 0.76483,0.72776 0.53111,0.68886 -0.23374,-0.0386 -0.82917,-0.48598 -1.32323,-0.99354 z m 7.219955,-0.42941 c -0.12743,-0.98765 -0.0963,-1.68738 0.0808,-1.81777 0.47197,-0.34746 0.71331,0.99508 0.40684,2.26318 l -0.28046,1.16037 z m 10.96442,1.37342 c 0.0284,-0.16729 1.17285,-1.22923 3.08054,-2.85865 1.18621,-1.01318 0.52818,-0.18038 -1.12792,1.42746 -1.36642,1.32664 -2.01583,1.80263 -1.95262,1.43119 z m -9.21693,-7.17759 c 0.14481,-0.49105 0.43554,-1.47835 0.64609,-2.194 0.24413,-0.8298 0.66418,-1.53215 1.15942,-1.93866 l 0.77659,-0.63744 -0.74295,0.94701 c -0.45432,0.57911 -0.91605,1.64118 -1.18854,2.73386 -0.2451,0.98274 -0.55095,1.83074 -0.67973,1.88443 -0.12876,0.0537 -0.1157,-0.30417 0.0291,-0.7952 z m 5.97461,-7.2502 c 0.0128,-0.075 0.42353,-0.33615 0.9128,-0.58034 0.48926,-0.24418 0.87134,-0.33687 0.84906,-0.20596 -0.0223,0.1309 -0.43304,0.39205 -0.91278,0.58034 -0.47974,0.18828 -0.86182,0.28097 -0.84908,0.20596 z m 3.21885,32.32122 c 1.86303,0.1351 3.8298,0.14252 4.37061,0.0165 1.45245,-0.33848 2.47521,-1.52282 3.96777,-4.59458 1.15776,-2.3828 1.35211,-2.9915 1.45984,-4.57296 0.11474,-1.68433 0.0789,-1.82162 -0.46805,-1.78945 -1.90889,0.11225 -5.26177,-0.2055 -6.40941,-0.60754 -0.72649,-0.2545 -1.50222,-0.51856 -1.72389,-0.58679 -0.22558,-0.0694 -1.41387,0.80654 -2.69966,1.99014 -2.30727,2.12398 -5.12981,4.12189 -8.02546,5.68081 -0.85682,0.46127 -1.48396,0.94033 -1.39364,1.06457 0.16257,0.22365 2.91562,1.82658 3.88742,2.26342 1.01942,0.45825 3.73357,0.8965 7.03447,1.13589 z m -4.59709,-8.18615 c 2.61569,-2.05464 4.41498,-3.71697 4.48806,-4.14648 0.0221,-0.13051 -0.55908,-0.35327 -1.29178,-0.49499 -0.83392,-0.16132 -1.45291,-0.44284 -1.65494,-0.75272 -0.17753,-0.27227 -0.58104,-0.54037 -0.89672,-0.59582 -0.5615,-0.0988 -0.56166,-0.0901 -0.007,0.39277 0.42442,0.36908 0.46723,0.51959 0.16978,0.59673 -0.21882,0.0567 -0.13733,0.0868 0.18103,0.0669 0.35002,-0.0219 0.78898,0.23502 1.11038,0.64999 l 0.53153,0.68622 -0.95287,-0.27783 c -0.91742,-0.26748 -1.83031,-1.05126 -1.50418,-1.29138 0.24338,-0.17916 -0.57057,-1.01559 -1.09754,-1.12782 -0.41446,-0.0877 -0.41076,0.0716 0.0311,1.36668 0.27514,0.80664 0.73596,1.75411 1.02402,2.10548 0.7955,0.97036 0.36552,0.95445 -0.57006,-0.0212 -0.45301,-0.47238 -0.74956,-0.91341 -0.65899,-0.9801 0.24133,-0.17767 -0.26496,-1.75878 -0.79975,-2.49759 -0.25402,-0.35093 -0.47727,-0.54749 -0.49611,-0.43683 -0.0506,0.29759 0.29492,1.35209 0.6618,2.01946 0.37077,0.67448 0.28263,2.56179 -0.12764,2.73281 -0.15254,0.0636 -0.32956,0.42229 -0.39336,0.79713 -0.14973,0.8797 -0.87917,0.76702 -0.93665,-0.14468 -0.0234,-0.37163 0.0237,-0.84147 0.10474,-1.04407 0.19702,-0.49262 -0.7244,-0.8764 -1.09026,-0.45411 -0.1587,0.18318 -0.32135,0.58626 -0.36143,0.89573 -0.0595,0.45884 -0.0141,0.441 0.24546,-0.0967 0.23491,-0.48656 0.25141,-0.2566 0.063,0.87734 -0.14077,0.84514 -0.20921,2.10163 -0.15277,2.79207 l 0.10258,1.25535 0.85187,-0.42518 c 0.46856,-0.23385 2.01033,-1.33511 3.42618,-2.44727 z m 0.58121,-3.11232 c -0.27601,-0.35112 -0.48591,-0.73196 -0.46646,-0.84632 0.0195,-0.11439 0.21014,0.0209 0.42368,0.30061 0.72686,0.95196 1.11409,1.15104 0.68612,0.35277 l -0.4119,-0.7683 0.56858,0.55743 c 0.31273,0.30659 0.58958,0.71261 0.61522,0.90225 0.0728,0.538 -0.85822,0.2101 -1.41524,-0.49844 z m 22.19131,9.50781 c 1.13909,-0.11641 2.77687,-0.27253 3.63954,-0.34687 1.69412,-0.146 3.43837,-1.05976 5.32448,-2.78939 1.06476,-0.97642 1.71995,-1.98293 4.37721,-6.72426 0.68171,-1.21635 1.4685,-2.47311 1.7484,-2.79281 0.2799,-0.31968 0.42662,-0.70252 0.32603,-0.85074 -0.51677,-0.76147 -6.39703,-5.48481 -8.31706,-6.68069 -1.21433,-0.75637 -2.07978,-1.35691 -1.9232,-1.33454 0.60719,0.0867 3.7937,2.13779 5.72262,3.68341 1.11309,0.89192 1.90261,1.39326 1.75452,1.11409 -0.47741,-0.89991 -2.24502,-2.32995 -4.4835,-3.62726 -2.03891,-1.18167 -2.41964,-1.30634 -5.74207,-1.88042 -3.90195,-0.67424 -4.73641,-0.5755 -8.65352,1.02392 -1.64984,0.67365 -1.68024,0.70521 -1.89824,1.97063 -0.28625,1.66368 -1.58588,3.58621 -3.18358,4.7108 -0.94269,0.66355 -1.64302,0.89386 -2.91082,0.95727 -1.68118,0.0841 -5.76763,1.10779 -6.12999,1.53564 -0.10728,0.12661 0.25154,0.3392 0.7973,0.47238 0.54577,0.13315 1.33923,0.35606 1.76323,0.49524 3.69296,1.2124 7.827,1.8662 9.42067,1.48992 0.72368,-0.17089 0.28207,4.23029 -0.56366,5.61745 -0.72274,1.18544 -0.89955,2.00728 -0.45572,2.1184 0.17897,0.0445 1.00438,0.39577 1.83441,0.77996 1.96013,0.90726 4.94141,1.32482 7.55295,1.05787 z m -13.792,-11.71269 c 0.51655,-0.38045 4.66985,0.22195 5.25343,0.76196 0.32356,0.29939 -0.0946,0.25184 -1.67842,-0.19083 -1.35169,-0.37779 -2.44363,-0.53384 -3.04019,-0.43446 -0.75527,0.1258 -0.85618,0.1 -0.53482,-0.1367 z m -11.64128,3.49729 c -0.17571,-0.26951 -0.25875,-0.2533 -0.31221,0.061 -0.0945,0.55501 0.19485,0.99878 0.39623,0.60777 0.0855,-0.16587 0.0477,-0.4668 -0.084,-0.66872 z m 0.81034,-1.43302 c -0.002,-0.42868 -0.20706,-1.27056 -0.45534,-1.87092 -0.24825,-0.60032 -0.41356,-1.31363 -0.36735,-1.5851 0.0521,-0.30679 -0.11402,-0.53189 -0.43926,-0.5948 -0.50813,-0.0983 -0.51661,-0.0646 -0.29379,1.16883 0.12619,0.69852 0.30955,1.40881 0.40747,1.57844 0.0979,0.16963 0.12886,0.59738 0.0688,0.95056 -0.12807,0.7525 0.28978,0.94808 0.57761,0.27034 0.10896,-0.2565 0.12028,-0.13798 0.0252,0.26336 -0.10823,0.45642 -0.0506,0.70518 0.15391,0.66421 0.18935,-0.0379 0.32514,-0.39334 0.32287,-0.84491 z m -23.57703,-5.7508 c 1.733777,-0.3668 3.109825,-0.78193 3.057837,-0.92254 -0.05189,-0.14061 -0.850069,-0.4018 -1.773522,-0.58044 -2.900335,-0.56102 -6.064967,-0.21983 -6.216463,0.67024 -0.07164,0.42141 1.034337,1.53087 1.506472,1.51108 0.150317,-0.006 1.69186,-0.31155 3.425676,-0.67834 z m 22.22141,5.35882 c 0.0266,-0.1931 -0.1033,-0.83467 -0.28861,-1.42567 l -0.33704,-1.07456 -0.14482,0.78402 c -0.16267,0.88033 0.0843,1.94398 0.46865,2.01832 0.1394,0.027 0.27523,-0.10904 0.30182,-0.30211 z m -19.033738,-9.261 c 0.04166,-0.24507 0.626557,-1.26747 1.299657,-2.27199 0.6731,-1.00453 1.529371,-2.2851 1.902828,-2.8457 0.599238,-0.89953 3.158286,-2.86616 6.796208,-5.22291 l 1.17822,-0.76327 -0.38553,-1.50267 c -0.50511,-1.96872 -1.04624,-2.15208 -2.80562,-0.95064 -0.747556,0.5105 -2.253437,1.45574 -3.346407,2.10057 -2.047739,1.20811 -4.438027,3.28126 -5.53172,4.79777 -0.80479,1.11594 -0.851888,2.3493 -0.189529,4.96321 0.498996,1.96927 0.92238,2.63282 1.081893,1.69563 z m 13.175011,0.2691 c -0.67829,-1.61631 -1.441828,-2.73019 -1.937188,-2.82601 -0.63603,-0.12303 -0.63881,0.0962 -0.0206,1.62181 0.714598,1.76354 1.507938,2.72063 1.985718,2.39562 0.28255,-0.19222 0.27614,-0.46689 -0.0279,-1.19142 z m 28.234997,-3.36075 2.33489,-0.68323 -0.29593,-2.14409 c -0.45429,-3.29114 -0.71154,-3.79471 -2.42554,-4.74788 -0.81799,-0.45488 -2.04086,-0.93606 -2.71752,-1.06929 -1.14546,-0.22591 -1.25651,-0.32175 -1.61199,-1.39752 -0.63532,-1.9227 -1.31007,-2.45718 -3.54593,-2.80865 l -0.88106,-0.13851 0.59095,1.19578 c 0.73133,1.47982 0.90801,2.66647 0.74072,4.97502 -0.12483,1.72262 -0.0952,1.81947 0.74554,2.43528 1.23307,0.90318 2.70965,3.08413 2.74696,4.05729 0.0766,1.99918 0.0184,1.91947 1.05087,1.44128 0.51321,-0.23772 1.98384,-0.7397 3.26804,-1.11546 z M 83.426803,120.99119 c 0.408552,-0.21596 3.372615,-0.5098 4.439254,-0.44008 0.638126,0.0417 0.588534,0.002 -0.239155,-0.18915 -2.153723,-0.49869 -6.259201,0.36201 -7.953478,1.66738 -0.793621,0.61145 -0.710668,0.60458 1.290924,-0.1069 1.176477,-0.41818 2.28458,-0.83725 2.462455,-0.93127 z m 42.982307,4.38232 c -1.13411,-1.57272 -1.5012,-1.88206 -2.86704,-2.41587 -0.86151,-0.33672 -1.64093,-0.62664 -1.73204,-0.64426 -0.0911,-0.0176 0.16629,0.6809 0.57203,1.55228 0.66956,1.43811 0.83457,1.60351 1.78762,1.79212 0.57754,0.11392 1.5516,0.48884 2.16468,0.83233 0.61308,0.3435 1.17336,0.6386 1.24507,0.65579 0.0716,0.0172 -0.45495,-0.78038 -1.17032,-1.77239 z m -29.996015,-8.13493 c 0.72798,-0.80102 1.651708,-1.78226 2.052688,-2.18053 0.68848,-0.68379 0.6647,-0.68035 -0.42667,0.0617 -0.635678,0.4322 -1.642008,1.47039 -2.236298,2.30712 -1.27919,1.801 -1.16583,1.76603 0.61028,-0.18824 z m 18.761945,0.72176 c -1.7217,-2.50881 -4.01781,-4.90826 -4.41619,-4.61496 -0.0768,0.0565 0.17137,0.47014 0.55149,0.91914 0.38012,0.44899 1.40399,1.69911 2.27525,2.77806 0.87127,1.07895 1.89256,2.24535 2.26953,2.59201 0.37701,0.34666 0.66868,0.72884 0.64815,0.84929 -0.0205,0.12044 0.11149,0.24191 0.29324,0.2699 0.18185,0.0276 -0.54789,-1.22905 -1.62147,-2.79344 z m -23.874063,3.93085 c -0.191394,-0.19078 -0.229763,-0.32399 -0.08536,-0.29605 0.144478,0.0279 0.41927,0.2069 0.610651,0.39768 0.191372,0.19078 0.229754,0.324 0.08536,0.29605 -0.144487,-0.028 -0.41928,-0.2069 -0.610651,-0.39768 z"
       style="display:inline;opacity:0.578;fill:#000000;stroke-width:0.27523744" />
    <path
       id="path5157"
       d="m 73.517122,109.70385 c -4.00466,0 -4.378467,0.10179 -4.378467,1.1652 0,0.96893 0.371218,1.16179 2.237687,1.16179 h 2.24042 l -0.07513,10.60738 c -0.04202,5.83462 -0.231377,13.74844 -0.420496,17.58493 l -0.344719,6.97551 -1.819959,0.18058 c -1.366379,0.13674 -1.817853,0.46241 -1.817853,1.3076 h 0.0036 c 0,1.0452 0.439614,1.12636 6.158802,1.12636 5.786537,0 6.159478,-0.0697 6.159478,-1.16179 0,-0.93581 -0.374119,-1.16179 -1.914805,-1.16179 -3.885084,0 -3.689018,0.801 -3.640536,-15.03241 l 0.04431,-14.32237 1.586476,3.48605 c 0.872247,1.91823 3.270807,7.54281 5.330077,12.49827 7.487545,18.01824 7.004517,17.24996 8.452487,13.5156 3.357701,-8.6597 11.703926,-29.02151 12.078676,-29.47062 0.25319,-0.30376 0.45939,5.8532 0.45939,13.68595 0,2.84539 0.15586,5.17302 0.39118,7.07772 l -0.0813,3.35727 c -0.40302,0.97665 -0.31914,2.27198 -0.0833,3.44312 l -0.0813,3.34773 c -0.042,5.83461 -0.23141,13.74911 -0.42053,17.58561 l -0.34543,6.97483 -1.81991,0.18125 c -1.36642,0.13674 -1.817187,0.46173 -1.817187,1.30693 h 0.004 c 0,1.04519 0.440307,1.12704 6.159457,1.12704 5.78657,0 6.1588,-0.0704 6.1588,-1.16248 0,-0.93581 -0.37415,-1.16179 -1.91481,-1.16179 -3.88508,0 -3.6883,0.801 -3.63985,-15.0324 l 0.0355,-11.51024 c 0.0889,-0.0741 0.0784,-0.20426 10e-4,-0.42042 l 0.007,-2.39103 1.58645,3.48605 c 0.87224,1.91822 3.27015,7.54281 5.32941,12.49827 7.48755,18.01823 7.00452,17.24928 8.45248,13.51491 3.35768,-8.6597 11.70394,-29.0215 12.0787,-29.47062 0.25318,-0.30376 0.45939,5.85388 0.45939,13.68663 0,15.24176 -0.072,15.63885 -2.81931,15.63885 -1.75444,0 -2.25013,0.40727 -1.84246,1.51067 0.23617,0.63837 1.80503,0.8136 7.24216,0.8136 6.56647,0 6.93839,-0.0626 6.93839,-1.16248 0,-0.9277 -0.3732,-1.16179 -1.8479,-1.16179 -1.01632,0 -2.14948,-0.31356 -2.51894,-0.69708 -0.49048,-0.50895 -0.67107,-5.05424 -0.67107,-16.81085 0,-8.86166 0.15304,-16.52433 0.33998,-17.03028 0.22944,-0.62025 1.04696,-0.91989 2.51826,-0.91988 1.80674,0 2.17967,-0.199 2.17967,-1.16247 0,-1.0695 -0.37192,-1.1652 -4.65358,-1.1652 h -4.6563 l -4.36688,10.90038 c -6.48837,16.18701 -8.31349,20.49009 -8.67503,20.47135 -0.17929,-0.01 -3.20573,-7.07188 -6.72676,-15.69404 l -6.33361,-15.50462 c -0.0533,-1.81646 -0.086,-3.90526 -0.086,-6.33362 0,-8.86166 0.15236,-16.52364 0.33931,-17.02959 0.22942,-0.62025 1.04767,-0.92058 2.51895,-0.92058 1.80674,0 2.17966,-0.19831 2.17966,-1.16179 0,-1.0695 -0.37191,-1.1652 -4.65356,-1.1652 h -4.65631 l -4.366887,10.90039 c -6.488358,16.18701 -8.313449,20.49008 -8.675023,20.47134 -0.179305,-0.01 -3.206432,-7.07187 -6.727434,-15.69404 l -6.403952,-15.67769 z"
       style="fill:#000000;stroke-width:0.5705272" />
    <g
       transform="matrix(1.1573393,0.4277203,-0.45672056,1.083852,-289.58285,-83.103635)"
       id="text5196"
       style="font-style:normal;font-variant:normal;font-weight:normal;font-stretch:normal;font-size:5.64444447px;line-height:1.25;font-family:'Felix Titling';-inkscape-font-specification:'Felix Titling, Normal';font-variant-ligatures:normal;font-variant-caps:normal;font-variant-numeric:normal;font-feature-settings:normal;text-align:start;letter-spacing:-0.25929168px;word-spacing:1.26470828px;writing-mode:lr-tb;text-anchor:start;fill:#000000;fill-opacity:1;stroke:none;stroke-width:0.26458332"
       aria-label="Modern Magnolia">
      <path
         id="path5198"
         d="m 343.02307,25.108976 c 0.26556,-0.134871 0.53203,-0.268216 0.7994,-0.399986 l 0.0235,0.04766 c -0.26355,0.145712 -0.33207,0.34317 -0.20844,0.590076 0.0265,0.05282 0.0697,0.122217 0.12989,0.208365 0.76493,1.09103 1.52097,2.187297 2.2678,3.288761 0.11764,0.163241 0.20706,0.261465 0.26846,0.294523 0.0626,0.02988 0.15547,0.02124 0.27895,-0.02546 l 0.0216,0.04464 c -0.3558,0.172366 -0.71041,0.347897 -1.06381,0.526443 l -0.0224,-0.04427 c 0.14089,-0.06591 0.17676,-0.168212 0.10693,-0.307643 -0.0159,-0.03164 -0.0535,-0.09079 -0.11295,-0.177206 -0.73404,-1.061367 -1.47657,-2.117802 -2.22729,-3.169268 0.0583,1.586751 0.15491,3.164099 0.28603,4.730755 -0.0106,0.0057 -0.0211,0.01146 -0.0317,0.01719 -1.24623,-0.958295 -2.52056,-1.891802 -3.81889,-2.80043 0.47778,1.206577 0.96313,2.40911 1.45578,3.607537 0.0215,0.05577 0.0513,0.116214 0.0894,0.181377 0.0691,0.118143 0.17323,0.136454 0.31244,0.05582 l 0.0249,0.04283 c -0.23373,0.135387 -0.46686,0.271911 -0.69938,0.409526 l -0.0253,-0.04256 c 0.10547,-0.06243 0.16496,-0.115177 0.17838,-0.15867 0.0155,-0.04467 0.0154,-0.09932 -3.3e-4,-0.163964 -0.0169,-0.06668 -0.0415,-0.137024 -0.0739,-0.211016 -0.53702,-1.312203 -1.06513,-2.629475 -1.58394,-3.951729 -0.20706,-0.149961 -0.36802,-0.218631 -0.48203,-0.206559 -0.11401,0.01207 -0.21286,0.04284 -0.29634,0.09212 l -0.0269,-0.04575 c 0.30554,-0.18039 0.61246,-0.359003 0.92074,-0.535752 1.28028,0.905184 2.53721,1.834368 3.76692,2.787459 -0.12121,-1.551729 -0.20832,-3.113745 -0.25765,-4.684812 z"
         style="font-style:normal;font-variant:normal;font-weight:normal;font-stretch:normal;font-size:5.64444447px;font-family:'Felix Titling';-inkscape-font-specification:'Felix Titling, Normal';font-variant-ligatures:normal;font-variant-caps:normal;font-variant-numeric:normal;font-feature-settings:normal;text-align:start;letter-spacing:-0.25929168px;word-spacing:1.26470828px;writing-mode:lr-tb;text-anchor:start;stroke-width:0.26458332" />
      <path
         id="path5200"
         d="m 347.12758,23.098592 c 0.73516,-0.315845 1.42866,-0.355867 2.06083,-0.126751 0.63248,0.227346 1.06045,0.657912 1.29785,1.278662 0.30556,0.798948 0.29854,1.57225 0.006,2.317264 -0.29288,0.746841 -0.84168,1.288164 -1.66116,1.649178 -0.66542,0.293144 -1.30311,0.329383 -1.9299,0.103144 -0.62587,-0.225915 -1.08913,-0.630055 -1.37782,-1.22517 -0.19472,-0.401382 -0.29054,-0.864805 -0.28007,-1.390746 0.0105,-0.525944 0.17144,-1.026122 0.48772,-1.496472 0.31508,-0.47219 0.78219,-0.845325 1.39617,-1.109109 z m 1.99654,4.689414 c 0.33299,-0.143917 0.62469,-0.370711 0.87971,-0.682334 0.25399,-0.313652 0.41544,-0.663934 0.48315,-1.05323 0.0677,-0.389268 0.0398,-0.749971 -0.0893,-1.08182 -0.18284,-0.470202 -0.48132,-0.846411 -0.9031,-1.12337 -0.4192,-0.277732 -0.89087,-0.436378 -1.41294,-0.472114 -0.51946,-0.03671 -0.96458,0.02731 -1.32896,0.187268 -0.5152,0.226162 -0.90104,0.615739 -1.14933,1.1611 -0.24621,0.544795 -0.23763,1.078281 0.0117,1.600099 0.31883,0.66718 0.843,1.134916 1.55682,1.419993 0.71454,0.285355 1.35887,0.300843 1.95219,0.04441 z"
         style="font-style:normal;font-variant:normal;font-weight:normal;font-stretch:normal;font-size:5.64444447px;font-family:'Felix Titling';-inkscape-font-specification:'Felix Titling, Normal';font-variant-ligatures:normal;font-variant-caps:normal;font-variant-numeric:normal;font-feature-settings:normal;text-align:start;letter-spacing:-0.25929168px;word-spacing:1.26470828px;writing-mode:lr-tb;text-anchor:start;stroke-width:0.26458332" />
      <path
         id="path5202"
         d="m 349.88481,22.126397 -0.0188,-0.04959 c 0.81617,-0.308373 1.63942,-0.600194 2.46952,-0.874208 0.63306,-0.208975 1.15288,-0.318247 1.54849,-0.336635 0.39828,-0.02143 0.76348,0.02884 1.09304,0.148806 0.32973,0.120021 0.61544,0.314304 0.85729,0.580966 0.24134,0.264501 0.40995,0.587685 0.51017,0.968019 0.0966,0.366643 0.11015,0.748822 0.046,1.14632 -0.0624,0.394555 -0.19144,0.756797 -0.38521,1.087836 -0.19449,0.328912 -0.42169,0.583788 -0.68492,0.766233 -0.26272,0.180245 -0.69331,0.361789 -1.29698,0.561197 -0.77527,0.25609 -1.54609,0.530392 -2.31224,0.82156 l -0.0175,-0.04628 c 0.0199,-0.0076 0.0399,-0.01515 0.0598,-0.0227 0.11966,-0.04532 0.18071,-0.122203 0.18317,-0.231331 0.002,-0.111202 -0.0442,-0.293036 -0.13767,-0.544788 l -1.32078,-3.555776 c -0.0985,-0.265174 -0.18318,-0.415871 -0.25459,-0.452259 -0.0688,-0.03723 -0.18198,-0.02663 -0.33883,0.03263 0,0 -10e-6,0 -2e-5,0 z m 1.84667,-0.605092 c -0.27583,0.09448 -0.5509,0.190919 -0.82519,0.289261 l 1.36642,3.801608 c 0.0861,0.239399 0.19098,0.403352 0.31369,0.491974 0.12432,0.0857 0.29413,0.120099 0.50981,0.104742 0.21526,-0.01761 0.48859,-0.08328 0.82346,-0.194323 0.92862,-0.307932 1.51279,-0.73754 1.75918,-1.329161 0.24731,-0.592826 0.30202,-1.173568 0.14489,-1.743464 -0.18451,-0.66919 -0.61944,-1.175382 -1.32654,-1.499049 -0.70234,-0.323314 -1.63706,-0.308195 -2.76574,0.07842 0,-3e-6 10e-6,-6e-6 2e-5,-8e-6 z"
         style="font-style:normal;font-variant:normal;font-weight:normal;font-stretch:normal;font-size:5.64444447px;font-family:'Felix Titling';-inkscape-font-specification:'Felix Titling, Normal';font-variant-ligatures:normal;font-variant-caps:normal;font-variant-numeric:normal;font-feature-settings:normal;text-align:start;letter-spacing:-0.25929168px;word-spacing:1.26470828px;writing-mode:lr-tb;text-anchor:start;stroke-width:0.26458332" />
      <path
         id="path5204"
         d="m 355.92768,20.20472 -0.0151,-0.05811 c 1.04482,-0.271824 2.09953,-0.513987 3.16373,-0.72415 0.12092,-0.02376 0.24195,-0.04706 0.36308,-0.06989 l 0.13235,0.705906 c -0.019,0.0036 -0.038,0.0072 -0.057,0.01076 -0.12542,-0.247448 -0.22034,-0.388983 -0.28287,-0.424852 -0.0258,-0.01562 -0.0649,-0.02422 -0.11727,-0.0257 -0.0695,-0.0019 -0.16255,0.0087 -0.27881,0.03228 -0.61872,0.125505 -1.23424,0.261856 -1.84647,0.408589 l 0.54235,2.271564 c 0.54345,-0.129772 1.08921,-0.250696 1.63722,-0.362399 0.16289,-0.0332 0.26343,-0.06733 0.30188,-0.103816 0.0379,-0.03872 0.0528,-0.08607 0.0444,-0.142101 0.003,-6.63e-4 0.007,-0.0013 0.0102,-0.002 0.0149,-0.0029 0.0299,-0.0058 0.0448,-0.0087 l 0.0938,0.482684 c -0.0148,0.0029 -0.0295,0.0057 -0.0443,0.0086 -0.003,6.55e-4 -0.007,0.0013 -0.0101,0.002 -0.0252,-0.06476 -0.0631,-0.104201 -0.11374,-0.118252 -0.0482,-0.0145 -0.13305,-0.0098 -0.25422,0.0148 -0.56107,0.113775 -1.1198,0.237272 -1.67614,0.370089 l 0.37333,1.563634 c 0.0563,0.235876 0.11919,0.401496 0.18794,0.496471 0.0683,0.09278 0.15258,0.141895 0.25308,0.147633 0.10249,0.0029 0.24966,-0.01766 0.4429,-0.06047 0.29885,-0.06621 0.59827,-0.129449 0.89826,-0.189656 0.12788,-0.02567 0.23422,-0.04836 0.32015,-0.0688 0.10611,-0.02536 0.17974,-0.04696 0.2213,-0.06546 0.0768,-0.03611 0.13754,-0.08816 0.18234,-0.156363 0.0443,-0.07048 0.0635,-0.208287 0.0576,-0.413346 0.0164,-0.003 0.0327,-0.0059 0.0491,-0.0089 l 0.12773,0.706838 c -0.2015,0.03621 -0.40276,0.07383 -0.60374,0.112846 -0.95737,0.184801 -1.90919,0.400906 -2.85506,0.645976 l -0.0124,-0.04786 c 0.11434,-0.03695 0.1965,-0.08091 0.24659,-0.132442 0.0517,-0.05435 0.0579,-0.160345 0.0183,-0.317903 l -1.02626,-4.076419 c -0.0466,-0.185035 -0.0968,-0.310691 -0.15103,-0.37718 -0.0541,-0.06636 -0.17694,-0.07555 -0.36769,-0.02593 -6e-5,1.2e-5 -1.2e-4,2.4e-5 -1.8e-4,3.6e-5 z"
         style="font-style:normal;font-variant:normal;font-weight:normal;font-stretch:normal;font-size:5.64444447px;font-family:'Felix Titling';-inkscape-font-specification:'Felix Titling, Normal';font-variant-ligatures:normal;font-variant-caps:normal;font-variant-numeric:normal;font-feature-settings:normal;text-align:start;letter-spacing:-0.25929168px;word-spacing:1.26470828px;writing-mode:lr-tb;text-anchor:start;stroke-width:0.26458332" />
      <path
         id="path5206"
         d="m 359.8037,19.33929 -0.009,-0.05224 c 0.53841,-0.09728 1.07878,-0.185364 1.62078,-0.26408 0.41048,-0.05962 0.71447,-0.09007 0.89919,-0.09682 0.18665,-0.0068 0.38204,0.02563 0.58474,0.09765 0.20507,0.0694 0.36481,0.179513 0.47933,0.328954 0.11436,0.147197 0.18229,0.335982 0.20547,0.56616 0.0265,0.26307 -0.0348,0.522776 -0.17947,0.780215 -0.14249,0.254924 -0.35601,0.481352 -0.63908,0.682409 0.15111,0.171721 0.30067,0.344194 0.44868,0.517397 0.10469,0.139087 0.34726,0.406879 0.74958,0.856725 0.39868,0.442892 0.68628,0.711206 0.88319,0.802678 0.19561,0.0886 0.37992,0.127253 0.55505,0.115597 0.17287,-0.01151 0.36668,-0.09074 0.58509,-0.236814 0.008,0.0232 0.0165,0.0464 0.0247,0.0696 -0.26951,0.245572 -0.62372,0.382146 -1.06932,0.416926 -0.2971,0.02319 -0.55951,-0.04194 -0.79127,-0.197448 -0.23773,-0.161768 -0.64764,-0.605304 -1.29932,-1.338754 -0.006,-0.004 -0.009,-0.0084 -0.01,-0.01309 -0.21131,-0.245021 -0.42575,-0.488544 -0.64328,-0.730508 -0.15986,0.02647 -0.31955,0.0538 -0.47906,0.08198 -0.14552,0.02136 -0.29093,0.04342 -0.43622,0.06619 l 0.30912,1.972156 c 0.0248,0.158472 0.0637,0.269508 0.11624,0.332961 0.0522,0.06123 0.15789,0.07939 0.31749,0.05585 l 0.007,0.04902 c -0.44018,0.06492 -0.87947,0.136616 -1.31759,0.214968 l -0.009,-0.04875 c 0.16219,-0.03623 0.25757,-0.08835 0.28607,-0.157909 0.0307,-0.06983 0.0298,-0.201415 -0.003,-0.394371 l -0.69831,-4.084736 c -0.0227,-0.132579 -0.0605,-0.238539 -0.11397,-0.317917 -0.0537,-0.0816 -0.17885,-0.106886 -0.37495,-0.07385 2.9e-4,-4.9e-5 5.7e-4,-9.7e-5 8.5e-4,-1.45e-4 z m 1.08096,-0.09648 0.37869,2.416246 c 0.18858,-0.02956 0.37736,-0.05793 0.56632,-0.08511 0.44651,-0.06423 0.76494,-0.205978 0.95881,-0.434163 0.19346,-0.227689 0.27416,-0.505133 0.23679,-0.833407 -0.0363,-0.318795 -0.18051,-0.608061 -0.43868,-0.864519 -0.25539,-0.258622 -0.66915,-0.353261 -1.23316,-0.270354 -0.1564,0.02299 -0.31265,0.04676 -0.46877,0.07131 z"
         style="font-style:normal;font-variant:normal;font-weight:normal;font-stretch:normal;font-size:5.64444447px;font-family:'Felix Titling';-inkscape-font-specification:'Felix Titling, Normal';font-variant-ligatures:normal;font-variant-caps:normal;font-variant-numeric:normal;font-feature-settings:normal;text-align:start;letter-spacing:-0.25929168px;word-spacing:1.26470828px;writing-mode:lr-tb;text-anchor:start;stroke-width:0.26458332" />
      <path
         id="path5208"
         d="m 370.23701,18.59199 c 0.37445,0.01833 0.74876,0.04145 1.12283,0.0694 l -0.004,0.05287 c -0.17077,-0.008 -0.29113,0.01701 -0.36055,0.07376 -0.0694,0.05449 -0.10989,0.178147 -0.12218,0.371044 l -0.30144,4.730612 c -1.26279,-1.556591 -2.68997,-3.052293 -4.26212,-4.466977 l 0.1538,3.854221 c 0.005,0.122548 0.0179,0.212989 0.0389,0.271147 0.021,0.05819 0.0494,0.09721 0.0852,0.117105 0.0359,0.01996 0.12385,0.03773 0.2644,0.05458 l 0.002,0.04951 c -0.32916,0.01035 -0.65836,0.0247 -0.9875,0.04299 l -0.003,-0.04947 c 0.17696,-0.0098 0.28482,-0.04667 0.3239,-0.112383 0.0413,-0.06563 0.0568,-0.21886 0.0459,-0.459171 l -0.16001,-3.52473 c -0.014,-0.308895 -0.0729,-0.558696 -0.1789,-0.749835 -0.1031,-0.19082 -0.32821,-0.271456 -0.67311,-0.235696 l -0.003,-0.05299 c 0.3629,-0.02268 0.72614,-0.04108 1.08964,-0.05513 1.50308,1.330111 2.87869,2.733027 4.11069,4.192039 l 0.21289,-3.670254 c 0.0115,-0.197658 -0.0207,-0.319902 -0.097,-0.366714 -0.0761,-0.0491 -0.17606,-0.07692 -0.2994,-0.08296 8.6e-4,-0.01766 0.002,-0.03531 0.003,-0.05297 z"
         style="font-style:normal;font-variant:normal;font-weight:normal;font-stretch:normal;font-size:5.64444447px;font-family:'Felix Titling';-inkscape-font-specification:'Felix Titling, Normal';font-variant-ligatures:normal;font-variant-caps:normal;font-variant-numeric:normal;font-feature-settings:normal;text-align:start;letter-spacing:-0.25929168px;word-spacing:1.26470828px;writing-mode:lr-tb;text-anchor:start;stroke-width:0.26458332" />
      <path
         id="path5210"
         d="m 380.55128,20.391915 c 0.29236,0.09062 0.5836,0.184359 0.87368,0.281172 l -0.0168,0.05028 c -0.2974,-0.08432 -0.48798,0.0078 -0.57223,0.269872 -0.018,0.05611 -0.0355,0.135799 -0.0525,0.23927 -0.21313,1.312505 -0.44487,2.620448 -0.69489,3.92358 -0.0323,0.197965 -0.0391,0.330021 -0.0201,0.396242 0.022,0.06482 0.0913,0.123277 0.2077,0.176369 l -0.0163,0.0467 c -0.36137,-0.126134 -0.72447,-0.246562 -1.08918,-0.361121 l 0.0148,-0.04719 c 0.1418,0.04946 0.23655,0.0011 0.28415,-0.147067 0.0108,-0.03358 0.0255,-0.102009 0.0437,-0.204926 0.22198,-1.267263 0.42647,-2.538888 0.61317,-3.814646 -1.07099,1.174465 -2.07864,2.386494 -3.01821,3.633751 -0.0112,-0.0028 -0.0224,-0.0056 -0.0336,-0.0083 -0.0426,-0.26524 -0.0875,-0.53059 -0.13466,-0.796031 -0.22593,-1.276185 -0.50526,-2.552074 -0.83627,-3.825169 -0.43368,1.221693 -0.84934,2.44806 -1.24711,3.678759 -0.0196,0.05633 -0.036,0.121588 -0.0493,0.195813 -0.0241,0.134634 0.0403,0.21525 0.1922,0.243591 l -0.009,0.04864 c -0.25508,-0.0476 -0.51077,-0.09238 -0.76701,-0.134385 l 0.008,-0.04882 c 0.11634,0.01907 0.19283,0.01664 0.22994,-0.0081 0.0393,-0.02437 0.0735,-0.06629 0.10267,-0.125808 0.0295,-0.06185 0.0557,-0.131434 0.0787,-0.208741 0.43284,-1.347583 0.88768,-2.689896 1.36472,-4.02646 -0.0615,-0.249078 -0.14218,-0.406624 -0.23998,-0.472249 -0.0978,-0.06563 -0.19637,-0.107012 -0.29511,-0.124151 l 0.009,-0.05222 c 0.36164,0.06277 0.72266,0.130337 1.08294,0.202744 0.27537,1.077188 0.51442,2.156183 0.71613,3.235526 0.0842,0.450344 0.16201,0.900441 0.23348,1.350202 0.94821,-1.224343 1.96212,-2.414108 3.03715,-3.567052 z"
         style="font-style:normal;font-variant:normal;font-weight:normal;font-stretch:normal;font-size:5.64444447px;font-family:'Felix Titling';-inkscape-font-specification:'Felix Titling, Normal';font-variant-ligatures:normal;font-variant-caps:normal;font-variant-numeric:normal;font-feature-settings:normal;text-align:start;letter-spacing:-0.25929168px;word-spacing:1.26470828px;writing-mode:lr-tb;text-anchor:start;stroke-width:0.26458332" />
      <path
         id="path5212"
         d="m 383.6916,24.540975 c -0.48651,-0.208922 -0.9769,-0.408475 -1.47092,-0.598306 -0.49155,0.51408 -0.9716,1.035482 -1.43976,1.564012 -0.0985,0.114552 -0.15315,0.187926 -0.16423,0.218818 -0.0263,0.07324 0.0142,0.128847 0.1208,0.167643 l -0.0169,0.04649 c -0.23811,-0.08665 -0.477,-0.170834 -0.71663,-0.252502 l 0.016,-0.04682 c 0.0964,0.03286 0.18538,0.03749 0.2674,0.01368 0.0828,-0.02603 0.19868,-0.125106 0.34924,-0.296637 1.12178,-1.286404 2.31283,-2.531795 3.56782,-3.733466 0.0305,0.01251 0.0609,0.02506 0.0914,0.03764 0.0538,1.682205 0.0337,3.352183 -0.056,5.00612 -0.0102,0.02168 -0.0145,0.142529 -0.0156,0.364227 0.002,0.220255 0.0894,0.371598 0.26299,0.456292 l -0.0217,0.04452 c -0.35954,-0.17545 -0.72142,-0.345423 -1.08552,-0.509739 l 0.0203,-0.04513 c 0.0995,0.04492 0.16735,0.02811 0.20353,-0.05132 0.0244,-0.05355 0.0392,-0.150682 0.0434,-0.291032 -0.005,-0.01246 -0.006,-0.02982 -0.004,-0.05208 0.005,-0.02359 0.007,-0.03574 0.005,-0.03645 0.0258,-0.666271 0.0401,-1.335006 0.0426,-2.005953 z m -1.37054,-0.714932 c 0.45867,0.17691 0.9142,0.362158 1.36639,0.555464 0.006,-0.64061 0.002,-1.283233 -0.0125,-1.927658 -0.46035,0.451426 -0.91174,0.908871 -1.35389,1.372194 z"
         style="font-style:normal;font-variant:normal;font-weight:normal;font-stretch:normal;font-size:5.64444447px;font-family:'Felix Titling';-inkscape-font-specification:'Felix Titling, Normal';font-variant-ligatures:normal;font-variant-caps:normal;font-variant-numeric:normal;font-feature-settings:normal;text-align:start;letter-spacing:-0.25929168px;word-spacing:1.26470828px;writing-mode:lr-tb;text-anchor:start;stroke-width:0.26458332" />
      <path
         id="path5214"
         d="m 388.64759,29.822946 -0.0266,0.04179 c -0.58541,-0.372997 -1.17928,-0.731798 -1.78097,-1.075472 -0.3465,-0.197916 -0.6312,-0.404369 -0.85553,-0.624347 -0.22219,-0.218803 -0.41658,-0.507318 -0.58853,-0.867747 -0.16865,-0.361202 -0.26477,-0.748056 -0.28623,-1.162237 -0.0193,-0.413152 0.0488,-0.791733 0.21239,-1.134428 0.17865,-0.374274 0.47248,-0.693512 0.8897,-0.949165 0.41941,-0.254457 0.91069,-0.385245 1.47157,-0.383812 0.56161,-6.61e-4 1.12648,0.155492 1.67979,0.469119 0.49598,0.281127 0.95936,0.685969 1.37661,1.210502 -0.0379,0.212416 -0.0768,0.424476 -0.11669,0.636171 -0.0153,-0.0096 -0.0306,-0.0191 -0.0458,-0.02864 -0.0457,-0.300999 -0.17798,-0.607718 -0.39965,-0.916847 -0.21818,-0.309757 -0.51556,-0.573185 -0.88939,-0.785004 -0.65035,-0.368507 -1.31417,-0.432742 -1.96359,-0.197273 -0.65002,0.233973 -1.13164,0.696068 -1.46524,1.367857 -0.1384,0.278709 -0.22911,0.544633 -0.27371,0.796405 -0.0436,0.249901 -0.0309,0.525168 0.0344,0.826349 0.0685,0.30012 0.17302,0.551451 0.31527,0.755314 0.14548,0.202944 0.32688,0.389587 0.54482,0.561777 0.21937,0.17035 0.3983,0.294088 0.54102,0.370726 0.0813,0.04406 0.16253,0.0884 0.2436,0.133017 0.27729,0.148232 0.45913,0.223993 0.55036,0.223535 0.0926,7.52e-4 0.18934,-0.08141 0.2896,-0.246898 l 0.40909,-0.675179 c 0.0795,-0.131224 0.10481,-0.235894 0.0755,-0.314272 -0.0281,-0.08031 -0.0963,-0.148858 -0.20444,-0.204906 l 0.0253,-0.04261 c 0.39866,0.236947 0.79369,0.480197 1.18493,0.729505 l -0.0266,0.0418 c -0.13131,-0.08367 -0.23572,-0.114318 -0.31226,-0.09274 -0.0746,0.02289 -0.15613,0.105454 -0.24497,0.247584 l -0.43534,0.696458 c -0.0876,0.140048 -0.13276,0.252456 -0.13587,0.336795 1.5e-4,0.0837 0.0487,0.155905 0.1454,0.217319 0.0207,0.01317 0.0415,0.02635 0.0622,0.03955 z"
         style="font-style:normal;font-variant:normal;font-weight:normal;font-stretch:normal;font-size:5.64444447px;font-family:'Felix Titling';-inkscape-font-specification:'Felix Titling, Normal';font-variant-ligatures:normal;font-variant-caps:normal;font-variant-numeric:normal;font-feature-settings:normal;text-align:start;letter-spacing:-0.25929168px;word-spacing:1.26470828px;writing-mode:lr-tb;text-anchor:start;stroke-width:0.26458332" />
      <path
         id="path5216"
         d="m 395.35375,28.255404 c 0.29186,0.22865 0.58119,0.460107 0.86798,0.694278 l -0.0335,0.04108 c -0.13368,-0.103072 -0.24544,-0.150785 -0.33426,-0.143719 -0.0875,0.0052 -0.19145,0.08334 -0.31238,0.234114 l -2.96569,3.697712 c -0.0646,-0.8458 -0.15254,-1.697108 -0.26528,-2.55373 -0.15478,-1.180277 -0.35906,-2.37116 -0.61611,-3.568293 l -2.13247,3.215777 c -0.0678,0.10225 -0.11015,0.183256 -0.12707,0.242797 -0.017,0.05952 -0.0167,0.107865 7.8e-4,0.14506 0.0175,0.03726 0.0788,0.103422 0.18341,0.199694 l -0.0277,0.04106 c -0.27432,-0.185107 -0.55065,-0.367109 -0.8289,-0.545905 l 0.0268,-0.04169 c 0.1496,0.09613 0.25893,0.129703 0.32923,0.09942 0.0721,-0.0289 0.17444,-0.144026 0.30639,-0.34526 l 1.93538,-2.95149 c 0.16961,-0.258649 0.26828,-0.495658 0.29459,-0.712524 0.0285,-0.214958 -0.10624,-0.411795 -0.40603,-0.584574 l 0.0284,-0.04488 c 0.30667,0.193902 0.61105,0.391238 0.91304,0.591914 0.26573,1.192077 0.47947,2.378318 0.64438,3.554518 0.10562,0.753525 0.19215,1.502965 0.26064,2.248192 l 2.28709,-2.878355 c 0.12316,-0.155006 0.16759,-0.273212 0.13284,-0.354924 -0.0333,-0.08346 -0.098,-0.163105 -0.1941,-0.238434 0.0109,-0.01395 0.0217,-0.02789 0.0326,-0.04184 z"
         style="font-style:normal;font-variant:normal;font-weight:normal;font-stretch:normal;font-size:5.64444447px;font-family:'Felix Titling';-inkscape-font-specification:'Felix Titling, Normal';font-variant-ligatures:normal;font-variant-caps:normal;font-variant-numeric:normal;font-feature-settings:normal;text-align:start;letter-spacing:-0.25929168px;word-spacing:1.26470828px;writing-mode:lr-tb;text-anchor:start;stroke-width:0.26458332" />
      <path
         id="path5218"
         d="m 398.83056,31.110034 c 0.59196,0.54471 0.91181,1.163529 0.9591,1.834286 0.049,0.670348 -0.17214,1.235994 -0.6441,1.703918 -0.6078,0.60261 -1.31777,0.907965 -2.11604,0.94254 -0.80029,0.03467 -1.51274,-0.24632 -2.1698,-0.841428 -0.53338,-0.483086 -0.82295,-1.043276 -0.87386,-1.703166 -0.0508,-0.658549 0.12256,-1.246705 0.54123,-1.756629 0.28243,-0.343987 0.6623,-0.624431 1.14462,-0.832905 0.48236,-0.208492 1.00528,-0.267992 1.56657,-0.17163 0.56234,0.0945 1.09789,0.370086 1.59228,0.825014 z m -3.4634,3.729427 c 0.2647,0.243758 0.58826,0.416981 0.97493,0.523089 0.38814,0.104363 0.77287,0.110152 1.15593,0.0146 0.38303,-0.09554 0.70157,-0.266774 0.95299,-0.518942 0.35616,-0.357224 0.57975,-0.782321 0.66202,-1.279991 0.084,-0.495609 0.0374,-0.991234 -0.1435,-1.483202 -0.17893,-0.490028 -0.42078,-0.871332 -0.71765,-1.139595 -0.41971,-0.379262 -0.93659,-0.57324 -1.53725,-0.575681 -0.59958,-7.76e-4 -1.08042,0.228363 -1.45014,0.671448 -0.47254,0.566317 -0.67889,1.236358 -0.64638,1.999897 0.0326,0.764771 0.27739,1.354022 0.74905,1.78838 z"
         style="font-style:normal;font-variant:normal;font-weight:normal;font-stretch:normal;font-size:5.64444447px;font-family:'Felix Titling';-inkscape-font-specification:'Felix Titling, Normal';font-variant-ligatures:normal;font-variant-caps:normal;font-variant-numeric:normal;font-feature-settings:normal;text-align:start;letter-spacing:-0.25929168px;word-spacing:1.26470828px;writing-mode:lr-tb;text-anchor:start;stroke-width:0.26458332" />
      <path
         id="path5220"
         d="m 397.04087,36.724571 0.0352,-0.03486 c 0.11501,0.116147 0.21057,0.17002 0.28762,0.161005 0.0786,-0.0073 0.17116,-0.06278 0.27733,-0.166638 l 3.04916,-2.98276 c 0.1079,-0.105546 0.17103,-0.196023 0.1893,-0.271704 0.0199,-0.0772 -0.0407,-0.191418 -0.1829,-0.341301 l 0.0377,-0.03736 c 0.3597,0.362125 0.71474,0.72849 1.06518,1.09885 l -0.0386,0.03645 c -0.0975,-0.103044 -0.17811,-0.163561 -0.24114,-0.181771 -0.063,-0.0182 -0.117,-0.01826 -0.16183,-2.88e-4 -0.0449,0.01799 -0.12428,0.08162 -0.2384,0.190941 l -2.64135,2.530328 c -0.22643,0.216917 -0.33334,0.425977 -0.32224,0.625846 0.0128,0.198705 0.1454,0.431124 0.39589,0.702056 0.14545,0.15732 0.29012,0.315482 0.43402,0.474463 0.20781,0.229598 0.41428,0.348552 0.62263,0.355891 0.2095,0.0091 0.47737,-0.117298 0.80212,-0.380287 0.0112,0.01276 0.0224,0.02553 0.0336,0.0383 l -0.94167,0.826801 c -0.79607,-0.907666 -1.61633,-1.790374 -2.4616,-2.643964 z"
         style="font-style:normal;font-variant:normal;font-weight:normal;font-stretch:normal;font-size:5.64444447px;font-family:'Felix Titling';-inkscape-font-specification:'Felix Titling, Normal';font-variant-ligatures:normal;font-variant-caps:normal;font-variant-numeric:normal;font-feature-settings:normal;text-align:start;letter-spacing:-0.25929168px;word-spacing:1.26470828px;writing-mode:lr-tb;text-anchor:start;stroke-width:0.26458332" />
      <path
         id="path5222"
         d="m 404.52913,37.221622 -0.0408,0.03405 c -0.0423,-0.06177 -0.10422,-0.119059 -0.18554,-0.17164 -0.0797,-0.05065 -0.14608,-0.06517 -0.19911,-0.04382 -0.0514,0.02333 -0.15453,0.100515 -0.30954,0.231642 l -3.05734,2.586169 c -0.16576,0.140215 -0.26223,0.232824 -0.28926,0.277565 -0.0237,0.04512 -0.032,0.09746 -0.0251,0.157032 0.0103,0.05994 0.0577,0.139997 0.14176,0.240732 l -0.038,0.03177 c -0.30015,-0.359522 -0.60387,-0.715574 -0.91121,-1.067914 l 0.0373,-0.03259 c 0.11582,0.132783 0.21229,0.194144 0.29042,0.183438 0.0798,-0.01224 0.21014,-0.09615 0.39062,-0.251777 l 3.00289,-2.589389 c 0.18773,-0.161878 0.29338,-0.28673 0.31693,-0.375064 0.0253,-0.08974 -0.0246,-0.19988 -0.15037,-0.329419 l 0.04,-0.03493 c 0.33323,0.381253 0.66197,0.766048 0.98628,1.154145 z"
         style="font-style:normal;font-variant:normal;font-weight:normal;font-stretch:normal;font-size:5.64444447px;font-family:'Felix Titling';-inkscape-font-specification:'Felix Titling, Normal';font-variant-ligatures:normal;font-variant-caps:normal;font-variant-numeric:normal;font-feature-settings:normal;text-align:start;letter-spacing:-0.25929168px;word-spacing:1.26470828px;writing-mode:lr-tb;text-anchor:start;stroke-width:0.26458332" />
      <path
         id="path5224"
         d="m 404.29032,41.433253 c -0.32244,-0.422282 -0.64952,-0.841115 -0.9813,-1.256181 -0.6856,0.19522 -1.36765,0.397511 -2.04585,0.606981 -0.14447,0.04699 -0.22956,0.08131 -0.25503,0.102224 -0.0602,0.04946 -0.0531,0.119336 0.0208,0.209897 l -0.0384,0.03135 c -0.1652,-0.202317 -0.3315,-0.403595 -0.49891,-0.603792 l 0.038,-0.0318 c 0.0673,0.0805 0.14278,0.132483 0.22668,0.155976 0.0857,0.02201 0.23777,-0.0016 0.45676,-0.06987 1.63599,-0.51628 3.29462,-0.990918 4.97165,-1.425376 0.0197,0.02538 0.0394,0.05076 0.0591,0.07616 -0.80024,1.476016 -1.63335,2.924071 -2.49511,4.344389 -0.0192,0.01408 -0.0805,0.119107 -0.18564,0.315166 -0.10172,0.196461 -0.0942,0.374447 0.0223,0.535348 l -0.0401,0.02898 c -0.24137,-0.333355 -0.48535,-0.664698 -0.73197,-0.993867 l 0.0397,-0.02967 c 0.0674,0.08997 0.136,0.1091 0.20606,0.05696 0.0473,-0.03518 0.10661,-0.113687 0.17747,-0.235592 0.002,-0.01334 0.009,-0.02926 0.0217,-0.04777 0.0158,-0.01831 0.0231,-0.02817 0.0221,-0.02957 0.34159,-0.575463 0.67837,-1.155439 1.01004,-1.739943 z m -0.83544,-1.306193 c 0.30743,0.385202 0.61082,0.773616 0.91021,1.164992 0.32082,-0.555608 0.63708,-1.115287 0.94856,-1.67905 -0.62229,0.165729 -1.24195,0.337057 -1.85877,0.514058 z"
         style="font-style:normal;font-variant:normal;font-weight:normal;font-stretch:normal;font-size:5.64444447px;font-family:'Felix Titling';-inkscape-font-specification:'Felix Titling, Normal';font-variant-ligatures:normal;font-variant-caps:normal;font-variant-numeric:normal;font-feature-settings:normal;text-align:start;letter-spacing:-0.25929168px;word-spacing:1.26470828px;writing-mode:lr-tb;text-anchor:start;stroke-width:0.26458332" />
    </g>
    <g
       transform="matrix(1.1208074,0.49470839,-0.49166582,1.1277433,-344.67132,-31.451848)"
       id="text5250"
       style="font-style:normal;font-variant:normal;font-weight:normal;font-stretch:normal;font-size:5.64444447px;line-height:1.25;font-family:'Felix Titling';-inkscape-font-specification:'Felix Titling, Normal';font-variant-ligatures:normal;font-variant-caps:normal;font-variant-numeric:normal;font-feature-settings:normal;text-align:start;letter-spacing:-0.27781251px;word-spacing:1.06891668px;writing-mode:lr-tb;text-anchor:start;fill:#000000;fill-opacity:1;stroke:none;stroke-width:0.26458332"
       aria-label="Event Rentals">
      <path
         id="path5252"
         d="m 363.88256,12.293684 0.0439,-0.04217 c 0.73877,0.780276 1.52264,1.514917 2.34604,2.204643 l -0.46334,0.555381 c -0.0137,-0.01142 -0.0273,-0.02286 -0.0409,-0.0343 0.11775,-0.25173 0.17426,-0.410712 0.16758,-0.478891 -0.005,-0.06673 -0.0784,-0.160078 -0.21906,-0.282781 -0.42725,-0.372597 -0.84335,-0.757681 -1.24749,-1.155355 l -1.6488,1.691939 c 0.40751,0.397176 0.8252,0.782618 1.25242,1.156412 0.12686,0.110994 0.21768,0.169861 0.27041,0.177642 0.0545,0.006 0.10112,-0.01198 0.14007,-0.0537 0.0143,0.01218 0.0285,0.02434 0.0428,0.03649 l -0.32095,0.377334 c -0.0145,-0.01233 -0.029,-0.02468 -0.0435,-0.03704 0.0351,-0.06067 0.042,-0.115629 0.0211,-0.164913 -0.0191,-0.04777 -0.0765,-0.112636 -0.17181,-0.195778 -0.44117,-0.384778 -0.87231,-0.781891 -1.29273,-1.191427 l -1.13495,1.16465 c -0.17139,0.175878 -0.2768,0.320478 -0.31607,0.435029 -0.0375,0.11266 -0.0258,0.218034 0.0354,0.315549 0.0647,0.09742 0.18097,0.225237 0.349,0.380046 0.26032,0.239827 0.52388,0.475448 0.79056,0.706879 0.25333,0.219839 0.42634,0.351535 0.50795,0.395448 0.0865,0.04455 0.17389,0.06453 0.2617,0.06004 0.0894,-0.0063 0.21241,-0.07732 0.36892,-0.213173 0.0145,0.01184 0.0289,0.02367 0.0434,0.03549 l -0.45801,0.559588 c -1.06262,-0.867135 -2.08036,-1.79721 -3.04604,-2.791152 l 0.0362,-0.03473 c 0.10282,0.09554 0.19339,0.155049 0.27069,0.178997 0.0811,0.02426 0.1801,-0.02167 0.29742,-0.137188 l 3.03452,-2.988038 c 0.13762,-0.135511 0.22314,-0.242919 0.25653,-0.321423 0.0335,-0.07875 -0.0114,-0.181135 -0.13288,-0.309385 -4e-5,-3.9e-5 -7e-5,-7.8e-5 -1.1e-4,-1.17e-4 z"
         style="font-style:normal;font-variant:normal;font-weight:normal;font-stretch:normal;font-size:5.64444447px;font-family:'Felix Titling';-inkscape-font-specification:'Felix Titling, Normal';font-variant-ligatures:normal;font-variant-caps:normal;font-variant-numeric:normal;font-feature-settings:normal;text-align:start;letter-spacing:-0.27781251px;word-spacing:1.06891668px;writing-mode:lr-tb;text-anchor:start;stroke-width:0.26458332" />
      <path
         id="path5254"
         d="m 365.20815,20.34834 c -0.0211,-0.01489 -0.0423,-0.02981 -0.0634,-0.04475 0.30695,-1.668702 0.69731,-3.302399 1.173,-4.894139 0.0993,-0.337403 0.13628,-0.551922 0.10585,-0.647663 -0.0288,-0.09732 -0.0769,-0.174044 -0.14473,-0.230638 l 0.0342,-0.0411 c 0.3028,0.252705 0.61092,0.499356 0.92407,0.739989 l -0.0325,0.04237 c -0.0786,-0.06939 -0.14532,-0.06891 -0.20067,0.0025 -0.0218,0.02813 -0.0396,0.06244 -0.0532,0.102946 -0.40155,1.393447 -0.7383,2.818212 -1.01154,4.26967 1.2618,-0.761504 2.47692,-1.574201 3.64533,-2.433361 0.047,-0.03511 0.0792,-0.06685 0.0968,-0.09506 0.0428,-0.06862 0.009,-0.132413 -0.0993,-0.192395 l 0.0285,-0.04519 c 0.21844,0.137499 0.43873,0.272492 0.66079,0.404988 l -0.0275,0.04587 c -0.0463,-0.02763 -0.0998,-0.05003 -0.16061,-0.06732 -0.0576,-0.01811 -0.14115,0.002 -0.25139,0.05995 -0.11052,0.05809 -0.16827,0.08871 -0.17433,0.09373 -1.4144,1.047324 -2.89759,2.026685 -4.44947,2.929634 z"
         style="font-style:normal;font-variant:normal;font-weight:normal;font-stretch:normal;font-size:5.64444447px;font-family:'Felix Titling';-inkscape-font-specification:'Felix Titling, Normal';font-variant-ligatures:normal;font-variant-caps:normal;font-variant-numeric:normal;font-feature-settings:normal;text-align:start;letter-spacing:-0.27781251px;word-spacing:1.06891668px;writing-mode:lr-tb;text-anchor:start;stroke-width:0.26458332" />
      <path
         id="path5256"
         d="m 370.20475,17.317244 0.0312,-0.05194 c 0.92964,0.556275 1.89041,1.068715 2.87673,1.538039 l -0.3139,0.654781 c -0.0163,-0.0078 -0.0325,-0.01554 -0.0488,-0.02332 0.0517,-0.274049 0.0666,-0.442758 0.0426,-0.507428 -0.0219,-0.06369 -0.11796,-0.136434 -0.28767,-0.220691 -0.51528,-0.255833 -1.02327,-0.523657 -1.52314,-0.803575 l -1.15709,2.055324 c 0.49516,0.278744 0.9972,0.546181 1.50546,0.802396 0.15095,0.07609 0.2538,0.110746 0.30703,0.105204 0.0544,-0.0077 0.0953,-0.03675 0.12287,-0.08697 0.0169,0.0083 0.0338,0.01659 0.0507,0.02486 l -0.21849,0.446447 c -0.0171,-0.0084 -0.0343,-0.0168 -0.0514,-0.02521 0.019,-0.06767 0.0122,-0.122829 -0.0204,-0.165516 -0.0304,-0.04166 -0.10226,-0.09045 -0.21551,-0.147391 -0.52411,-0.263509 -1.04168,-0.538903 -1.55201,-0.826269 l -0.79649,1.414786 c -0.12026,0.213625 -0.18516,0.380233 -0.1943,0.500834 -0.008,0.11836 0.0293,0.217102 0.11203,0.295674 0.086,0.07762 0.22875,0.171478 0.42784,0.278694 0.30838,0.16608 0.61891,0.328095 0.93145,0.486061 0.29708,0.150148 0.49505,0.235219 0.58446,0.257737 0.0941,0.02187 0.18314,0.0197 0.26681,-0.0064 0.0849,-0.02819 0.18666,-0.127602 0.30532,-0.298425 0.0168,0.008 0.0337,0.01592 0.0505,0.02387 l -0.30877,0.657472 c -1.23127,-0.582221 -2.43417,-1.225253 -3.60153,-1.930023 l 0.0257,-0.04278 c 0.12176,0.06515 0.22285,0.09896 0.30251,0.102018 0.0833,0.0024 0.16626,-0.06742 0.24926,-0.208957 l 2.14691,-3.660884 c 0.0974,-0.166046 0.15165,-0.291494 0.16297,-0.37567 0.0114,-0.08441 -0.0599,-0.171244 -0.21274,-0.26269 -6e-5,-2.9e-5 -1.1e-4,-5.9e-5 -1.6e-4,-8.9e-5 z"
         style="font-style:normal;font-variant:normal;font-weight:normal;font-stretch:normal;font-size:5.64444447px;font-family:'Felix Titling';-inkscape-font-specification:'Felix Titling, Normal';font-variant-ligatures:normal;font-variant-caps:normal;font-variant-numeric:normal;font-feature-settings:normal;text-align:start;letter-spacing:-0.27781251px;word-spacing:1.06891668px;writing-mode:lr-tb;text-anchor:start;stroke-width:0.26458332" />
      <path
         id="path5258"
         d="m 377.37936,20.519317 c 0.32218,0.107813 0.64605,0.211637 0.97143,0.311493 l -0.0159,0.05155 c -0.15001,-0.04104 -0.26263,-0.04137 -0.33869,3.2e-5 -0.0752,0.03903 -0.14303,0.152134 -0.20291,0.339285 l -1.46957,4.592336 c -1.05693,-1.915399 -1.93968,-3.859631 -2.63243,-5.799829 l -1.58781,3.565887 c -0.0505,0.11344 -0.0781,0.201715 -0.0828,0.265062 -0.005,0.06335 0.007,0.113097 0.0356,0.14919 0.0281,0.03593 0.11216,0.09702 0.25209,0.181483 l -0.0199,0.04603 c -0.35079,-0.15302 -0.69951,-0.31082 -1.04602,-0.473421 l 0.0212,-0.04542 c 0.1859,0.08722 0.31495,0.110636 0.38562,0.07225 0.0734,-0.03737 0.15995,-0.166922 0.2604,-0.388796 l 1.47213,-3.251756 c 0.12888,-0.284676 0.19337,-0.536091 0.19537,-0.752468 0.004,-0.215965 -0.13831,-0.38084 -0.42609,-0.501314 l 0.0231,-0.04843 c 0.29536,0.139856 0.59299,0.275856 0.89276,0.408018 0.62467,1.809634 1.41731,3.624671 2.3648,5.417837 l 1.15963,-3.554454 c 0.0624,-0.19136 0.066,-0.318759 0.0113,-0.381963 -0.054,-0.06559 -0.13411,-0.115916 -0.2405,-0.151523 0.006,-0.01703 0.0115,-0.03406 0.0172,-0.05108 z"
         style="font-style:normal;font-variant:normal;font-weight:normal;font-stretch:normal;font-size:5.64444447px;font-family:'Felix Titling';-inkscape-font-specification:'Felix Titling, Normal';font-variant-ligatures:normal;font-variant-caps:normal;font-variant-numeric:normal;font-feature-settings:normal;text-align:start;letter-spacing:-0.27781251px;word-spacing:1.06891668px;writing-mode:lr-tb;text-anchor:start;stroke-width:0.26458332" />
      <path
         id="path5260"
         d="m 382.59767,21.709031 c -0.12341,0.193241 -0.24801,0.386024 -0.37379,0.578332 -0.0166,-0.0034 -0.0333,-0.0068 -0.0499,-0.01022 0.0172,-0.03568 0.0323,-0.08525 0.0452,-0.148734 0.0111,-0.05408 -0.002,-0.09229 -0.0392,-0.114666 -0.0344,-0.02427 -0.094,-0.04518 -0.17881,-0.0631 -0.45363,-0.09577 -0.90559,-0.198696 -1.35549,-0.308814 l -1.08091,4.409283 c -0.0446,0.181886 -0.0596,0.310309 -0.0447,0.385663 0.018,0.07358 0.0523,0.126397 0.10285,0.158349 0.0536,0.0302 0.14358,0.06048 0.26956,0.09006 l -0.0115,0.04908 c -0.52427,-0.123073 -1.04664,-0.255364 -1.56667,-0.396929 l 0.0132,-0.04864 c 0.1984,0.04158 0.33005,0.04005 0.39404,-0.0026 0.0642,-0.04272 0.11906,-0.152316 0.16509,-0.328842 l 1.16438,-4.465519 c -0.42938,-0.111643 -0.8567,-0.229919 -1.2816,-0.354873 -0.12905,-0.03795 -0.21514,-0.05516 -0.2592,-0.05085 -0.0433,0.002 -0.074,0.03277 -0.0922,0.09241 -0.009,0.0298 -0.0138,0.07853 -0.0141,0.146064 -0.0162,-0.0049 -0.0324,-0.0098 -0.0486,-0.01471 -0.0187,-0.228696 -0.036,-0.457217 -0.052,-0.685546 0.0159,0.0049 0.0318,0.0098 0.0477,0.01474 0.0153,0.09504 0.0397,0.157711 0.073,0.1879 0.0361,0.02851 0.12064,0.06314 0.2534,0.102677 1.12115,0.333912 2.2596,0.621085 3.40875,0.862366 0.13607,0.02857 0.23551,0.04022 0.29748,0.03568 0.065,-0.0064 0.11995,-0.04925 0.16487,-0.128377 0.0163,0.0033 0.0327,0.0065 0.0491,0.0098 z"
         style="font-style:normal;font-variant:normal;font-weight:normal;font-stretch:normal;font-size:5.64444447px;font-family:'Felix Titling';-inkscape-font-specification:'Felix Titling, Normal';font-variant-ligatures:normal;font-variant-caps:normal;font-variant-numeric:normal;font-feature-settings:normal;text-align:start;letter-spacing:-0.27781251px;word-spacing:1.06891668px;writing-mode:lr-tb;text-anchor:start;stroke-width:0.26458332" />
      <path
         id="path5262"
         d="m 385.60674,22.439399 0.007,-0.05345 c 0.49702,0.0636 0.99477,0.118986 1.49274,0.166232 0.0383,0.0036 0.0755,0.0072 0.1116,0.01071 0,0 0,0 0,0 0.32406,0.02989 0.55843,0.05545 0.71177,0.08174 0.16893,0.02896 0.33884,0.09658 0.51109,0.202833 0.17477,0.103986 0.30419,0.238963 0.38789,0.406011 0.0838,0.164558 0.12059,0.363764 0.10893,0.597479 -0.0133,0.267105 -0.10968,0.518431 -0.29284,0.752382 -0.18044,0.231607 -0.43135,0.421646 -0.7535,0.566837 0.118,0.199729 0.23756,0.399049 0.35866,0.597945 0.0754,0.1433 0.29134,0.481213 0.64496,0.978991 0.35925,0.502149 0.65195,0.809629 0.85983,0.923141 0.20885,0.111607 0.41397,0.169241 0.61343,0.173071 0.19673,0.0038 0.4243,-0.06103 0.67949,-0.19557 0.008,0.02394 0.0156,0.04787 0.0234,0.07181 -0.31956,0.232103 -0.73902,0.34415 -1.25181,0.329019 -0.34184,-0.01009 -0.63253,-0.111561 -0.86851,-0.301752 -0.23216,-0.189541 -0.64072,-0.712838 -1.16899,-1.560867 -0.005,-0.0051 -0.008,-0.01011 -0.007,-0.01488 -0.17142,-0.285033 -0.3397,-0.570909 -0.50483,-0.857579 -0.0972,-0.0052 -0.19431,-0.01059 -0.29145,-0.01631 -0.0691,-0.004 -0.13811,-0.0083 -0.20718,-0.01261 -0.15062,-0.01384 -0.30122,-0.02842 -0.45181,-0.04373 l -0.20504,2.01198 c -0.0165,0.161763 -0.005,0.280565 0.0362,0.356599 0.0409,0.07353 0.15348,0.119366 0.33743,0.135782 l -0.005,0.04996 c -0.50828,-0.04532 -1.01652,-0.09883 -1.52434,-0.160572 l 0.006,-0.04989 c 0.18996,0.01584 0.31148,-0.0066 0.36413,-0.0655 0.0554,-0.05876 0.0943,-0.186699 0.11721,-0.38403 l 0.48383,-4.174857 c 0.0157,-0.135447 0.0106,-0.249357 -0.0149,-0.341569 -0.0253,-0.09471 -0.1282,-0.153919 -0.30882,-0.179432 2.2e-4,2.6e-5 4.3e-4,5.3e-5 6.5e-4,7.9e-5 z m 0.97782,0.200943 -0.25117,2.465034 c 0.19431,0.01979 0.38865,0.03836 0.58301,0.05571 0.0246,0.0022 0.0489,0.0041 0.0729,0.0056 0,0 0,0 0,0 0.42377,0.02672 0.74884,-0.05281 0.97119,-0.232261 0.23536,-0.189952 0.36104,-0.452755 0.38165,-0.786491 0.02,-0.324285 -0.0686,-0.636865 -0.25976,-0.939483 -0.16531,-0.267185 -0.4571,-0.431213 -0.87742,-0.499856 0,0 0,0 0,0 -0.0596,-0.01003 -0.12181,-0.01815 -0.18668,-0.02439 -0.14459,-0.01392 -0.28917,-0.02853 -0.43372,-0.04382 z"
         style="font-style:normal;font-variant:normal;font-weight:normal;font-stretch:normal;font-size:5.64444447px;font-family:'Felix Titling';-inkscape-font-specification:'Felix Titling, Normal';font-variant-ligatures:normal;font-variant-caps:normal;font-variant-numeric:normal;font-feature-settings:normal;text-align:start;letter-spacing:-0.27781251px;word-spacing:1.06891668px;writing-mode:lr-tb;text-anchor:start;stroke-width:0.26458332" />
      <path
         id="path5264"
         d="m 391.08174,22.803218 3.7e-4,-0.06091 c 1.11272,0.0065 2.2261,-0.02569 3.33723,-0.09633 l 0.0461,0.72611 c -0.0183,0.0012 -0.0365,0.0023 -0.0548,0.0034 -0.0899,-0.264964 -0.16074,-0.419805 -0.21424,-0.464586 -0.0511,-0.04495 -0.1728,-0.06158 -0.36568,-0.05172 -0.58571,0.02995 -1.1719,0.04925 -1.75815,0.05787 l 0.0344,2.368516 c 0.57079,-0.0083 1.14147,-0.02625 1.7117,-0.05384 0.16937,-0.0082 0.27621,-0.02851 0.32002,-0.05957 0.0438,-0.03351 0.0652,-0.079 0.0646,-0.136398 0.0189,-0.0011 0.0377,-0.0021 0.0566,-0.0032 l 0.0285,0.497366 c -0.0191,0.0011 -0.0381,0.0022 -0.0572,0.0032 -0.0166,-0.06847 -0.0497,-0.11328 -0.0991,-0.134511 -0.047,-0.0214 -0.13374,-0.02863 -0.26059,-0.02238 -0.58708,0.02893 -1.17464,0.04768 -1.76231,0.05621 l 0.0237,1.630369 c 0.004,0.246145 0.0311,0.423569 0.0832,0.532763 0.052,0.106696 0.13287,0.173465 0.24239,0.199926 0.11195,0.02397 0.28014,0.03348 0.50327,0.02684 0.34557,-0.01029 0.69103,-0.02395 1.03632,-0.04098 0.32848,-0.0162 0.53939,-0.03904 0.62753,-0.0634 0.0916,-0.02715 0.1672,-0.07271 0.22675,-0.136491 0.0594,-0.0662 0.0993,-0.202951 0.11941,-0.410329 0.0184,-0.0013 0.0368,-0.0025 0.0552,-0.0038 l 0.0505,0.725825 c -1.34011,0.09312 -2.68379,0.135664 -4.02727,0.127208 l 3e-4,-0.05017 c 0.13599,-0.0063 0.23871,-0.0289 0.30791,-0.06705 0.072,-0.04061 0.10756,-0.143375 0.10727,-0.308232 l -0.007,-4.264283 c -3.4e-4,-0.193439 -0.0176,-0.329705 -0.0514,-0.40844 -0.0339,-0.07889 -0.14213,-0.117987 -0.32494,-0.119061 -6e-5,0 -1.2e-4,1e-6 -1.8e-4,1e-6 z"
         style="font-style:normal;font-variant:normal;font-weight:normal;font-stretch:normal;font-size:5.64444447px;font-family:'Felix Titling';-inkscape-font-specification:'Felix Titling, Normal';font-variant-ligatures:normal;font-variant-caps:normal;font-variant-numeric:normal;font-feature-settings:normal;text-align:start;letter-spacing:-0.27781251px;word-spacing:1.06891668px;writing-mode:lr-tb;text-anchor:start;stroke-width:0.26458332" />
      <path
         id="path5266"
         d="m 399.05349,22.126164 c 0.3383,-0.05456 0.67599,-0.11272 1.01301,-0.174461 l 0.01,0.05287 c -0.15302,0.03288 -0.25377,0.08461 -0.3024,0.156307 -0.049,0.06922 -0.0568,0.200431 -0.0232,0.393387 l 0.82615,4.734437 c -1.80279,-1.202236 -3.48805,-2.495562 -5.04773,-3.862735 l 0.33145,3.892692 c 0.0105,0.123829 0.0289,0.214544 0.0552,0.27227 0.0262,0.05771 0.0602,0.09555 0.10193,0.113498 0.0415,0.01789 0.14313,0.03073 0.30428,0.03731 l 0.005,0.04997 c -0.37589,0.035 -0.75216,0.06601 -1.12871,0.09303 l -0.004,-0.05006 c 0.20207,-0.0145 0.32455,-0.0567 0.36716,-0.124687 0.0454,-0.06837 0.0581,-0.223876 0.0386,-0.466893 l -0.28614,-3.561953 c -0.0251,-0.311868 -0.0908,-0.563341 -0.19537,-0.753971 -0.10234,-0.191198 -0.31056,-0.266894 -0.62648,-0.232001 l -0.003,-0.05365 c 0.33235,-0.02161 0.66449,-0.04665 0.99635,-0.07513 1.44269,1.286387 2.99638,2.508522 4.65439,3.652095 l -0.62342,-3.674776 c -0.0336,-0.19784 -0.0898,-0.311946 -0.16814,-0.342397 -0.0789,-0.03285 -0.17392,-0.04012 -0.28561,-0.0221 -0.003,-0.01769 -0.006,-0.03537 -0.009,-0.05306 z"
         style="font-style:normal;font-variant:normal;font-weight:normal;font-stretch:normal;font-size:5.64444447px;font-family:'Felix Titling';-inkscape-font-specification:'Felix Titling, Normal';font-variant-ligatures:normal;font-variant-caps:normal;font-variant-numeric:normal;font-feature-settings:normal;text-align:start;letter-spacing:-0.27781251px;word-spacing:1.06891668px;writing-mode:lr-tb;text-anchor:start;stroke-width:0.26458332" />
      <path
         id="path5268"
         d="m 404.2636,20.797054 c -0.0235,0.227218 -0.0481,0.454531 -0.0739,0.681931 -0.0164,0.0045 -0.0328,0.0089 -0.0491,0.01341 -7.1e-4,-0.03942 -0.01,-0.09021 -0.0265,-0.152429 -0.0145,-0.053 -0.0434,-0.08099 -0.0868,-0.08408 -0.0417,-0.006 -0.10429,0.0023 -0.18816,0.02465 -0.44842,0.119683 -0.89866,0.232867 -1.35052,0.339529 l 1.03906,4.397104 c 0.0429,0.181376 0.0877,0.301991 0.13476,0.362066 0.049,0.0571 0.10304,0.08843 0.16193,0.09394 0.0608,0.0026 0.15359,-0.01117 0.27783,-0.04171 l 0.012,0.04872 c -0.5169,0.127065 -1.0357,0.246346 -1.55616,0.357818 l -0.0105,-0.04906 c 0.19296,-0.05354 0.30786,-0.11465 0.34477,-0.181473 0.037,-0.06698 0.0356,-0.18897 -0.004,-0.366211 l -0.99919,-4.483739 c -0.43441,0.0967 -0.87022,0.187406 -1.30725,0.272085 -0.13272,0.02572 -0.21755,0.05013 -0.25487,0.0742 -0.0377,0.02168 -0.0509,0.06302 -0.0395,0.124073 0.006,0.03051 0.024,0.07575 0.0549,0.135563 -0.0167,0.0031 -0.0334,0.0063 -0.0501,0.0094 -0.12249,-0.19347 -0.24394,-0.387367 -0.36432,-0.581681 0.0165,-0.003 0.033,-0.006 0.0495,-0.009 0.0578,0.0769 0.10872,0.121009 0.1524,0.132376 0.0455,0.0086 0.13704,2.13e-4 0.27395,-0.02588 1.15607,-0.220306 2.30374,-0.482868 3.43956,-0.787285 0.13451,-0.03605 0.22862,-0.07053 0.28198,-0.102502 0.0552,-0.03498 0.0851,-0.09779 0.0897,-0.1883 0.0162,-0.0045 0.0323,-0.009 0.0485,-0.01349 z"
         style="font-style:normal;font-variant:normal;font-weight:normal;font-stretch:normal;font-size:5.64444447px;font-family:'Felix Titling';-inkscape-font-specification:'Felix Titling, Normal';font-variant-ligatures:normal;font-variant-caps:normal;font-variant-numeric:normal;font-feature-settings:normal;text-align:start;letter-spacing:-0.27781251px;word-spacing:1.06891668px;writing-mode:lr-tb;text-anchor:start;stroke-width:0.26458332" />
      <path
         id="path5270"
         d="m 407.21319,23.068398 c -0.51998,0.170482 -1.0428,0.332437 -1.56816,0.485833 -0.0861,0.71797 -0.18361,1.436851 -0.29262,2.156349 -0.0209,0.154418 -0.0274,0.247479 -0.0186,0.279866 0.0207,0.07599 0.094,0.09707 0.21998,0.06228 l 0.0133,0.04835 c -0.28164,0.07776 -0.56392,0.153191 -0.84679,0.226276 l -0.0125,-0.04857 c 0.11357,-0.02934 0.20268,-0.07866 0.26707,-0.14756 0.0638,-0.07119 0.11435,-0.223117 0.15024,-0.455403 0.26229,-1.737929 0.45821,-3.472377 0.58768,-5.199286 0.0286,-0.0089 0.0572,-0.01793 0.0857,-0.02693 1.06882,1.292976 2.19296,2.554904 3.37145,3.782104 0.008,0.02217 0.0961,0.111648 0.2649,0.265863 0.17067,0.151233 0.36073,0.188524 0.56814,0.110777 l 0.0176,0.04695 c -0.42996,0.161174 -0.86201,0.31664 -1.29599,0.466381 l -0.0163,-0.0474 c 0.11854,-0.0409 0.16303,-0.103391 0.13395,-0.186744 -0.0197,-0.05643 -0.08,-0.136339 -0.18055,-0.240504 -0.0131,-0.0056 -0.0269,-0.01719 -0.0415,-0.03489 -0.0132,-0.02068 -0.0208,-0.0307 -0.0226,-0.03008 -0.4704,-0.499079 -0.93191,-1.003714 -1.38446,-1.513663 z m -1.55817,0.32989 c 0.48469,-0.142072 0.96721,-0.291455 1.4473,-0.448121 -0.42595,-0.491402 -0.84387,-0.987493 -1.2537,-1.48807 -0.0553,0.644491 -0.11985,1.289958 -0.1936,1.936191 z"
         style="font-style:normal;font-variant:normal;font-weight:normal;font-stretch:normal;font-size:5.64444447px;font-family:'Felix Titling';-inkscape-font-specification:'Felix Titling, Normal';font-variant-ligatures:normal;font-variant-caps:normal;font-variant-numeric:normal;font-feature-settings:normal;text-align:start;letter-spacing:-0.27781251px;word-spacing:1.06891668px;writing-mode:lr-tb;text-anchor:start;stroke-width:0.26458332" />
      <path
         id="path5272"
         d="m 409.76996,24.748536 -0.0174,-0.04704 c 0.17265,-0.06371 0.27287,-0.134746 0.3008,-0.21153 0.0305,-0.07786 0.0189,-0.18702 -0.0343,-0.327701 l -1.52846,-4.038818 c -0.0541,-0.14285 -0.11107,-0.23877 -0.17065,-0.287698 -0.0605,-0.05127 -0.18129,-0.04506 -0.36319,0.01686 l -0.0186,-0.0504 c 0.44456,-0.163756 0.8865,-0.334246 1.3256,-0.511443 l 0.0201,0.0498 c -0.12244,0.04941 -0.20208,0.09899 -0.23893,0.149584 -0.0368,0.05054 -0.0548,0.09997 -0.0539,0.148344 9.4e-4,0.04833 0.0307,0.147022 0.0892,0.295812 l 1.3558,3.445148 c 0.11629,0.295491 0.27656,0.473503 0.4831,0.532574 0.20503,0.05668 0.50037,0.0079 0.88081,-0.151586 0.22092,-0.09262 0.44122,-0.18678 0.66087,-0.282493 0.31734,-0.138285 0.51701,-0.312297 0.59868,-0.516939 0.0843,-0.206282 0.0454,-0.504607 -0.11468,-0.896241 0.0166,-0.0076 0.0332,-0.01526 0.0497,-0.0229 l 0.53099,1.150895 c -1.23147,0.56801 -2.48464,1.08675 -3.75568,1.555771 z"
         style="font-style:normal;font-variant:normal;font-weight:normal;font-stretch:normal;font-size:5.64444447px;font-family:'Felix Titling';-inkscape-font-specification:'Felix Titling, Normal';font-variant-ligatures:normal;font-variant-caps:normal;font-variant-numeric:normal;font-feature-settings:normal;text-align:start;letter-spacing:-0.27781251px;word-spacing:1.06891668px;writing-mode:lr-tb;text-anchor:start;stroke-width:0.26458332" />
      <path
         id="path5274"
         d="m 413.78211,17.25041 c 0.17776,0.153874 0.35651,0.306968 0.53623,0.459272 -0.0117,0.0091 -0.0234,0.01815 -0.0351,0.02721 -10e-4,-0.0023 -0.0946,-0.0312 -0.27975,-0.08909 -0.18282,-0.059 -0.36773,-0.08094 -0.55541,-0.06612 -0.1867,0.01159 -0.37551,0.06637 -0.56804,0.164131 -0.32288,0.163959 -0.53507,0.383372 -0.63826,0.664126 -0.10195,0.277234 -0.093,0.547536 0.032,0.810612 0.083,0.174652 0.20122,0.306123 0.35597,0.393495 0.15561,0.08396 0.40952,0.110951 0.76055,0.07528 0.59618,-0.09106 0.99307,-0.150101 1.2284,-0.165941 0.22995,-0.01869 0.48266,0.02192 0.76016,0.121083 0.27947,0.09785 0.50412,0.295702 0.67028,0.596704 0.0692,0.125445 0.11967,0.254433 0.15089,0.387175 0.0301,0.130631 0.0386,0.268973 0.0252,0.415021 -0.0146,0.143934 -0.0494,0.287818 -0.10484,0.431469 -0.0542,0.140271 -0.12224,0.261784 -0.2038,0.364295 -0.0825,0.100221 -0.23286,0.222667 -0.45123,0.364442 -0.21765,0.141315 -0.36664,0.230806 -0.43978,0.267482 -0.46968,0.235501 -0.94285,0.463643 -1.41928,0.6844 l -0.64441,-1.390361 c 0.0176,-0.0082 0.0352,-0.01634 0.0528,-0.02453 0.21954,0.458837 0.4871,0.725179 0.80781,0.795466 0.31993,0.06982 0.73127,-0.01551 1.22393,-0.263865 0.44754,-0.225605 0.73506,-0.497614 0.86176,-0.805668 0.12923,-0.309806 0.1195,-0.595806 -0.023,-0.857967 -0.0866,-0.159432 -0.19913,-0.273625 -0.33651,-0.34323 -0.13859,-0.07174 -0.29936,-0.112718 -0.48239,-0.123799 -0.18547,-0.01329 -0.49948,0.02044 -0.94952,0.09282 -0.4465,0.06873 -0.77363,0.08976 -0.9752,0.07116 -0.20151,-0.02196 -0.39995,-0.104617 -0.59474,-0.247598 -0.19579,-0.145131 -0.33979,-0.319038 -0.43384,-0.520077 -0.17296,-0.369748 -0.18748,-0.740704 -0.0527,-1.112052 0.13718,-0.372965 0.40727,-0.658466 0.81375,-0.865786 0.15759,-0.08038 0.3366,-0.150075 0.53763,-0.210018 0.20154,-0.0601 0.31419,-0.0914 0.34151,-0.09223 0.0107,-3.21e-4 0.0203,-0.0028 0.0288,-0.0073 1e-5,5e-6 3e-5,9e-6 5e-5,1.4e-5 z"
         style="font-style:normal;font-variant:normal;font-weight:normal;font-stretch:normal;font-size:5.64444447px;font-family:'Felix Titling';-inkscape-font-specification:'Felix Titling, Normal';font-variant-ligatures:normal;font-variant-caps:normal;font-variant-numeric:normal;font-feature-settings:normal;text-align:start;letter-spacing:-0.27781251px;word-spacing:1.06891668px;writing-mode:lr-tb;text-anchor:start;stroke-width:0.26458332" />
    </g>
    <path
       id="path5301"
       d="m 88.064891,93.613219 c 0,0 -25.736769,6.701311 -34.861622,29.347131 -9.124864,22.64583 -0.701922,39.28357 -0.701922,39.28357"
       style="fill:none;stroke:#000000;stroke-width:0.31657469px;stroke-linecap:butt;stroke-linejoin:miter;stroke-opacity:1" />
    <path
       id="path5303"
       d="m 160.82972,136.59406 c 0,0 5.14737,21.72151 -11.46456,40.67005 -16.61189,18.94855 -37.90322,18.2553 -36.96736,18.94855"
       style="fill:none;stroke:#000000;stroke-width:0.31657469px;stroke-linecap:butt;stroke-linejoin:miter;stroke-opacity:1" />
  </g>
</svg>
