<?xml version="1.0" standalone="no"?>
<!DOCTYPE svg PUBLIC "-//W3C//DTD SVG 20010904//EN"
 "http://www.w3.org/TR/2001/REC-SVG-20010904/DTD/svg10.dtd">
<svg version="1.0" xmlns="http://www.w3.org/2000/svg"
 width="1280.000000pt" height="960.000000pt" viewBox="0 0 1280.000000 960.000000"
 preserveAspectRatio="xMidYMid meet">
<metadata>
Created by potrace 1.15, written by Peter Selinger 2001-2017
</metadata>
<g transform="translate(0.000000,960.000000) scale(0.100000,-0.100000)"
fill="#000000" stroke="none">
<path d="M6130 8999 c-1358 -110 -2551 -879 -3138 -2022 -173 -336 -284 -685
-343 -1077 -30 -195 -37 -599 -15 -810 150 -1421 1183 -2619 2637 -3059 90
-27 157 -52 149 -55 -8 -3 -64 -15 -125 -27 -273 -53 -416 -127 -465 -240 -36
-84 -11 -157 82 -246 100 -94 265 -159 433 -170 124 -8 218 10 318 60 150 75
253 205 333 424 l37 103 41 -8 c23 -4 194 -7 381 -7 268 0 371 4 485 18 724
90 1387 355 1944 775 135 102 216 172 388 337 81 77 165 155 186 173 22 18 53
58 69 90 17 32 63 103 104 157 171 231 355 569 452 831 563 1516 -1 3176
-1393 4099 -569 378 -1222 600 -1919 655 -155 12 -487 11 -641 -1z m595 -69
c1152 -84 2168 -623 2823 -1498 380 -508 606 -1096 663 -1725 15 -162 6 -540
-16 -697 -59 -423 -205 -855 -413 -1220 -42 -74 -164 -261 -168 -257 -5 5 89
433 133 602 62 242 113 364 163 390 18 9 30 23 30 35 0 51 -69 1 -109 -79 -63
-124 -124 -327 -205 -686 -90 -398 -79 -366 -166 -474 -108 -133 -111 -136
-147 -118 -79 41 -161 151 -227 303 -46 107 -66 123 -101 84 -16 -18 -17 -27
-8 -74 l9 -55 -38 -17 c-47 -21 -108 -86 -109 -117 0 -12 -1 -78 -2 -147 -2
-143 -25 -229 -78 -293 -34 -41 -69 -48 -118 -22 -42 21 -100 93 -107 132 -8
43 -29 52 -57 24 -20 -20 -22 -32 -23 -159 0 -121 -3 -147 -27 -217 -43 -132
-116 -225 -175 -225 -78 0 -197 98 -248 203 l-27 55 31 49 c78 122 122 267
122 402 0 108 -12 153 -51 185 -52 44 -131 28 -182 -35 -15 -19 -32 -40 -39
-48 -6 -7 -20 -41 -30 -75 -35 -109 -23 -323 26 -481 l16 -50 -32 -27 c-68
-59 -128 -72 -171 -38 -31 25 -55 25 -87 3 -14 -10 -43 -26 -65 -38 -26 -13
-46 -32 -56 -55 -56 -121 -75 -152 -121 -198 -94 -94 -172 -94 -287 2 -36 30
-51 36 -90 36 -26 0 -56 -7 -69 -16 -12 -8 -63 -70 -113 -136 -50 -66 -93
-118 -95 -115 -9 8 39 166 71 236 44 91 44 101 3 101 -21 0 -52 -14 -90 -41
-84 -59 -246 -133 -403 -184 -76 -25 -141 -45 -146 -43 -5 2 18 65 51 141 33
76 60 145 60 152 0 18 -32 35 -66 35 -15 0 -48 -13 -73 -29 -44 -28 -49 -29
-101 -19 -75 14 -274 3 -505 -27 -104 -14 -256 -28 -336 -32 -134 -5 -146 -5
-153 12 -16 44 75 134 227 225 50 30 93 62 95 71 5 29 -49 43 -117 31 -59 -11
-62 -10 -117 23 -76 46 -125 52 -248 30 -201 -35 -363 -20 -412 38 -28 33 -28
50 -8 190 7 52 -6 76 -57 103 -34 17 -170 34 -284 35 -72 0 -85 2 -65 11 14 5
146 55 294 109 148 55 312 118 364 141 167 73 212 143 138 213 -64 60 -190
104 -366 127 -120 16 -594 15 -750 0 -63 -7 -140 -14 -170 -17 l-55 -5 60 20
c113 38 250 71 420 100 94 17 173 30 178 30 18 0 5 40 -19 59 -22 17 -41 21
-100 21 -262 0 -750 -135 -781 -215 -3 -8 -8 -15 -12 -15 -4 0 -35 48 -69 107
-453 795 -566 1689 -322 2554 55 191 117 354 210 544 182 372 373 639 675 941
302 302 596 514 977 705 625 313 1354 459 2043 409z m-2359 -5290 c164 -10
283 -31 356 -62 129 -55 48 -105 -427 -259 -170 -56 -344 -115 -385 -131 -99
-39 -180 -88 -180 -109 0 -10 14 -29 32 -44 28 -24 38 -27 81 -21 172 20 348
27 426 18 46 -6 87 -14 92 -19 6 -6 5 -30 -2 -63 -25 -116 4 -201 80 -240 52
-26 161 -43 240 -38 l66 5 -27 -28 c-16 -15 -28 -34 -28 -43 0 -20 38 -55 68
-63 36 -9 158 3 231 22 35 9 65 14 67 12 2 -2 -17 -19 -43 -38 -146 -108 -133
-212 31 -249 57 -13 215 0 431 35 83 13 182 27 220 31 69 6 70 6 45 -11 -76
-53 -130 -122 -130 -165 0 -25 52 -50 104 -50 62 0 110 24 313 157 19 13 12
-6 -38 -103 -34 -66 -63 -120 -63 -120 -1 -1 -65 -13 -143 -28 l-142 -25 -140
34 c-888 218 -1662 733 -2177 1450 l-51 71 31 -4 c17 -2 105 8 196 22 266 41
326 47 500 55 91 5 176 9 190 9 14 1 93 -3 176 -8z m4637 -295 c5 -33 6 -84 2
-113 -7 -53 -7 -53 -27 -35 -27 24 -68 111 -68 145 0 33 37 70 65 66 16 -2 21
-14 28 -63z m167 -159 c23 -21 59 -45 79 -53 l36 -15 -121 -117 c-594 -575
-1393 -947 -2249 -1046 -71 -8 -148 -15 -169 -15 l-40 0 26 28 c14 15 64 86
110 158 47 72 90 134 96 138 6 4 34 -11 63 -33 65 -49 120 -65 207 -59 84 6
136 32 194 97 l44 49 28 -34 c21 -27 34 -34 62 -34 96 0 143 60 144 181 l0 66
54 12 c29 6 74 25 100 41 26 17 48 30 50 30 1 0 27 -34 56 -75 46 -65 62 -80
119 -108 158 -77 319 -10 402 167 31 67 59 165 59 208 0 36 11 41 56 22 106
-44 245 47 292 191 12 36 22 84 22 106 0 35 2 40 18 34 41 -18 68 -16 96 6 37
29 56 76 56 141 l0 53 34 -50 c18 -28 52 -68 76 -89z m-1137 84 c39 -31 50
-79 44 -189 -3 -65 -13 -119 -30 -166 -29 -84 -74 -175 -86 -175 -16 0 -54
175 -58 275 -11 209 46 321 130 255z m-1443 -1089 c-34 -93 -48 -197 -31 -229
l12 -22 -153 0 c-161 1 -344 12 -354 23 -3 3 1 28 10 55 l16 48 96 27 c113 32
262 90 359 140 39 20 71 36 72 37 1 0 -11 -36 -27 -79z m-877 -257 c78 -14
144 -28 145 -29 7 -6 -80 -200 -121 -270 -171 -295 -489 -370 -735 -175 -54
44 -102 122 -102 169 0 103 110 193 310 255 88 27 298 74 338 75 12 1 86 -11
165 -25z"/>
<path d="M5975 8859 c-107 -10 -265 -35 -318 -50 -54 -15 -42 -34 20 -33 l49
1 43 -236 c24 -130 45 -241 48 -246 2 -6 -10 -16 -27 -22 -36 -13 -41 -43 -7
-43 58 0 317 55 362 77 116 56 187 169 188 297 0 116 -49 194 -148 236 -55 24
-105 28 -210 19z m114 -76 c61 -24 102 -64 128 -121 48 -103 16 -231 -72 -292
-54 -37 -105 -56 -177 -65 l-54 -7 -12 54 c-10 45 -45 249 -67 395 -7 46 -16
40 85 57 39 6 132 -5 169 -21z"/>
<path d="M6690 8851 c0 -16 9 -21 45 -26 41 -7 44 -9 40 -34 -3 -14 -14 -111
-25 -216 -28 -268 -25 -255 -60 -255 -23 0 -30 -5 -30 -19 0 -16 12 -21 88
-31 48 -7 147 -23 221 -36 73 -14 135 -23 136 -22 8 14 45 114 45 124 0 28
-36 14 -53 -21 -9 -19 -23 -35 -32 -35 -48 0 -232 34 -243 45 -12 11 -11 29 1
115 19 131 24 136 113 121 94 -17 104 -24 104 -71 0 -28 4 -40 14 -40 16 0 46
114 46 174 0 43 -16 47 -31 9 -17 -47 -22 -47 -158 -21 l-54 10 6 71 c8 108
10 110 76 104 31 -2 93 -13 138 -23 l82 -17 3 -51 c2 -38 7 -52 20 -54 19 -4
24 10 33 89 l6 55 -118 22 c-156 29 -318 52 -370 52 -36 0 -43 -3 -43 -19z"/>
<path d="M7590 8667 c0 -9 14 -24 31 -32 17 -9 29 -22 27 -28 -3 -7 -40 -113
-83 -237 l-78 -226 -34 4 c-25 3 -33 0 -33 -11 0 -18 204 -101 227 -93 25 10
13 33 -27 51 -22 10 -40 21 -40 26 0 12 63 183 71 193 4 4 27 1 52 -9 l44 -17
21 -92 c12 -51 27 -124 34 -163 l12 -71 53 -26 c29 -14 60 -26 68 -26 23 0 18
28 -9 53 -18 17 -32 55 -59 165 l-35 142 42 0 c87 0 152 59 149 136 -4 102
-66 156 -266 229 -122 45 -167 54 -167 32z m247 -118 c96 -59 108 -184 21
-220 -42 -17 -147 3 -186 36 -2 2 16 51 40 109 41 102 44 107 68 101 14 -4 40
-16 57 -26z"/>
<path d="M4963 8605 c-142 -44 -243 -162 -251 -293 -4 -56 -1 -71 28 -127 47
-93 89 -137 160 -169 55 -25 71 -28 143 -24 240 11 385 207 318 428 -27 89
-89 157 -166 183 -58 20 -172 21 -232 2z m168 -69 c95 -45 163 -157 164 -267
0 -89 -37 -151 -115 -192 -47 -25 -63 -28 -112 -24 -105 9 -202 82 -254 192
-61 128 2 259 146 306 39 13 131 5 171 -15z"/>
<path d="M8490 8256 c0 -8 14 -25 31 -39 l31 -24 -137 -211 -137 -210 -35 5
c-60 10 -37 -24 50 -75 59 -34 81 -42 89 -34 9 9 5 19 -16 41 -27 29 -27 29
-11 62 26 49 208 320 212 315 8 -8 32 -248 38 -377 9 -211 15 -259 30 -259 8
0 94 95 192 210 130 154 181 209 193 204 78 -33 79 0 3 61 -32 26 -70 53 -86
61 -24 13 -28 13 -33 -1 -4 -10 4 -27 20 -44 l26 -27 -123 -154 -122 -155 -7
60 c-3 33 -12 134 -18 225 -6 91 -17 196 -23 234 l-12 69 -60 38 c-64 40 -95
48 -95 25z"/>
<path d="M4218 8179 c-36 -25 -58 -47 -58 -59 0 -26 23 -136 66 -313 20 -82
34 -150 31 -153 -2 -3 -67 24 -143 59 -77 35 -178 81 -227 102 l-87 37 -55
-47 c-31 -26 -55 -55 -55 -66 0 -25 21 -24 53 1 l25 20 84 -93 c75 -82 200
-225 236 -269 12 -14 11 -20 -2 -40 -17 -26 -13 -38 13 -38 24 1 146 114 137
128 -10 17 -41 15 -56 -3 -7 -8 -18 -15 -26 -15 -13 0 -266 271 -260 278 4 4
179 -71 320 -137 92 -44 136 -59 136 -48 0 1 -22 90 -49 197 -57 229 -66 274
-53 266 13 -8 177 -227 204 -271 l21 -36 -24 -25 c-28 -30 -15 -53 20 -35 46
25 153 104 158 118 9 22 -5 28 -39 15 -25 -9 -35 -9 -46 1 -18 14 -119 150
-217 291 l-69 99 27 23 c31 26 36 54 10 53 -10 0 -44 -18 -75 -40z"/>
<path d="M6225 8069 c-570 -53 -1083 -247 -1524 -576 -134 -100 -398 -358
-488 -478 -246 -327 -387 -646 -459 -1040 -15 -81 -19 -149 -18 -360 0 -241 2
-270 27 -398 179 -911 887 -1641 1875 -1933 138 -41 315 -77 487 -100 181 -24
580 -24 760 0 378 51 653 134 980 296 287 141 503 296 721 514 141 142 218
236 326 401 174 264 291 566 345 884 25 148 25 542 0 686 -73 416 -250 800
-515 1115 -478 569 -1183 922 -1977 990 -139 11 -410 11 -540 -1z m710 -69
c259 -39 473 -96 695 -186 624 -254 1106 -688 1375 -1239 153 -312 225 -616
225 -946 0 -591 -226 -1130 -659 -1573 -448 -457 -1009 -729 -1696 -822 -245
-33 -623 -24 -890 22 -886 153 -1637 691 -1991 1429 -139 289 -202 549 -211
871 -11 378 56 684 222 1022 121 246 259 438 459 637 457 456 1076 738 1769
805 157 15 542 4 702 -20z"/>
<path d="M6850 7743 c-334 -53 -661 -159 -810 -264 -77 -54 -168 -172 -229
-299 -41 -85 -46 -101 -45 -162 l1 -67 -32 25 c-51 38 -62 26 -24 -26 21 -28
21 -30 5 -55 -9 -14 -82 -68 -161 -120 -185 -122 -330 -257 -376 -351 -29 -59
-31 -69 -25 -132 8 -78 46 -239 81 -342 l24 -71 -27 5 c-161 31 -381 32 -441
2 -20 -11 -37 -14 -42 -9 -13 13 -35 194 -54 443 -29 392 -35 439 -55 493 -11
28 -20 57 -20 63 0 6 23 14 50 17 28 3 92 25 143 48 50 23 160 64 242 92 179
59 281 70 430 43 50 -9 96 -16 103 -16 25 0 10 18 -37 43 -120 66 -300 79
-454 33 -116 -35 -209 -78 -272 -126 -71 -55 -140 -83 -204 -85 -35 0 -56 -5
-59 -13 -2 -7 12 -46 32 -85 40 -80 46 -119 66 -427 21 -335 55 -568 91 -629
12 -20 16 -38 11 -43 -5 -5 -68 -20 -140 -33 -73 -13 -151 -33 -175 -45 -23
-12 -92 -58 -152 -102 -61 -44 -147 -105 -192 -136 -46 -30 -83 -61 -83 -69 0
-7 25 -40 55 -74 63 -67 126 -162 175 -259 88 -175 216 -323 348 -399 292
-170 862 -321 1018 -271 21 7 78 30 125 51 48 22 89 39 92 39 2 0 7 -22 9 -50
7 -71 59 -171 116 -221 84 -74 327 -176 500 -209 34 -7 65 -10 69 -7 3 4 0 8
-8 11 -136 42 -309 97 -309 99 0 2 57 2 128 2 148 0 197 13 287 76 l57 40 59
-55 c40 -38 78 -62 120 -77 l62 -23 -54 -18 c-62 -21 -202 -47 -263 -49 -38
-1 -36 -2 18 -11 74 -12 208 13 389 72 194 64 310 125 390 207 78 79 140 165
187 259 33 64 35 73 38 195 3 87 8 129 16 129 6 0 43 -9 81 -21 109 -33 296
-36 528 -10 214 25 255 36 351 98 134 86 200 167 346 423 45 80 112 190 149
245 36 55 67 105 69 112 2 7 -15 28 -37 49 -23 20 -81 84 -130 143 -219 260
-421 363 -829 421 -71 11 -83 15 -87 34 -2 11 -12 71 -21 131 -23 160 -80 289
-189 432 -40 52 -66 75 -120 104 -95 52 -240 98 -347 111 l-89 11 -119 176
c-145 214 -190 267 -291 338 -44 30 -79 59 -79 64 0 6 17 17 38 26 40 16 72
41 72 55 0 8 -43 9 -90 1z m-50 -69 c0 -15 14 -50 31 -78 59 -97 229 -315 321
-413 118 -125 151 -167 193 -247 45 -86 50 -131 31 -261 l-16 -108 98 -101
c112 -115 137 -151 153 -225 13 -60 -2 -219 -25 -274 l-13 -32 -11 40 c-17 58
-74 137 -174 241 -108 112 -149 141 -225 161 -32 8 -62 18 -66 23 -5 4 -1 55
9 113 17 100 17 109 1 159 -11 34 -13 56 -7 62 14 14 80 -20 154 -78 60 -46
76 -54 76 -37 0 17 -104 101 -156 127 -87 43 -168 12 -208 -79 -41 -92 -126
-417 -126 -482 0 -29 18 -6 25 32 14 74 95 344 125 417 41 97 53 108 76 64 30
-55 22 -170 -22 -319 -3 -12 10 -18 62 -28 100 -18 139 -43 259 -165 86 -86
119 -128 150 -188 l39 -76 -17 -37 c-23 -48 -113 -142 -157 -165 -40 -20 -105
-34 -235 -50 -93 -11 -234 -43 -262 -58 -11 -7 -21 -4 -33 8 -17 17 -188 56
-198 45 -5 -5 -3 -6 83 -35 l60 -20 -70 4 c-77 5 -151 25 -148 41 1 6 19 15
41 22 56 16 82 31 82 48 0 11 -13 15 -55 15 -56 0 -65 -6 -43 -28 7 -7 8 -12
4 -12 -5 0 -14 7 -20 16 -11 14 -17 14 -65 -5 -79 -30 -99 -46 -94 -74 5 -27
-30 -234 -53 -317 -10 -36 -37 -83 -76 -135 -75 -99 -124 -199 -178 -361 -23
-69 -52 -136 -64 -150 -16 -18 -50 -31 -136 -53 -176 -45 -254 -54 -408 -48
-150 6 -273 27 -517 89 -362 92 -563 212 -738 441 -32 44 -90 113 -128 155
-38 42 -69 80 -69 83 0 4 15 13 32 20 18 7 97 62 176 121 212 160 246 174 432
183 70 3 145 13 190 25 207 57 306 80 353 82 47 2 57 -2 106 -40 30 -22 77
-48 103 -57 26 -8 82 -37 123 -64 41 -27 109 -64 152 -82 72 -30 86 -33 178
-32 101 1 195 18 179 32 -5 5 -47 4 -94 -2 -59 -7 -103 -7 -146 0 -105 18
-306 125 -281 149 3 4 37 9 74 11 79 6 180 -23 380 -107 128 -54 142 -58 122
-33 -16 19 -134 75 -274 129 l-100 38 -165 1 c-185 0 -214 8 -240 63 -9 17
-25 39 -37 47 -32 22 -46 83 -33 140 14 61 48 129 129 249 90 136 152 201 295
305 165 121 224 157 237 144 7 -7 1 -70 -21 -202 l-31 -191 22 -68 c29 -90 89
-209 156 -309 60 -92 79 -104 70 -45 l-6 37 27 -33 c15 -18 30 -32 33 -32 7 0
-88 258 -110 300 -22 42 -63 79 -100 91 -20 7 -39 17 -43 23 -14 21 -8 112 18
266 32 193 34 282 10 382 l-19 77 -39 5 c-21 3 -56 9 -79 12 l-41 6 7 47 c10
68 35 117 102 201 69 87 208 222 273 266 56 39 152 87 225 115 82 31 314 88
358 89 33 0 37 -2 37 -26z m615 -640 c58 -10 124 -43 143 -72 9 -13 31 -57 47
-96 l31 -71 104 -35 c187 -62 248 -113 274 -227 24 -107 41 -252 30 -262 -5
-5 -52 -21 -104 -36 -52 -15 -137 -42 -188 -62 -52 -19 -95 -33 -97 -31 -2 2
-8 38 -13 80 -12 97 -43 150 -141 248 l-76 75 -5 170 c-5 169 -6 171 -42 253
-28 65 -33 82 -20 78 10 -3 35 -8 57 -12z m265 -73 c40 -17 86 -43 102 -58 31
-29 101 -116 133 -167 l19 -28 -55 30 c-30 17 -86 40 -126 52 -39 12 -78 29
-87 39 -14 15 -76 143 -76 156 0 10 18 5 90 -24z m-1749 -63 c9 -16 49 -144
49 -155 0 -2 -48 -35 -107 -74 -140 -94 -283 -200 -341 -252 -49 -46 -232
-314 -253 -371 -7 -20 -16 -36 -19 -36 -24 0 -73 196 -74 295 -1 75 1 84 32
132 36 56 147 166 234 232 65 49 323 214 387 248 48 25 71 20 92 -19z m2363
-693 c80 -14 148 -25 150 -25 3 0 13 -8 23 -18 10 -11 72 -55 138 -100 136
-92 358 -267 455 -358 l64 -62 -36 -54 c-20 -30 -89 -147 -153 -259 -65 -112
-133 -225 -151 -251 -70 -95 -200 -197 -304 -238 -124 -49 -543 -64 -690 -25
-64 18 -237 89 -254 105 -4 5 10 48 32 97 52 113 83 279 67 352 l-7 31 -86 0
c-90 0 -232 19 -337 46 -107 27 -340 96 -348 104 -19 17 226 82 378 100 118
14 182 44 254 119 73 74 115 146 137 236 9 39 23 78 31 87 16 18 195 93 288
119 85 25 181 23 349 -6z m-2268 -57 c31 -38 94 -164 94 -190 0 -30 -21 -31
-50 -3 -30 29 -86 140 -96 193 -9 43 15 43 52 0z m-837 -292 c29 -8 55 -17 58
-20 10 -9 -48 -27 -202 -62 -192 -43 -205 -43 -250 1 -19 20 -35 40 -35 45 0
14 45 41 83 51 48 12 284 2 346 -15z m1396 -297 c14 -27 28 -70 31 -97 5 -37
15 -56 47 -89 36 -38 67 -55 67 -37 0 3 -16 31 -35 62 -30 50 -75 159 -75 184
0 14 24 9 48 -10 13 -10 25 -31 27 -47 1 -16 11 -36 21 -44 11 -9 27 -34 37
-56 l19 -40 -35 40 c-19 22 -38 37 -42 33 -10 -10 21 -63 55 -92 69 -58 98
-10 33 56 l-36 37 53 -20 c29 -11 55 -18 58 -15 7 8 -48 76 -68 84 -9 4 -30
22 -46 41 -28 33 -28 34 -4 21 14 -7 39 -25 57 -40 18 -16 53 -33 83 -39 28
-6 61 -16 72 -22 19 -10 17 -14 -33 -66 -100 -102 -379 -322 -463 -365 l-39
-20 6 166 c4 117 3 165 -4 160 -7 -4 -7 2 1 15 8 16 19 21 38 19 25 -3 27 -6
24 -49 -6 -94 44 -139 68 -61 7 20 19 45 28 55 19 22 27 112 14 157 -6 19 -20
59 -31 88 -26 65 -10 59 24 -9z m541 -139 c84 -30 231 -50 361 -50 100 0 112
-2 118 -19 9 -31 -14 -197 -36 -253 -45 -116 -142 -290 -190 -342 -75 -82
-104 -90 -302 -83 -260 10 -469 43 -561 89 -75 37 -216 122 -216 130 0 8 26
25 210 137 120 73 250 170 371 277 111 96 158 133 175 134 6 0 37 -9 70 -20z
m-746 -315 l0 -105 -52 -26 c-29 -15 -70 -37 -90 -50 -21 -14 -38 -21 -38 -17
1 32 155 303 172 303 5 0 8 -47 8 -105z m-1865 -279 c157 -105 227 -131 555
-210 273 -66 376 -80 550 -73 113 4 173 12 274 37 71 16 131 28 134 26 7 -8
-107 -78 -226 -138 -160 -81 -187 -85 -385 -64 -282 31 -358 47 -507 110 -205
86 -377 193 -471 293 -53 55 -129 152 -129 163 0 6 28 -13 63 -40 34 -28 98
-75 142 -104z m1725 40 c19 -3 79 -32 133 -63 54 -31 124 -66 155 -79 153 -61
626 -106 745 -70 69 21 141 79 189 152 23 35 48 64 55 64 18 0 61 -78 74 -136
10 -43 9 -61 -10 -134 -35 -140 -70 -200 -185 -314 -150 -148 -275 -215 -418
-224 -69 -4 -84 -2 -130 21 -29 14 -79 49 -110 77 l-57 51 -65 -45 c-123 -84
-207 -101 -360 -71 -95 18 -142 38 -251 110 -95 63 -115 92 -115 165 0 59 22
94 89 139 99 68 139 130 187 290 15 50 30 87 33 83 3 -5 22 -12 41 -16z"/>
<path d="M5620 6213 c0 -79 167 -329 256 -383 56 -36 52 -15 -12 52 -92 96
-187 240 -213 321 -15 43 -31 49 -31 10z"/>
<path d="M6392 6100 c-11 -12 -28 -39 -38 -61 -15 -35 -16 -45 -5 -72 6 -18
15 -70 18 -116 l6 -83 -89 7 c-82 6 -91 5 -111 -15 -27 -25 -29 -39 -6 -55 15
-11 9 -14 -42 -25 -33 -7 -68 -19 -78 -28 -17 -16 -17 -17 -1 -29 10 -7 34
-13 53 -13 43 0 57 -8 62 -35 3 -11 12 -21 22 -23 43 -8 208 102 192 128 -3 5
-21 10 -38 10 -18 0 -50 9 -72 20 l-40 19 35 -4 c19 -2 55 -7 80 -10 56 -7
203 18 237 40 25 17 67 16 142 -2 20 -5 21 -7 7 -15 -62 -35 59 -66 143 -37
33 12 43 38 14 40 -11 0 -5 6 15 15 34 15 42 38 16 48 -9 3 -38 6 -65 6 l-49
0 20 20 c22 22 25 37 11 59 -15 23 -84 7 -190 -46 l-99 -48 51 55 c47 51 53
55 91 52 68 -5 188 51 170 79 -10 17 -83 10 -103 -10 -10 -10 -32 -20 -49 -23
l-30 -4 40 47 c25 30 38 54 35 64 -11 26 -55 17 -94 -19 l-38 -34 -10 31 c-7
22 -16 32 -30 32 -26 0 -78 -101 -73 -141 3 -26 6 -22 36 39 19 38 36 67 38
64 3 -3 0 -25 -7 -51 -6 -25 -9 -52 -5 -61 3 -9 -9 -28 -32 -49 -45 -42 -142
-119 -142 -114 0 25 40 127 70 179 43 72 55 110 46 135 -6 15 -9 15 -30 -5
-12 -12 -33 -44 -46 -71 -16 -34 -26 -46 -32 -38 -14 23 -8 62 17 103 14 22
25 46 25 53 0 19 -27 14 -48 -8z"/>
<path d="M6367 5630 c-10 -16 -43 -51 -74 -77 -97 -83 -125 -112 -121 -129 5
-30 24 -26 78 17 l53 42 -7 -44 c-8 -50 -26 -112 -32 -107 -2 2 1 21 7 42 6
21 8 40 5 43 -10 10 -46 -80 -46 -114 0 -42 21 -43 52 -2 13 16 39 48 59 69
19 21 41 56 47 78 13 44 16 212 4 212 -4 0 -16 -13 -25 -30z"/>
<path d="M5840 5294 c-6 -14 -10 -29 -10 -33 0 -17 -69 -72 -120 -95 -89 -41
-165 -56 -332 -68 -149 -11 -191 -19 -176 -33 11 -11 350 14 412 30 69 18 151
57 185 88 29 27 81 106 81 124 0 23 -30 14 -40 -13z"/>
</g>
</svg>
