<?xml version="1.0" encoding="UTF-8" standalone="no"?>
<svg
   xmlns:dc="http://purl.org/dc/elements/1.1/"
   xmlns:cc="http://creativecommons.org/ns#"
   xmlns:rdf="http://www.w3.org/1999/02/22-rdf-syntax-ns#"
   xmlns:svg="http://www.w3.org/2000/svg"
   xmlns="http://www.w3.org/2000/svg"
   id="svg7133"
   version="1.1"
   viewBox="0 0 210 297"
   height="297mm"
   width="210mm">
  <defs
     id="defs7127" />
  <metadata
     id="metadata7130">
    <rdf:RDF>
      <cc:Work
         rdf:about="">
        <dc:format>image/svg+xml</dc:format>
        <dc:type
           rdf:resource="http://purl.org/dc/dcmitype/StillImage" />
        <dc:title></dc:title>
      </cc:Work>
    </rdf:RDF>
  </metadata>
  <g
     id="layer1">
    <ellipse
       ry="60.82201"
       rx="60.680717"
       transform="matrix(-0.70098996,-0.71317114,0.74085939,-0.67166015,0,0)"
       cy="-27.100363"
       cx="-176.09811"
       id="path4487"
       style="opacity:0.92299996;fill:none;fill-opacity:1;stroke:#000000;stroke-width:1.0704962;stroke-miterlimit:4;stroke-dasharray:none;stroke-opacity:0.88059698" />
    <path
       id="path4654"
       d="m 105.99948,80.449186 a 66.824318,64.427482 3.3851793 0 0 -68.820654,62.156544 66.824318,64.427482 3.3851793 0 0 64.749044,66.63732 66.824318,64.427482 3.3851793 0 0 68.82125,-62.1559 66.824318,64.427482 3.3851793 0 0 -64.74964,-66.637964 z"
       style="opacity:0.94300022;fill:none;fill-opacity:1;stroke:#000000;stroke-width:0.71078849;stroke-miterlimit:4;stroke-dasharray:0, 0.71078849, 1.42157697, 2.13236548, 2.84315397, 3.55394246, 4.26473095, 4.97551943, 5.68630794, 6.39709644, 7.10788489, 7.81867341, 8.5294619, 9.2402504, 9.95103889;stroke-dashoffset:0;stroke-opacity:0.88059698" />
    <path
       transform="matrix(1.2214287,0,0,1.0950424,-8.1044263,18.214948)"
       id="path4560"
       d="m 71.659632,180.03575 c -2.426817,-1.24782 -3.786694,-3.34697 -3.704946,-5.32061 0.03241,-0.78273 0.657528,-2.0704 1.281994,-2.71646 1.860616,-1.92503 4.813609,-2.86779 9.182763,-4.04375 1.199821,-0.32368 2.527093,-0.67779 3.895967,-1.07577 0.686081,-0.19947 1.25407,-0.39713 1.286203,-0.41919 0.03109,-0.0214 0.169129,-0.35949 0.305359,-0.75312 0.431389,-1.246 1.086473,-2.96893 1.448603,-3.81327 0.126912,-0.29591 0.199752,-0.52059 0.16531,-0.4998 -0.03478,0.021 -0.653714,0.68339 -1.430433,1.44069 -1.63567,1.59475 -2.31973,2.00152 -2.904426,2.2338 -0.464856,0.18468 -0.591627,0.19963 -0.950269,0.12965 -0.34305,-0.0669 -0.619137,-0.18773 -0.796256,-0.3393 -0.08793,-0.0751 -0.151471,-0.15777 -0.187139,-0.2453 -0.188079,-0.46155 0.354381,-1.50045 1.059018,-2.40123 0,0 0,0 0,0 0.388847,-0.4976 0.833189,-0.96014 1.239253,-1.24612 0.183697,-0.12937 0.305303,-0.24448 0.273297,-0.25405 -0.05237,-0.0156 -0.531246,0.088 -1.086181,0.20596 0,0 0,0 0,0 -0.398599,0.0854 -1.12599,0.23856 -1.398149,0.3024 -1.187552,0.27857 -2.74263,0.78102 -3.930182,1.05959 -2.714655,0.63461 -3.607026,0.60427 -3.917976,0.55593 -0.696588,-0.10829 -1.410455,-0.48407 -1.686086,-0.87646 -0.390176,-0.55544 -0.367665,-1.19504 0.04892,-1.99051 0.414742,-0.79194 1.620486,-2.10596 2.388286,-2.65241 0.123106,-0.0876 0.218361,-0.17379 0.212298,-0.19094 -0.0061,-0.0172 -0.764997,0.29 -1.715114,0.64777 -2.470085,0.93015 -3.081624,0.90556 -3.704325,0.46149 -0.421725,-0.30074 -0.567138,-0.597 -0.468458,-0.93171 0.08057,-0.27329 0.49017,-0.83092 0.820044,-1.12473 0.281684,-0.25089 0.306112,-0.22387 -0.784281,-0.0354 -1.173948,0.20287 -2.258479,0.13464 -3.07566,-0.15478 -0.350589,-0.12426 -0.649737,-0.28843 -0.882837,-0.48724 -0.578098,-0.49307 -0.924473,-1.42756 -0.879257,-2.38323 0.01401,-0.29613 0.106051,-0.89421 0.212465,-1.36446 0.194305,-0.85863 0.242495,-1.34199 0.121422,-1.45834 -0.03671,-0.0353 -0.44986,-0.0974 -0.918525,-0.14458 -1.477161,-0.14876 -3.477927,0.0489 -5.742969,0.52634 -0.675014,0.14227 -1.338178,0.22901 -1.478744,0.2017 -0.212968,-0.0414 -0.303048,-0.10541 -0.589559,-0.42952 -0.507413,-0.5734 -0.495182,-0.71735 0.05693,-1.18514 1.527692,-1.29436 4.522715,-2.57014 9.479335,-4.78487 3.780842,-1.68937 4.964916,-2.54642 5.352883,-3.1467 0.137192,-0.21228 0.195047,-0.38513 0.191121,-0.57007 -0.005,-0.23589 -0.02999,-0.28484 -0.225182,-0.44423 -0.53926,-0.44037 -1.491892,-0.7298 -2.817595,-0.9013 -1.958565,-0.25337 -4.666273,-0.1724 -7.767524,0.16824 -3.107752,0.34137 -4.546089,0.62571 -8.593616,1.61642 -2.120248,0.51897 -2.386742,0.47104 -2.923161,-0.32483 -0.569141,-0.84446 -0.313523,-1.43064 0.970551,-2.29902 2.073654,-1.40233 6.636106,-2.85154 9.830924,-3.30687 1.010882,-0.14406 1.562083,-0.13595 1.827509,0.0466 0.368606,0.25354 0.666635,0.76704 0.558927,0.96696 -0.02677,0.0497 -0.715556,0.25811 -1.536232,0.45236 -2.500812,0.59193 -4.091269,1.0405 -6.128959,1.81766 -1.11636,0.42577 -3.080113,1.27541 -3.081964,1.34112 -6.66e-4,0.0239 0.511329,-0.0562 1.135755,-0.18306 2.691456,-0.54695 4.621958,-0.82454 7.065142,-1.03855 6.149331,-0.53864 10.213928,-0.21573 11.851618,1.49386 0.528938,0.55263 0.668677,0.99594 0.486465,1.59067 -0.25062,0.81802 -1.233436,1.70584 -4.443228,3.41497 -0.907504,0.48322 -2.051044,1.07564 -3.377161,1.72693 -1.694592,0.83226 -4.106063,2.05514 -4.79103,2.47602 -0.07985,0.0491 -0.159745,0.0981 -0.239675,0.14705 0.211144,-0.0118 0.421963,-0.0245 0.632445,-0.038 2.234448,-0.14325 4.117177,-0.10108 4.864699,0.20904 0.39332,0.16318 0.843886,0.59616 0.972516,0.93641 0.114248,0.30137 0.06644,0.65988 -0.178891,1.68064 -0.373065,1.55225 -0.242192,2.49354 0.367541,3.01277 0.197109,0.16785 0.485246,0.29871 0.845829,0.38857 1.24423,0.30956 3.27689,0.12199 5.41676,-0.65465 1.241036,-0.45042 2.606079,-0.0321 3.439552,1.01731 0.058,0.0731 0.252524,0.0442 0.790705,-0.14402 0.384461,-0.13449 0.806183,-0.26893 0.918591,-0.28683 0.397317,-0.0632 1.009542,0.31536 0.952516,0.59032 -0.01425,0.0688 -0.317904,0.36933 -0.681042,0.66334 -1.408907,1.1407 -2.173205,1.79806 -2.965929,2.71919 -0.443716,0.51561 -1.008986,1.50308 -1.063881,1.88197 -0.04794,0.33041 0.02371,0.62835 0.170124,0.71208 0.191792,0.10968 1.311741,0.1322 3.729967,-0.34473 3.55196,-0.70053 4.953508,-1.199 6.427207,-1.40947 0.328043,-0.0461 0.648424,-0.0823 0.996707,-0.11757 1.402626,-0.14217 1.759701,-0.16422 2.64586,0.0296 0.241924,0.0529 0.484427,0.1032 0.727438,0.1508 0.201389,-0.18473 0.39989,-0.37122 0.595471,-0.55939 0.652255,-0.62753 0.757908,-0.68724 1.271598,-0.56679 0.636134,0.14918 0.681513,0.2894 0.07233,2.10007 -0.469882,1.39663 -1.316846,4.09685 -1.275667,4.14692 0.06093,0.0741 2.546499,-0.97879 4.204972,-1.91441 2.689396,-1.51722 3.575961,-2.46925 3.707756,-2.65654 0.129203,-0.18361 0.301195,-0.39195 0.394865,-0.47772 0,0 0,0 0,0 0.0086,-0.008 0.01663,-0.0146 0.02401,-0.0205 0.208679,-0.1647 0.808252,-0.23792 0.975055,-0.1178 0.106021,0.0763 0.104187,0.13143 -0.07761,0.60168 -0.266638,0.68976 -0.505438,1.42921 -0.711261,2.21584 -0.211715,0.81349 -0.390594,1.68228 -0.527775,2.60298 -0.21717,1.45765 -0.33905,1.8156 0.722158,-0.12516 0.0315,-0.0575 0.06395,-0.11698 0.09726,-0.17837 1.612606,-2.97122 1.854291,-3.68071 2.692724,-3.82221 0.617648,-0.10424 0.878001,0.0521 1.530676,0.85805 0.671155,0.82875 1.297329,1.2299 2.056459,1.33501 0.73952,0.1024 1.33171,-0.2668 2.12359,-1.44976 0.69804,-1.0427 1.11733,-2.06008 1.14827,-2.58955 0.0546,-0.93502 0.55079,-1.64217 1.37443,-1.98684 0.34759,-0.14576 0.41787,-0.20069 0.45789,-0.34246 0.0317,-0.11214 0.0955,-0.17954 0.24555,-0.25297 0,0 0,0 0,0 0.0195,-0.009 0.0404,-0.019 0.0628,-0.0288 0.43952,-0.19187 0.54473,-0.16425 0.71911,0.21744 0.13378,0.29282 0.18602,0.34415 0.46136,0.43825 0.36703,0.12546 0.8459,0.10098 1.1813,-0.0608 0.29046,-0.13981 0.76022,-0.53022 1.16218,-0.97819 0.0979,-0.10911 0.19519,-0.21856 0.29185,-0.32836 -0.0433,-0.14325 -0.0869,-0.2864 -0.13072,-0.42945 -0.70663,-2.30755 -1.11576,-5.59035 -1.03331,-7.53973 0.0391,-0.92467 0.20933,-2.10713 0.33548,-2.19318 0.0353,-0.0241 0.0661,-0.1448 0.0681,-0.26838 0.002,-0.12347 0.0203,-0.23305 0.0413,-0.24353 0.11568,-0.0578 0.14795,-0.12787 0.0951,-0.20392 -0.0463,-0.0666 -0.0369,-0.0814 0.0421,-0.0671 0.14965,0.0271 0.19037,-0.025 0.11061,-0.13845 -0.0464,-0.0661 -0.0375,-0.12375 0.0256,-0.16894 0.0529,-0.0378 0.0906,-0.12448 0.0838,-0.19243 -0.007,-0.0678 0.003,-0.10364 0.0213,-0.0794 0.0184,0.0243 0.0471,-0.02 0.0631,-0.0984 0.0441,-0.21616 0.55983,-0.72005 0.90552,-0.88735 0.67707,-0.32768 1.266,-0.21876 1.73154,0.3608 0.31713,0.39481 0.48043,0.78761 0.65989,1.7029 0.4838,2.46743 -0.12026,6.51854 -1.52634,8.99468 -0.13047,0.22976 -0.23409,0.47397 -0.22686,0.54161 0.019,0.17836 0.51558,1.43378 0.81056,2.04346 0.3577,0.73921 1.09333,1.77509 1.5802,2.20102 0.71637,0.62676 1.5275,0.9323 2.08544,0.78766 0.21516,-0.0558 0.28936,-0.11228 0.55537,-0.43959 1.038,-1.277 1.75838,-3.54703 1.85667,-6.82789 0.0208,-0.69242 -0.0211,-1.3014 -0.0862,-1.49368 -0.15665,-0.46277 -0.21148,-1.12065 -0.12326,-1.46333 0.0637,-0.24728 0.12587,-0.33959 0.35839,-0.53543 0.1824,-0.15362 0.30952,-0.2249 0.36254,-0.20038 0.0449,0.0207 0.12444,0.26733 0.17428,0.54917 0.14114,0.79778 0.38046,1.28579 1.06796,2.11183 0.52002,0.62412 0.63189,0.72707 0.95144,0.86208 0.49173,0.20768 0.89362,0.19597 1.15617,-0.0309 0.69657,-0.60185 1.31547,-2.71194 1.30518,-4.72022 -0.002,-0.47632 -0.062,-1.32981 -0.14973,-2.03893 -0.16601,-1.3425 -0.15771,-1.66238 0.17076,-2.26365 0.33816,-0.61902 0.89684,-1.10761 1.47426,-1.28269 0.16247,-0.0493 0.29343,-0.10302 0.29097,-0.11841 -0.003,-0.0172 -0.0965,-0.44924 -0.21764,-0.96307 -0.12061,-0.51144 -0.21875,-0.96842 -0.21038,-1.01682 0.0161,-0.0934 0.12466,-0.24517 0.24914,-0.37625 0.12202,-0.13069 0.26035,-0.24158 0.34314,-0.25382 0.24743,-0.0366 0.34034,0.0724 0.65008,0.88632 0.0309,0.0813 0.0616,0.16141 0.092,0.24061 0,0 0,0 0,0 0.79087,2.07311 1.42246,3.3593 2.51849,4.85508 0.53299,0.72738 1.45354,1.55372 1.99705,1.76908 0.49614,0.19658 0.96253,0.20505 1.2413,0.0231 0.19651,-0.12826 0.26039,-0.21798 0.49847,-0.74192 0.091,-0.20029 0.17426,-0.4134 0.25583,-0.66683 0.19384,-0.60046 0.43491,-1.62874 0.67804,-3.28599 0.55338,-3.77202 0.94079,-8.34814 1.15795,-10.3653 0.1387,-1.3599 0.28365,-2.48861 0.4471,-3.65133 0.27607,-1.96389 0.66008,-3.8522 1.08172,-4.45915 0.26172,-0.37673 0.76525,-0.60984 0.83194,-0.34516 0.0572,0.22703 -0.009,0.41174 -0.1334,0.39371 -0.13655,-0.0198 -0.49763,0.33378 -0.67435,0.64532 -0.1192,0.21013 -0.49907,1.77501 -0.59069,2.43531 -0.21746,1.56732 -0.40762,3.14517 -0.58742,5.1626 -0.21735,2.31027 -0.50552,6.02443 -0.95354,9.58895 -0.25116,1.99826 -0.56846,3.34909 -0.88517,4.18047 -0.29485,0.77701 -0.631,1.2373 -1.08477,1.63286 -0.82729,0.72118 -1.79441,0.69839 -2.90143,-0.0371 -0.79316,-0.52696 -1.71498,-1.69383 -2.40974,-2.96455 -0.15205,-0.27812 -0.29562,-0.50143 -0.31735,-0.4976 -0.0217,0.004 -0.011,0.23022 0.0216,0.50415 0.0891,0.74863 0.0132,1.84919 -0.14868,2.23894 -0.16205,0.3902 -0.5596,0.82801 -0.87606,0.96704 -0.30698,0.13481 -0.64953,0.0321 -0.96878,-0.28481 l -0.26751,-0.26558 c -7.1e-4,0.28595 -0.003,0.57259 -0.008,0.85988 -0.0247,1.45106 -0.35468,2.80608 -0.87678,3.71673 -0.33234,0.57965 -1.22221,1.35077 -1.74165,1.51386 -0.7316,0.22968 -1.40746,0.0708 -2.10065,-0.47835 -0.0954,-0.0755 -0.1906,-0.15115 -0.28571,-0.2269 -0.006,0.20784 -0.0138,0.41598 -0.0224,0.62439 -0.0544,1.31903 -0.25845,2.47128 -0.66641,3.71949 -0.4489,1.37353 -0.83213,2.03999 -1.42449,2.6248 -0.42587,0.42045 -1.22157,0.86452 -1.75994,0.98404 -0.90797,0.20155 -1.9689,-0.17451 -2.90076,-1.02224 -0.45921,-0.41774 -0.50966,-0.49626 -1.25845,-1.88363 -0.76645,-1.42083 -0.78187,-1.4432 -0.89204,-1.33975 -0.93157,0.87453 -1.52083,1.17367 -2.65446,1.36745 -0.14005,0.0239 -0.16177,0.0566 -0.1364,0.20643 0.0171,0.10115 0.0492,0.50719 0.0683,0.91731 0.004,0.0798 0.006,0.15893 0.008,0.23728 0.0225,1.20431 -0.24369,2.21318 -0.69026,2.66334 -0.18772,0.18923 -0.32415,0.26589 -0.69439,0.38271 -0.39686,0.12523 -0.49958,0.12863 -0.73495,0.0376 -0.37234,-0.14413 -0.59436,-0.43902 -0.82419,-1.0772 -0.0647,-0.17933 -0.12934,-0.35866 -0.19398,-0.538 -0.0613,0.12588 -0.12329,0.25165 -0.18604,0.37732 -0.10924,0.21878 -0.35171,0.62842 -0.57271,0.95885 -0.87944,1.31488 -2.22876,1.86269 -3.62657,1.48753 -0.715871,-0.19213 -1.156271,-0.49278 -1.846596,-1.29758 -0.349853,-0.40785 -0.657637,-0.73193 -0.695642,-0.7143 -0.118383,0.0549 -0.742646,1.19536 -1.157427,2.06533 -0.068,0.14264 -0.811273,1.75095 -0.934601,2.02149 -0.230703,0.50608 -0.43126,0.9161 -0.596756,1.22731 -0.560566,1.05404 -0.806954,1.17367 -1.372793,1.23119 -0.598293,0.0608 -0.943687,-0.0616 -1.098645,-0.36862 -0.187395,-0.37139 -0.146481,-2.02455 0.0444,-2.98287 0.179275,-0.89977 0.492924,-2.08412 0.710893,-2.68872 0.09048,-0.25098 0.139196,-0.44642 0.111831,-0.43447 -0.02757,0.0121 -0.809653,0.60021 -1.81522,1.25067 -1.156797,0.74828 -2.478858,1.45199 -3.635163,1.96102 -0.982187,0.43236 -1.871695,0.76713 -1.930007,0.79588 -0.11016,0.0543 -0.485458,1.5573 -1.153006,4.3584 -0.955012,4.00727 -2.056257,6.44558 -3.959363,8.31319 -1.442405,1.4155 -3.212498,2.12358 -5.229094,2.04463 -0.410348,-0.0161 -0.849232,-0.0694 -1.296406,-0.1566 -0.875595,-0.17833 -1.758108,-0.48051 -2.496969,-0.86042 2.03e-4,-5e-5 4.07e-4,-1e-4 6.1e-4,-1.5e-4 z m 2.128369,0.29295 c 0.17935,0.0266 0.358972,0.0434 0.538433,0.0503 0,0 10e-7,0 10e-7,0 1.809799,0.0578 3.529418,-0.8735 4.902984,-2.64779 1.328406,-1.71595 2.17072,-3.66878 3.36234,-7.76935 0.193713,-0.66682 0.500858,-1.71168 0.599926,-2.03656 0.11852,-0.38878 0.205329,-0.72075 0.194311,-0.73699 -0.06835,-0.10063 -3.546858,1.01136 -5.201639,1.48026 -0.04039,0.0114 -0.07959,0.0226 -0.117508,0.0335 -3.584675,1.03231 -6.164094,2.02512 -7.836468,3.73864 -0.540206,0.55348 -1.246214,2.02903 -1.260003,2.69194 -0.01426,0.6938 0.362181,1.91168 0.807754,2.55926 0.972203,1.41299 2.504031,2.41314 4.009751,2.6368 4e-5,2e-5 7.9e-5,3e-5 1.18e-4,4e-5 z m 7.476888,-16.21887 c 0.292763,-0.18928 0.79924,-0.57293 1.2079,-0.92355 1.517818,-1.30228 2.349345,-2.24026 2.357529,-2.27974 0.02217,-0.10696 -0.543293,-0.18973 -0.883086,-0.13178 -0.67667,0.11532 -1.55052,0.78798 -2.234726,1.7148 -0.375042,0.50804 -1.089916,1.64761 -1.152887,1.85502 -0.06119,0.20155 0.07344,0.17378 0.705259,-0.23471 z M 68.76696,157.55086 c 0.832474,-0.22635 3.365346,-1.13664 3.38871,-1.17424 0.0061,-0.01 -0.05391,-0.12618 -0.132314,-0.2588 -0.196015,-0.33166 -0.435305,-0.46768 -0.897026,-0.51455 -0.637616,-0.0648 -1.384661,0.24156 -2.252668,0.92101 -0.507596,0.39734 -1.228252,1.21533 -1.080734,1.24068 0.05373,0.009 0.492654,-0.0832 0.974021,-0.21408 z m 37.62598,4.21088 c 0.26813,-0.9371 0.31117,-1.99673 0.14604,-2.99688 -0.0894,-0.54151 -0.15204,-0.62053 -0.45786,-0.62563 -0.20005,-0.003 -0.23102,0.0144 -0.38595,0.21438 -0.45493,0.58731 -0.44944,1.81269 0.057,3.13794 0.34736,0.90785 0.44354,0.95937 0.64073,0.2702 z m 19.43684,-14.92752 c 0.0372,-1.04125 -0.21888,-3.17247 -0.38361,-3.31492 -0.12307,-0.10644 -0.60089,-0.0179 -0.8529,0.15504 -0.32749,0.2247 -0.454,0.54907 -0.406,1.03414 0.077,0.77802 0.68577,2.26401 1.18634,2.84403 0.1,0.1158 0.19981,0.23167 0.2996,0.34761 0.0229,-0.0884 0.0457,-0.1768 0.0682,-0.26518 0.0378,-0.14852 0.0778,-0.50394 0.0884,-0.80072 0,0 0,0 -10e-6,0 z m -14.06085,7.12374 c 0.44936,-1.06358 0.88329,-2.73686 1.02879,-3.96155 0.41593,-3.50103 -0.47827,-5.52107 -1.60977,-5.45715 -0.33918,0.0191 -0.43093,0.1115 -0.61087,0.58979 -0.57742,1.53489 -0.53025,4.0977 0.0348,7.07816 0.14137,0.74563 0.57612,2.59863 0.63965,2.7071 0.04,0.0684 0.17925,-0.15608 0.51736,-0.95635 z m 6.20895,-4.76447 c -0.20863,0.0285 -0.18679,-0.14774 0.0403,-0.38879 0.13233,-0.1404 0.24792,-0.21267 0.36573,-0.22727 0.17029,-0.0211 0.17241,-0.02 0.12643,0.14048 -0.0564,0.19772 -0.33815,0.44917 -0.53267,0.47578 7e-5,-7e-5 1.4e-4,-1.3e-4 2e-4,-2e-4 z"
       style="display:inline;fill:#000000;stroke-width:0.06840494" />
    <path
       id="path4596"
       d="m 98.540524,170.41322 c -2.99291,-1.22145 -4.05058,-1.84024 -5.11892,-2.99486 -0.94783,-1.02437 -1.6298,-2.8193 -1.45891,-3.83979 0.11675,-0.69719 0.036,-0.6845 -2.102934,0.3306 -2.899028,1.3758 -3.712517,1.39448 -8.721358,0.20021 -4.159267,-0.9917 -7.984988,-2.44269 -11.144895,-4.22696 -2.171713,-1.22629 -4.502122,-3.94072 -5.82733,-6.78765 -0.683914,-1.46925 -1.765899,-3.24081 -2.404416,-3.93683 -2.104901,-2.29444 -2.071584,-2.23091 -1.331329,-2.53738 0.35793,-0.14818 2.133023,-1.38975 3.944647,-2.75903 3.277406,-2.47718 3.309393,-2.49206 6.404051,-2.9783 1.710615,-0.26878 2.88807,-0.58701 2.616556,-0.70722 -0.271506,-0.1201 -0.709526,-0.87582 -0.973391,-1.67921 -0.451614,-1.37509 -1.190022,-8.37711 -1.408048,-13.35204 -0.111839,-2.55219 -0.409183,-3.80646 -1.148475,-4.84453 -0.699995,-0.98293 -0.584077,-1.29021 0.412814,-1.0942 0.9266,0.18218 2.974272,-0.67517 4.033933,-1.68898 0.947966,-0.90698 4.67837,-2.33187 6.692089,-2.55619 2.010997,-0.22401 4.578074,0.26957 5.887894,1.13217 0.930169,0.61254 0.893692,0.61731 -1.422251,0.18622 -1.524289,-0.28375 -2.981505,-0.33929 -4.062369,-0.15487 -1.8438,0.31457 -6.544516,1.95351 -8.236716,2.87178 -0.587001,0.31852 -1.483682,0.58695 -1.992628,0.5965 -1.087177,0.0204 -1.093493,0.0342 -0.577398,1.26213 0.528118,1.2565 0.580236,1.63485 0.864167,6.27282 0.271718,4.43864 0.758083,9.32448 1.024183,10.2886 0.154707,0.56052 0.240794,0.59173 0.742008,0.26904 0.958692,-0.61722 2.925812,-0.7451 5.796882,-0.37683 l 2.746243,0.35223 -0.413168,-1.22628 c -0.968609,-2.87485 -1.673618,-6.25257 -1.509556,-7.23232 0.09715,-0.58013 0.551416,-1.56783 1.009474,-2.19484 1.142612,-1.56408 4.346981,-4.27302 6.495611,-5.49131 2.242712,-1.27164 2.984375,-2.18088 2.358955,-2.89197 -0.684155,-0.77785 -0.445064,-0.99727 0.278101,-0.25523 0.702658,0.72099 0.923115,0.42289 0.567459,-0.76728 -0.291114,-0.97414 1.011945,-3.90099 2.752955,-6.18354 1.67651,-2.19798 3.07673,-3.02123 8.471226,-4.98051 1.7999,-0.65371 8.30901,-1.97678 9.02891,-1.83525 0.39866,0.0784 -0.14348,0.55813 -0.99624,0.8816 -1.17632,0.4462 -1.07911,0.68979 0.74181,1.8587 1.58759,1.01913 2.55936,2.17471 5.12034,6.08884 l 1.95049,2.98109 1.76494,0.1498 c 2.01797,0.17127 6.19946,1.7907 7.15478,2.77094 1.5433,1.58356 3.6255,5.31815 3.87803,6.95554 0.14309,0.92782 0.35512,2.29449 0.47114,3.03705 l 0.21101,1.35013 3.64582,0.60899 c 5.54395,0.92599 9.25427,3.10878 12.62545,7.42754 0.92582,1.18606 1.93875,2.30267 2.25096,2.48136 0.31221,0.17874 0.51079,0.41166 0.44127,0.51767 -0.0695,0.10602 -0.587,0.83831 -1.14993,1.6273 -0.56296,0.78901 -1.86582,2.99655 -2.89523,4.90567 -2.15432,3.99526 -3.36989,5.48018 -5.88083,7.18397 -1.61453,1.09552 -2.17909,1.26298 -5.63393,1.67128 -5.09512,0.60216 -7.33842,0.55892 -9.77007,-0.18836 -1.64357,-0.50508 -1.95408,-0.5282 -1.74928,-0.13031 0.13693,0.26608 0.18365,1.4428 0.10374,2.61495 -0.13025,1.91171 -0.27059,2.33891 -1.36276,4.14868 -1.36424,2.26057 -3.03862,4.11404 -4.44133,4.91629 -2.9799,1.70435 -9.37193,3.67005 -11.22099,3.45075 l -1.39689,-0.16572 1.38375,-0.006 c 0.76105,-0.004 2.22672,-0.27664 3.25702,-0.60671 l 1.8733,-0.6001 -1.34638,-0.43759 c -0.74052,-0.24068 -1.78016,-0.88674 -2.31031,-1.43572 l -0.96393,-0.99813 -0.93589,0.71131 c -1.66286,1.26383 -4.05847,1.8054 -6.214106,1.40479 -2.78336,-0.51721 -1.42321,0.2966 2.301376,1.37707 2.66468,0.77298 2.73775,0.81189 0.85788,0.45693 -1.13015,-0.21355 -2.947786,-0.75243 -4.039136,-1.19782 z m 5.205306,-1.42176 c 0.92811,-0.41298 1.93336,-1.01385 2.23391,-1.3353 0.46121,-0.49327 0.6155,-0.5064 0.98933,-0.0842 1.19011,1.34424 2.82237,2.32492 3.91171,2.35018 2.76222,0.0641 5.49435,-1.21223 8.00707,-3.74045 2.2943,-2.30845 2.88006,-3.25606 3.46199,-5.60055 0.44333,-1.78618 0.45221,-2.27046 0.0622,-3.40685 -0.25004,-0.72856 -0.66731,-1.50713 -0.92727,-1.73013 -0.3983,-0.34166 -0.58526,-0.20978 -1.18839,0.83807 -0.98652,1.71396 -2.60875,2.8943 -4.29367,3.12405 -1.90086,0.2592 -8.94208,-0.44501 -11.14865,-1.115 -0.97398,-0.29573 -2.62479,-1.09142 -3.66844,-1.7682 -1.04365,-0.67677 -2.146756,-1.21005 -2.451366,-1.18507 -0.98523,0.0808 -0.49344,-0.52279 1.05956,-1.30042 l 1.515046,-0.75864 0.0914,-1.78141 c 0.15579,-3.03719 -0.1104,-3.01139 -1.935246,0.18748 -0.71656,1.25612 -1.53989,3.1942 -1.82959,4.30682 -0.82368,3.16326 -1.72825,4.72504 -3.24209,5.59766 -1.53091,0.88245 -1.97538,1.72801 -1.76352,3.35501 0.13828,1.06184 0.35612,1.30013 2.39192,2.61631 1.95593,1.26455 2.54376,1.49454 4.63823,1.81477 2.126136,0.32505 2.590026,0.28143 4.085896,-0.38417 z m -20.294543,-5.32447 c 4.239319,0.51448 4.310488,0.51068 6.417041,-0.34316 1.949516,-0.79017 6.171016,-3.3758 5.686516,-3.48292 -0.1133,-0.0249 -1.52499,0.29509 -3.13718,0.71138 -4.412289,1.13939 -7.93478,0.9201 -15.084222,-0.93903 -5.064101,-1.31687 -5.703371,-1.55543 -7.838171,-2.9252 -1.278409,-0.82025 -2.846593,-1.95525 -3.484856,-2.52222 -0.638276,-0.56698 -1.217887,-0.9879 -1.288037,-0.93541 -0.304517,0.22789 2.175218,3.30754 3.594677,4.46433 2.089389,1.70275 3.811934,2.71504 6.846839,4.02367 3.084329,1.32994 2.971597,1.30342 8.287393,1.94856 z m 3.085231,-2.78401 c 2.423447,0.081 4.949496,-0.34745 8.720306,-1.47945 0.54313,-0.16303 0.81257,-0.69858 1.52473,-3.03058 0.95739,-3.13499 1.97903,-5.16436 3.415046,-6.78362 0.85363,-0.96254 1.01825,-1.42704 1.61183,-4.54773 0.41511,-2.18225 0.55137,-3.50105 0.36626,-3.54385 -0.33843,-0.0777 2.18871,-1.19102 2.54945,-1.12265 0.13061,0.0247 0.13326,0.17007 0.006,0.3229 -0.13536,0.16241 -0.0184,0.23445 0.28131,0.1734 0.41049,-0.0836 0.44376,-0.17334 0.16668,-0.44921 -0.19042,-0.18957 -0.21359,-0.32288 -0.0515,-0.29621 0.16205,0.0269 0.60597,0.0208 0.98637,-0.0128 1.21656,-0.1078 0.64288,0.6804 -0.70363,0.9667 -0.87608,0.18629 -1.16483,0.37276 -0.93377,0.60299 0.42141,0.41989 2.43039,0.83197 3.78093,0.77552 0.98332,-0.0411 0.95867,-0.0654 -0.5521,-0.54596 l -1.58139,-0.50293 1.67002,0.27507 c 1.09861,0.18089 1.69823,0.42044 1.75242,0.70016 0.0534,0.27543 0.18638,0.33039 0.37768,0.156 0.45151,-0.41154 3.5295,-1.09965 5.82245,-1.30166 1.12937,-0.0994 2.50995,-0.41251 3.06797,-0.69559 1.07448,-0.54505 2.87949,-2.59509 3.01912,-3.42893 0.16956,-1.01257 -1.58089,-3.69006 -3.68316,-5.63373 -1.80052,-1.66472 -2.37232,-2.02044 -3.65222,-2.27208 l -1.51748,-0.29836 0.48347,-1.97056 c 0.47623,-1.94108 0.31634,-3.69843 -0.39991,-4.39539 -0.6095,-0.59308 -1.91907,2.94214 -3.50281,9.45598 -0.17643,0.72551 -0.17747,0.38251 -0.002,-0.81837 0.16569,-1.13702 0.72656,-3.45531 1.24649,-5.15174 0.8142,-2.65662 1.06845,-3.16249 1.8331,-3.64726 0.48828,-0.30958 1.24272,-0.48983 1.67655,-0.40058 0.87033,0.17858 2.65805,1.45183 3.43478,2.44533 0.27436,0.35095 -0.20577,0.0518 -1.06694,-0.6648 -2.3247,-1.93436 -3.62065,-1.96207 -2.72312,-0.0582 0.23834,0.50555 0.21749,1.33289 -0.0697,2.76714 -0.3935,1.96506 -0.38187,2.05284 0.29356,2.21972 0.38679,0.0956 1.03804,0.26035 1.44722,0.36628 1.5932,0.41241 6.07845,5.35683 6.26329,6.90445 0.14288,1.19624 0.62439,0.67678 0.88462,-0.95436 0.49257,-3.08778 0.32213,-4.49785 -0.71315,-5.89844 -0.52145,-0.70546 -1.53229,-1.81629 -2.24633,-2.46856 l -1.29824,-1.18589 0.33797,-2.15972 c 0.25798,-1.64865 0.22752,-2.49114 -0.12856,-3.5601 -0.47609,-1.4293 -2.41984,-4.08273 -3.85591,-5.26371 -0.43919,-0.36118 -2.05518,-2.35209 -3.59106,-4.42425 -2.01072,-2.71276 -2.7287,-3.91602 -2.56453,-4.29782 0.29749,-0.69185 -0.53887,-0.66063 -3.86084,0.1442 -5.221236,1.26496 -8.076386,3.04599 -11.588536,7.22891 -1.45703,1.7353 -1.86873,2.45038 -2.07487,3.6038 l -0.257215,1.43893 1.410515,0.18632 1.41052,0.18631 0.44447,1.82988 c 0.39748,1.63647 0.3751,2.24855 -0.21165,5.79038 -0.83931,5.06641 -0.81412,5.4016 0.42466,5.64515 1.0809,0.21253 1.77559,1.26327 2.6944,4.07542 0.29291,0.8965 0.69244,1.95587 0.88785,2.35417 0.24781,0.50508 0.15092,0.44404 -0.32028,-0.20178 -0.72373,-0.99196 -0.88777,-0.90453 -0.53262,0.2839 0.54835,1.83498 -2.67394,-3.20504 -3.40699,-5.32889 l -0.80423,-2.33011 0.62198,-3.7143 c 0.74443,-4.44548 0.95889,-4.39436 -3.827418,-0.9123 -3.020506,2.19744 -3.481791,2.67095 -5.382533,5.52523 -1.503372,2.25754 -2.138122,3.49133 -2.292799,4.45657 -0.215698,1.34242 0.101953,2.5419 0.70329,2.66012 0.178107,0.035 0.413525,0.36378 0.523135,0.73059 0.315417,1.05551 1.578516,1.41198 4.249078,1.19919 2.428898,-0.19353 2.457099,-0.18827 5.582577,1.04024 1.72775,0.67911 3.36223,1.45553 3.63219,1.72537 0.4705,0.47033 0.46799,0.47725 -0.0608,0.16741 -0.30336,-0.17773 -1.95824,-0.87469 -3.67753,-1.54871 -2.498685,-0.97956 -3.402286,-1.20862 -4.50282,-1.1415 -0.757253,0.0462 -1.508352,0.1717 -1.669115,0.2789 -0.806871,0.53806 3.629785,2.81382 5.630835,2.88832 0.71731,0.0266 1.88765,-0.0526 2.60078,-0.17638 0.71311,-0.12365 1.14088,-0.10843 0.95056,0.034 -0.19031,0.14242 -1.24216,0.32794 -2.33743,0.41226 -1.68337,0.12959 -2.2715,0.0388 -3.802117,-0.58701 -0.995895,-0.40718 -2.268384,-1.11733 -2.827743,-1.57814 -0.559373,-0.46078 -1.450989,-0.92367 -1.981369,-1.02863 -0.530389,-0.10488 -1.354191,-0.56559 -1.830675,-1.02362 -0.846271,-0.81351 -0.907066,-0.8275 -2.624427,-0.60378 -0.966939,0.12593 -2.924005,0.61153 -4.349041,1.07912 -1.56707,0.51421 -3.233061,0.81506 -4.21578,0.76131 -2.778402,-0.15195 -4.556078,0.54189 -7.421042,2.89649 -1.427533,1.17324 -2.929787,2.24945 -3.338336,2.39157 -0.408551,0.1421 -0.760162,0.36199 -0.781364,0.48857 -0.02119,0.12657 0.514442,0.79352 1.190308,1.482 0.675877,0.68847 1.694003,1.92781 2.262517,2.7541 2.401384,3.49014 6.395865,6.13575 11.246511,7.44875 5.371842,1.45406 8.413997,2.02351 11.331768,2.12114 z m -5.838798,-9.06839 c 0.152931,-0.12061 1.468929,-0.24829 2.924445,-0.28363 4.295215,-0.10425 7.889449,-1.53468 8.177439,-3.25444 0.0527,-0.31463 0.25819,-0.64086 0.45668,-0.72496 0.24689,-0.10462 0.25522,0.0718 0.0264,0.55841 -1.17433,2.49711 -3.96901,3.68872 -8.8471,3.77224 -0.981331,0.0169 -2.061359,0.0578 -2.400064,0.0912 -0.338695,0.0334 -0.490697,-0.0382 -0.337775,-0.15877 z m -8.292674,-4.63246 c -0.163685,-0.16439 0.845712,-0.0887 2.243118,0.16822 1.984944,0.36491 2.275013,0.47141 1.325991,0.48721 -1.558426,0.0259 -3.188852,-0.27357 -3.569119,-0.65535 z m 26.274708,0.83614 c -0.0476,-0.27925 0.11504,-0.90977 0.3614,-1.40115 l 0.44795,-0.8934 -0.26823,1.02081 c -0.14758,0.56143 -0.14873,0.92925 -0.003,0.81731 0.29422,-0.22566 0.61702,-1.33575 0.74525,-2.5628 0.0836,-0.80101 0.0833,-0.80096 -0.83959,0.0803 -0.50783,0.48496 -1.0457,0.85766 -1.19527,0.82827 -0.60613,-0.11922 -0.0508,-0.97986 1.15438,-1.78925 0.70374,-0.47263 1.535466,-1.24635 1.848266,-1.71941 l 0.56876,-0.8601 0.0867,0.83494 c 0.17543,1.69 -0.27349,3.5145 -0.99816,4.05678 -0.38084,0.285 -0.711736,0.63346 -0.735326,0.77437 -0.0236,0.1409 -0.27771,0.4958 -0.5647,0.78865 -0.43437,0.44324 -0.5363,0.44739 -0.60837,0.0247 z m 2.535856,-3.65336 c 0.10439,-0.55366 0.0876,-1.10611 -0.0373,-1.22768 -0.29482,-0.28688 -0.92876,1.65099 -0.85927,2.62661 0.0507,0.7118 0.0714,0.72163 0.38016,0.18035 0.17961,-0.31493 0.41199,-1.02558 0.51641,-1.57922 z m -2.379486,0.55913 c 0.14738,-0.26217 0.11946,-0.39899 -0.0653,-0.3207 -0.17722,0.0751 -0.34469,0.27064 -0.37214,0.43457 -0.0763,0.45559 0.15066,0.3965 0.43745,-0.11389 z m -1.33681,-1.96343 c 0.003,-0.1344 0.0318,-0.33486 0.0643,-0.4455 0.0327,-0.11072 -0.49456,-0.22907 -1.17173,-0.26327 -1.67548,-0.0846 -1.31869,-0.77994 0.55244,-1.07665 1.15142,-0.18259 1.2794,-0.26939 0.7713,-0.52311 -0.55564,-0.27746 -0.56205,-0.35227 -0.073,-0.85099 0.40991,-0.41801 0.87866,-0.47995 1.9903,-0.26299 0.799776,0.15601 1.468436,0.20079 1.485966,0.0993 0.16631,-0.96601 -0.10419,-3.86035 -0.35145,-3.75561 -0.47216,0.20005 0.36091,-1.84763 0.93521,-2.29892 0.72686,-0.57109 0.78831,-0.11794 0.11218,0.82745 -0.48954,0.68445 -0.55978,1.00169 -0.3785,1.71 0.21956,0.85799 0.23141,0.85058 0.88497,-0.55411 0.36435,-0.78307 0.7867,-1.39933 0.93859,-1.36946 0.44748,0.088 0.13432,1.16029 -0.73556,2.5187 -0.44613,0.69665 -0.8965,1.75855 -1.00083,2.35974 l -0.18993,1.09304 1.7674,-1.4372 c 1.5906,-1.29343 2.04521,-1.84854 1.43707,-1.75477 -0.11689,0.018 -0.055,-0.44829 0.13748,-1.03623 0.53726,-1.64132 -0.1662,-1.40992 -0.79191,0.26049 -0.34748,0.92765 -0.50509,1.14916 -0.43889,0.61684 0.14316,-1.15091 1.03089,-2.76392 1.40065,-2.54488 0.168,0.0996 0.32174,0.5131 0.34164,0.91904 0.0348,0.70902 0.0634,0.70403 0.72803,-0.12644 0.39417,-0.49252 0.93705,-0.81634 1.26166,-0.75252 0.71271,0.14013 0.66495,0.40394 -0.22866,1.26369 -0.83057,0.79898 -1.02311,1.35797 -0.32047,0.93035 0.27006,-0.16437 0.63145,-0.16221 0.80307,0.005 0.19235,0.18715 0.25775,0.15442 0.17051,-0.0855 -0.15669,-0.43078 0.84246,-0.88281 1.61542,-0.73083 0.41694,0.0819 0.42148,0.16398 0.0287,0.52031 -0.75579,0.68573 -2.78626,1.23468 -3.04941,0.82442 -0.14925,-0.23266 -0.42882,-0.0769 -0.78359,0.43617 -0.30338,0.43881 -1.03648,1.2116 -1.62909,1.71731 l -1.07751,0.91949 1.39978,-0.85613 c 1.6266,-0.99485 4.17971,-2.1089 4.63011,-2.02034 0.17112,0.0336 0.37134,0.22668 0.44491,0.42895 0.15367,0.4225 -0.5748,1.18129 -1.04526,1.0888 -0.20584,-0.0405 -0.17114,-0.17046 0.0996,-0.37302 0.22849,-0.171 0.4354,-0.42993 0.45976,-0.57544 0.0472,-0.28213 -0.67264,-0.078 -1.73087,0.49081 -0.59902,0.32199 -0.56026,0.35865 0.52284,0.4947 0.64338,0.0809 1.68212,0.13931 2.30829,0.13 1.27167,-0.0189 1.46316,0.46302 0.31957,0.80424 -0.65511,0.19547 -0.66767,0.22565 -0.14492,0.34866 1.04567,0.24602 -0.3024,0.84705 -1.70649,0.76079 -1.34906,-0.0828 -1.62292,-0.44151 -0.55282,-0.72391 0.47093,-0.12429 0.17858,-0.26025 -1.1003,-0.5117 -0.9579,-0.18834 -1.74167,-0.20688 -1.74174,-0.0412 -1.6e-4,0.3706 -2.83624,0.99033 -3.95557,0.86435 -0.44957,-0.0506 -1.318726,-0.14997 -1.931436,-0.22094 l -1.11406,-0.12889 1.1227,0.52933 c 0.6175,0.29112 1.364336,0.51058 1.659656,0.48766 0.82214,-0.0638 0.58787,0.31234 -0.845866,1.35815 -1.19445,0.87125 -2.31716,1.12116 -2.30457,0.51298 z m 1.85323,-0.55505 c 0.63138,-0.42767 0.740466,-0.58188 0.31969,-0.45186 -1.01839,0.31465 -2.00706,0.93596 -1.62653,1.02215 0.19158,0.0437 0.77973,-0.21323 1.30684,-0.57029 z m -1.61191,-0.48957 c 2.06828,-0.29167 2.03347,-0.27577 1.44268,-0.65948 -0.30044,-0.19513 -0.62856,-0.2703 -0.72913,-0.16698 -0.10062,0.10324 -0.74946,0.31607 -1.44196,0.47287 -1.42063,0.32169 -0.88592,0.58128 0.7284,0.35364 z m 11.642836,-1.47844 c -0.0797,-0.12441 -0.3308,-0.18535 -0.55775,-0.13551 -0.25081,0.0552 -0.19391,0.14384 0.1451,0.22619 0.30675,0.0746 0.49244,0.0337 0.41265,-0.0907 z m -1.85077,-1.11708 c 0.0264,-0.15788 -0.22829,-0.26442 -0.56604,-0.2367 -0.33776,0.0276 -0.62327,0.105 -0.63445,0.17178 -0.0112,0.0668 0.24354,0.17331 0.56604,0.23672 0.32249,0.0634 0.60801,-0.014 0.63445,-0.1718 z m -0.56211,-4.64154 c -0.16112,-0.25119 -1.65644,1.62456 -1.74873,2.19363 -0.0426,0.26151 0.35906,-0.0855 0.89218,-0.77115 0.53312,-0.68568 0.91856,-1.32581 0.85655,-1.42248 z m 1.88098,1.33468 c -0.074,-0.11528 -0.32682,-0.0644 -0.56195,0.11287 -0.33978,0.25631 -0.3122,0.29931 0.13444,0.20958 0.30907,-0.0621 0.50144,-0.2072 0.42751,-0.32247 z m -17.265156,1.58132 c -1.938956,-2.02467 -4.072384,-5.85259 -3.500389,-6.28061 0.111627,-0.0836 0.269936,0.21298 0.351844,0.6589 0.213254,1.16103 2.774915,4.95168 4.032635,5.96734 0.58688,0.47392 0.85363,0.82559 0.59278,0.78146 -0.2609,-0.0439 -0.92545,-0.5513 -1.47687,-1.12709 z m 8.05821,-0.48714 c -0.14221,-1.12043 -0.10752,-1.91423 0.0901,-2.06214 0.526756,-0.39418 0.796116,1.12885 0.454066,2.56743 l -0.313026,1.31635 z m 12.237396,1.55806 c 0.0318,-0.18979 1.30902,-1.3945 3.43822,-3.24297 1.32392,-1.14938 0.58949,-0.20461 -1.25887,1.61937 -1.52509,1.50498 -2.2499,2.04495 -2.17935,1.6236 z M 101.595,130.52333 c 0.16162,-0.55705 0.48609,-1.67708 0.7211,-2.48893 0.27247,-0.94135 0.74129,-1.73812 1.29402,-2.19928 l 0.86675,-0.72313 -0.82919,1.07432 c -0.50706,0.65695 -1.02241,1.86181 -1.32652,3.10138 -0.27357,1.11486 -0.61493,2.07686 -0.75866,2.13775 -0.14372,0.0609 -0.1291,-0.34506 0.0325,-0.90211 z m 6.66829,-8.22484 c 0.0142,-0.0851 0.47269,-0.38135 1.01875,-0.65836 0.54608,-0.27701 0.97251,-0.38216 0.94764,-0.23366 -0.0249,0.14851 -0.48329,0.44476 -1.01876,0.65837 -0.53545,0.2136 -0.96188,0.31873 -0.94763,0.23365 z m 3.59255,36.66622 c 2.07932,0.15327 4.27444,0.16169 4.87805,0.0188 1.62106,-0.38397 2.76258,-1.72753 4.42841,-5.21224 1.2922,-2.70312 1.5091,-3.39364 1.62934,-5.18772 0.12805,-1.91075 0.088,-2.0665 -0.52241,-2.02999 -2.13049,0.12741 -5.87262,-0.23312 -7.15353,-0.68922 -0.81083,-0.28871 -1.67663,-0.58826 -1.92402,-0.66566 -0.25179,-0.0788 -1.57806,0.91495 -3.01308,2.25767 -2.57518,2.40951 -5.72541,4.67601 -8.95726,6.44449 -0.9563,0.52329 -1.656246,1.06675 -1.555446,1.20767 0.18145,0.25373 3.254126,2.07215 4.338756,2.56771 1.13778,0.51985 4.16703,1.01702 7.85119,1.28859 z m -5.13084,-9.28663 c 2.91939,-2.33084 4.92757,-4.21665 5.00916,-4.7039 0.0247,-0.14805 -0.624,-0.40075 -1.44178,-0.56153 -0.93073,-0.18301 -1.62159,-0.50239 -1.84707,-0.85391 -0.19814,-0.30886 -0.64849,-0.61301 -1.00082,-0.67591 -0.62672,-0.11198 -0.6269,-0.10222 -0.008,0.44557 0.47369,0.41869 0.52147,0.58944 0.18948,0.67696 -0.2442,0.0644 -0.15326,0.0985 0.20206,0.076 0.39063,-0.0248 0.88059,0.26662 1.23928,0.73738 l 0.59323,0.77847 -1.06349,-0.31519 c -1.02394,-0.30345 -2.04282,-1.19258 -1.6788,-1.46498 0.27162,-0.20326 -0.63683,-1.15211 -1.22496,-1.27943 -0.4626,-0.0996 -0.45847,0.0812 0.0346,1.5504 0.3071,0.91508 0.82141,1.98991 1.14292,2.38853 0.88784,1.1008 0.40793,1.08275 -0.63626,-0.024 -0.50561,-0.53588 -0.83659,-1.03621 -0.73549,-1.11186 0.26934,-0.20156 -0.29572,-1.99521 -0.89262,-2.83336 -0.28349,-0.39808 -0.53267,-0.62108 -0.55369,-0.49552 -0.0565,0.33756 0.32916,1.53383 0.73863,2.29093 0.41382,0.76515 0.31544,2.90617 -0.14245,3.10018 -0.17026,0.0722 -0.36783,0.47906 -0.43903,0.90429 -0.16712,0.99797 -0.98125,0.87012 -1.04542,-0.16412 -0.0261,-0.42159 0.0265,-0.9546 0.11685,-1.18444 0.21988,-0.55885 -0.80851,-0.9942 -1.21684,-0.51514 -0.17713,0.2078 -0.35866,0.66506 -0.4034,1.01612 -0.0663,0.52054 -0.0158,0.50027 0.27397,-0.10971 0.26218,-0.55194 0.28059,-0.29107 0.0703,0.99531 -0.15711,0.95876 -0.23351,2.38416 -0.17051,3.16741 l 0.11453,1.4241 0.95078,-0.48233 c 0.52294,-0.26528 2.24372,-1.51459 3.82395,-2.77626 z m 0.64871,-3.53071 c -0.30806,-0.39833 -0.54234,-0.83036 -0.52062,-0.96009 0.0218,-0.12974 0.23452,0.0237 0.47287,0.34103 0.81125,1.07992 1.24343,1.30578 0.76578,0.40019 l -0.45972,-0.8716 0.6346,0.63236 c 0.34903,0.34782 0.65803,0.80842 0.68664,1.02356 0.0811,0.61032 -0.95789,0.23834 -1.57955,-0.56545 z m 24.76776,10.78597 c 1.27133,-0.1321 3.09926,-0.30917 4.0621,-0.39351 1.89081,-0.16561 3.83758,-1.20223 5.94266,-3.16437 1.18839,-1.10768 1.91963,-2.24949 4.88543,-7.6282 0.76084,-1.37988 1.63897,-2.80559 1.95136,-3.16827 0.31239,-0.36265 0.47615,-0.79697 0.36389,-0.96512 -0.57676,-0.86383 -7.13973,-6.22214 -9.28268,-7.57878 -1.35534,-0.85805 -2.32125,-1.53932 -2.14649,-1.51394 0.67769,0.0984 4.23415,2.42518 6.38701,4.17857 1.24233,1.01182 2.12354,1.58056 1.95824,1.26386 -0.53283,-1.02088 -2.50568,-2.64317 -5.00403,-4.11487 -2.27564,-1.34052 -2.70056,-1.48197 -6.40876,-2.13322 -4.35498,-0.76486 -5.28629,-0.65285 -9.65819,1.16158 -1.84139,0.76422 -1.87532,0.80002 -2.11863,2.23554 -0.31949,1.88733 -1.77001,4.06831 -3.55322,5.34409 -1.05212,0.75274 -1.83375,1.01402 -3.24876,1.08596 -1.87636,0.0954 -6.43724,1.25671 -6.84169,1.74208 -0.11973,0.14364 0.28073,0.38479 0.88986,0.53587 0.60916,0.15105 1.49472,0.40392 1.96795,0.56182 4.12172,1.37538 8.73573,2.11709 10.51443,1.6902 0.80772,-0.19385 0.31482,4.79899 -0.62911,6.37264 -0.80665,1.34479 -1.00399,2.27712 -0.50864,2.40318 0.19975,0.0505 1.12101,0.44896 2.04739,0.8848 2.18772,1.02923 5.51514,1.50292 8.42989,1.20009 z m -15.3933,-13.28725 c 0.57654,-0.43159 5.21204,0.25177 5.8634,0.86439 0.3611,0.33963 -0.10562,0.28568 -1.87329,-0.21649 -1.50865,-0.42857 -2.72737,-0.6056 -3.39318,-0.49287 -0.84297,0.14273 -0.95558,0.11351 -0.59692,-0.15508 z m -12.99282,3.96743 c -0.19612,-0.30575 -0.28879,-0.28734 -0.34849,0.0691 -0.10543,0.62962 0.21748,1.13303 0.44226,0.68948 0.0954,-0.18818 0.0532,-0.52956 -0.0938,-0.75864 z m 0.90442,-1.62567 c -0.002,-0.4863 -0.23112,-1.44137 -0.50821,-2.12242 -0.27708,-0.68104 -0.4616,-1.49023 -0.41003,-1.79819 0.0583,-0.34803 -0.12726,-0.6034 -0.49022,-0.67477 -0.56714,-0.11147 -0.57661,-0.0732 -0.32791,1.32596 0.14084,0.79243 0.34549,1.59821 0.45478,1.79064 0.10929,0.19242 0.14381,0.67768 0.0767,1.07834 -0.14295,0.85367 0.32341,1.07555 0.64465,0.30668 0.12163,-0.29097 0.13426,-0.15652 0.0282,0.29877 -0.1207,0.51777 -0.0564,0.79999 0.17178,0.75349 0.21133,-0.043 0.36289,-0.44621 0.36035,-0.95849 z m -26.314391,-6.52388 c 1.935093,-0.41611 3.470895,-0.88705 3.41287,-1.04656 -0.05798,-0.15952 -0.948767,-0.45582 -1.979437,-0.65847 -3.237066,-0.63645 -6.769116,-0.24939 -6.938203,0.76034 -0.08004,0.47807 1.154435,1.73666 1.68138,1.71422 0.167777,-0.008 1.888285,-0.35344 3.82339,-0.76953 z m 24.801381,6.07921 c 0.0298,-0.21906 -0.11526,-0.94688 -0.32215,-1.61733 l -0.37614,-1.21901 -0.16165,0.88942 c -0.18154,0.99867 0.0942,2.20531 0.52306,2.28964 0.15558,0.0306 0.30717,-0.12365 0.33688,-0.34272 z M 81.903152,135.0372 c 0.04655,-0.27801 0.699301,-1.43787 1.450549,-2.57742 0.751248,-1.13957 1.706937,-2.59227 2.123755,-3.22825 0.668812,-1.02044 3.524972,-3.25146 7.585268,-5.92504 l 1.31501,-0.86588 -0.4303,-1.70467 c -0.56374,-2.23337 -1.1677,-2.44139 -3.13135,-1.07844 -0.834352,0.57913 -2.515071,1.65145 -3.734935,2.38297 -2.285481,1.37051 -4.953288,3.72235 -6.173962,5.44274 -0.898223,1.26595 -0.950788,2.66511 -0.211538,5.63042 0.55694,2.23401 1.029468,2.98675 1.207503,1.92357 z m 14.704672,0.30529 c -0.75705,-1.83362 -1.60924,-3.09722 -2.16212,-3.20593 -0.70986,-0.13957 -0.71297,0.10919 -0.023,1.83984 0.79758,2.00061 1.68303,3.08638 2.21628,2.71767 0.31536,-0.21805 0.30818,-0.52965 -0.0312,-1.35158 z m 31.513116,-3.81256 2.60598,-0.77507 -0.3303,-2.43233 c -0.50703,-3.73357 -0.79415,-4.30483 -2.70715,-5.38614 -0.91295,-0.51604 -2.2778,-1.06191 -3.03301,-1.21303 -1.27845,-0.2563 -1.4024,-0.36501 -1.79914,-1.5854 -0.7091,-2.18118 -1.4622,-2.78751 -3.95762,-3.18622 l -0.98336,-0.15713 0.65956,1.35653 c 0.81621,1.67875 1.01342,3.02493 0.8267,5.64382 -0.13931,1.95419 -0.10624,2.06407 0.83212,2.76266 1.37623,1.0246 3.02425,3.49873 3.06588,4.60272 0.0855,2.26794 0.0206,2.17751 1.17287,1.63504 0.57281,-0.26969 2.21418,-0.83914 3.64746,-1.26543 z M 79.437467,116.15204 c 0.455981,-0.245 3.764172,-0.57834 4.95465,-0.49924 0.712215,0.0473 0.656873,0.003 -0.26691,-0.21458 -2.403771,-0.56573 -6.985909,0.41068 -8.876898,1.89152 -0.88575,0.69365 -0.793177,0.68586 1.440806,-0.12124 1.313058,-0.47439 2.549818,-0.9498 2.748352,-1.05646 z m 47.972643,4.97145 c -1.26577,-1.78415 -1.67551,-2.13507 -3.19992,-2.74065 -0.96153,-0.38199 -1.83145,-0.71088 -1.93314,-0.73088 -0.10174,-0.02 0.1856,0.77246 0.63844,1.76097 0.74733,1.63143 0.93149,1.81907 1.99517,2.03304 0.64461,0.12929 1.73174,0.55455 2.416,0.94422 0.68428,0.38968 1.3096,0.72445 1.38963,0.74396 0.08,0.0195 -0.50777,-0.8853 -1.30618,-2.01066 z m -33.478626,-9.22853 c 0.81252,-0.90871 1.84348,-2.02186 2.29103,-2.47367 0.7684,-0.77571 0.74187,-0.77182 -0.47622,0.0699 -0.70948,0.4903 -1.83266,1.66806 -2.49595,2.61726 -1.4277,2.04312 -1.30118,2.00346 0.68114,-0.21353 z m 20.940246,0.81877 c -1.92158,-2.84607 -4.48427,-5.56808 -4.92891,-5.23535 -0.0857,0.0642 0.19127,0.53335 0.61553,1.04271 0.42425,0.50933 1.56698,1.92752 2.5394,3.15152 0.97241,1.224 2.11228,2.54719 2.53303,2.94046 0.42076,0.39327 0.7463,0.82681 0.72342,0.96345 -0.0229,0.13664 0.12436,0.27443 0.32727,0.3062 0.20296,0.0312 -0.6115,-1.39428 -1.80974,-3.16899 z m -26.645891,4.4593 c -0.213598,-0.21642 -0.256428,-0.36755 -0.09519,-0.33584 0.161248,0.0317 0.467952,0.2347 0.681546,0.45113 0.213599,0.21641 0.256431,0.36756 0.09519,0.33586 -0.161249,-0.0317 -0.467949,-0.23473 -0.681546,-0.45115 z"
       style="display:inline;fill:#000000;stroke-width:0.30970535" />
    <path
       transform="matrix(1.2498775,0.00404028,-0.00398183,1.2682225,-118.72457,161.406)"
       id="path4609"
       d="m 160.14508,-48.458702 c -1.16531,0.387074 -2.42082,0.204225 -3.52609,-0.549362 -0.56945,-0.388254 -0.6661,-0.500167 -1.22688,-1.499943 -0.55182,-0.983818 -0.61253,-1.151513 -0.6156,-1.81608 -0.0119,-2.586893 3.01612,-4.797221 5.70503,-4.175997 0,0 0,0 0,0 0.2176,0.05047 0.43024,0.119723 0.63588,0.208551 1.09812,0.474355 1.64544,1.121111 2.03136,2.257818 0.45822,1.349702 0.26404,2.63533 -0.3519,3.624544 -0.5488,0.875467 -1.44338,1.549074 -2.6518,1.950469 z m 1.65366,-1.551876 c 0.3308,-0.383774 0.53972,-0.854427 0.62892,-1.369887 0,0 0,0 0,0 0.18752,-1.091404 -0.1571,-2.421543 -1.12833,-3.460121 -0.0933,-0.09973 -0.19094,-0.192309 -0.29255,-0.277761 -1.70359,-1.433034 -4.49508,-0.781858 -5.20478,1.351843 -0.38366,1.153467 0.15457,2.591541 1.21184,3.615663 1.55286,1.50417 3.59432,1.52149 4.7849,0.140263 z m 43.94616,8.278071 c -0.0205,-0.233044 -0.0454,-2.166196 -0.21328,-4.340229 -0.10173,-1.317597 -0.24794,-2.646313 -0.44128,-3.982775 -0.52723,0.801271 -1.05402,1.602828 -1.58038,2.40467 -1.11195,1.693871 -1.56944,2.468029 -1.55158,2.608308 0.0141,0.110689 0.19695,0.312349 0.40456,0.448722 0.30891,0.202916 0.35047,0.276846 0.23502,0.393711 -0.1276,0.129076 -0.27489,0.04923 -1.18271,-0.494983 -0.98514,-0.590555 -1.04999,-0.620144 -0.93677,-0.807059 0.0875,-0.144526 0.19759,-0.152531 0.45175,-0.02781 0.11183,0.05488 0.22353,0.110148 0.3351,0.16581 0.61327,-0.963573 1.22707,-1.926817 1.84138,-2.889733 0.61435,-0.962898 1.22921,-1.925466 1.8446,-2.887703 -0.14846,-0.106628 -0.29746,-0.212636 -0.44699,-0.318016 -0.32754,-0.230841 -0.43256,-0.365504 -0.38456,-0.506495 0.0565,-0.166196 0.17033,-0.137361 0.98281,0.374539 0.30407,0.191561 0.60637,0.385709 0.90687,0.582385 0.0407,0.260843 0.0797,0.521405 0.11691,0.781661 0.0822,0.575091 0.28479,2.106049 0.41678,4.021589 0.074,1.073478 0.11888,2.139254 0.13614,3.195535 0.55928,-0.706854 1.11892,-1.413399 1.67892,-2.119634 0.9248,-1.166272 1.69798,-2.18494 1.71995,-2.269664 0.0225,-0.08806 -0.13249,-0.285087 -0.37068,-0.466623 -0.34271,-0.261194 -0.39021,-0.340734 -0.27654,-0.49307 0.12163,-0.162985 0.2128,-0.1413 1.26838,0.687671 1.01557,0.797554 1.0891,0.910712 0.95319,1.019152 -0.10319,0.08228 -0.29075,0.04252 -0.53977,-0.111214 -0.12748,-0.0787 -0.25521,-0.156934 -0.38321,-0.234698 -0.78727,0.96055 -1.57365,1.921908 -2.35913,2.884074 -1.54781,1.896007 -2.39494,2.87412 -2.47169,2.846882 -0.0647,-0.02295 -0.13315,-0.232007 -0.15364,-0.464956 -5e-5,-1.4e-5 -1e-4,-2.9e-5 -1.5e-4,-4.4e-5 z m -59.12023,2.307848 c -0.11268,-0.119312 -0.0892,-0.229534 0.0979,-0.439726 0.0831,-0.09329 0.16639,-0.186356 0.25002,-0.279202 -0.28944,-0.348628 -0.5785,-0.69761 -0.86719,-1.046946 -0.4671,-0.565327 -1.49752,-1.749249 -2.24878,-2.581791 -0.46116,-0.511029 -0.92219,-1.02218 -1.3831,-1.533452 -0.12523,0.115193 -0.24996,0.230829 -0.3742,0.346901 -0.31043,0.290018 -0.39655,0.322707 -0.52653,0.185078 -0.13911,-0.147295 -0.0979,-0.227565 0.57765,-0.849742 0.24623,-0.226761 0.49435,-0.451822 0.74436,-0.675112 1.04242,0.433352 2.07273,0.885562 3.08944,1.356566 1.67756,0.77716 3.03256,1.451225 3.06284,1.429125 0.061,-0.04451 -0.23647,-0.906248 -0.99256,-4.291894 -0.16969,-0.759875 -0.3285,-1.524518 -0.47598,-2.293766 0.28935,-0.212252 0.58074,-0.422029 0.87415,-0.629245 0.81019,-0.572173 0.89969,-0.594256 1.01368,-0.426891 0.10605,0.155716 0.0554,0.23417 -0.28599,0.470413 -0.27816,0.192482 -0.39794,0.349325 -0.37109,0.477934 0.0224,0.107358 0.85618,1.339966 1.85645,2.748309 1.32481,1.86528 1.86933,2.565881 2.00656,2.588884 0.1042,0.01746 0.32812,-0.06538 0.49715,-0.18263 0.24591,-0.170579 0.33471,-0.174294 0.43605,-0.02549 0.12689,0.186299 0.0563,0.215574 -1.01493,0.990262 -0.89005,0.64369 -1.14941,0.819244 -1.2686,0.745932 -0.19546,-0.120178 -0.16555,-0.245135 0.12039,-0.460751 0.44526,-0.335762 0.41535,-0.403306 -1.34571,-2.795027 -0.90372,-1.227364 -1.65317,-2.168216 -1.66409,-2.085204 -0.0159,0.120482 0.93714,4.380576 1.46666,6.122933 0.25354,0.834274 0.39489,0.699153 -3.04324,-0.888639 -1.01904,-0.470615 -2.02582,-0.893162 -2.47713,-1.065012 -0.23821,-0.09071 -0.47708,-0.18036 -0.71659,-0.268952 5e-5,5.1e-5 1.86131,2.07697 1.86136,2.07702 2.06017,2.298151 1.92153,2.200915 2.51801,1.676795 0.23704,-0.20829 0.3244,-0.223984 0.44366,-0.08676 0.14447,0.166223 0.084,0.212353 -0.78874,1.00054 -0.86317,0.779527 -0.92743,0.842664 -1.07199,0.689602 3e-5,-2.1e-5 5e-5,-4.3e-5 8e-5,-6.4e-5 z m 21.88099,-12.215675 c -0.0399,-0.182151 0.0277,-0.25271 0.35143,-0.349008 0.13403,-0.03987 0.26832,-0.07905 0.40288,-0.117528 -0.21061,-1.118445 -0.42039,-2.237048 -0.62934,-3.35581 -0.20896,-1.118762 -0.41708,-2.237681 -0.62437,-3.356758 -0.20561,0.0285 -0.4111,0.05838 -0.61645,0.08965 -0.47582,0.07246 -0.6354,0.05538 -0.70545,-0.094 -0.0563,-0.119988 0.0272,-0.315319 3.00844,-0.74452 2.71723,-0.391199 3.31242,-0.290185 3.7435,-0.154768 2.01956,0.634411 2.79896,2.516112 2.23969,4.413143 -0.40069,1.359065 -1.11523,2.176743 -2.34138,2.795094 -0.63179,0.318605 -0.78168,0.289033 -2.70692,0.652397 -2.04808,0.386549 -2.0648,0.483474 -2.1221,0.222117 3e-5,-6e-6 5e-5,-1.1e-5 7e-5,-1.7e-5 z m 4.66736,-1.407131 c 1.11705,-0.659859 1.60661,-1.535327 1.54832,-3.030574 -0.03,-0.770601 -0.0875,-0.998044 -0.41904,-1.530886 -0.73279,-1.177731 -2.07921,-1.743409 -3.95466,-1.531252 -0.56705,0.06415 -1.05873,0.164245 -1.09658,0.209614 -0.0385,0.04624 0.17694,1.525698 0.47675,3.292985 0.42245,2.489948 0.58191,3.22852 0.70309,3.286374 0.0856,0.0409 0.58455,-0.01688 1.10614,-0.115368 0.78096,-0.147457 1.06846,-0.245658 1.63596,-0.580891 1e-5,-10e-7 1e-5,-10e-7 2e-5,-2e-6 z m 6.98761,0.61805 c 0.0145,-0.17018 0.10911,-0.219725 0.43792,-0.217002 0.13985,0.0012 0.27975,0.0031 0.41971,0.0057 l 0.35601,-3.365507 0.35601,-3.365507 c -0.20352,-0.03356 -0.40743,-0.06587 -0.61171,-0.09691 -0.50767,-0.07713 -0.61111,-0.125258 -0.59658,-0.308272 0.0106,-0.133806 0.14946,-0.320512 3.47332,0.190421 1.14388,0.175833 2.27921,0.39041 3.40461,0.641855 -0.0222,0.100836 -0.0445,0.201671 -0.0667,0.302506 -0.0364,0.165493 -0.0891,0.571139 -0.11745,0.897211 -0.0471,0.541273 -0.0753,0.588762 -0.29571,0.539872 -0.20141,-0.04467 -0.238,-0.166789 -0.21989,-0.710805 0.007,-0.219223 0.0141,-0.438507 0.0204,-0.65785 -0.59665,-0.136918 -1.19638,-0.263299 -1.79898,-0.378842 -1.61548,-0.309752 -1.8445,-0.279843 -1.9649,-0.131784 -0.16993,0.20897 -0.39545,2.134675 -0.28505,2.356827 0.0513,0.103233 0.46188,0.195306 1.27499,0.327182 1.30563,0.211756 1.45611,0.200049 1.5832,-0.453794 0.0347,-0.178417 0.12333,-0.270524 0.23934,-0.247502 0.15393,0.03055 0.13933,0.257839 -0.0841,1.361657 -0.22353,1.104113 -0.29761,1.318575 -0.44197,1.289936 -0.12731,-0.02526 -0.1493,-0.160591 -0.0815,-0.509587 0.0509,-0.261811 0.0404,-0.547216 -0.0244,-0.63561 -0.074,-0.101043 -0.53562,-0.2428 -1.28524,-0.363899 -1.46268,-0.236293 -1.43913,-0.218957 -1.64753,1.595451 -0.2324,2.023259 -0.39326,1.727698 1.60078,2.031168 1.06951,0.162767 1.74411,0.259363 1.84297,0.195804 0.0826,-0.05307 0.22407,-0.29515 0.31338,-0.536335 0.12882,-0.347859 0.20996,-0.428983 0.38746,-0.388097 0.18697,0.04307 0.20041,0.102312 0.0864,0.350796 -0.0773,0.168471 -0.22811,0.540549 -0.34221,0.845655 -0.0682,0.182342 -0.13607,0.364777 -0.20363,0.547308 -0.94892,-0.217579 -1.90325,-0.402092 -2.86164,-0.551693 -2.77336,-0.432912 -2.89112,-0.281369 -2.86741,-0.560416 0,0 1.7e-4,1.8e-5 1.7e-4,1.8e-5 z m 10.02084,2.249957 c -0.12426,-0.253063 0.0684,-0.375449 0.42318,-0.253212 0.12485,0.04302 0.24957,0.08658 0.37413,0.130665 0.36822,-1.077313 0.73576,-2.154839 1.10262,-3.232579 0.36688,-1.077728 0.73309,-2.155669 1.09863,-3.233822 -0.1557,-0.07413 -0.31184,-0.147565 -0.46842,-0.220288 -0.32427,-0.150612 -0.46459,-0.277798 -0.45038,-0.417014 0.0161,-0.158063 0.19613,-0.184908 2.15754,0.542665 2.45096,0.909171 2.96153,1.354233 3.29601,2.212655 0.54956,1.410434 -0.29005,2.465403 -1.72066,2.492088 -0.22083,0.0041 -0.44112,0.0096 -0.66086,0.01659 0.18633,0.668901 0.35848,1.337921 0.51682,2.006585 0.45145,1.906378 0.42719,1.99833 0.79543,2.22205 0.28135,0.170935 0.33753,0.264082 0.26031,0.41658 -0.0911,0.179835 -0.17217,0.153012 -0.85353,-0.180009 -0.25224,-0.123287 -0.50532,-0.244467 -0.7592,-0.363497 -0.12321,-0.724812 -0.26181,-1.450719 -0.41627,-2.17717 -0.15446,-0.72645 -0.32477,-1.453445 -0.51139,-2.180434 -0.22064,-0.08978 -0.44184,-0.178046 -0.66358,-0.264777 -0.22173,-0.08673 -0.444,-0.171925 -0.6668,-0.255563 -0.17145,0.488714 -0.34322,0.977324 -0.51531,1.465828 -0.17209,0.488505 -0.3445,0.976905 -0.51722,1.4652 0.19875,0.08743 0.39695,0.176207 0.59459,0.266311 0.50873,0.231941 0.57862,0.305181 0.50805,0.478491 -0.0836,0.205291 -0.15741,0.151759 -1.47384,-0.341436 -0.76737,-0.287486 -1.4246,-0.54451 -1.44984,-0.595905 0,-10e-7 -1e-5,-2e-6 -1e-5,-2e-6 z m 4.75836,-2.481494 c 0.89665,0.127639 1.58717,-0.389109 1.70184,-1.352832 0.0983,-0.826126 -0.75853,-1.884823 -1.82209,-2.194166 -0.14238,-0.04141 -0.28489,-0.08225 -0.42752,-0.122505 -0.18983,0.469759 -0.37936,0.939629 -0.56857,1.409609 -0.31187,0.774644 -0.5641,1.482793 -0.56159,1.569134 0.006,0.190514 0.99961,0.594185 1.67787,0.690735 2e-5,9e-6 4e-5,1.7e-5 6e-5,2.5e-5 z"
       style="display:inline;fill:#000000;stroke-width:0.12044788" />
  </g>
</svg>
