<?xml version="1.0" standalone="no"?>
<!DOCTYPE svg PUBLIC "-//W3C//DTD SVG 20010904//EN"
 "http://www.w3.org/TR/2001/REC-SVG-20010904/DTD/svg10.dtd">
<svg version="1.0" xmlns="http://www.w3.org/2000/svg"
 width="1280.000000pt" height="720.000000pt" viewBox="0 0 1280.000000 720.000000"
 preserveAspectRatio="xMidYMid meet">
<metadata>
Created by potrace 1.15, written by Peter Selinger 2001-2017
</metadata>
<g transform="translate(0.000000,720.000000) scale(0.100000,-0.100000)"
fill="#000000" stroke="none">
<path d="M6165 7024 c-820 -66 -1495 -321 -2115 -800 -142 -110 -468 -432
-580 -574 -403 -511 -636 -1077 -711 -1730 -18 -156 -15 -527 5 -695 105 -858
528 -1630 1203 -2192 572 -476 1250 -761 2038 -855 169 -20 683 -17 865 5 294
36 652 122 900 216 525 198 942 464 1321 841 205 204 367 405 499 619 350 566
516 1178 497 1830 -15 490 -121 915 -338 1351 -179 359 -370 624 -658 910
-591 588 -1355 950 -2226 1056 -124 15 -589 27 -700 18z m505 -74 c910 -68
1718 -421 2334 -1020 561 -546 891 -1197 993 -1957 23 -178 23 -579 0 -758
-85 -635 -336 -1206 -751 -1700 -105 -125 -351 -366 -476 -466 -561 -448
-1216 -715 -1965 -801 -147 -17 -617 -17 -770 0 -705 78 -1339 324 -1878 730
-763 575 -1239 1408 -1328 2326 -17 175 -6 577 19 741 31 202 68 354 132 545
282 850 902 1550 1749 1974 209 105 423 186 725 273 12 3 16 1 12 -6 -4 -7 1
-11 13 -11 34 0 41 -32 41 -189 0 -132 -2 -151 -17 -160 -20 -12 -12 -14 32
-11 38 2 43 7 21 23 -14 11 -16 29 -14 141 l3 129 88 -132 c48 -72 91 -131 96
-131 5 0 28 57 52 128 62 190 57 188 95 37 24 -94 30 -132 21 -137 -22 -13 1
-19 48 -13 41 7 45 9 32 24 -8 9 -31 85 -52 170 -37 148 -37 155 -20 168 17
12 15 13 -22 13 l-41 0 -40 -112 c-22 -62 -45 -132 -52 -156 l-13 -42 -93 138
c-91 138 -92 139 -126 134 -18 -2 -31 -2 -28 1 9 9 291 64 421 82 243 33 525
42 759 25z"/>
<path d="M6149 6900 c-62 -11 -101 -32 -137 -76 -79 -96 -54 -235 52 -291 46
-25 160 -23 211 4 79 42 125 112 125 193 0 57 -10 81 -48 122 -39 42 -121 62
-203 48z m117 -60 c96 -55 126 -151 71 -223 -78 -102 -223 -91 -302 23 -103
148 67 295 231 200z"/>
<path d="M6424 6888 c17 -14 18 -27 14 -177 -4 -144 -7 -163 -24 -176 -17 -13
-5 -15 111 -16 214 -2 222 0 282 63 41 42 53 76 53 144 0 48 -4 58 -36 94 -49
54 -105 69 -279 77 -124 5 -138 4 -121 -9z m262 -33 c128 -53 157 -179 62
-272 -38 -37 -40 -38 -126 -41 -74 -3 -91 -1 -111 15 -23 18 -23 20 -15 172
l7 154 72 -6 c39 -3 89 -13 111 -22z"/>
<path d="M6902 6857 c16 -13 16 -22 -2 -148 -28 -195 -29 -199 -45 -199 -8 0
-15 -4 -15 -9 0 -4 30 -11 68 -15 37 -4 122 -17 190 -30 67 -12 122 -19 122
-15 0 4 -6 9 -12 11 -10 4 -8 23 6 82 18 76 19 77 45 71 35 -9 35 -9 71 -100
37 -95 61 -123 109 -131 20 -3 53 -12 74 -20 47 -18 63 -18 49 -1 -7 8 3 47
35 132 24 66 48 124 52 128 9 9 79 -138 136 -285 21 -54 41 -95 44 -92 3 3 42
76 86 162 59 117 85 157 98 156 28 -3 20 11 -18 29 -45 22 -62 22 -44 1 11
-13 4 -33 -46 -134 l-58 -118 -42 102 c-23 55 -61 139 -86 185 -39 75 -48 86
-83 98 -46 15 -59 9 -28 -13 12 -8 22 -21 22 -29 0 -21 -100 -289 -112 -300
-8 -7 -9 -6 -4 3 5 8 -2 12 -22 12 -40 0 -69 32 -103 116 -32 80 -35 104 -13
104 29 0 74 56 74 92 0 55 -33 77 -152 104 -98 22 -129 23 -98 4 12 -7 10 -28
-14 -137 -38 -178 -45 -203 -57 -203 -6 0 -8 7 -5 16 10 26 -4 36 -22 15 -16
-17 -22 -18 -84 -7 -38 7 -72 16 -78 22 -9 9 4 131 15 143 6 5 114 -14 138
-24 13 -5 17 -2 17 12 0 18 -9 21 -72 27 -39 3 -74 8 -76 10 -5 6 9 131 17
143 4 7 25 8 61 2 86 -13 96 -17 107 -41 11 -23 11 -23 18 5 4 15 5 31 1 34
-7 7 -130 29 -216 37 -56 6 -63 5 -48 -7z m426 -83 c64 -25 81 -86 36 -131
-22 -22 -32 -25 -70 -20 -25 2 -47 7 -49 9 -8 7 28 158 37 158 4 0 25 -7 46
-16z"/>
<path d="M5255 6686 c-753 -255 -1400 -727 -1782 -1300 -194 -291 -355 -699
-437 -1106 -108 -534 -80 -1102 76 -1572 46 -139 76 -204 89 -191 8 8 1 37
-25 105 -69 179 -113 351 -148 578 -30 195 -32 625 -4 825 68 499 235 976 464
1325 192 294 472 579 792 806 286 203 660 393 985 500 64 21 101 38 103 48 5
21 2 21 -113 -18z"/>
<path d="M8303 6417 c4 -9 10 -23 13 -31 5 -12 -27 -51 -183 -219 -25 -26 -49
-45 -54 -42 -5 4 -9 2 -9 -4 0 -11 32 -31 50 -31 6 0 9 4 6 9 -6 9 173 216
179 209 4 -4 -33 -221 -45 -267 -5 -19 -8 -37 -6 -39 3 -2 70 31 150 73 80 42
146 74 146 71 0 -19 -136 -219 -153 -225 -17 -7 -13 -12 33 -49 45 -36 54 -40
64 -27 6 8 42 28 79 45 l68 31 40 -31 c21 -18 39 -36 39 -41 0 -18 -61 -143
-73 -151 -8 -5 -3 -16 18 -38 31 -32 51 -40 42 -15 -4 8 16 60 42 117 64 136
116 266 110 273 -7 6 -139 -47 -285 -114 -60 -28 -110 -47 -112 -42 -3 10 165
272 181 283 6 3 17 4 25 0 24 -9 9 18 -20 36 -26 16 -30 14 -173 -56 -81 -40
-148 -72 -150 -72 -2 0 1 15 5 33 12 42 52 279 48 281 -2 2 -21 13 -42 26 -32
19 -38 21 -33 7z"/>
<path d="M8895 5816 c-105 -29 -155 -153 -106 -261 18 -40 124 -177 142 -183
5 -2 9 -9 9 -15 1 -13 35 -57 44 -57 3 0 6 8 6 18 0 11 42 44 120 94 l119 77
-6 -32 c-3 -18 -23 -102 -45 -187 -22 -85 -43 -166 -46 -179 -5 -23 -1 -22 82
22 47 26 124 67 170 92 52 28 87 42 91 35 3 -5 11 -10 16 -10 6 0 0 18 -12 40
-23 41 -45 55 -35 22 5 -14 -17 -30 -110 -80 -64 -35 -118 -61 -120 -59 -3 2
5 39 16 81 12 42 32 127 45 189 l24 112 -22 32 c-26 39 -40 43 -31 9 3 -15 -1
-29 -13 -41 -26 -27 -256 -175 -270 -175 -7 0 -17 8 -22 19 -9 16 -4 23 30 45
25 17 47 25 60 21 26 -9 24 0 -13 46 -31 39 -52 51 -42 25 4 -9 -9 -25 -35
-42 l-42 -27 -24 23 c-13 12 -36 46 -51 74 -34 65 -28 110 22 166 44 49 90 70
151 70 94 0 175 -75 177 -164 1 -51 11 -58 28 -21 10 22 8 33 -10 69 -60 125
-177 184 -297 152z"/>
<path d="M4266 5720 c-45 -9 -56 -22 -56 -72 0 -58 23 -68 157 -68 l113 0 0
-337 c0 -670 -28 -1564 -49 -1571 -7 -2 -92 -62 -191 -132 -99 -71 -189 -132
-200 -135 -33 -11 -23 -40 38 -106 76 -85 90 -106 162 -240 124 -231 219 -325
425 -425 158 -76 289 -122 500 -176 135 -34 177 -40 270 -42 l110 -1 107 48
c59 26 108 47 110 47 2 0 3 -22 4 -49 1 -67 42 -147 105 -206 58 -54 176 -113
324 -161 l100 -33 0 -40 c-1 -23 -2 -74 -3 -114 l-2 -73 -90 -11 c-110 -12
-132 -28 -128 -87 5 -68 15 -70 368 -70 333 0 375 5 386 50 9 33 -3 72 -25 83
-10 6 -64 12 -119 15 -112 5 -135 13 -156 54 -13 25 -17 43 -32 139 l-5 33 73
0 c86 0 212 30 378 90 63 23 122 44 131 46 12 4 28 -25 69 -123 71 -171 143
-322 170 -356 23 -29 51 -35 68 -15 5 7 58 135 116 283 59 149 159 399 223
556 l116 286 131 12 c72 7 150 15 174 18 l42 6 0 -344 c-1 -466 -14 -604 -64
-654 -18 -18 -39 -24 -102 -29 -93 -9 -124 -25 -124 -64 1 -63 28 -72 255 -84
228 -12 584 1 609 21 20 17 21 84 2 104 -9 8 -46 17 -88 21 -96 9 -147 25
-164 51 -22 34 -34 261 -34 692 l-1 406 64 66 c77 80 103 118 197 286 40 72
107 181 148 244 l76 114 -27 19 c-14 10 -76 77 -137 148 -93 110 -107 130 -87
130 41 0 67 27 67 70 0 61 -24 71 -183 78 -115 4 -140 9 -197 33 -81 34 -189
62 -350 89 -68 12 -125 22 -127 23 -1 1 -11 59 -22 129 -11 69 -30 151 -41
181 -21 57 -107 201 -160 267 -57 71 -272 161 -429 179 -46 5 -86 13 -91 18
-4 4 -48 69 -97 143 -132 198 -194 271 -279 330 -41 28 -72 56 -69 61 4 5 37
9 74 9 87 0 116 19 114 76 -1 23 -8 43 -18 50 -26 19 -122 25 -350 22 l-209
-3 -34 -86 -34 -86 -107 -43 c-193 -77 -263 -128 -350 -254 -84 -122 -116
-199 -116 -278 0 -38 -4 -68 -9 -68 -6 0 -20 10 -33 22 -30 28 -42 15 -19 -22
31 -53 9 -78 -147 -174 -43 -27 -117 -80 -165 -119 -47 -39 -87 -66 -89 -61
-2 5 -44 106 -92 224 l-89 215 42 13 c108 33 171 37 302 18 69 -10 128 -16
130 -13 11 11 -54 49 -120 69 -88 27 -242 30 -328 6 l-57 -16 -45 112 c-26 61
-86 208 -134 326 l-88 215 -224 1 c-124 1 -242 -2 -264 -6z m2441 -199 c57
-100 233 -321 345 -435 76 -77 151 -183 173 -246 18 -50 18 -126 1 -229 l-11
-75 96 -95 c129 -129 144 -158 144 -286 0 -139 -32 -257 -48 -177 -9 46 -87
152 -178 244 -93 92 -122 112 -209 138 -63 19 -59 6 -45 172 6 63 4 95 -5 118
-29 71 28 61 138 -23 34 -26 68 -47 74 -45 18 6 -82 96 -136 123 -57 29 -83
31 -130 11 -64 -27 -92 -85 -151 -310 -33 -125 -55 -258 -41 -245 3 3 24 71
45 150 50 185 105 338 131 363 19 20 19 20 35 -17 20 -49 19 -137 -5 -227 -10
-41 -16 -78 -12 -81 4 -3 34 -11 66 -18 80 -15 131 -47 230 -144 88 -86 149
-170 171 -234 12 -34 11 -42 -8 -77 -31 -55 -130 -143 -175 -156 -20 -5 -68
-15 -107 -21 -101 -15 -246 -39 -272 -45 -18 -5 -25 1 -37 30 -8 20 -13 43
-10 51 4 8 1 15 -5 15 -6 0 -11 5 -11 10 0 6 6 10 14 10 7 0 19 6 25 14 10 12
8 17 -8 25 -11 6 -29 11 -40 11 -23 0 -28 6 -35 42 -2 14 -10 35 -17 47 -12
18 -11 23 9 36 34 24 28 45 -12 45 -32 0 -35 3 -61 65 l-28 64 6 678 c5 670 9
735 39 755 23 14 33 9 55 -31z m-474 -53 c-277 -696 -322 -802 -323 -760 0 49
-28 181 -41 198 -5 6 -41 15 -79 18 l-70 7 6 42 c10 65 39 124 99 197 67 82
194 205 256 247 36 25 156 92 166 93 2 0 -5 -19 -14 -42z m-1502 -495 l18 -43
-37 -19 c-20 -10 -47 -22 -59 -25 l-23 -7 1 153 1 153 40 -85 c22 -47 49 -104
59 -127z m1582 85 c4 -68 7 -251 7 -408 1 -260 -1 -291 -19 -350 -12 -36 -21
-71 -21 -77 0 -25 21 -13 35 20 14 31 14 31 15 -41 0 -68 -2 -75 -28 -97 -16
-13 -37 -42 -47 -64 -15 -35 -16 -47 -6 -79 6 -20 12 -68 14 -107 l2 -70 -83
3 c-69 3 -87 1 -103 -14 -20 -18 -26 -54 -9 -54 6 0 10 -4 10 -8 0 -4 -27 -14
-61 -20 -85 -18 -94 -61 -12 -62 45 0 63 -9 63 -31 0 -11 6 -22 14 -25 32 -12
186 79 186 111 0 7 -17 15 -37 19 -21 4 -51 13 -68 21 l-30 15 40 -5 c22 -3
69 -5 104 -5 56 0 62 -2 56 -17 -4 -10 -9 -44 -11 -76 -5 -63 -47 -278 -62
-317 -6 -14 -36 -59 -68 -100 -70 -92 -111 -176 -164 -336 -23 -68 -49 -133
-58 -144 -12 -14 -58 -31 -157 -56 -275 -70 -506 -55 -927 61 -293 80 -490
204 -642 405 -27 36 -80 99 -118 142 -37 42 -68 79 -68 82 0 3 21 17 48 30 26
13 98 63 160 110 62 47 126 93 142 101 l30 16 0 -34 c0 -19 -3 -61 -6 -94 l-6
-59 -89 -10 c-106 -13 -129 -28 -129 -86 0 -65 17 -68 380 -68 362 0 380 3
380 67 0 21 -4 44 -9 51 -12 20 -75 31 -167 32 -74 0 -84 2 -107 26 -29 28
-47 97 -47 174 l0 50 43 0 c60 0 144 16 262 50 118 34 276 63 285 53 4 -5 37
-80 75 -168 117 -275 151 -335 190 -335 19 0 28 12 55 77 18 43 38 94 45 113
7 19 18 47 24 62 l10 27 58 -20 c49 -18 74 -20 163 -15 111 5 150 12 150 28 0
6 -28 6 -72 1 -104 -11 -159 -8 -220 12 -29 10 -56 19 -60 22 -10 5 33 103 46
103 9 -1 292 -112 345 -137 9 -4 12 -1 9 8 -7 21 -70 54 -213 110 -71 28 -132
52 -134 54 -2 2 9 35 24 74 l28 70 32 -25 c31 -24 55 -31 55 -17 0 4 -16 24
-36 44 l-35 36 43 107 c23 58 45 106 48 105 3 0 22 -35 43 -77 45 -92 126
-214 146 -220 11 -4 13 3 8 29 l-7 34 26 -29 c14 -15 27 -26 29 -24 7 7 -92
266 -116 304 -21 35 -59 64 -84 64 -8 0 -15 2 -15 4 0 4 167 411 290 706 56
135 104 251 107 258 13 32 21 2 26 -110z m987 -84 c86 -24 107 -48 168 -196 8
-20 22 -30 54 -38 75 -19 177 -61 226 -94 73 -48 95 -109 126 -346 l6 -45
-117 -34 c-65 -19 -145 -44 -178 -57 -93 -36 -89 -37 -96 33 -9 90 -50 164
-143 257 l-79 79 6 97 c8 123 -5 214 -42 295 -29 64 -29 65 -9 65 12 0 47 -7
78 -16z m301 -101 c29 -19 169 -193 155 -193 -2 0 -23 11 -47 24 -24 13 -77
34 -117 46 -80 24 -93 37 -136 134 -14 32 -26 60 -26 61 0 8 139 -51 171 -72z
m-2601 -532 c103 -245 186 -447 185 -449 -2 -2 -41 2 -86 8 -126 18 -286 16
-333 -4 -24 -10 -43 -13 -49 -7 -13 13 -33 183 -51 431 -9 118 -21 259 -26
313 -6 54 -10 124 -10 156 l0 59 43 6 c23 4 53 13 67 21 24 14 26 13 49 -37
13 -28 108 -252 211 -497z m834 530 c17 -19 56 -128 56 -156 0 -8 -66 -59
-147 -114 -200 -135 -302 -219 -348 -286 l-39 -56 -54 128 -54 128 44 39 c90
80 336 248 468 318 43 23 53 23 74 -1z m36 -275 c0 -20 -40 -130 -96 -267 -53
-129 -100 -245 -106 -259 -9 -24 -10 -24 -40 25 -17 27 -37 68 -45 92 -8 24
-20 43 -25 43 -21 0 1 -83 41 -151 31 -54 38 -75 32 -92 -22 -56 -73 -157 -81
-157 -7 0 -113 232 -160 351 l-18 46 50 67 c28 37 70 83 93 103 88 73 318 233
336 233 15 0 19 -7 19 -34z m-1186 -697 c8 -45 24 -97 36 -116 11 -19 20 -36
20 -38 0 -6 -71 -25 -92 -25 -17 0 -18 21 -17 303 l1 302 18 -172 c10 -95 26
-209 34 -254z m3454 290 c99 -17 129 -26 147 -45 l24 -24 -57 0 -57 0 -249
-623 c-137 -342 -252 -625 -255 -629 -15 -18 -298 83 -308 109 -3 7 10 43 27
80 18 38 39 91 46 118 17 64 29 195 20 229 -6 25 -8 26 -94 26 -107 1 -259 26
-416 71 -114 32 -119 34 -133 67 -8 19 -11 38 -6 42 13 12 179 48 277 59 111
13 163 38 236 112 66 67 116 155 131 233 7 32 20 63 33 74 24 23 180 87 276
114 80 23 183 19 358 -13z m547 -339 c66 -54 142 -117 170 -142 l49 -45 -51
-79 c-28 -43 -88 -144 -133 -224 -46 -80 -101 -172 -123 -205 -43 -65 -105
-135 -120 -135 -11 0 -3 865 8 893 9 21 56 48 70 39 5 -3 64 -49 130 -102z
m-3650 30 c85 -12 155 -30 155 -40 0 -18 -357 -96 -390 -85 -20 6 -70 60 -70
76 0 16 48 40 97 49 68 11 127 11 208 0z m3142 -681 l6 -326 -54 -7 c-30 -3
-105 -9 -167 -13 l-113 -6 10 24 c5 13 69 166 141 339 73 173 137 328 143 343
l12 28 7 -28 c4 -15 11 -175 15 -354z m-1673 267 c-3 -7 15 -33 39 -59 46 -49
81 -112 72 -127 -3 -5 -33 -30 -65 -55 l-60 -46 1 178 c0 115 4 168 9 150 5
-16 7 -34 4 -41z m480 -16 c87 -30 168 -42 321 -49 l140 -6 3 -51 c5 -89 -22
-186 -94 -332 -51 -102 -82 -150 -125 -196 -31 -34 -59 -59 -62 -56 -2 3 -67
158 -144 345 -124 302 -138 341 -124 352 21 16 19 16 85 -7z m-704 -299 l0
-99 -82 -44 c-79 -42 -112 -78 -71 -78 10 0 60 -23 111 -51 l93 -50 -5 -77
c-3 -42 -9 -189 -12 -325 -5 -184 -10 -250 -19 -253 -6 -3 -56 2 -110 11 -105
17 -171 44 -275 115 -82 56 -100 82 -100 144 0 61 20 96 76 133 99 65 141 130
189 288 15 50 45 127 66 172 39 86 118 213 131 213 4 0 8 -45 8 -99z m469
-165 c56 -131 101 -240 101 -242 0 -6 -227 21 -307 37 l-53 10 1 172 0 172 72
51 c40 28 75 48 79 45 3 -3 52 -113 107 -245z m-2357 -29 c109 -85 233 -158
321 -188 98 -33 404 -111 537 -136 66 -12 145 -17 260 -17 151 0 176 2 298 32
73 18 136 32 140 32 17 0 -114 -80 -215 -131 -166 -85 -185 -87 -427 -60 -233
27 -307 44 -442 101 -263 111 -411 220 -549 404 -36 47 -22 41 77 -37z m3028
-114 c25 -68 25 -110 0 -202 -24 -84 -47 -132 -87 -179 l-28 -33 -62 148 c-35
82 -63 152 -63 155 0 3 18 18 40 33 23 16 63 59 91 97 49 67 51 69 70 53 10
-10 28 -42 39 -72z m155 -5 c50 -12 91 -23 93 -24 8 -4 -250 -604 -261 -604
-2 0 -21 38 -41 84 l-38 84 40 59 c68 100 92 158 103 246 6 45 8 103 4 130 -3
26 -2 47 2 47 4 0 49 -10 98 -22z m-915 -103 c69 -9 143 -18 166 -21 l41 -5
100 -242 c114 -277 115 -247 -7 -288 -135 -46 -229 -27 -330 67 -45 42 -82 55
-95 34 -3 -5 -15 -15 -26 -20 -19 -10 -19 -5 -19 246 l0 256 23 -5 c12 -3 78
-13 147 -22z m7 -564 c18 -12 56 -30 84 -40 l52 -17 -75 -22 c-65 -19 -186
-41 -225 -42 -9 0 -13 22 -13 79 l0 78 38 26 37 25 35 -32 c19 -18 50 -43 67
-55z"/>
<path d="M6267 3651 c-16 -28 -66 -75 -146 -140 -29 -23 -41 -39 -39 -54 5
-33 22 -30 71 14 l47 41 -1 -29 c0 -15 -7 -46 -14 -68 l-14 -40 5 40 4 40 -25
-50 c-39 -80 -29 -131 17 -82 61 66 102 122 114 155 14 41 19 188 6 196 -5 3
-16 -8 -25 -23z"/>
<path d="M5773 3348 c-5 -7 -16 -28 -23 -47 -7 -18 -31 -46 -53 -62 -72 -52
-262 -99 -401 -99 -72 0 -146 -11 -146 -21 0 -12 164 -11 275 1 175 20 270 63
342 159 18 23 33 51 33 62 0 22 -13 25 -27 7z"/>
<path d="M9314 5131 c-61 -28 -97 -80 -102 -149 -3 -50 1 -63 30 -112 115
-190 442 -118 403 89 -15 78 -68 147 -137 175 -51 22 -143 20 -194 -3z m184
-15 c15 -8 40 -28 57 -45 25 -27 30 -41 33 -96 4 -56 1 -70 -22 -109 -28 -48
-90 -86 -142 -86 -44 0 -116 40 -141 79 -85 128 82 327 215 257z"/>
<path d="M9690 4833 c0 -14 -39 -33 -162 -82 -137 -54 -165 -61 -181 -51 -17
10 -19 10 -14 -7 11 -36 89 -218 97 -227 11 -11 100 12 100 26 0 5 -15 6 -34
3 -28 -6 -36 -3 -55 21 -11 14 -26 44 -33 66 -10 32 -9 41 4 54 8 9 79 40 158
70 112 43 145 52 156 43 25 -20 25 -4 2 49 -23 53 -38 66 -38 35z"/>
<path d="M9802 4564 c2 -13 -31 -28 -157 -71 -99 -33 -170 -52 -186 -49 l-26
5 24 -66 c29 -80 33 -88 42 -76 6 10 165 3 175 -8 3 -3 12 -27 20 -52 l14 -47
-67 -47 c-36 -26 -72 -46 -78 -45 -16 4 -16 -3 2 -58 11 -36 15 -41 20 -25 4
11 79 74 168 140 88 66 162 125 164 131 3 9 -94 21 -332 40 -75 6 -105 16
-105 34 0 10 7 13 189 71 115 36 158 46 168 37 17 -14 16 -2 -3 55 -15 44 -38
66 -32 31z"/>
<path d="M9794 4058 c27 -132 38 -316 33 -543 -7 -306 -35 -500 -113 -767
-142 -488 -397 -912 -778 -1293 -532 -531 -1209 -860 -1987 -965 -88 -12 -114
-21 -108 -37 6 -13 339 41 514 83 520 127 978 356 1381 691 116 96 345 324
438 437 358 434 576 930 662 1506 42 286 20 920 -33 920 -12 0 -14 -7 -9 -32z"/>
<path d="M3478 2503 c-7 -26 -325 -148 -345 -132 -28 24 -22 -2 25 -112 82
-189 75 -179 113 -159 21 12 27 32 7 25 -7 -3 -18 -1 -25 3 -15 9 -73 135 -73
157 0 10 25 27 66 45 36 17 69 30 73 30 9 0 57 -122 53 -137 -2 -7 1 -13 6
-13 13 0 48 29 35 30 -11 0 -63 101 -63 124 0 9 36 26 131 61 21 8 78 -120 60
-138 -18 -18 -13 -29 10 -17 29 16 35 5 13 -23 -11 -13 -52 -66 -93 -118 -96
-122 -153 -207 -143 -212 9 -6 164 16 304 44 174 34 172 16 -14 -118 -111 -80
-144 -100 -155 -91 -7 6 -16 8 -20 5 -10 -11 231 -316 257 -325 5 -2 8 8 7 21
-2 20 19 44 98 116 l100 91 6 -225 c3 -124 9 -228 12 -231 3 -3 63 60 133 140
70 80 131 146 136 146 4 0 8 -8 8 -18 0 -10 6 -19 14 -19 16 0 85 -54 83 -65
-1 -4 -51 -68 -110 -143 -88 -112 -111 -135 -127 -130 -34 11 -22 -8 31 -49
47 -36 76 -43 50 -13 -9 12 9 41 90 148 56 74 105 138 110 143 9 10 88 -44 89
-61 0 -7 3 -13 6 -13 13 0 44 22 44 31 0 6 -4 8 -9 5 -16 -10 -255 180 -245
195 3 5 -4 9 -14 9 -11 0 -25 7 -32 15 -16 19 -31 19 -24 0 4 -9 -29 -54 -88
-120 l-93 -105 -5 220 -5 220 -62 73 c-33 41 -85 106 -113 146 -43 57 -55 69
-64 57 -6 -8 -63 -23 -131 -35 -173 -31 -175 -31 -175 -25 0 16 176 237 192
242 10 2 18 6 18 8 0 3 -22 48 -49 102 -26 53 -56 120 -66 147 -22 61 -31 72
-37 48z m362 -655 c31 -39 40 -58 35 -75 -5 -23 8 -32 20 -13 9 15 25 12 31
-5 3 -8 -2 -25 -13 -38 -36 -45 -232 -217 -247 -217 -20 0 -21 19 -1 26 22 9
18 27 -5 21 -10 -3 -25 0 -33 7 -25 20 -97 117 -97 131 0 8 27 34 59 59 l59
46 41 -54 c23 -29 41 -58 41 -64 0 -16 15 -15 29 1 8 10 -1 26 -39 67 -28 30
-49 58 -48 62 3 7 117 98 123 98 2 0 22 -23 45 -52z"/>
<path d="M4664 1148 c8 -32 -163 -324 -187 -320 -32 5 -17 -13 32 -40 55 -31
69 -35 51 -13 -10 11 -5 28 26 85 21 38 43 70 49 70 30 0 52 -31 58 -82 15
-140 45 -201 106 -214 14 -3 58 -21 96 -40 84 -40 337 -135 343 -129 3 2 -1
11 -8 19 -10 13 -4 39 30 143 24 70 45 132 48 137 2 4 34 -50 71 -120 67 -131
151 -274 161 -274 3 0 25 84 50 187 25 105 50 188 58 191 6 2 12 -4 12 -13 0
-11 6 -15 19 -10 16 5 97 -7 106 -17 4 -4 -63 -336 -70 -349 -4 -5 -14 -9 -23
-10 -29 -1 17 -15 73 -23 43 -6 48 -5 33 7 -17 13 -16 24 14 188 17 96 32 175
33 177 6 7 99 -18 106 -29 7 -11 11 -10 23 6 22 29 20 32 -21 33 -66 3 -276
50 -284 64 -6 9 -9 9 -9 1 0 -8 -9 -9 -32 -2 -46 13 -55 11 -36 -7 16 -16 13
-33 -43 -248 l-11 -40 -61 111 c-34 60 -80 147 -101 191 -39 79 -41 82 -90 98
-28 10 -98 37 -155 60 -104 43 -124 47 -103 21 14 -17 -123 -337 -145 -337 -8
0 -11 5 -8 10 3 6 -3 10 -14 10 -11 0 -33 11 -50 25 -24 21 -33 40 -45 98 -28
135 -28 137 -5 137 52 0 99 48 98 100 0 51 -18 70 -142 139 -57 33 -58 33 -53
9z m123 -87 c22 -28 16 -89 -12 -116 -28 -29 -51 -31 -99 -8 l-35 16 42 78 42
78 25 -16 c14 -9 30 -24 37 -32z m377 -167 c55 -22 65 -30 68 -52 l4 -27 14
27 c10 22 16 25 27 17 22 -19 14 -57 -40 -209 -37 -104 -57 -146 -70 -148 -15
-3 -16 0 -7 24 13 33 5 44 -14 18 -13 -17 -17 -18 -53 -5 -100 36 -123 50
-123 73 1 36 47 133 62 130 29 -6 114 -45 121 -56 5 -8 10 -7 17 4 13 20 13
43 -1 35 -9 -6 -114 29 -132 45 -6 6 50 150 59 150 2 0 33 -12 68 -26z"/>
<path d="M6064 643 c-113 -198 -179 -305 -196 -317 -18 -13 -18 -14 4 -20 37
-9 47 -7 46 12 -1 9 18 48 42 86 l43 68 56 -6 c30 -4 56 -8 57 -9 10 -14 52
-161 48 -171 -6 -17 120 -26 335 -25 205 0 247 8 283 48 22 25 28 41 28 77 0
60 -34 94 -122 118 -75 21 -98 39 -98 77 0 63 88 92 144 48 33 -26 41 -21 25
15 -24 52 -139 43 -181 -15 -23 -30 -26 -96 -7 -127 13 -21 53 -42 124 -63 85
-25 108 -78 54 -123 -24 -21 -41 -26 -83 -26 -62 0 -82 13 -100 63 l-13 39
-11 -29 c-5 -15 -13 -36 -16 -46 -8 -25 -53 -39 -108 -34 -76 7 -78 11 -78
161 0 153 7 206 26 206 8 0 14 5 14 10 0 6 -27 10 -62 10 -53 0 -59 -2 -44
-13 16 -12 17 -26 7 -191 -5 -98 -12 -181 -16 -184 -16 -16 -44 47 -100 221
-33 103 -63 187 -67 187 -4 0 -19 -21 -34 -47z"/>
</g>
</svg>
