<?xml version="1.0" standalone="no"?>
<!DOCTYPE svg PUBLIC "-//W3C//DTD SVG 20010904//EN"
 "http://www.w3.org/TR/2001/REC-SVG-20010904/DTD/svg10.dtd">
<svg version="1.0" xmlns="http://www.w3.org/2000/svg"
 width="1120.000000pt" height="630.000000pt" viewBox="0 0 1120.000000 630.000000"
 preserveAspectRatio="xMidYMid meet">
<metadata>
Created by potrace 1.15, written by Peter Selinger 2001-2017
</metadata>
<g transform="translate(0.000000,630.000000) scale(0.100000,-0.100000)"
fill="#000000" stroke="none">
<path d="M5850 5593 c-14 -9 -28 -21 -32 -26 -3 -6 -22 -3 -47 7 -46 18 -136
21 -176 6 -42 -16 -252 -231 -275 -282 -11 -23 -20 -65 -20 -92 0 -48 0 -48
-27 -42 -16 4 -59 9 -98 12 -55 4 -77 1 -105 -13 -45 -23 -59 -68 -36 -113 14
-30 14 -31 -2 -25 -129 55 -267 79 -311 55 -18 -9 -22 -18 -19 -40 l4 -28 -40
33 c-112 90 -310 151 -377 115 -26 -14 -25 -63 3 -107 24 -40 113 -109 177
-137 36 -17 40 -21 25 -27 -40 -16 -86 -9 -109 15 -30 32 -152 59 -276 60 -82
1 -100 -2 -118 -18 -12 -11 -21 -27 -21 -36 0 -26 53 -70 105 -86 62 -18 195
-18 265 1 30 8 64 15 75 15 18 0 17 -3 -8 -25 -32 -31 -35 -65 -6 -91 45 -40
178 -11 288 62 77 52 105 64 150 64 l45 0 -40 -34 c-57 -48 -91 -116 -78 -153
8 -24 15 -28 53 -31 l45 -3 115 119 c105 109 120 120 161 127 l45 7 -51 -54
c-62 -65 -84 -105 -84 -152 0 -27 6 -40 25 -52 49 -32 109 2 206 118 50 60 59
59 59 -5 0 -50 37 -113 93 -158 91 -72 160 -97 332 -120 50 -6 117 -20 150
-30 114 -36 178 -19 232 60 23 33 34 40 61 41 18 0 47 6 65 14 31 13 96 77
127 125 16 23 16 23 50 6 68 -35 144 -55 211 -55 58 0 72 4 98 26 24 20 31 34
31 63 0 20 -6 46 -14 57 -14 20 -13 20 33 -3 93 -44 213 -64 279 -47 12 4 25
17 28 31 9 34 -41 84 -115 116 -31 13 -67 29 -81 35 -21 9 -13 11 50 11 99 1
265 -23 329 -48 115 -44 196 -113 189 -163 -3 -21 -8 -23 -65 -22 -50 1 -77 8
-145 41 -100 48 -143 83 -159 128 -17 46 -39 54 -39 14 0 -65 141 -172 279
-213 187 -55 251 29 115 153 -30 28 -82 63 -115 79 l-60 29 56 7 c51 6 57 4
78 -19 18 -21 42 -30 122 -46 130 -27 246 -23 278 10 20 20 21 23 7 49 -38 69
-208 102 -353 68 -102 -24 -114 -22 -76 12 26 23 31 34 25 55 -20 82 -172 62
-330 -44 -64 -42 -81 -49 -122 -49 l-49 1 31 27 c75 65 110 145 77 174 -48 43
-85 25 -210 -107 -99 -103 -114 -115 -154 -121 l-44 -7 49 54 c107 118 113
209 14 209 -36 0 -47 -7 -111 -67 -38 -38 -68 -60 -64 -51 14 38 18 136 8 173
-14 52 -70 107 -143 139 -52 23 -57 28 -63 66 -14 83 -66 116 -233 151 -119
24 -209 25 -242 2z m239 -33 c103 -23 150 -40 168 -61 15 -19 28 -69 17 -69
-5 0 -50 15 -100 33 -83 31 -226 117 -193 117 8 0 57 -9 108 -20z m-332 -15
c34 -15 35 -17 30 -56 -4 -32 -14 -48 -45 -75 -34 -29 -42 -43 -49 -87 -8 -51
-9 -52 -48 -58 -57 -7 -81 -23 -110 -73 -21 -36 -25 -55 -25 -123 l0 -80 -42
-7 c-44 -7 -53 -1 -64 42 -9 33 13 77 78 158 70 87 93 136 108 228 11 68 33
124 54 138 18 13 74 9 113 -7z m196 3 c12 -6 45 -29 74 -50 32 -25 81 -48 132
-64 110 -34 128 -51 142 -140 10 -64 10 -75 -9 -117 -24 -53 -38 -57 -85 -25
-18 13 -34 24 -36 26 -3 1 -8 34 -12 72 -9 79 -37 139 -77 162 -30 18 -147 38
-216 38 -25 0 -46 2 -46 5 0 11 31 79 41 92 14 16 63 17 92 1z m-409 -134
c-20 -97 -28 -113 -100 -200 -31 -38 -61 -79 -67 -92 -16 -35 -27 -8 -27 68 0
85 16 114 121 220 46 47 85 85 87 84 1 0 -5 -36 -14 -80z m356 -68 c36 -34 64
-46 127 -56 72 -12 83 -22 83 -79 0 -97 -28 -142 -88 -141 -21 1 -62 63 -62
95 0 65 -47 112 -99 100 -17 -3 -46 -17 -65 -30 -19 -13 -37 -21 -40 -17 -9 8
-7 135 2 148 4 6 16 16 27 22 24 13 77 -7 115 -42z m508 -16 c51 -31 66 -92
37 -153 -8 -18 -42 -66 -76 -107 -88 -110 -91 -117 -104 -277 -11 -131 -14
-145 -41 -184 l-29 -43 -5 90 c-4 54 -12 101 -22 120 -17 30 -16 32 18 82 42
64 74 142 74 185 0 25 7 39 30 55 51 38 63 75 57 169 -5 94 0 100 61 63z
m-695 -134 c14 -35 16 -51 8 -87 -26 -110 -1 -149 95 -149 46 0 54 -3 54 -19
0 -73 -48 -141 -100 -141 -34 0 -65 35 -75 83 -16 71 -39 124 -76 171 -55 68
-50 138 12 172 44 24 63 17 82 -30z m197 8 c15 -39 12 -69 -10 -95 l-19 -24
-1 23 c0 18 -5 23 -22 20 -18 -2 -23 -10 -23 -33 0 -23 6 -32 27 -39 23 -8 33
-6 58 12 l30 22 6 -26 c11 -44 -23 -68 -106 -72 -68 -4 -70 -4 -80 22 -19 51
17 156 66 195 36 28 62 27 74 -5z m-1437 -95 c106 -35 227 -120 227 -158 0
-18 18 -41 32 -41 14 0 9 45 -8 68 -13 19 -9 18 28 -8 24 -17 73 -42 109 -55
l64 -24 -65 -2 c-77 -3 -74 -3 -175 11 -153 21 -237 54 -311 122 -99 91 -48
136 99 87z m809 10 c23 -10 84 -126 73 -138 -3 -3 -35 -7 -71 -9 -79 -5 -142
16 -179 59 -31 38 -31 44 0 74 21 21 33 25 89 25 36 0 76 -5 88 -11z m908 -4
c19 -23 -1 -59 -49 -92 -29 -20 -52 -51 -82 -108 -23 -44 -55 -95 -72 -112
-56 -59 -108 -32 -88 45 6 20 13 53 16 73 4 29 12 40 35 49 16 7 36 23 45 36
8 13 25 24 38 24 43 1 103 36 116 69 15 35 23 38 41 16z m250 -121 c-22 -60
-45 -137 -50 -172 -10 -69 -36 -131 -76 -177 -14 -16 -22 -24 -18 -16 4 8 10
71 14 141 5 78 13 137 22 154 26 50 143 203 146 191 2 -7 -15 -61 -38 -121z
m-1467 16 c32 -12 70 -33 85 -46 l27 -23 -76 -1 c-118 0 -266 54 -244 90 12
19 138 7 208 -20z m592 -123 c47 -73 86 -101 162 -118 42 -10 62 -10 86 -1 29
11 34 10 65 -21 31 -30 37 -32 107 -32 68 0 76 2 105 30 26 25 32 27 40 15 14
-23 23 -96 15 -127 -9 -38 -52 -92 -81 -103 -33 -13 -127 17 -215 70 -75 44
-157 67 -332 93 -127 19 -141 31 -132 107 10 79 27 114 66 133 57 28 70 22
114 -46z m2188 42 c20 -5 37 -16 37 -24 0 -37 -164 -44 -285 -12 l-50 14 35
11 c72 23 201 29 263 11z m-3451 -20 c57 -13 53 -21 -14 -38 -110 -26 -289 -3
-258 33 6 8 24 17 38 20 38 6 174 -3 234 -15z m2669 -78 c31 -12 64 -30 74
-41 16 -18 16 -20 1 -26 -30 -12 -150 3 -206 24 -30 12 -68 33 -85 47 l-30 26
95 -4 c64 -3 113 -12 151 -26z m-352 -12 c96 -20 146 -104 81 -136 -38 -19
-132 -16 -194 7 -70 26 -78 37 -68 86 6 29 14 40 32 45 38 11 94 10 149 -2z
m-1051 -169 c143 -22 185 -35 277 -89 66 -38 160 -71 208 -71 l32 -1 -25 -20
c-28 -24 -72 -23 -180 4 -36 9 -112 23 -170 32 -120 18 -189 46 -249 100 -51
47 -72 80 -44 71 10 -3 78 -15 151 -26z"/>
<path d="M4295 4217 c-64 -36 -85 -77 -85 -164 0 -132 55 -195 169 -194 34 0
73 7 89 15 129 66 127 288 -1 350 -50 23 -124 20 -172 -7z m160 -47 c72 -70
72 -201 0 -258 -89 -70 -206 33 -193 169 12 118 114 165 193 89z"/>
<path d="M3630 4215 c0 -8 9 -15 20 -15 23 0 25 -22 13 -203 -4 -80 -9 -107
-20 -107 -7 0 -13 -7 -13 -15 0 -13 11 -15 57 -13 57 3 85 23 41 30 -22 3 -23
6 -25 113 -1 75 1 104 7 90 6 -11 30 -67 54 -125 24 -57 48 -106 53 -107 5 -2
31 53 58 123 45 113 50 123 57 97 5 -15 5 -63 2 -107 -6 -66 -10 -79 -26 -84
-41 -10 -9 -27 52 -27 62 0 93 17 50 28 -19 5 -20 13 -20 155 0 141 1 150 20
155 38 10 21 27 -28 27 l-47 0 -48 -122 c-26 -68 -51 -128 -55 -135 -4 -7 -30
45 -62 123 l-54 134 -43 0 c-32 0 -43 -4 -43 -15z"/>
<path d="M4740 4221 c0 -6 11 -13 25 -17 l25 -6 0 -154 c0 -149 -1 -154 -21
-154 -12 0 -19 -5 -17 -12 6 -17 126 -22 191 -8 99 21 147 83 147 190 0 67
-14 102 -55 140 -25 24 -34 25 -161 28 -90 2 -134 0 -134 -7z m229 -48 c43
-33 71 -82 71 -127 0 -84 -52 -140 -142 -152 -44 -6 -45 -6 -52 26 -8 42 -8
228 1 259 5 21 10 23 51 18 24 -3 56 -14 71 -24z"/>
<path d="M5270 4215 c0 -8 9 -15 20 -15 19 0 20 -7 20 -155 0 -131 -2 -155
-15 -155 -8 0 -15 -7 -15 -15 0 -13 22 -15 134 -15 l133 0 6 43 c7 53 -9 73
-24 29 l-11 -32 -74 0 -74 0 0 74 c0 66 2 75 20 81 34 11 78 -4 82 -27 2 -12
9 -23 16 -26 9 -3 12 14 12 62 0 41 -4 66 -11 66 -6 0 -13 -9 -16 -20 -4 -17
-14 -20 -54 -20 l-49 0 0 55 0 55 69 0 c68 0 70 -1 73 -27 6 -48 28 -39 28 11
l0 46 -135 0 c-113 0 -135 -2 -135 -15z"/>
<path d="M5720 4221 c0 -5 8 -12 19 -16 21 -6 31 -78 31 -227 0 -83 -1 -88
-21 -88 -12 0 -19 -5 -17 -12 3 -9 30 -14 76 -16 60 -2 72 0 72 13 0 10 -10
15 -30 15 l-30 0 0 70 c0 68 1 70 25 70 21 0 36 -15 81 -85 54 -83 56 -85 95
-85 42 0 56 23 20 35 -10 3 -40 36 -65 72 l-46 67 30 27 c42 39 42 98 1 140
-29 28 -32 29 -135 29 -59 0 -106 -4 -106 -9z"/>
<path d="M6220 4220 c0 -5 11 -12 25 -16 l25 -6 0 -154 c0 -149 -1 -154 -21
-154 -12 0 -19 -5 -17 -12 3 -8 27 -14 61 -16 46 -2 57 0 57 13 0 8 -7 15 -15
15 -27 0 -36 38 -33 150 l3 110 110 -147 c61 -81 115 -147 120 -145 6 1 11 69
13 171 2 159 4 169 22 174 43 11 19 27 -40 27 -58 0 -83 -16 -41 -27 25 -6 31
-46 22 -149 l-6 -82 -94 129 -93 129 -49 0 c-27 0 -49 -4 -49 -10z"/>
<path d="M7285 4191 c-160 -74 -315 -342 -396 -683 -17 -73 -33 -143 -35 -155
-4 -24 -76 -56 -125 -56 -39 0 -76 36 -84 84 -6 36 -9 39 -40 39 -19 0 -37 -4
-40 -10 -3 -5 -21 -10 -38 -10 -54 0 -93 -33 -131 -108 -42 -83 -134 -201
-185 -236 -74 -52 -130 -21 -192 107 -49 101 -63 117 -107 117 -51 0 -90 -49
-182 -232 -44 -87 -80 -149 -80 -137 0 51 53 276 86 366 49 133 51 143 28 145
-49 4 -69 -6 -112 -53 -24 -27 -92 -89 -151 -137 -106 -88 -340 -272 -345
-272 -4 0 21 208 39 321 8 53 15 122 15 152 l0 56 -35 7 c-42 8 -59 -5 -106
-77 l-31 -49 -60 0 c-49 0 -76 -7 -143 -39 -128 -60 -164 -88 -401 -323 -122
-120 -226 -218 -232 -218 -17 0 -32 60 -32 130 0 91 22 212 65 352 19 64 35
128 35 142 0 24 -4 26 -39 26 -37 0 -43 -4 -81 -59 l-41 -58 -39 10 c-45 12
-102 -1 -143 -33 -15 -12 -52 -65 -83 -118 -32 -53 -74 -119 -94 -147 -46 -62
-129 -140 -159 -150 -46 -14 -96 43 -152 175 -40 97 -61 120 -111 120 -53 0
-109 -54 -200 -189 -39 -59 -71 -107 -73 -109 -9 -10 54 283 129 598 86 365
99 437 94 537 -3 77 -5 85 -34 114 -28 28 -38 31 -91 31 -91 0 -159 -37 -263
-141 -183 -184 -382 -554 -531 -986 -52 -150 -52 -146 -14 70 30 166 58 273
127 493 37 119 48 166 40 174 -16 16 -68 14 -87 -2 -56 -46 -162 -376 -215
-670 -28 -150 -37 -370 -18 -425 15 -47 53 -70 99 -60 39 9 46 24 113 253 93
315 142 445 256 673 115 229 209 369 323 481 60 58 126 98 163 98 65 0 57
-129 -26 -445 -136 -519 -180 -719 -201 -913 -15 -145 -8 -165 53 -160 l42 3
63 140 c35 77 85 175 111 219 46 77 126 176 142 176 4 0 29 -44 55 -97 26 -54
58 -113 71 -131 46 -60 113 -78 179 -46 33 15 120 100 162 159 l22 30 1 -61
c0 -76 15 -98 65 -98 48 0 77 31 163 180 40 68 61 98 58 79 -28 -146 -32 -270
-12 -328 23 -62 42 -77 101 -77 67 0 74 6 288 230 142 149 294 286 304 276 2
-2 -4 -20 -13 -42 -50 -118 -71 -296 -38 -328 8 -9 31 -16 51 -16 60 0 113 70
227 298 25 50 48 92 50 92 2 0 0 -19 -5 -42 -4 -24 -15 -108 -24 -188 -9 -80
-18 -154 -20 -165 -2 -11 -55 -63 -116 -115 -273 -232 -437 -455 -504 -686
-34 -118 -37 -285 -6 -384 51 -165 188 -273 324 -257 207 25 341 291 391 777
8 80 20 251 26 380 6 129 13 250 16 267 4 28 26 50 147 146 78 62 177 144 221
181 43 36 80 65 81 64 2 -2 -8 -50 -22 -108 -17 -72 -26 -147 -30 -241 -7
-165 -2 -179 62 -179 54 0 56 2 129 171 58 134 135 292 159 323 13 18 17 14
57 -63 47 -91 90 -133 154 -151 74 -20 150 13 221 98 33 39 45 34 45 -19 0
-41 14 -78 34 -91 6 -4 28 -8 49 -8 28 0 44 7 61 24 30 34 70 116 96 203 21
71 23 73 48 65 35 -9 109 -9 148 1 l32 8 4 -158 c4 -131 9 -168 27 -215 42
-109 86 -154 162 -164 100 -14 214 75 355 272 l68 96 11 -47 c8 -30 25 -60 49
-84 34 -34 40 -36 99 -36 54 0 70 5 114 33 50 32 127 108 170 167 l22 30 1
-28 c0 -16 11 -39 26 -54 42 -41 86 -28 156 47 l56 61 -14 -58 c-8 -32 -17
-112 -21 -178 -7 -150 8 -216 62 -264 74 -65 157 -35 385 134 413 308 703 456
956 487 82 10 98 9 139 -6 25 -10 50 -26 55 -37 12 -22 38 -25 46 -5 9 23 -15
57 -51 72 -44 18 -181 18 -277 0 -247 -47 -520 -192 -925 -489 -73 -53 -157
-109 -187 -124 -53 -26 -56 -26 -75 -9 -50 45 -53 228 -6 416 14 57 53 169 85
247 33 79 60 150 60 158 0 16 -30 35 -55 35 -13 0 -86 -101 -98 -134 -2 -5
-16 -1 -31 9 -38 25 -119 24 -155 -2 -14 -11 -66 -79 -116 -151 -49 -72 -119
-160 -154 -196 -67 -68 -149 -120 -173 -111 -54 21 -66 217 -23 340 14 39 25
71 25 73 0 1 -15 2 -33 2 -44 0 -65 -24 -111 -125 -83 -181 -294 -448 -384
-484 -29 -12 -35 -12 -53 5 -54 49 -80 150 -79 314 0 69 4 150 9 180 8 48 14
58 57 94 220 179 462 519 481 674 7 66 -16 118 -61 137 -47 20 -103 18 -151
-4z m125 -58 c68 -86 -64 -342 -304 -590 -65 -68 -120 -122 -122 -120 -2 1 3
30 11 63 45 195 144 428 230 542 47 63 126 132 151 132 7 0 22 -12 34 -27z
m765 -736 l27 -23 -61 -89 c-33 -50 -76 -108 -95 -130 -29 -33 -35 -37 -36
-20 -1 62 60 225 99 264 26 26 34 26 66 -2z m-1612 -77 c-4 -51 -51 -191 -79
-236 l-25 -39 4 100 c4 101 20 160 54 198 26 28 48 17 46 -23z m-1553 4 c0 -3
-29 -62 -65 -132 -74 -147 -139 -250 -132 -212 32 175 80 289 136 327 32 22
61 30 61 17z m-941 -43 c11 -7 -3 -38 -70 -150 -73 -122 -84 -137 -87 -112 -5
43 26 160 54 208 34 58 68 76 103 54z m937 -608 c-4 -49 -11 -169 -16 -268
-18 -313 -41 -486 -85 -640 -54 -186 -137 -295 -224 -295 -75 0 -161 75 -213
185 -29 63 -33 81 -36 176 -8 215 74 413 267 643 63 75 287 285 304 286 5 0 6
-39 3 -87z"/>
</g>
</svg>
