<?xml version="1.0" encoding="UTF-8" standalone="no"?>
<!-- Created with Inkscape (http://www.inkscape.org/) -->

<svg
   xmlns:dc="http://purl.org/dc/elements/1.1/"
   xmlns:cc="http://creativecommons.org/ns#"
   xmlns:rdf="http://www.w3.org/1999/02/22-rdf-syntax-ns#"
   xmlns:svg="http://www.w3.org/2000/svg"
   xmlns="http://www.w3.org/2000/svg"
   xmlns:sodipodi="http://sodipodi.sourceforge.net/DTD/sodipodi-0.dtd"
   xmlns:inkscape="http://www.inkscape.org/namespaces/inkscape"
   version="1.1"
   id="svg5640"
   width="2048"
   height="1638"
   viewBox="0 0 2048 1638"
   sodipodi:docname="ModernMagnolia.svg"
   inkscape:version="0.92.1 r15371">
  <metadata
     id="metadata5646">
    <rdf:RDF>
      <cc:Work
         rdf:about="">
        <dc:format>image/svg+xml</dc:format>
        <dc:type
           rdf:resource="http://purl.org/dc/dcmitype/StillImage" />
        <dc:title></dc:title>
      </cc:Work>
    </rdf:RDF>
  </metadata>
  <defs
     id="defs5644" />
  <sodipodi:namedview
     pagecolor="#ffffff"
     bordercolor="#666666"
     borderopacity="1"
     objecttolerance="10"
     gridtolerance="10"
     guidetolerance="10"
     inkscape:pageopacity="0"
     inkscape:pageshadow="2"
     inkscape:window-width="1920"
     inkscape:window-height="1003"
     id="namedview5642"
     showgrid="false"
     inkscape:zoom="0.49450549"
     inkscape:cx="1024"
     inkscape:cy="825.54382"
     inkscape:window-x="-9"
     inkscape:window-y="-9"
     inkscape:window-maximized="1"
     inkscape:current-layer="svg5640" />
  <path
     style="fill:#000000;stroke-width:0.81716877"
     d="m 816.44375,1082.5932 c -18.69824,-3.9483 -34.14291,-21.8908 -40.16553,-46.6614 -2.38884,-9.8251 -2.57561,-29.4814 -0.39156,-41.20906 8.05916,-43.27512 36.81872,-83.81498 90.97697,-128.24206 5.89555,-4.83622 10.92379,-9.09606 11.17386,-9.46617 0.25007,-0.37023 0.8935,-5.30084 1.42985,-10.95679 1.8068,-19.05335 4.75763,-41.69718 7.18142,-55.10813 0.77738,-4.30121 1.13517,-7.51801 0.79508,-7.1485 -0.34007,0.36963 -5.84013,10.81768 -12.22236,23.21796 -14.00969,27.22017 -17.52278,33.13026 -23.38299,39.33718 -3.96066,4.19507 -5.00092,4.84402 -8.60758,5.36944 -5.06967,0.73841 -9.11042,-0.55073 -10.9263,-3.48617 -4.99519,-8.07472 1.62355,-42.00875 11.16623,-57.24865 1.52056,-2.42849 2.45879,-4.41527 2.08496,-4.41527 -1.16288,0 -16.86377,11.35029 -23.95096,17.31435 -3.71201,3.12373 -18.71887,18.43184 -33.34857,34.0181 -23.77489,25.32923 -27.16425,28.6283 -31.91813,31.06758 -4.87203,2.49985 -5.83123,2.70157 -11.42247,2.40258 l -6.10383,-0.32645 -3.31633,-3.87978 c -4.20109,-4.9149 -5.99436,-10.62818 -6.56005,-20.90005 -0.68158,-12.37678 2.54885,-36.00428 6.57528,-48.09167 0.63337,-1.90138 1.02668,-3.58942 0.87401,-3.75108 -0.15268,-0.16167 -5.36164,8.74682 -11.57547,19.7968 -16.31322,29.00954 -20.27878,33.7425 -28.27193,33.7425 -5.05611,0 -7.90966,-2.05826 -9.08904,-6.55604 -0.9492,-3.61988 -1.00476,-13.12875 -0.11032,-18.88425 0.34144,-2.19699 0.53015,-3.99464 0.41937,-3.99464 -0.1108,0 -1.9036,2.55451 -3.98402,5.67668 -13.46309,20.20493 -26.68867,31.32723 -37.25119,31.32723 -7.31067,0 -15.84475,-6.4559 -21.85223,-16.53096 -1.81183,-3.03858 -5.25526,-10.11811 -7.65206,-15.73209 -4.33604,-10.15635 -7.54358,-15.67391 -9.11184,-15.67391 -1.42199,0 -10.97399,10.24764 -15.54132,16.67317 -10.08842,14.19278 -20.24465,33.62859 -29.17677,55.83505 -5.65266,14.0533 -6.8004,15.38694 -13.20754,15.34664 -7.08983,-0.0444 -8.04154,-1.40296 -7.94105,-11.33338 0.26028,-25.72356 9.55213,-71.845 28.37785,-140.85785 8.37519,-30.70251 12.45355,-47.16151 14.48312,-58.44944 3.31936,-18.46137 2.89779,-26.58874 -1.62782,-31.38215 -2.07024,-2.19283 -2.72133,-2.41854 -5.71918,-1.98331 -8.29456,1.20411 -18.61901,8.11455 -30.22436,20.22988 -17.36877,18.13204 -35.44151,46.71908 -52.74465,83.4305 -15.7911,33.50326 -24.26404,57.09385 -38.62641,107.54433 -5.65358,19.85928 -7.72871,25.70953 -9.79644,27.61871 -3.89487,3.59602 -11.99247,3.61365 -16.00812,0.0348 -3.61704,-3.22363 -4.89437,-8.46738 -5.35071,-21.96636 -0.76995,-22.77553 4.18568,-56.45615 13.69945,-93.10724 7.72185,-29.74786 18.44385,-58.65272 24.16146,-65.13572 2.50173,-2.83661 6.92266,-4.00306 11.00666,-2.90401 4.98471,1.34131 4.94868,1.73744 -2.07813,22.84821 -10.51066,31.57741 -16.56124,54.47815 -21.93585,83.02477 -2.91688,15.49269 -7.14,44.06834 -6.59762,44.64269 0.1843,0.19537 2.38208,-6.17418 4.88395,-14.1544 10.49487,-33.47517 20.33725,-58.87324 33.48785,-86.41472 34.17166,-71.56631 68.96758,-110.94644 98.0803,-111.00185 9.26029,-0.018 14.34599,2.98149 17.82421,10.51137 5.06325,10.96135 3.20644,27.95309 -8.33374,76.26197 -2.57554,10.7817 -7.93312,33.17477 -11.90573,49.76246 -6.2936,26.27908 -13.1258,59.33066 -14.71408,71.18118 l -0.50722,3.78443 3.07703,-5.46646 c 12.97482,-23.05042 28.138,-42.89205 36.04285,-47.1634 4.00402,-2.16356 10.39494,-2.14197 13.73801,0.0468 2.90683,1.90283 5.17437,6.02103 10.23461,18.58787 7.73082,19.19919 14.59026,27.67737 22.39893,27.68504 11.09256,0.012 30.71561,-22.74735 48.0686,-55.74843 7.84624,-14.92161 22.72959,-20.84741 36.53333,-14.54574 0.97059,0.44302 2.54691,-1.31421 6.56585,-7.3194 2.90875,-4.34631 6.13992,-8.74934 7.18039,-9.78471 3.51863,-3.50115 11.64601,-3.08583 12.56645,0.64223 0.22743,0.92119 -1.17254,6.53242 -3.11105,12.46925 -9.5151,29.14136 -12.91973,45.12913 -13.55311,63.64363 -0.28174,8.23603 -0.10374,14.01084 0.52334,16.97878 0.98377,4.65621 3.40903,8.80547 5.14671,8.80547 2.68705,0 10.67413,-7.3338 30.64802,-28.14138 35.20667,-36.67602 47.22446,-46.86705 67.09416,-56.89546 14.10628,-7.11948 19.4285,-8.71228 29.15241,-8.72415 l 8.50806,-0.012 5.56396,-9.05277 c 6.14929,-10.00514 7.57746,-11.09411 13.75409,-10.48666 7.98377,0.78519 8.271,2.72508 4.20065,28.36997 -3.17792,20.02203 -7.77709,57.95121 -7.12426,58.75343 0.27501,0.33785 24.03544,-18.00563 41.22669,-31.8278 29.94625,-24.07739 38.14598,-31.20322 41.36843,-35.95046 1.7907,-2.638 4.1637,-5.51419 5.2731,-6.39149 2.6106,-2.06438 9.6184,-2.30664 11.4234,-0.39481 1.1458,1.2137 1.0027,1.92585 -1.6267,8.09379 -7.84,18.39157 -13.6494,39.88744 -17.42728,64.48471 -3.43997,22.39667 -3.91492,22.44153 7.06748,-0.66766 18.65122,-39.24602 26.19582,-50.19574 34.59412,-50.20845 6.9802,-0.012 9.4012,2.54578 14.6372,15.45529 5.2694,12.99191 10.5631,20.13667 17.8278,24.06213 7.1575,3.86755 13.5402,0.99291 25.0291,-11.27267 10.0612,-10.74127 18.0249,-21.97991 20.2756,-28.61354 4.0018,-11.79536 11.9756,-18.53117 21.9996,-18.58418 4.2118,-0.0228 5.1517,-0.3093 6.1986,-1.89228 0.9255,-1.39971 2.0295,-1.86601 4.4171,-1.86601 5.3272,0 6.255,0.99783 6.255,6.72827 0,4.42462 0.2902,5.33741 2.5736,8.09199 3.027,3.65143 7.8015,6.16039 11.7729,6.18629 3.4141,0.0228 9.8585,-1.89743 15.9073,-4.73848 l 4.4483,-2.08944 0.972,-6.03805 c 5.4551,-33.88944 19.3375,-73.22832 34.0602,-96.51788 16.5541,-26.18662 35.3502,-39.93709 50.7678,-37.13993 10.7031,1.94192 16.0682,8.18242 16.0682,18.68995 0,7.16505 -1.4991,12.50415 -6.7355,23.98888 -13.074,28.67472 -48.315,71.85702 -73.2753,89.78734 -2.5034,1.79837 -4.7986,3.97116 -5.1006,4.82855 -0.8416,2.38903 -2.8865,20.4328 -3.3833,29.85195 -0.5891,11.1698 0.7013,28.67109 2.7287,37.00391 3.0038,12.34656 8.2368,21.65478 13.4633,23.94775 2.0478,0.8984 2.8929,0.76036 6.7277,-1.09917 15.0575,-7.30141 32.4942,-27.37034 54.0182,-62.17231 4.5235,-7.31413 8.1782,-14.22241 8.8982,-16.82 1.7566,-6.3362 5.6612,-13.74399 8.7668,-16.6323 2.2069,-2.05226 3.3832,-2.49336 6.6486,-2.49336 2.5698,0 4.1102,0.39433 4.3728,1.11919 0.223,0.61561 -0.8475,3.88853 -2.379,7.27323 -4.2657,9.42767 -5.6143,16.90298 -5.617,31.13462 0,13.56683 0.9765,18.14041 5.2084,24.32814 2.0234,2.95846 2.7469,3.42368 5.3149,3.41648 9.1318,-0.0252 27.7881,-15.64608 42.303,-35.42034 3.1824,-4.33551 9.4743,-13.83622 13.9819,-21.11256 8.8661,-14.31211 11.8075,-17.3718 18.8199,-19.57745 7.4136,-2.33195 15.3778,-1.03885 20.8553,3.38625 1.5375,1.24213 2.884,2.12554 2.9923,1.96316 0.1088,-0.16239 2.9984,-5.02584 6.4223,-10.80772 3.4238,-5.78177 6.6167,-10.79045 7.0954,-11.13034 1.8097,-1.28482 8.1287,-0.68876 9.4814,0.89433 2.0409,2.38867 1.6409,4.23801 -3.1421,14.52691 -12.8678,27.68012 -19.3419,47.81765 -23.3188,72.53388 -3.8825,24.12848 -0.7468,45.86913 7.1131,49.31739 2.1442,0.94074 3.1158,0.79731 8.3846,-1.23805 7.1678,-2.76897 14.8085,-7.76794 35.3036,-23.09767 57.2653,-42.83256 95.2992,-63.84739 134.6195,-74.38119 23.1173,-6.19312 46.3373,-6.8916 56.0581,-1.68647 5.4204,2.90246 8.9456,9.46641 5.7759,10.75471 -2.7183,1.10481 -5.0962,0.56068 -5.0962,-1.16621 0,-1.94756 -5.0519,-6.11133 -9.3923,-7.7412 -4.2093,-1.58057 -21.8824,-1.31001 -30.7054,0.47013 -42.1743,8.50936 -85.4665,31.29053 -143.3194,75.41716 -33.0427,25.20294 -43.2618,30.34403 -55.1295,27.73445 -10.1293,-2.22725 -16.036,-12.15611 -17.8988,-30.08654 -1.3838,-13.31908 1.225,-34.62592 6.5889,-53.81503 1.0666,-3.81609 1.8337,-6.93826 1.7046,-6.93826 -0.1293,0 -1.9109,2.48773 -3.9595,5.52823 -5.1008,7.57138 -12.7684,16.13302 -17.0161,19.0007 -2.747,1.85438 -4.473,2.38301 -7.7811,2.38301 -8.0036,0 -11.3184,-3.92473 -11.3184,-13.40097 v -5.15728 l -6.2637,8.24815 c -10.49,13.81281 -22.1292,24.36376 -31.8488,28.87077 -3.6017,1.67004 -5.6893,2.02624 -11.9103,2.03212 -8.7881,0.012 -12.0584,-1.37046 -17.0041,-7.16877 -3.7285,-4.37125 -5.1786,-7.83739 -6.7653,-16.17138 l -1.2436,-6.53181 -4.0877,6.53181 c -15.7542,25.17425 -33.2224,44.74751 -46.1132,51.67053 -6.5959,3.54229 -6.98,3.63932 -14.4146,3.63872 -6.0687,-4.8e-4 -8.3736,-0.36112 -11.2173,-1.75484 -8.4281,-4.13079 -15.5094,-15.64466 -19.6094,-31.88455 -2.0436,-8.09403 -2.1251,-9.25689 -2.1716,-30.9499 -0.047,-22.15309 -0.076,-22.53027 -1.6363,-21.98483 -13.324,4.65657 -19.9962,4.83023 -31.7606,0.82705 -1.4392,-0.4898 -1.8709,0.46773 -4.6089,10.22473 -4.7034,16.76099 -11.855,31.13376 -17.9107,35.99601 -1.653,1.32728 -3.3224,1.68192 -7.9165,1.68192 -5.5513,0 -5.9276,-0.12545 -8.0997,-2.70026 -3.0649,-3.63319 -4.2113,-8.38379 -4.2818,-17.74427 l -0.058,-7.82959 -3.1261,4.04504 c -1.7193,2.22484 -5.6496,6.72034 -8.7341,9.99012 -12.6714,13.43266 -26.7398,15.78031 -39.7508,6.63304 -6.8117,-4.78885 -10.4065,-9.78624 -16.16,-22.46477 -2.8874,-6.36283 -5.6135,-11.44216 -6.058,-11.28757 -1.5085,0.52482 -9.7154,14.16736 -14.9444,24.84219 -2.8636,5.84603 -8.21942,17.8196 -11.90192,26.60804 -12.7385,30.40136 -13.4819,31.55965 -20.66133,32.19025 -5.60298,0.49208 -8.78118,-1.21262 -10.20494,-5.4739 -1.70839,-5.11279 -1.21091,-27.7919 0.89661,-40.87663 2.05938,-12.78548 5.50891,-27.97261 8.32622,-36.65719 1.11409,-3.43447 2.02576,-6.44174 2.02576,-6.68269 0,-0.24094 -1.16123,0.72187 -2.58061,2.1397 -6.86476,6.8579 -44.40458,37.6128 -69.47619,56.9192 -2.29271,1.76551 -4.16858,3.64471 -4.16858,4.17601 0,0.53129 -0.51695,9.86566 -1.14881,20.74306 -0.63184,10.87752 -1.54707,28.4815 -2.03383,39.12012 -2.61344,57.11963 -7.8486,91.26993 -18.71607,122.09053 -12.98813,36.8345 -34.25597,54.3669 -59.48769,49.0388 z m 14.67443,-6.288 c 10.76896,-4.0243 20.77052,-17.9905 27.3754,-38.2271 8.82798,-27.0479 13.0658,-56.00077 15.88589,-108.5328 0.70769,-13.18259 1.7449,-32.48348 2.3049,-42.89087 0.56,-10.40739 0.90576,-19.07614 0.76832,-19.26383 -0.86349,-1.17988 -31.41575,26.26133 -43.56115,39.12552 -27.12163,28.72652 -43.23875,57.39223 -49.35731,87.78612 -2.01748,10.02176 -2.00474,32.47606 0.0231,40.78846 2.0803,8.5272 8.50751,21.9011 13.21211,27.4919 10.46825,12.4402 22.99126,17.5931 33.34871,13.7226 z m 18.86256,-242.88104 c 2.15128,-3.33312 6.41997,-10.79081 9.48597,-16.57267 12.05569,-22.73463 19.30712,-36.92621 19.30712,-37.78564 0,-1.53608 -6.46847,-0.99063 -10.05396,0.84779 -7.25883,3.72183 -14.61633,15.58158 -18.90468,30.47284 -2.42015,8.40394 -5.97796,25.57867 -5.97796,28.85758 0,2.98809 1.18014,1.87009 6.14351,-5.8199 z m -143.2558,-6.70955 c 5.6267,-8.99781 22.77432,-38.26678 22.77432,-38.87303 0,-0.15831 -1.20342,-1.07567 -2.67427,-2.03848 -3.66764,-2.40078 -6.67323,-2.19642 -11.06329,0.75245 -6.08742,4.08894 -10.77237,13.33467 -14.07306,27.77295 -1.92985,8.44181 -3.08184,23.27754 -1.73925,22.39869 0.4789,-0.3135 3.52789,-4.8192 6.77555,-10.01258 z m 405.86176,-5.61566 c 6.0424,-10.53569 10.8283,-23.78101 13.4499,-37.22398 1.4238,-7.30129 1.1738,-8.64452 -1.9251,-10.34191 -2.0138,-1.10288 -2.4287,-1.04448 -4.8476,0.68193 -7.2322,5.1622 -11.806,20.75014 -11.8115,40.25503 0,13.4126 0.7128,14.33787 5.1343,6.62893 z m 252.174,-14.96211 c 7.3277,-8.46378 22.9759,-31.74015 22.9759,-34.17631 0,-2.24608 -4.0362,-6.36343 -7.2321,-7.37757 -4.1267,-1.30965 -7.6487,0.38845 -11.1136,5.35816 -5.6931,8.16564 -12.4389,27.7931 -13.212,38.44203 l -0.4537,6.24914 2.4209,-1.82584 c 1.3315,-1.00418 4.308,-4.00546 6.6146,-6.66961 z m -163.6173,-47.96696 c 9.648,-8.5517 25.4843,-25.86952 34.4416,-37.6638 27.1624,-35.76564 36.2574,-64.11846 23.5218,-73.32618 -3.6226,-2.61905 -5.373,-2.39418 -10.9198,1.40296 -21.8319,14.94571 -42.7763,55.15336 -54.5698,104.75966 -1.5377,6.46813 -2.7959,12.06364 -2.7959,12.43423 0,1.16333 2.536,-0.70567 10.3221,-7.60687 z m 86.3171,-2.92153 c -1.9408,-1.53644 -0.5448,-3.20696 3.0936,-3.70203 2.1099,-0.28724 3.5962,1.2e-4 4.68,0.90476 1.5696,1.31012 1.5701,1.34011 0.047,2.58703 -1.8739,1.53368 -6.0081,1.64486 -7.8203,0.21024 z m -515.9872,-61.2268 c -8.82827,-1.09425 -16.09713,-6.70391 -20.22515,-15.60856 -2.10893,-4.54923 -2.29556,-5.70393 -2.29556,-14.20286 0,-8.42984 0.19734,-9.67664 2.22353,-14.04682 8.42858,-18.17953 33.41017,-22.04623 46.35244,-7.17476 5.34012,6.13616 7.37945,11.88974 7.39341,20.85879 0.031,19.97598 -13.9524,32.59059 -33.44867,30.17421 z m 15.25107,-5.63269 c 10.02643,-5.37891 13.79503,-20.43291 8.7152,-34.81339 -5.85102,-16.56357 -23.98473,-21.48267 -34.33346,-9.31361 -5.34706,6.28763 -6.89745,17.64763 -3.82948,28.05946 4.49818,15.26556 17.60871,22.41898 29.44774,16.06754 z m 331.73613,4.21846 c -1.108,-1.27942 -9.4877,-12.5358 -18.6214,-25.01417 l -16.6067,-22.68798 -0.2123,21.32257 c -0.1497,15.02534 0.055,21.66389 0.6926,22.47786 0.4978,0.63528 2.2906,1.15506 3.984,1.15506 2.5495,0 3.0788,0.28915 3.0788,1.68204 0,1.57997 -0.5293,1.68191 -8.7341,1.68191 -8.1096,0 -8.7342,-0.11633 -8.7342,-1.62867 0,-1.22281 0.6431,-1.69438 2.5805,-1.89227 l 2.5806,-0.26349 0.2102,-25.39123 0.2101,-25.39136 -3.3794,-0.25917 c -2.4675,-0.18925 -3.4505,-0.65638 -3.6429,-1.73097 -0.2344,-1.30857 0.4689,-1.46735 6.3453,-1.43197 l 6.6089,0.0396 3.2369,4.37545 c 1.7804,2.40654 9.2839,12.66186 16.6744,22.78969 l 13.4372,18.41424 0.2133,-20.07961 c 0.1173,-11.04374 0.038,-20.56016 -0.1735,-21.14746 -0.2242,-0.61885 -1.7331,-1.06787 -3.5879,-1.06787 -2.6716,0 -3.201,-0.27812 -3.201,-1.68204 0,-1.57997 0.5294,-1.68191 8.7342,-1.68191 8.1141,0 8.7341,0.11633 8.7341,1.63118 0,1.27787 -0.6449,1.68779 -2.9775,1.89228 l -2.9776,0.26097 -0.397,27.68336 c -0.2609,18.18612 -0.6824,27.78398 -1.2289,27.97659 -0.4575,0.16131 -1.7385,-0.75353 -2.8467,-2.03284 z m -462.01051,-1.01138 c 0,-1.22281 0.64314,-1.69438 2.58055,-1.89227 l 2.58054,-0.26349 0.505,-10.93305 c 0.27773,-6.01311 0.54572,-17.46126 0.59551,-25.44016 l 0.0906,-14.50724 h -3.17606 c -2.6467,0 -3.17605,-0.2804 -3.17605,-1.68204 0,-1.53859 0.52935,-1.68203 6.20752,-1.68203 h 6.20751 l 9.07725,22.68103 c 4.99248,12.47452 9.28534,22.69266 9.5397,22.70693 0.51262,0.0288 3.09907,-6.19984 12.29937,-29.61917 l 6.19473,-15.76879 h 6.6005 c 6.07116,0 6.6005,0.13492 6.6005,1.68203 0,1.39396 -0.52934,1.68204 -3.0911,1.68204 -2.08622,0 -3.24778,0.43247 -3.57306,1.33028 -0.26509,0.7317 -0.48196,11.82017 -0.48196,24.6413 0,17.00936 0.25757,23.58375 0.95281,24.32013 0.52406,0.55504 2.13193,1.00922 3.57307,1.00922 2.0909,0 2.62024,0.33977 2.62024,1.68204 0,1.59148 -0.52934,1.68191 -9.84022,1.68191 -8.24053,0 -9.91857,-0.21624 -10.32218,-1.33028 -0.72338,-1.99661 -0.68439,-2.03367 2.13829,-2.03367 1.44114,0 3.04901,-0.45418 3.57306,-1.00922 0.68923,-0.73002 0.95282,-6.70931 0.95282,-21.61364 0,-11.33242 -0.29394,-20.24499 -0.65322,-19.80556 -0.53156,0.65015 -12.36249,30.10981 -17.12362,42.63866 -2.05314,5.40278 -1.37092,6.51562 -11.98776,-19.55322 -2.91987,-7.16949 -6.32085,-15.30622 -7.55772,-18.08143 l -2.24887,-5.04599 -0.0647,20.72471 c -0.0716,22.9077 -0.34742,21.74569 5.16123,21.74569 2.18476,0 2.71411,0.32801 2.71411,1.68204 0,1.57997 -0.52935,1.68191 -8.73415,1.68191 -8.10956,0 -8.73416,-0.11633 -8.73416,-1.62867 z m 179.44711,0 c 0,-1.27786 0.64492,-1.68779 2.97754,-1.89227 l 2.97755,-0.26097 0.21008,-25.39363 0.21008,-25.39364 -3.776,-0.25689 c -2.91515,-0.19825 -3.83895,-0.60769 -4.05213,-1.79609 -0.26247,-1.46304 0.66131,-1.52552 18.65218,-1.26144 17.24933,0.25306 19.24883,0.43476 22.54172,2.04855 5.29459,2.59483 9.13575,6.54692 11.61696,11.9527 1.91973,4.18248 2.19503,5.77493 2.2072,12.76788 0.013,7.41187 -0.18033,8.40082 -2.67261,13.67791 -3.09967,6.56312 -7.24837,10.88796 -13.22395,13.78561 -5.84239,2.83302 -11.51658,3.64304 -25.55992,3.64867 -11.45533,0 -12.1087,-0.0828 -12.1087,-1.62639 z m 34.36681,-4.88767 c 8.32428,-4.12587 11.89113,-10.55731 12.00952,-21.65454 0.0614,-5.76341 -0.24807,-7.41822 -2.15931,-11.54206 -4.22023,-9.10614 -12.06921,-13.88539 -23.4849,-14.30012 -3.46413,-0.1258 -6.51939,0 -6.78947,0.28652 -0.2701,0.2834 -0.49313,11.41709 -0.49565,24.74157 -0.003,18.7907 0.22439,24.39376 1.01585,24.97267 0.56123,0.41041 4.11962,0.58479 7.90756,0.38738 5.53933,-0.28879 7.88705,-0.85463 11.9964,-2.89142 z m 49.79858,4.88767 c 0,-1.27786 0.64496,-1.68779 2.97765,-1.89227 l 2.97753,-0.26097 v -25.23005 -25.22992 l -3.77162,-0.2563 c -3.1238,-0.2124 -3.77151,-0.53729 -3.77151,-1.89227 0,-1.57914 0.72584,-1.63598 20.92826,-1.63598 h 20.92825 l 0.51012,5.16939 c 0.75507,7.65185 0.68232,8.28665 -0.94936,8.28665 -1.16354,0 -1.60641,-0.98068 -2.18356,-4.83575 l -0.72409,-4.83574 -11.27518,-0.23303 c -10.21121,-0.2112 -11.34805,-0.0888 -12.04664,1.29346 -0.80617,1.59556 -0.56331,16.3904 0.2932,17.85823 0.27649,0.47373 3.94755,0.8448 8.35831,0.8448 8.57656,0 9.50921,-0.5307 9.50921,-5.41118 0,-1.35738 0.44188,-2.1578 1.19113,-2.1578 0.99244,0 1.19101,1.68204 1.19101,10.09197 0,8.41006 -0.19857,10.09197 -1.19101,10.09197 -0.87409,0 -1.19113,-0.96245 -1.19113,-3.61628 0,-1.98894 -0.42869,-4.07035 -0.95276,-4.62551 -0.61101,-0.64703 -3.73448,-1.0091 -8.70624,-1.0091 -9.66427,0 -9.5257,-0.20101 -9.34657,13.55007 0.19429,14.9204 -1.19244,13.52428 13.11984,13.2091 7.65017,-0.16838 12.49467,-0.62005 13.0571,-1.21718 0.49177,-0.52218 1.09167,-2.50908 1.33299,-4.41527 0.34781,-2.74582 0.76771,-3.46577 2.02169,-3.46577 1.31783,0 1.50674,0.40249 1.1286,2.4051 -0.24979,1.32272 -0.69782,4.35038 -0.99563,6.7279 l -0.54133,4.32292 h -20.93913 c -20.19252,0 -20.93913,-0.0576 -20.93913,-1.63119 z m 73.57869,1.07051 c -1.4164,-1.5001 -0.3651,-2.80327 2.2613,-2.80327 h 2.7907 l -0.2101,-25.44017 -0.2101,-25.44028 -3.1684,-0.42048 c -2.1877,-0.29036 -3.2502,-0.8761 -3.4328,-1.89228 -0.2436,-1.35594 0.8219,-1.47179 13.54762,-1.47179 16.1841,0 19.629,0.84983 23.9413,5.90541 6.6506,7.79709 5.098,17.57556 -3.5122,22.11999 l -3.9276,2.07313 8.5709,12.073 c 8.0714,11.36923 8.7418,12.08822 11.5009,12.33396 2.3089,0.20568 2.9301,0.61441 2.9301,1.92765 0,1.53824 -0.4701,1.64774 -6.1031,1.42095 l -6.1032,-0.24562 -8.6523,-13.24568 -8.6523,-13.2458 h -4.7204 -4.7202 l 0.2209,11.56376 0.2209,11.56377 4.5655,0.25222 c 3.916,0.21635 4.5656,0.4856 4.5656,1.89227 0,1.54399 -0.6196,1.63994 -10.5868,1.63994 -5.82292,0 -10.82502,-0.25222 -11.11622,-0.56068 z m 24.38102,-29.78791 c 5.783,-1.70075 8.4076,-7.32552 6.6328,-14.21449 -1.5161,-5.88502 -9.0084,-10.63274 -15.7122,-9.95669 l -2.7297,0.27537 -0.2227,11.31107 c -0.1224,6.22107 -0.044,11.80315 0.1736,12.40472 0.4912,1.3557 7.4988,1.46208 11.8582,0.18002 z m 12.922,-57.71162 c -0.8092,-0.22079 -5.1731,-1.6722 -9.6976,-3.22543 -6.175,-2.1199 -10.7578,-3.05404 -18.379,-3.74605 -16.98472,-1.54243 -33.49438,-5.18786 -42.10226,-9.29634 -6.69069,-3.19353 -16.12232,-10.21083 -22.08575,-16.43226 -6.40717,-6.68424 -8.35347,-11.80866 -9.0092,-23.71963 l -0.47671,-8.65868 -5.93706,7.67176 c -7.6051,9.82717 -18.73413,21.19293 -23.01808,23.50784 -7.93683,4.28862 -16.7578,0.30223 -16.66578,-7.53168 0.0488,-4.15826 1.67329,-8.53514 5.15489,-13.88935 2.98088,-4.58425 12.12881,-14.41525 16.64564,-17.8887 l 2.38204,-1.83171 -2.77904,-0.012 c -1.52849,0 -5.79581,0.50946 -9.48296,1.14426 l -6.70391,1.15422 -4.74868,5.34677 c -24.83964,27.96796 -32.12191,34.21301 -38.791,33.26556 -4.3674,-0.62053 -7.76462,-4.14135 -7.76462,-8.04715 0,-6.54008 7.83323,-17.38882 17.38437,-24.07666 5.40255,-3.78299 6.06101,-5.04011 2.26747,-4.32892 -1.41931,0.26601 -6.66724,0.74501 -11.6621,1.06427 -8.78299,0.5614 -9.16265,0.66646 -11.54841,3.19329 -5.28477,5.59755 -23.96652,15.66757 -34.35656,18.51917 -9.40468,2.58116 -17.08762,1.35499 -21.23938,-3.38997 -4.16696,-4.76235 -1.50075,-10.16537 7.45179,-15.10102 l 5.25302,-2.8961 -6.35211,0.24886 c -3.85228,0.15087 -9.4769,1.17125 -14.29225,2.59255 -6.49863,1.9183 -10.10239,2.42261 -19.85034,2.77761 -12.78124,0.46545 -18.69253,-0.37383 -27.56845,-3.91384 -4.82848,-1.92585 -11.30604,-7.62726 -12.10483,-10.65432 -0.72485,-2.74703 2.78615,-6.58231 7.29597,-7.96967 6.46375,-1.98858 24.76868,-1.36962 37.85551,1.28002 14.25851,2.88687 19.53164,5.0539 21.12126,8.67978 l 1.19102,2.71669 11.11619,-0.51091 c 6.11391,-0.28112 11.39216,-0.77404 11.72945,-1.09557 0.33731,-0.32154 -2.75753,-1.9977 -6.87741,-3.72483 -19.93317,-8.3562 -35.42156,-23.03386 -35.42156,-33.56742 0,-9.91136 17.44596,-10.33579 39.30367,-0.95621 20.24363,8.68697 34.5396,21.55475 34.5396,31.08904 0,1.78458 -0.32743,2.1385 -1.77584,1.91926 -1.33888,-0.20256 -1.89008,-0.99303 -2.2401,-3.21223 -0.25534,-1.61896 -1.06545,-4.15742 -1.80023,-5.64109 -3.26198,-6.58674 -21.15043,-18.13396 -34.67853,-22.38552 -9.03396,-2.83913 -10.98489,-3.21056 -17.05732,-3.24761 -8.60222,-0.0528 -11.37934,3.20312 -8.36258,9.80365 2.05514,4.49658 10.18381,12.73598 16.00465,16.22262 11.01975,6.60089 30.04889,11.97597 42.39782,11.97597 5.45589,0 7.45398,0.34444 9.40495,1.62159 2.24358,1.46867 3.22618,1.55083 10.41589,0.87106 4.36626,-0.41293 10.43978,-0.76996 13.49673,-0.79359 8.53152,-0.066 8.47376,-1.0867 -0.2068,-3.65514 -14.88656,-4.40448 -28.36806,-13.08785 -30.38888,-19.57337 -0.83933,-2.69366 -0.7529,-3.1885 0.87817,-5.0274 0.99501,-1.12184 3.08622,-2.41553 4.64712,-2.87475 12.1672,-3.57995 41.96452,4.91262 55.48822,15.81473 3.15874,2.5465 4.91578,5.89558 4.91578,9.3701 0,2.93172 -0.32206,2.8696 8.75498,1.69151 10.29755,-1.33627 10.59803,-1.62135 3.90322,-3.70263 -15.56628,-4.83911 -26.95044,-15.38226 -26.95044,-24.95925 0,-11.99767 16.62257,-17.08024 36.5062,-11.16247 8.75492,2.60562 8.01952,2.87559 7.46533,-2.73947 -0.33155,-3.35975 -0.0692,-6.69552 0.81694,-10.39984 2.83127,-11.83169 7.99215,-19.31696 19.0392,-27.61392 4.20767,-3.16018 7.76819,-6.71998 10.26418,-10.26167 7.52115,-10.67256 11.91849,-14.00449 21.66321,-16.41414 7.93427,-1.96208 18.67917,-0.39578 26.58299,3.87509 l 2.8868,1.55983 2.6271,-2.87091 c 7.0441,-7.69767 14.9967,-8.63361 36.1944,-4.25948 8.2521,1.70278 17.3964,3.68129 20.3206,4.39656 13.0041,3.18105 20.9721,10.25208 22.4056,19.88291 0.2558,1.71862 0.6503,4.395 0.8767,5.94763 0.3919,2.68802 0.6668,2.89442 5.7566,4.32124 7.7589,2.17519 13.0748,5.14805 18.4947,10.34311 5.5519,5.32146 7.7085,9.32225 8.7628,16.25607 0.9271,6.09706 -0.2181,17.25211 -2.6028,25.35442 -0.9218,3.13176 -1.5193,5.86032 -1.3276,6.06324 0.1915,0.20292 1.9067,-1.69967 3.8115,-4.22793 5.1244,-6.8019 16.8518,-18.49328 20.5605,-20.49721 5.8873,-3.18129 13.5468,-1.57062 16.0454,3.37427 1.3626,2.69677 0.4883,8.45539 -2.1247,13.99441 -2.2529,4.77554 -12.6473,16.83258 -18.535,21.49971 -1.5151,1.20111 -2.587,2.35257 -2.3821,2.55885 0.2051,0.20628 4.406,-0.284 9.3353,-1.0897 l 8.9625,-1.46484 15.3734,-16.78497 c 21.2295,-23.17874 26.5884,-26.06764 34.3913,-18.53992 2.5321,2.44276 2.2993,6.48348 -0.7194,12.48208 -2.6802,5.32638 -9.9093,13.08845 -16.0008,17.18086 -4.324,2.90474 -4.7229,4.09949 -1.145,3.42872 1.4192,-0.26601 6.6717,-0.74526 11.6719,-1.06487 l 9.0914,-0.58119 3.0522,-3.10646 c 5.3768,-5.4721 23.7561,-15.30322 33.6665,-18.00827 10.2367,-2.79404 19.4868,-0.83352 22.1898,4.70286 2.4784,5.07633 0.2578,8.69046 -8.4792,13.80097 l -5.091,2.97777 7.1461,-0.42312 c 3.9303,-0.23266 9.29,-1.15949 11.9102,-2.05958 11.121,-3.82041 32.1516,-4.53436 42.8093,-1.45332 15.8736,4.5888 23.409,14.78356 14.3084,19.35773 -8.3643,4.20395 -22.9562,3.92571 -45.4734,-0.86698 -11.357,-2.41733 -15.8255,-4.50162 -17.0565,-7.95576 l -0.8593,-2.41109 -10.7595,0.49903 c -14.6996,0.68181 -15.2681,1.0494 -6.6644,4.30913 16.6497,6.30814 30.0691,17.074 35.5132,28.49062 4.1446,8.69165 -2.3719,14.73055 -14.3378,13.28705 -26.2926,-3.17194 -58.222,-23.87326 -58.222,-37.74798 0,-1.9171 0.3058,-2.2697 1.7757,-2.04723 1.339,0.20269 1.8902,0.99303 2.2402,3.21224 0.6538,4.14494 2.5996,7.7424 5.7956,10.71453 10.2669,9.54797 28.1712,18.08539 42.5934,20.31023 16.3893,2.52827 19.4147,-5.85768 6.6583,-18.45669 -10.5932,-10.46256 -30.3767,-18.12796 -49.138,-19.03944 -6.9525,-0.33773 -10.1721,-0.85571 -11.9103,-1.9159 -2.1365,-1.30329 -3.6501,-1.37405 -14.6892,-0.68721 -6.769,0.4212 -13.5578,0.97828 -15.0863,1.23781 -2.5677,0.43607 -2.2659,0.61849 3.9701,2.39827 20.9494,5.97929 35.6026,16.93932 32.4489,24.27048 -1.3967,3.24701 -4.8946,4.29881 -14.1866,4.26595 -11.1036,-0.0396 -23.0794,-3.15911 -35.5908,-9.27176 -10.9196,-5.33514 -16.0201,-10.52708 -16.0201,-16.30753 0,-1.41279 -0.4216,-2.56473 -0.9387,-2.56473 -2.6648,0 -15.421,1.97059 -15.936,2.46183 -0.3286,0.31338 1.9939,1.43918 5.1611,2.50177 22.2233,7.45588 32.8988,24.69107 21.0441,33.97507 -3.2019,2.50752 -4.1977,2.8823 -10.487,3.94645 -9.7327,1.64678 -24.791,-1.94504 -37.8949,-9.03921 -4.9668,-2.68886 -7.3859,-3.60957 -7.6103,-2.8967 -0.8556,2.71884 -7.2229,11.72519 -11.6661,16.50121 -5.8832,6.3241 -11.2046,8.82742 -20.4657,9.62748 l -6.1412,0.53058 -3.3869,5.44955 c -4.0046,6.44331 -8.6686,10.4231 -14.2852,12.18981 -3.8828,1.22126 -10.4277,1.55179 -13.5995,0.68672 z m 13.6477,-6.55783 c 4.1201,-2.37512 7.8827,-5.94056 7.1208,-6.74757 -0.2349,-0.24874 -2.1175,-0.0516 -4.1835,0.43918 -6.8356,1.62267 -22.8277,-2.89801 -34.1699,-9.65926 -18.88012,-11.25446 -21.59892,-12.16762 -46.44998,-15.60292 -19.44646,-2.68814 -23.50567,-3.51843 -27.26872,-5.57789 -1.24156,-0.67941 -2.42774,-1.05491 -2.63599,-0.83436 -0.20824,0.22056 0.38891,1.99434 1.32684,3.94166 3.28733,6.82493 14.30548,16.31664 24.71131,21.28779 6.71904,3.20984 22.31522,6.51538 39.99434,8.47674 8.4056,0.93246 13.149,1.95788 19.4532,4.20503 10.3112,3.67553 15.8189,3.6934 22.1016,0.072 z m 1.2065,-10.5753 c 4.1195,-1.21166 9.257,-6.40372 11.9833,-12.11113 2.1093,-4.41563 2.2157,-5.15332 1.8554,-12.86202 -0.2791,-5.96862 -0.8702,-9.37059 -2.1881,-12.59302 -0.993,-2.42837 -2.0296,-4.41095 -2.3034,-4.40555 -0.2737,0 -2.2434,1.87884 -4.3771,4.16341 -5.8118,6.22251 -8.1717,7.1846 -17.5589,7.15737 -9.4806,-0.0276 -13.2147,-1.4875 -19.1123,-7.47279 l -3.854,-3.91132 -3.9851,1.81576 c -3.3209,1.51317 -4.914,1.73253 -9.55822,1.31613 -8.726,-0.78231 -18.27975,-4.7524 -23.80778,-9.89337 -1.53751,-1.42982 -5.20088,-6.76843 -8.14084,-11.86347 l -5.34539,-9.26385 -3.64491,0.45718 c -4.89538,0.61405 -11.75959,3.97884 -14.55482,7.13471 -2.58192,2.91493 -4.88274,11.62853 -5.75133,21.7819 -0.51496,6.01791 -0.49177,6.12009 1.92828,8.51452 2.96314,2.93172 9.00657,4.83071 19.20404,6.03434 31.88485,3.76356 39.32815,5.66375 50.69607,12.94249 9.1176,5.83765 17.5109,9.8448 24.797,11.83841 8.6115,2.35629 9.5665,2.44132 13.7181,1.2203 z m 21.4258,-7.40371 c 2.8643,-2.00009 6.9645,-8.0896 9.2712,-13.76906 1.6448,-4.04936 1.7996,-5.78213 1.8988,-21.22915 0.15,-23.39438 0.6079,-24.56322 17.7362,-45.26599 9.7115,-11.73815 12.6572,-17.00408 13.443,-24.03181 1.1577,-10.35378 -3.441,-17.09452 -14.0937,-20.65887 -3.5822,-1.1986 -6.6777,-2.00477 -6.8789,-1.79166 -0.2014,0.21324 0.3925,5.08461 1.3195,10.82524 1.4261,8.83137 1.5453,11.13729 0.7747,14.98384 -1.7917,8.94219 -6.0097,15.07823 -12.0317,17.50324 -2.0487,0.82501 -2.1801,1.18708 -2.1801,6.01155 0,8.18351 -5.2445,20.89442 -13.4681,32.6418 l -4.8798,6.971 2.3972,3.95677 c 3.6704,6.0582 5.1171,13.29125 4.565,22.82279 -0.2545,4.39452 -0.6969,9.03082 -0.9832,10.30281 -0.6115,2.71752 0.042,2.87031 3.1099,0.7275 z m 19.8928,-12.00991 c 7.9043,-10.46376 11.5735,-19.79429 11.6191,-29.54709 0.022,-4.7795 1.448,-9.42612 8.1824,-26.67174 4.5503,-11.6524 6.4082,-18.25329 7.2163,-25.63938 l 0.46,-4.20502 -2.3784,5.04598 c -1.3081,2.77533 -5.99,9.58742 -10.404,15.13796 -16.5696,20.83565 -17.6234,23.54825 -17.8047,45.83447 -0.1327,16.29841 -0.6415,19.29753 -4.3524,25.65748 -0.8712,1.4929 -1.584,2.96242 -1.584,3.26537 0,1.52288 4.5973,-2.98929 9.0457,-8.87803 z M 895.13881,565.7363 c 1.6986,-1.20003 4.81096,-3.94382 6.91636,-6.09718 5.29068,-5.4113 23.06007,-27.85834 22.51236,-28.43857 -1.03683,-1.09809 -17.21438,11.29201 -23.65254,18.11501 -6.96686,7.38333 -10.23096,12.63691 -10.23096,16.4668 0,2.67818 0.60786,2.67194 4.45478,-0.0456 z m 250.77249,-1.23517 c 9.3245,-3.69508 10.1233,-11.33961 1.9586,-18.74177 -5.1192,-4.64122 -11.3408,-6.56587 -22.8256,-7.06143 -7.7657,-0.33497 -10.855,-0.12005 -14.8878,1.03621 -4.617,1.3238 -5.0896,1.66464 -5.0981,3.67829 -0.011,1.22066 -0.5404,4.30085 -1.1893,6.84495 -1.1504,4.51013 -1.1353,4.66521 0.605,6.21951 0.9815,0.8767 3.9359,2.66943 6.5652,3.98376 11.4499,5.7236 26.2869,7.44269 34.872,4.04048 z m -290.67638,-7.43346 c 6.89886,-7.03372 13.56171,-15.13543 12.96611,-15.76627 -0.75882,-0.80366 -11.77157,7.34159 -16.13829,11.93627 -3.4177,3.59614 -7.4315,9.92899 -7.4315,11.72508 0,1.32404 5.7886,-2.98593 10.60368,-7.89508 z m -60.57215,-4.78897 c 9.04475,-2.8155 30.64478,-15.40108 27.63435,-16.10148 -2.35352,-0.54761 -21.3846,3.98663 -27.89661,6.64659 -7.08729,2.8949 -12.27791,7.15461 -11.46207,9.40656 0.66239,1.82823 5.93653,1.85006 11.72433,0.048 z m 246.12923,-1.22809 c 3.6991,-2.7571 15.2562,-16.27155 18.6583,-21.81837 4.1171,-6.71219 9.5798,-18.26648 8.9512,-18.93234 -0.5795,-0.61381 -7.3522,4.06399 -10.7394,7.41751 -1.4589,1.44433 -4.8353,7.39651 -7.9161,13.95495 -4.1612,8.85812 -6.407,12.56567 -9.9619,16.44593 -2.5242,2.75518 -4.5896,5.14601 -4.5896,5.31283 0,0.62448 3.6467,-0.92647 5.5975,-2.38051 z m 162.5834,-0.70832 c 8.2793,-4.69314 -13.0082,-15.71578 -32.0075,-16.57341 -20.4105,-0.92143 -20.2473,-0.92263 -20.2473,0.16347 0,5.11914 15.9858,13.69662 31.3635,16.82874 6.3325,1.28974 18.3005,1.04988 20.8913,-0.4188 z m -171.8956,-3.04469 c 4.7217,-3.81873 7.6881,-8.42265 14.0511,-21.80709 5.0541,-10.63154 5.2995,-10.97491 10.3231,-14.44763 7.792,-5.38659 9.6142,-7.0913 10.8046,-10.10924 1.8806,-4.76703 1.4248,-7.50878 -1.6629,-10.00323 -1.5144,-1.22341 -3.1533,-2.0832 -3.642,-1.91062 -0.4887,0.17246 -1.567,2.35389 -2.396,4.8475 -0.829,2.49361 -2.2951,5.42185 -3.2578,6.50723 -1.9811,2.23359 -12.2709,5.96501 -17.3195,6.28043 -2.9583,0.18494 -3.4809,0.55001 -4.8466,3.38542 -1.6167,3.3564 -3.7398,4.87413 -9.2569,6.61769 -3.2676,1.0326 -3.3745,1.17724 -3.3745,4.56338 0,5.13113 -1.5244,12.9985 -3.2528,16.78749 -1.9693,4.31728 -1.9364,4.64637 0.8757,8.75809 2.1684,3.17051 2.7032,3.49024 5.8409,3.49024 2.7283,0 4.2226,-0.62184 7.1136,-2.95966 z m -26.3991,-4.46804 c 6.82,-4.58101 9.0259,-8.83197 10.0019,-19.27402 l 0.4913,-5.25635 h -7.0624 c -8.84922,-0.012 -12.63352,-1.10216 -15.95792,-4.62334 -2.4464,-2.59076 -2.6178,-3.1458 -2.6178,-8.4759 0,-3.15395 0.7447,-8.62689 1.666,-12.24306 1.662,-6.52414 1.6622,-6.54512 0.097,-8.88774 -0.8632,-1.29154 -2.2268,-4.56686 -3.0301,-7.27827 l -1.4605,-4.93001 -4.2625,0.53058 c -9.36679,1.16609 -14.69625,6.72502 -15.78539,16.46511 -0.66441,5.94187 0.0868,7.94245 5.15296,13.73165 2.50489,2.86203 5.30616,6.33896 6.22508,7.72656 2.07095,3.12709 5.33035,12.6326 6.63255,19.34299 1.5659,8.06849 2.9047,10.79045 6.5329,13.28226 4.4781,3.07539 8.69142,3.04229 13.37742,-0.10554 z m -22.21632,-4.87604 c -0.8729,-1.79009 -2.0138,-5.14709 -2.5352,-7.45984 -4.199,-18.62376 -3.9746,-18.10757 -11.73609,-26.99723 l -5.06549,-5.80168 0.40298,6.30755 c 0.53188,8.32622 2.06378,12.67349 8.3827,23.78847 3.51656,6.18581 6.31003,10.06774 8.3968,11.66883 1.7199,1.3196 3.2654,2.2529 3.4343,2.07397 0.1689,-0.17894 -0.407,-1.78998 -1.28,-3.58007 z m -231.13274,-2.84789 c 9.54526,-1.2865 22.23239,-4.47151 22.23239,-5.58124 0,-3.09674 -27.01772,-7.59044 -41.03401,-6.82492 -8.73715,0.47721 -14.1867,2.32367 -15.01488,5.08748 -1.72019,5.74051 16.41139,9.66466 33.8165,7.31868 z m 567.49146,-3.71043 c 4.1185,-1.82151 5.151,-4.35806 2.6477,-6.50507 -3.6927,-3.16714 -16.2597,-5.33897 -26.3528,-4.5545 -11.7902,0.91639 -28.4714,4.48698 -28.4714,6.09418 0,1.73636 9.2342,4.06123 25.8055,6.49679 1.31,0.19261 7.0269,0.25965 12.7041,0.14896 7.7147,-0.1504 11.1672,-0.57495 13.6669,-1.68036 z m -198.3392,-9.01523 c 10.8582,-6.48672 24.2963,-19.40007 27.8361,-26.74909 1.6415,-3.40821 2.1512,-7.6076 0.9233,-7.6076 -1.1774,0 -6.7124,4.21714 -10.316,7.85981 -4.0722,4.11652 -24.1681,29.14412 -23.4011,29.14412 0.2894,0 2.5205,-1.19127 4.9577,-2.64724 z m -230.99443,-0.39301 c 7.9e-4,-1.84634 -3.28966,-5.31547 -7.41147,-7.81328 -5.49926,-3.33253 -19.23766,-8.16024 -26.73056,-9.39325 -6.41651,-1.05588 -15.58725,-0.61249 -18.22186,0.88089 -7.62473,4.32208 11.76008,14.95962 30.49399,16.73376 9.3113,0.88174 21.86928,0.64739 21.8699,-0.40812 z m 338.52273,-3.72423 c 10.2777,-2.19018 19.9059,-5.31091 23.8704,-7.737 3.6712,-2.24667 6.4715,-5.92712 5.62,-7.38644 -0.9628,-1.65001 -9.5953,-0.50035 -15.8674,2.11331 -6.5069,2.7114 -19.0073,9.81205 -22.3114,12.67361 -2.964,2.56689 -1.9609,2.60574 8.6884,0.33652 z m -295.88746,-2.55249 2.53697,-1.19548 -2.77203,-4.69614 c -1.52465,-2.58296 -3.76624,-7.31353 -4.98132,-10.51257 -2.16169,-5.69146 -2.30148,-5.85144 -6.51399,-7.4554 -3.36611,-1.28171 -6.46926,-1.64846 -14.23006,-1.68192 -8.74344,-0.0372 -10.31251,0.17654 -13.17844,1.80089 -11.46035,6.49511 -4.92039,19.82307 11.95451,24.36222 5.34617,1.4381 23.70417,1.01834 27.18436,-0.6216 z m 14.27437,0.012 c 1.22409,-0.49292 4.19514,-1.16501 6.60234,-1.4935 4.32064,-0.58958 4.37163,-0.62928 3.97976,-3.09854 -0.21836,-1.37561 -0.39705,-6.6737 -0.39705,-11.77329 0,-8.76937 0.14056,-9.57423 2.5905,-14.84209 4.77351,-10.26371 10.92859,-14.77384 21.29562,-15.60437 l 5.8895,-0.47168 v -4.71438 c 0.011,-9.76792 2.7598,-15.15331 9.7079,-19.00634 l 4.26692,-2.36624 0.9231,-5.5473 c 0.5077,-3.05105 1.1561,-6.58974 1.4408,-7.86377 0.4749,-2.12566 0.2154,-2.45799 -3.15312,-4.03616 -9.487,-4.44489 -21.44394,-4.77146 -24.42675,-0.66718 -3.57788,4.92258 -7.02598,15.75272 -7.02598,22.06686 0,5.54718 -3.14204,16.17524 -6.3109,21.34692 -1.62267,2.6482 -6.58894,8.97781 -11.03606,14.06589 -12.40697,14.19506 -14.94571,21.66941 -10.49759,30.90663 2.03773,4.23177 2.61258,4.52165 6.14628,3.09854 z m 75.22119,-2.58404 c 4.4278,-1.22881 7.6162,-4.86728 7.6162,-8.69129 0,-5.2224 -3.2592,-10.11212 -4.485,-6.72862 -0.6288,1.73552 -6.7346,5.44416 -8.963,5.44416 -2.94,0 -7.0158,-2.48762 -7.513,-4.58545 -0.7383,-3.11594 0.9695,-7.18856 3.0145,-7.18856 2.4606,0 3.6542,1.56582 3.6542,4.79377 0,1.73049 0.3925,2.77521 1.0425,2.77521 1.8214,0 5.4111,-4.73908 6.1399,-8.10579 0.9473,-4.37665 0.096,-11.40294 -1.7771,-14.66495 -1.4276,-2.48665 -1.7685,-2.63813 -5.0528,-2.24607 -4.7324,0.565 -11.1771,5.73451 -14.0018,11.23144 -3.05402,5.94331 -5.70062,17.38918 -5.09792,22.04695 0.5289,4.08726 1.5268,5.81307 4.03042,6.97052 1.9447,0.89913 17.0378,0.15735 21.3929,-1.05132 z m 155.9363,-1.25735 c 9.0822,-6.12969 16.4199,-14.09288 18.01,-19.54543 l 0.5823,-1.9965 -3.3721,1.9965 c -1.8545,1.09809 -7.2522,6.32085 -11.9948,11.60598 -10.6744,11.8955 -11.274,13.37161 -3.2254,7.93945 z m -132.3094,-11.71321 c 3.1586,-1.1066 3.9738,-1.87872 5.541,-5.24854 1.5256,-3.28036 1.8842,-5.593 2.1122,-13.62263 0.1511,-5.31931 -0.081,-10.65997 -0.5171,-11.86803 -0.921,-2.55526 -3.7575,-3.50847 -14.7108,-4.94333 -8.1001,-1.06103 -11.9308,-2.85904 -17.5672,-8.24539 -5.5121,-5.2675 -13.0353,-8.92684 -17.1509,-8.34217 -7.17072,1.01869 -9.80952,5.27014 -9.76822,15.73797 0.028,6.95517 1.4389,15.57283 2.6843,16.38812 0.3395,0.22223 1.8453,-0.81973 3.3463,-2.31527 7.72642,-7.69875 17.45802,-9.99519 23.08672,-5.44788 3.468,2.80172 4.8174,6.74673 4.8919,14.30204 0.045,4.61147 0.3148,5.77349 1.425,6.14695 1.7411,0.58575 4.3149,4.38972 5.0397,7.44893 0.5369,2.26526 0.7061,2.33878 4.2214,1.83327 2.0143,-0.28964 5.3287,-1.11044 7.3657,-1.82404 z m -110.87945,-4.6513 c 0.60771,-2.93052 5.18638,-9.20927 13.45513,-18.45105 3.11677,-3.48352 6.79838,-8.07557 8.18127,-10.20447 3.31348,-5.10103 6.28794,-14.73906 6.96488,-22.56829 0.29989,-3.46913 1.43244,-8.69933 2.51653,-11.62266 1.0842,-2.92332 1.80817,-5.48781 1.60894,-5.69889 -0.42935,-0.45478 -4.41339,4.27183 -9.12954,10.83123 -1.94301,2.70229 -6.05529,6.69996 -9.65999,9.39061 -14.23041,10.62183 -19.79493,21.39957 -18.88623,36.58022 0.43496,7.26747 2.54303,15.54884 3.7558,14.7549 0.36198,-0.23687 0.89892,-1.59221 1.19321,-3.0116 z m 145.08775,-5.6472 c 2.9199,-2.88434 5.4414,-10.30341 5.4661,-16.08217 0.011,-2.57672 -0.721,-8.65868 -1.6266,-13.51541 -1.4728,-7.89975 -1.917,-9.07555 -4.2136,-11.1548 -3.0854,-2.79344 -8.2093,-4.90315 -18.8403,-7.75751 -4.3707,-1.17353 -8.9364,-2.58584 -10.146,-3.1386 -3.6422,-1.66429 -10.7155,-6.57919 -14.3898,-9.99842 -6.1866,-5.75766 -17.4316,-8.90957 -22.2907,-6.24818 -2.9574,1.61991 -7.0599,9.89145 -7.7985,15.72358 l -0.4423,3.49264 4.4911,-0.55912 c 7.1492,-0.88989 29.8784,2.22676 36.0041,4.93696 8.2908,3.66834 13.5105,15.01587 14.4691,31.4564 l 0.4619,7.92242 3.1761,1.12075 c 1.7468,0.61633 4.7839,2.59316 6.7491,4.39272 3.9417,3.60981 4.7307,3.55752 8.9303,-0.59126 z m -28.7884,-27.7053 c -0.014,-2.68646 -3.6989,-9.91796 -6.1804,-12.12961 -1.6029,-1.4285 -4.1718,-2.50512 -7.458,-3.1254 -8.822,-1.66537 -19.1765,-2.74391 -23.6725,-2.46591 l -4.367,0.27009 4.7957,2.65623 c 2.6376,1.46088 6.568,4.33563 8.7341,6.3885 5.4006,5.11794 6.4562,5.59575 15.5258,7.02653 4.3672,0.68888 8.7276,1.58837 9.6897,1.99865 2.5597,1.09161 2.9413,1.01114 2.9326,-0.61908 z m 29.8818,-20.84956 c -0.5671,-5.11135 -3.1581,-10.21778 -6.2854,-12.38818 -3.2367,-2.24631 -10.6681,-4.56266 -20.8096,-6.48648 -5.2405,-0.99411 -12.2676,-2.53906 -15.6156,-3.43327 -6.2682,-1.67412 -15.748,-2.20277 -15.748,-0.87837 0,0.41112 1.1613,0.98223 2.5806,1.26911 4.2441,0.85811 10.6728,4.40771 15.4541,8.5331 6.1941,5.34426 10.2242,7.3284 21.143,10.40907 5.1711,1.45908 11.6026,3.74138 14.2922,5.07177 2.6897,1.3304 5.0287,2.4514 5.198,2.49121 0.1693,0.0396 0.076,-2.0248 -0.2093,-4.58796 z"
     id="path5650"
     inkscape:connector-curvature="0" />
</svg>
